<svg width="400" height="200" viewBox="0 0 400 200" fill="none" xmlns="http://www.w3.org/2000/svg">
<g clip-path="url(#clip0_21_2150)">
<path d="M390 0H10C4.47715 0 0 4.47715 0 10V190C0 195.523 4.47715 200 10 200H390C395.523 200 400 195.523 400 190V10C400 4.47715 395.523 0 390 0Z" fill="#F9FAFB" stroke="#E5E7EB"/>
<path d="M372 20H28C23.5817 20 20 23.5817 20 28V112C20 116.418 23.5817 120 28 120H372C376.418 120 380 116.418 380 112V28C380 23.5817 376.418 20 372 20Z" fill="white" stroke="#E5E7EB"/>
<path d="M145.708 146.438H143.219C143.174 146.116 143.081 145.83 142.941 145.58C142.801 145.326 142.621 145.11 142.401 144.932C142.182 144.754 141.928 144.617 141.64 144.523C141.356 144.428 141.047 144.381 140.714 144.381C140.112 144.381 139.587 144.53 139.14 144.83C138.693 145.125 138.346 145.557 138.1 146.125C137.854 146.689 137.731 147.375 137.731 148.182C137.731 149.011 137.854 149.708 138.1 150.273C138.35 150.837 138.699 151.263 139.146 151.551C139.593 151.839 140.11 151.983 140.697 151.983C141.026 151.983 141.331 151.939 141.612 151.852C141.896 151.765 142.147 151.638 142.367 151.472C142.587 151.301 142.769 151.095 142.913 150.852C143.06 150.61 143.163 150.333 143.219 150.023L145.708 150.034C145.644 150.568 145.483 151.083 145.225 151.58C144.971 152.072 144.629 152.513 144.197 152.903C143.769 153.29 143.257 153.597 142.663 153.824C142.072 154.047 141.403 154.159 140.657 154.159C139.619 154.159 138.691 153.924 137.873 153.455C137.058 152.985 136.415 152.305 135.941 151.415C135.471 150.525 135.237 149.447 135.237 148.182C135.237 146.913 135.475 145.833 135.952 144.943C136.43 144.053 137.077 143.375 137.896 142.909C138.714 142.439 139.634 142.205 140.657 142.205C141.331 142.205 141.956 142.299 142.532 142.489C143.112 142.678 143.625 142.955 144.072 143.318C144.519 143.678 144.882 144.119 145.163 144.642C145.447 145.165 145.629 145.763 145.708 146.438ZM151.37 154.17C150.487 154.17 149.724 153.983 149.08 153.608C148.44 153.229 147.946 152.703 147.597 152.028C147.249 151.35 147.075 150.564 147.075 149.67C147.075 148.769 147.249 147.981 147.597 147.307C147.946 146.629 148.44 146.102 149.08 145.727C149.724 145.348 150.487 145.159 151.37 145.159C152.253 145.159 153.014 145.348 153.654 145.727C154.298 146.102 154.794 146.629 155.143 147.307C155.491 147.981 155.665 148.769 155.665 149.67C155.665 150.564 155.491 151.35 155.143 152.028C154.794 152.703 154.298 153.229 153.654 153.608C153.014 153.983 152.253 154.17 151.37 154.17ZM151.381 152.295C151.783 152.295 152.118 152.182 152.387 151.955C152.656 151.723 152.859 151.409 152.995 151.011C153.135 150.614 153.205 150.161 153.205 149.653C153.205 149.146 153.135 148.693 152.995 148.295C152.859 147.898 152.656 147.583 152.387 147.352C152.118 147.121 151.783 147.006 151.381 147.006C150.976 147.006 150.635 147.121 150.359 147.352C150.086 147.583 149.879 147.898 149.739 148.295C149.603 148.693 149.535 149.146 149.535 149.653C149.535 150.161 149.603 150.614 149.739 151.011C149.879 151.409 150.086 151.723 150.359 151.955C150.635 152.182 150.976 152.295 151.381 152.295ZM157.239 154V145.273H159.546V146.812H159.648C159.83 146.301 160.133 145.898 160.558 145.602C160.982 145.307 161.489 145.159 162.08 145.159C162.679 145.159 163.188 145.309 163.609 145.608C164.029 145.903 164.309 146.305 164.45 146.812H164.54C164.719 146.312 165.04 145.913 165.506 145.614C165.976 145.311 166.531 145.159 167.171 145.159C167.986 145.159 168.647 145.419 169.154 145.938C169.665 146.453 169.921 147.184 169.921 148.131V154H167.506V148.608C167.506 148.123 167.378 147.759 167.12 147.517C166.862 147.275 166.54 147.153 166.154 147.153C165.715 147.153 165.372 147.294 165.126 147.574C164.879 147.85 164.756 148.216 164.756 148.67V154H162.41V148.557C162.41 148.129 162.287 147.788 162.04 147.534C161.798 147.28 161.478 147.153 161.08 147.153C160.811 147.153 160.569 147.222 160.353 147.358C160.141 147.491 159.972 147.678 159.847 147.92C159.722 148.159 159.66 148.439 159.66 148.761V154H157.239ZM171.833 157.273V145.273H174.219V146.739H174.327C174.433 146.504 174.587 146.265 174.788 146.023C174.992 145.777 175.257 145.572 175.583 145.409C175.913 145.242 176.322 145.159 176.81 145.159C177.447 145.159 178.034 145.326 178.572 145.659C179.11 145.989 179.54 146.487 179.862 147.153C180.183 147.816 180.344 148.648 180.344 149.648C180.344 150.621 180.187 151.443 179.873 152.114C179.562 152.78 179.138 153.286 178.6 153.631C178.066 153.972 177.468 154.142 176.805 154.142C176.335 154.142 175.935 154.064 175.606 153.909C175.28 153.754 175.013 153.559 174.805 153.324C174.596 153.085 174.437 152.845 174.327 152.602H174.254V157.273H171.833ZM174.202 149.636C174.202 150.155 174.274 150.608 174.418 150.994C174.562 151.381 174.771 151.682 175.043 151.898C175.316 152.11 175.647 152.216 176.038 152.216C176.432 152.216 176.765 152.108 177.038 151.892C177.31 151.672 177.517 151.369 177.657 150.983C177.801 150.593 177.873 150.144 177.873 149.636C177.873 149.133 177.803 148.689 177.663 148.307C177.522 147.924 177.316 147.625 177.043 147.409C176.771 147.193 176.435 147.085 176.038 147.085C175.644 147.085 175.31 147.189 175.038 147.398C174.769 147.606 174.562 147.902 174.418 148.284C174.274 148.667 174.202 149.117 174.202 149.636ZM185.901 154.17C185.019 154.17 184.255 153.983 183.612 153.608C182.971 153.229 182.477 152.703 182.129 152.028C181.78 151.35 181.606 150.564 181.606 149.67C181.606 148.769 181.78 147.981 182.129 147.307C182.477 146.629 182.971 146.102 183.612 145.727C184.255 145.348 185.019 145.159 185.901 145.159C186.784 145.159 187.545 145.348 188.185 145.727C188.829 146.102 189.326 146.629 189.674 147.307C190.022 147.981 190.197 148.769 190.197 149.67C190.197 150.564 190.022 151.35 189.674 152.028C189.326 152.703 188.829 153.229 188.185 153.608C187.545 153.983 186.784 154.17 185.901 154.17ZM185.913 152.295C186.314 152.295 186.649 152.182 186.918 151.955C187.187 151.723 187.39 151.409 187.526 151.011C187.666 150.614 187.737 150.161 187.737 149.653C187.737 149.146 187.666 148.693 187.526 148.295C187.39 147.898 187.187 147.583 186.918 147.352C186.649 147.121 186.314 147.006 185.913 147.006C185.507 147.006 185.166 147.121 184.89 147.352C184.617 147.583 184.411 147.898 184.271 148.295C184.134 148.693 184.066 149.146 184.066 149.653C184.066 150.161 184.134 150.614 184.271 151.011C184.411 151.409 184.617 151.723 184.89 151.955C185.166 152.182 185.507 152.295 185.913 152.295ZM194.191 148.955V154H191.771V145.273H194.077V146.812H194.18C194.373 146.305 194.697 145.903 195.151 145.608C195.606 145.309 196.157 145.159 196.805 145.159C197.411 145.159 197.939 145.292 198.39 145.557C198.841 145.822 199.191 146.201 199.441 146.693C199.691 147.182 199.816 147.765 199.816 148.443V154H197.396V148.875C197.399 148.341 197.263 147.924 196.987 147.625C196.71 147.322 196.329 147.17 195.844 147.17C195.519 147.17 195.231 147.241 194.981 147.381C194.735 147.521 194.541 147.725 194.401 147.994C194.265 148.259 194.195 148.58 194.191 148.955ZM205.701 154.17C204.803 154.17 204.031 153.989 203.383 153.625C202.739 153.258 202.243 152.739 201.894 152.068C201.546 151.394 201.371 150.597 201.371 149.676C201.371 148.778 201.546 147.991 201.894 147.312C202.243 146.634 202.733 146.106 203.366 145.727C204.002 145.348 204.748 145.159 205.604 145.159C206.18 145.159 206.716 145.252 207.212 145.438C207.712 145.619 208.148 145.894 208.519 146.261C208.894 146.629 209.186 147.091 209.394 147.648C209.603 148.201 209.707 148.848 209.707 149.591V150.256H202.337V148.756H207.428C207.428 148.407 207.353 148.098 207.201 147.83C207.049 147.561 206.839 147.35 206.57 147.199C206.305 147.044 205.996 146.966 205.644 146.966C205.277 146.966 204.951 147.051 204.667 147.222C204.387 147.388 204.167 147.614 204.008 147.898C203.849 148.178 203.767 148.491 203.763 148.835V150.261C203.763 150.693 203.843 151.066 204.002 151.381C204.165 151.695 204.394 151.938 204.69 152.108C204.985 152.278 205.335 152.364 205.741 152.364C206.01 152.364 206.256 152.326 206.479 152.25C206.703 152.174 206.894 152.061 207.053 151.909C207.212 151.758 207.334 151.572 207.417 151.352L209.656 151.5C209.542 152.038 209.309 152.508 208.957 152.909C208.608 153.307 208.157 153.617 207.604 153.841C207.055 154.061 206.421 154.17 205.701 154.17ZM213.707 148.955V154H211.286V145.273H213.593V146.812H213.695C213.888 146.305 214.212 145.903 214.667 145.608C215.121 145.309 215.673 145.159 216.32 145.159C216.926 145.159 217.455 145.292 217.906 145.557C218.356 145.822 218.707 146.201 218.957 146.693C219.207 147.182 219.332 147.765 219.332 148.443V154H216.911V148.875C216.915 148.341 216.779 147.924 216.502 147.625C216.226 147.322 215.845 147.17 215.36 147.17C215.034 147.17 214.746 147.241 214.496 147.381C214.25 147.521 214.057 147.725 213.917 147.994C213.781 148.259 213.71 148.58 213.707 148.955ZM225.881 145.273V147.091H220.626V145.273H225.881ZM221.819 143.182H224.239V151.318C224.239 151.542 224.273 151.716 224.342 151.841C224.41 151.962 224.504 152.047 224.626 152.097C224.751 152.146 224.895 152.17 225.058 152.17C225.171 152.17 225.285 152.161 225.398 152.142C225.512 152.119 225.599 152.102 225.66 152.091L226.04 153.892C225.919 153.93 225.749 153.973 225.529 154.023C225.309 154.076 225.042 154.108 224.728 154.119C224.145 154.142 223.633 154.064 223.194 153.886C222.758 153.708 222.419 153.432 222.177 153.057C221.934 152.682 221.815 152.208 221.819 151.636V143.182ZM230.763 144.392V142.364H240.32V144.392H236.758V154H234.326V144.392H230.763ZM241.849 154V145.273H244.269V154H241.849ZM243.065 144.148C242.705 144.148 242.396 144.028 242.138 143.79C241.885 143.547 241.758 143.258 241.758 142.92C241.758 142.587 241.885 142.301 242.138 142.062C242.396 141.82 242.705 141.699 243.065 141.699C243.424 141.699 243.731 141.82 243.985 142.062C244.243 142.301 244.371 142.587 244.371 142.92C244.371 143.258 244.243 143.547 243.985 143.79C243.731 144.028 243.424 144.148 243.065 144.148ZM250.85 145.273V147.091H245.594V145.273H250.85ZM246.788 143.182H249.208V151.318C249.208 151.542 249.242 151.716 249.31 151.841C249.379 151.962 249.473 152.047 249.594 152.097C249.719 152.146 249.863 152.17 250.026 152.17C250.14 152.17 250.254 152.161 250.367 152.142C250.481 152.119 250.568 152.102 250.629 152.091L251.009 153.892C250.888 153.93 250.718 153.973 250.498 154.023C250.278 154.076 250.011 154.108 249.697 154.119C249.113 154.142 248.602 154.064 248.163 153.886C247.727 153.708 247.388 153.432 247.146 153.057C246.903 152.682 246.784 152.208 246.788 151.636V143.182ZM255.035 142.364V154H252.614V142.364H255.035ZM260.951 154.17C260.053 154.17 259.281 153.989 258.633 153.625C257.989 153.258 257.493 152.739 257.144 152.068C256.796 151.394 256.621 150.597 256.621 149.676C256.621 148.778 256.796 147.991 257.144 147.312C257.493 146.634 257.983 146.106 258.616 145.727C259.252 145.348 259.998 145.159 260.854 145.159C261.43 145.159 261.966 145.252 262.462 145.438C262.962 145.619 263.398 145.894 263.769 146.261C264.144 146.629 264.436 147.091 264.644 147.648C264.853 148.201 264.957 148.848 264.957 149.591V150.256H257.587V148.756H262.678C262.678 148.407 262.603 148.098 262.451 147.83C262.299 147.561 262.089 147.35 261.82 147.199C261.555 147.044 261.246 146.966 260.894 146.966C260.527 146.966 260.201 147.051 259.917 147.222C259.637 147.388 259.417 147.614 259.258 147.898C259.099 148.178 259.017 148.491 259.013 148.835V150.261C259.013 150.693 259.093 151.066 259.252 151.381C259.415 151.695 259.644 151.938 259.94 152.108C260.235 152.278 260.585 152.364 260.991 152.364C261.26 152.364 261.506 152.326 261.729 152.25C261.953 152.174 262.144 152.061 262.303 151.909C262.462 151.758 262.584 151.572 262.667 151.352L264.906 151.5C264.792 152.038 264.559 152.508 264.207 152.909C263.858 153.307 263.407 153.617 262.854 153.841C262.305 154.061 261.671 154.17 260.951 154.17Z" fill="#111827"/>
<path d="M122.393 170.909C122.338 170.441 122.113 170.078 121.719 169.82C121.325 169.561 120.842 169.432 120.269 169.432C119.851 169.432 119.485 169.5 119.171 169.635C118.86 169.77 118.617 169.957 118.441 170.194C118.269 170.431 118.183 170.7 118.183 171.001C118.183 171.254 118.243 171.471 118.363 171.652C118.486 171.831 118.643 171.98 118.834 172.1C119.024 172.217 119.225 172.314 119.434 172.391C119.643 172.465 119.835 172.525 120.011 172.571L120.971 172.83C121.217 172.894 121.491 172.983 121.793 173.097C122.098 173.211 122.388 173.367 122.665 173.564C122.945 173.757 123.176 174.007 123.358 174.311C123.539 174.616 123.63 174.99 123.63 175.433C123.63 175.944 123.496 176.406 123.229 176.818C122.964 177.231 122.576 177.558 122.065 177.801C121.557 178.045 120.94 178.166 120.214 178.166C119.537 178.166 118.951 178.057 118.455 177.838C117.963 177.62 117.575 177.315 117.292 176.924C117.012 176.533 116.853 176.08 116.816 175.562H117.998C118.029 175.92 118.149 176.215 118.358 176.449C118.571 176.68 118.838 176.852 119.161 176.966C119.488 177.077 119.839 177.132 120.214 177.132C120.651 177.132 121.043 177.061 121.391 176.92C121.739 176.775 122.014 176.575 122.218 176.32C122.421 176.061 122.522 175.759 122.522 175.415C122.522 175.101 122.435 174.845 122.259 174.648C122.084 174.451 121.853 174.291 121.567 174.168C121.28 174.045 120.971 173.937 120.639 173.845L119.475 173.513C118.737 173.3 118.152 172.997 117.721 172.603C117.29 172.209 117.075 171.694 117.075 171.057C117.075 170.527 117.218 170.066 117.504 169.672C117.793 169.275 118.181 168.967 118.667 168.749C119.157 168.527 119.703 168.416 120.306 168.416C120.916 168.416 121.457 168.525 121.931 168.744C122.405 168.959 122.781 169.255 123.058 169.63C123.338 170.006 123.486 170.432 123.501 170.909H122.393ZM129.834 175.101V170.909H130.923V178H129.834V176.8H129.76C129.594 177.16 129.335 177.466 128.984 177.718C128.633 177.968 128.19 178.092 127.655 178.092C127.211 178.092 126.817 177.995 126.473 177.801C126.128 177.605 125.857 177.309 125.66 176.915C125.463 176.518 125.365 176.018 125.365 175.415V170.909H126.454V175.341C126.454 175.858 126.599 176.27 126.888 176.578C127.181 176.886 127.553 177.04 128.005 177.04C128.276 177.04 128.552 176.971 128.832 176.832C129.115 176.694 129.352 176.481 129.543 176.195C129.737 175.909 129.834 175.544 129.834 175.101ZM132.919 180.659V170.909H133.971V172.036H134.1C134.18 171.912 134.291 171.755 134.433 171.565C134.577 171.371 134.784 171.198 135.051 171.048C135.322 170.894 135.688 170.817 136.15 170.817C136.747 170.817 137.273 170.966 137.729 171.265C138.184 171.563 138.54 171.986 138.795 172.534C139.051 173.082 139.178 173.728 139.178 174.473C139.178 175.224 139.051 175.875 138.795 176.426C138.54 176.974 138.186 177.398 137.734 177.7C137.281 177.998 136.759 178.148 136.169 178.148C135.713 178.148 135.348 178.072 135.074 177.922C134.801 177.768 134.59 177.594 134.442 177.4C134.294 177.203 134.18 177.04 134.1 176.911H134.008V180.659H132.919ZM133.99 174.455C133.99 174.99 134.068 175.462 134.225 175.872C134.382 176.278 134.611 176.597 134.913 176.827C135.214 177.055 135.584 177.169 136.021 177.169C136.476 177.169 136.856 177.049 137.161 176.809C137.469 176.566 137.7 176.24 137.854 175.83C138.011 175.418 138.089 174.959 138.089 174.455C138.089 173.956 138.012 173.507 137.858 173.107C137.707 172.703 137.478 172.385 137.17 172.151C136.866 171.914 136.482 171.795 136.021 171.795C135.578 171.795 135.205 171.908 134.904 172.132C134.602 172.354 134.374 172.665 134.22 173.065C134.067 173.462 133.99 173.925 133.99 174.455ZM140.84 180.659V170.909H141.893V172.036H142.022C142.102 171.912 142.213 171.755 142.355 171.565C142.499 171.371 142.705 171.198 142.973 171.048C143.244 170.894 143.61 170.817 144.072 170.817C144.669 170.817 145.195 170.966 145.651 171.265C146.106 171.563 146.462 171.986 146.717 172.534C146.973 173.082 147.1 173.728 147.1 174.473C147.1 175.224 146.973 175.875 146.717 176.426C146.462 176.974 146.108 177.398 145.655 177.7C145.203 177.998 144.681 178.148 144.09 178.148C143.635 178.148 143.27 178.072 142.996 177.922C142.722 177.768 142.512 177.594 142.364 177.4C142.216 177.203 142.102 177.04 142.022 176.911H141.93V180.659H140.84ZM141.911 174.455C141.911 174.99 141.99 175.462 142.147 175.872C142.304 176.278 142.533 176.597 142.835 176.827C143.136 177.055 143.506 177.169 143.943 177.169C144.398 177.169 144.778 177.049 145.083 176.809C145.391 176.566 145.622 176.24 145.775 175.83C145.932 175.418 146.011 174.959 146.011 174.455C146.011 173.956 145.934 173.507 145.78 173.107C145.629 172.703 145.4 172.385 145.092 172.151C144.788 171.914 144.404 171.795 143.943 171.795C143.5 171.795 143.127 171.908 142.826 172.132C142.524 172.354 142.296 172.665 142.142 173.065C141.988 173.462 141.911 173.925 141.911 174.455ZM151.643 178.148C151.003 178.148 150.441 177.995 149.958 177.691C149.478 177.386 149.102 176.96 148.832 176.412C148.564 175.864 148.43 175.224 148.43 174.491C148.43 173.753 148.564 173.108 148.832 172.557C149.102 172.006 149.478 171.578 149.958 171.274C150.441 170.969 151.003 170.817 151.643 170.817C152.283 170.817 152.843 170.969 153.323 171.274C153.807 171.578 154.182 172.006 154.45 172.557C154.721 173.108 154.856 173.753 154.856 174.491C154.856 175.224 154.721 175.864 154.45 176.412C154.182 176.96 153.807 177.386 153.323 177.691C152.843 177.995 152.283 178.148 151.643 178.148ZM151.643 177.169C152.129 177.169 152.529 177.044 152.843 176.795C153.157 176.546 153.39 176.218 153.54 175.812C153.691 175.406 153.767 174.965 153.767 174.491C153.767 174.018 153.691 173.576 153.54 173.167C153.39 172.757 153.157 172.426 152.843 172.174C152.529 171.922 152.129 171.795 151.643 171.795C151.157 171.795 150.757 171.922 150.443 172.174C150.129 172.426 149.896 172.757 149.746 173.167C149.595 173.576 149.519 174.018 149.519 174.491C149.519 174.965 149.595 175.406 149.746 175.812C149.896 176.218 150.129 176.546 150.443 176.795C150.757 177.044 151.157 177.169 151.643 177.169ZM156.519 178V170.909H157.572V171.98H157.646C157.775 171.629 158.009 171.345 158.347 171.126C158.686 170.908 159.067 170.798 159.492 170.798C159.572 170.798 159.672 170.8 159.792 170.803C159.912 170.806 160.003 170.811 160.065 170.817V171.925C160.028 171.915 159.943 171.902 159.811 171.883C159.681 171.862 159.544 171.851 159.4 171.851C159.055 171.851 158.747 171.923 158.477 172.068C158.209 172.209 157.996 172.406 157.839 172.659C157.686 172.908 157.609 173.193 157.609 173.513V178H156.519ZM164.884 170.909V171.832H161.209V170.909H164.884ZM162.28 169.21H163.37V175.969C163.37 176.277 163.415 176.507 163.504 176.661C163.596 176.812 163.713 176.914 163.855 176.966C163.999 177.015 164.152 177.04 164.312 177.04C164.432 177.04 164.53 177.034 164.607 177.021C164.684 177.006 164.746 176.994 164.792 176.984L165.013 177.963C164.94 177.991 164.836 178.018 164.704 178.046C164.572 178.077 164.404 178.092 164.201 178.092C163.893 178.092 163.592 178.026 163.296 177.894C163.004 177.761 162.761 177.56 162.567 177.289C162.376 177.018 162.28 176.677 162.28 176.264V169.21ZM166.523 178V170.909H167.613V178H166.523ZM167.077 169.727C166.865 169.727 166.682 169.655 166.528 169.51C166.377 169.366 166.301 169.192 166.301 168.989C166.301 168.786 166.377 168.612 166.528 168.467C166.682 168.322 166.865 168.25 167.077 168.25C167.289 168.25 167.471 168.322 167.622 168.467C167.776 168.612 167.853 168.786 167.853 168.989C167.853 169.192 167.776 169.366 167.622 169.51C167.471 169.655 167.289 169.727 167.077 169.727ZM170.697 173.734V178H169.608V170.909H170.661V172.017H170.753C170.919 171.657 171.171 171.368 171.51 171.149C171.849 170.928 172.286 170.817 172.821 170.817C173.301 170.817 173.721 170.915 174.081 171.112C174.441 171.306 174.722 171.602 174.922 171.999C175.122 172.393 175.222 172.891 175.222 173.494V178H174.132V173.568C174.132 173.011 173.987 172.577 173.698 172.266C173.409 171.952 173.012 171.795 172.507 171.795C172.159 171.795 171.849 171.871 171.575 172.022C171.304 172.172 171.09 172.393 170.933 172.682C170.776 172.971 170.697 173.322 170.697 173.734ZM180.075 180.807C179.548 180.807 179.096 180.739 178.717 180.604C178.339 180.471 178.023 180.296 177.771 180.077C177.522 179.862 177.323 179.631 177.176 179.385L178.043 178.776C178.142 178.905 178.267 179.053 178.417 179.219C178.568 179.388 178.774 179.534 179.036 179.657C179.301 179.783 179.647 179.847 180.075 179.847C180.647 179.847 181.12 179.708 181.492 179.431C181.864 179.154 182.051 178.72 182.051 178.129V176.689H181.958C181.878 176.818 181.764 176.978 181.617 177.169C181.472 177.357 181.263 177.525 180.989 177.672C180.718 177.817 180.352 177.889 179.89 177.889C179.318 177.889 178.804 177.754 178.348 177.483C177.896 177.212 177.537 176.818 177.273 176.301C177.011 175.784 176.88 175.156 176.88 174.418C176.88 173.691 177.008 173.059 177.263 172.52C177.519 171.979 177.874 171.56 178.33 171.265C178.785 170.966 179.311 170.817 179.909 170.817C180.37 170.817 180.736 170.894 181.007 171.048C181.281 171.198 181.49 171.371 181.635 171.565C181.783 171.755 181.897 171.912 181.977 172.036H182.087V170.909H183.14V178.203C183.14 178.812 183.002 179.308 182.725 179.69C182.451 180.074 182.081 180.356 181.617 180.534C181.155 180.716 180.641 180.807 180.075 180.807ZM180.038 176.911C180.475 176.911 180.844 176.81 181.146 176.61C181.447 176.41 181.677 176.123 181.834 175.747C181.991 175.372 182.069 174.922 182.069 174.399C182.069 173.888 181.992 173.437 181.838 173.047C181.684 172.656 181.457 172.349 181.155 172.128C180.853 171.906 180.481 171.795 180.038 171.795C179.576 171.795 179.191 171.912 178.884 172.146C178.579 172.38 178.35 172.694 178.196 173.088C178.045 173.482 177.97 173.919 177.97 174.399C177.97 174.892 178.047 175.327 178.2 175.706C178.357 176.081 178.588 176.377 178.893 176.592C179.201 176.804 179.582 176.911 180.038 176.911ZM191.874 170.909V171.832H188.2V170.909H191.874ZM189.271 169.21H190.36V175.969C190.36 176.277 190.405 176.507 190.494 176.661C190.586 176.812 190.703 176.914 190.845 176.966C190.99 177.015 191.142 177.04 191.302 177.04C191.422 177.04 191.52 177.034 191.597 177.021C191.674 177.006 191.736 176.994 191.782 176.984L192.004 177.963C191.93 177.991 191.827 178.018 191.694 178.046C191.562 178.077 191.394 178.092 191.191 178.092C190.883 178.092 190.582 178.026 190.286 177.894C189.994 177.761 189.751 177.56 189.557 177.289C189.366 177.018 189.271 176.677 189.271 176.264V169.21ZM196.41 178.148C195.727 178.148 195.138 177.997 194.642 177.695C194.15 177.391 193.769 176.966 193.502 176.421C193.237 175.873 193.105 175.236 193.105 174.51C193.105 173.784 193.237 173.143 193.502 172.589C193.769 172.032 194.142 171.598 194.619 171.288C195.099 170.974 195.659 170.817 196.299 170.817C196.669 170.817 197.033 170.878 197.393 171.001C197.754 171.125 198.081 171.325 198.377 171.602C198.672 171.875 198.908 172.239 199.083 172.691C199.258 173.143 199.346 173.701 199.346 174.362V174.824H193.88V173.882H198.238C198.238 173.482 198.158 173.125 197.998 172.811C197.841 172.497 197.617 172.249 197.324 172.068C197.035 171.886 196.693 171.795 196.299 171.795C195.865 171.795 195.49 171.903 195.173 172.119C194.859 172.331 194.617 172.608 194.448 172.95C194.279 173.291 194.194 173.657 194.194 174.048V174.676C194.194 175.212 194.287 175.666 194.471 176.038C194.659 176.407 194.919 176.689 195.251 176.883C195.584 177.074 195.97 177.169 196.41 177.169C196.696 177.169 196.955 177.129 197.186 177.049C197.42 176.966 197.621 176.843 197.79 176.68C197.96 176.513 198.091 176.307 198.183 176.061L199.235 176.357C199.125 176.714 198.938 177.027 198.677 177.298C198.415 177.566 198.092 177.775 197.707 177.926C197.323 178.074 196.89 178.148 196.41 178.148ZM201.626 170.909L203.324 173.808L205.023 170.909H206.279L203.989 174.455L206.279 178H205.023L203.324 175.249L201.626 178H200.37L202.623 174.455L200.37 170.909H201.626ZM210.917 170.909V171.832H207.243V170.909H210.917ZM208.314 169.21H209.403V175.969C209.403 176.277 209.448 176.507 209.537 176.661C209.629 176.812 209.746 176.914 209.888 176.966C210.033 177.015 210.185 177.04 210.345 177.04C210.465 177.04 210.563 177.034 210.64 177.021C210.717 177.006 210.779 176.994 210.825 176.984L211.047 177.963C210.973 177.991 210.87 178.018 210.737 178.046C210.605 178.077 210.437 178.092 210.234 178.092C209.926 178.092 209.625 178.026 209.329 177.894C209.037 177.761 208.794 177.56 208.6 177.289C208.409 177.018 208.314 176.677 208.314 176.264V169.21ZM218.89 178.148C218.299 178.148 217.777 177.998 217.325 177.7C216.873 177.398 216.519 176.974 216.263 176.426C216.008 175.875 215.88 175.224 215.88 174.473C215.88 173.728 216.008 173.082 216.263 172.534C216.519 171.986 216.874 171.563 217.33 171.265C217.785 170.966 218.311 170.817 218.909 170.817C219.37 170.817 219.735 170.894 220.003 171.048C220.273 171.198 220.48 171.371 220.621 171.565C220.766 171.755 220.878 171.912 220.958 172.036H221.051V168.545H222.14V178H221.087V176.911H220.958C220.878 177.04 220.764 177.203 220.617 177.4C220.469 177.594 220.258 177.768 219.984 177.922C219.71 178.072 219.346 178.148 218.89 178.148ZM219.038 177.169C219.475 177.169 219.844 177.055 220.146 176.827C220.447 176.597 220.677 176.278 220.834 175.872C220.991 175.462 221.069 174.99 221.069 174.455C221.069 173.925 220.992 173.462 220.838 173.065C220.684 172.665 220.457 172.354 220.155 172.132C219.853 171.908 219.481 171.795 219.038 171.795C218.576 171.795 218.191 171.914 217.884 172.151C217.579 172.385 217.35 172.703 217.196 173.107C217.045 173.507 216.97 173.956 216.97 174.455C216.97 174.959 217.047 175.418 217.2 175.83C217.357 176.24 217.588 176.566 217.893 176.809C218.201 177.049 218.582 177.169 219.038 177.169ZM227.26 178.148C226.576 178.148 225.987 177.997 225.492 177.695C224.999 177.391 224.619 176.966 224.351 176.421C224.087 175.873 223.954 175.236 223.954 174.51C223.954 173.784 224.087 173.143 224.351 172.589C224.619 172.032 224.991 171.598 225.469 171.288C225.949 170.974 226.509 170.817 227.149 170.817C227.518 170.817 227.883 170.878 228.243 171.001C228.603 171.125 228.931 171.325 229.226 171.602C229.522 171.875 229.757 172.239 229.933 172.691C230.108 173.143 230.196 173.701 230.196 174.362V174.824H224.73V173.882H229.088C229.088 173.482 229.008 173.125 228.848 172.811C228.691 172.497 228.466 172.249 228.174 172.068C227.884 171.886 227.543 171.795 227.149 171.795C226.715 171.795 226.34 171.903 226.023 172.119C225.709 172.331 225.467 172.608 225.298 172.95C225.128 173.291 225.044 173.657 225.044 174.048V174.676C225.044 175.212 225.136 175.666 225.321 176.038C225.509 176.407 225.769 176.689 226.101 176.883C226.433 177.074 226.82 177.169 227.26 177.169C227.546 177.169 227.804 177.129 228.035 177.049C228.269 176.966 228.471 176.843 228.64 176.68C228.809 176.513 228.94 176.307 229.032 176.061L230.085 176.357C229.974 176.714 229.788 177.027 229.526 177.298C229.265 177.566 228.942 177.775 228.557 177.926C228.172 178.074 227.74 178.148 227.26 178.148ZM236.876 172.497L235.897 172.774C235.836 172.611 235.745 172.453 235.625 172.299C235.508 172.142 235.348 172.012 235.145 171.911C234.942 171.809 234.681 171.759 234.364 171.759C233.931 171.759 233.569 171.859 233.28 172.059C232.993 172.256 232.85 172.506 232.85 172.811C232.85 173.082 232.949 173.296 233.146 173.453C233.343 173.61 233.65 173.741 234.069 173.845L235.122 174.104C235.756 174.258 236.228 174.493 236.539 174.81C236.85 175.124 237.005 175.529 237.005 176.024C237.005 176.43 236.888 176.794 236.654 177.114C236.423 177.434 236.1 177.686 235.685 177.871C235.269 178.055 234.786 178.148 234.235 178.148C233.512 178.148 232.913 177.991 232.439 177.677C231.965 177.363 231.665 176.904 231.539 176.301L232.573 176.043C232.672 176.424 232.858 176.71 233.132 176.901C233.409 177.092 233.77 177.188 234.217 177.188C234.725 177.188 235.128 177.08 235.426 176.864C235.728 176.646 235.879 176.384 235.879 176.08C235.879 175.833 235.793 175.627 235.62 175.461C235.448 175.292 235.183 175.165 234.826 175.082L233.644 174.805C232.995 174.652 232.518 174.413 232.213 174.09C231.912 173.764 231.761 173.356 231.761 172.866C231.761 172.466 231.873 172.112 232.098 171.805C232.326 171.497 232.635 171.255 233.026 171.08C233.42 170.904 233.866 170.817 234.364 170.817C235.066 170.817 235.617 170.971 236.017 171.278C236.42 171.586 236.707 171.992 236.876 172.497ZM241.526 178.148C240.861 178.148 240.289 177.991 239.808 177.677C239.328 177.363 238.959 176.931 238.701 176.38C238.442 175.829 238.313 175.199 238.313 174.491C238.313 173.771 238.445 173.136 238.71 172.585C238.977 172.031 239.35 171.598 239.827 171.288C240.307 170.974 240.867 170.817 241.507 170.817C242.006 170.817 242.455 170.909 242.855 171.094C243.255 171.278 243.583 171.537 243.839 171.869C244.094 172.202 244.253 172.589 244.314 173.033H243.225C243.142 172.71 242.957 172.423 242.671 172.174C242.388 171.922 242.006 171.795 241.526 171.795C241.101 171.795 240.729 171.906 240.409 172.128C240.092 172.346 239.844 172.656 239.665 173.056C239.49 173.453 239.402 173.919 239.402 174.455C239.402 175.002 239.488 175.479 239.661 175.886C239.836 176.292 240.082 176.607 240.399 176.832C240.719 177.057 241.095 177.169 241.526 177.169C241.809 177.169 242.066 177.12 242.297 177.021C242.528 176.923 242.723 176.781 242.883 176.597C243.043 176.412 243.157 176.19 243.225 175.932H244.314C244.253 176.35 244.1 176.727 243.857 177.063C243.617 177.395 243.299 177.66 242.902 177.857C242.508 178.051 242.049 178.148 241.526 178.148ZM245.907 178V170.909H246.959V171.98H247.033C247.163 171.629 247.396 171.345 247.735 171.126C248.073 170.908 248.455 170.798 248.88 170.798C248.96 170.798 249.06 170.8 249.18 170.803C249.3 170.806 249.391 170.811 249.452 170.817V171.925C249.415 171.915 249.331 171.902 249.198 171.883C249.069 171.862 248.932 171.851 248.788 171.851C248.443 171.851 248.135 171.923 247.864 172.068C247.596 172.209 247.384 172.406 247.227 172.659C247.073 172.908 246.996 173.193 246.996 173.513V178H245.907ZM250.744 178V170.909H251.833V178H250.744ZM251.298 169.727C251.085 169.727 250.902 169.655 250.748 169.51C250.598 169.366 250.522 169.192 250.522 168.989C250.522 168.786 250.598 168.612 250.748 168.467C250.902 168.322 251.085 168.25 251.298 168.25C251.51 168.25 251.692 168.322 251.842 168.467C251.996 168.612 252.073 168.786 252.073 168.989C252.073 169.192 251.996 169.366 251.842 169.51C251.692 169.655 251.51 169.727 251.298 169.727ZM253.829 180.659V170.909H254.881V172.036H255.011C255.091 171.912 255.201 171.755 255.343 171.565C255.488 171.371 255.694 171.198 255.962 171.048C256.232 170.894 256.599 170.817 257.06 170.817C257.657 170.817 258.184 170.966 258.639 171.265C259.095 171.563 259.45 171.986 259.705 172.534C259.961 173.082 260.089 173.728 260.089 174.473C260.089 175.224 259.961 175.875 259.705 176.426C259.45 176.974 259.096 177.398 258.644 177.7C258.191 177.998 257.67 178.148 257.079 178.148C256.623 178.148 256.259 178.072 255.985 177.922C255.711 177.768 255.5 177.594 255.352 177.4C255.204 177.203 255.091 177.04 255.011 176.911H254.918V180.659H253.829ZM254.9 174.455C254.9 174.99 254.978 175.462 255.135 175.872C255.292 176.278 255.521 176.597 255.823 176.827C256.125 177.055 256.494 177.169 256.931 177.169C257.386 177.169 257.767 177.049 258.071 176.809C258.379 176.566 258.61 176.24 258.764 175.83C258.921 175.418 258.999 174.959 258.999 174.455C258.999 173.956 258.922 173.507 258.768 173.107C258.618 172.703 258.388 172.385 258.08 172.151C257.776 171.914 257.393 171.795 256.931 171.795C256.488 171.795 256.115 171.908 255.814 172.132C255.512 172.354 255.284 172.665 255.131 173.065C254.977 173.462 254.9 173.925 254.9 174.455ZM264.834 170.909V171.832H261.16V170.909H264.834ZM262.231 169.21H263.32V175.969C263.32 176.277 263.365 176.507 263.454 176.661C263.546 176.812 263.663 176.914 263.805 176.966C263.95 177.015 264.102 177.04 264.262 177.04C264.382 177.04 264.48 177.034 264.557 177.021C264.634 177.006 264.696 176.994 264.742 176.984L264.964 177.963C264.89 177.991 264.787 178.018 264.654 178.046C264.522 178.077 264.354 178.092 264.151 178.092C263.843 178.092 263.542 178.026 263.246 177.894C262.954 177.761 262.711 177.56 262.517 177.289C262.326 177.018 262.231 176.677 262.231 176.264V169.21ZM266.473 178V170.909H267.563V178H266.473ZM267.027 169.727C266.815 169.727 266.632 169.655 266.478 169.51C266.327 169.366 266.252 169.192 266.252 168.989C266.252 168.786 266.327 168.612 266.478 168.467C266.632 168.322 266.815 168.25 267.027 168.25C267.24 168.25 267.421 168.322 267.572 168.467C267.726 168.612 267.803 168.786 267.803 168.989C267.803 169.192 267.726 169.366 267.572 169.51C267.421 169.655 267.24 169.727 267.027 169.727ZM272.439 178.148C271.799 178.148 271.237 177.995 270.754 177.691C270.274 177.386 269.898 176.96 269.627 176.412C269.36 175.864 269.226 175.224 269.226 174.491C269.226 173.753 269.36 173.108 269.627 172.557C269.898 172.006 270.274 171.578 270.754 171.274C271.237 170.969 271.799 170.817 272.439 170.817C273.079 170.817 273.639 170.969 274.119 171.274C274.602 171.578 274.978 172.006 275.246 172.557C275.517 173.108 275.652 173.753 275.652 174.491C275.652 175.224 275.517 175.864 275.246 176.412C274.978 176.96 274.602 177.386 274.119 177.691C273.639 177.995 273.079 178.148 272.439 178.148ZM272.439 177.169C272.925 177.169 273.325 177.044 273.639 176.795C273.953 176.546 274.185 176.218 274.336 175.812C274.487 175.406 274.562 174.965 274.562 174.491C274.562 174.018 274.487 173.576 274.336 173.167C274.185 172.757 273.953 172.426 273.639 172.174C273.325 171.922 272.925 171.795 272.439 171.795C271.953 171.795 271.553 171.922 271.239 172.174C270.925 172.426 270.692 172.757 270.542 173.167C270.391 173.576 270.315 174.018 270.315 174.491C270.315 174.965 270.391 175.406 270.542 175.812C270.692 176.218 270.925 176.546 271.239 176.795C271.553 177.044 271.953 177.169 272.439 177.169ZM278.405 173.734V178H277.315V170.909H278.368V172.017H278.46C278.626 171.657 278.878 171.368 279.217 171.149C279.556 170.928 279.993 170.817 280.528 170.817C281.008 170.817 281.428 170.915 281.788 171.112C282.148 171.306 282.429 171.602 282.629 171.999C282.829 172.393 282.929 172.891 282.929 173.494V178H281.839V173.568C281.839 173.011 281.695 172.577 281.405 172.266C281.116 171.952 280.719 171.795 280.214 171.795C279.866 171.795 279.556 171.871 279.282 172.022C279.011 172.172 278.797 172.393 278.64 172.682C278.483 172.971 278.405 173.322 278.405 173.734Z" fill="#6B7280"/>
</g>
<defs>
<clipPath id="clip0_21_2150">
<rect width="400" height="200" fill="white"/>
</clipPath>
</defs>
</svg>
