<svg width="530" height="204" viewBox="0 0 530 204" fill="none" xmlns="http://www.w3.org/2000/svg">
<g clip-path="url(#clip0_21_2112)">
<path d="M506.754 18.5455H23.2456C20.678 18.5455 18.5965 20.6212 18.5965 23.1818V180.818C18.5965 183.379 20.678 185.455 23.2456 185.455H506.754C509.322 185.455 511.404 183.379 511.404 180.818V23.1818C511.404 20.6212 509.322 18.5455 506.754 18.5455Z" fill="white"/>
<path d="M43.953 56.0128C43.0063 56.0128 42.1263 55.8394 41.313 55.4928C40.513 55.1461 39.8197 54.6661 39.233 54.0528C38.6597 53.4261 38.2397 52.6994 37.973 51.8728L40.233 50.8928C40.593 51.7461 41.113 52.4194 41.793 52.9128C42.473 53.3928 43.2397 53.6328 44.093 53.6328C44.573 53.6328 44.9863 53.5594 45.333 53.4128C45.693 53.2528 45.9663 53.0394 46.153 52.7728C46.353 52.5061 46.453 52.1861 46.453 51.8128C46.453 51.3728 46.3197 51.0128 46.053 50.7328C45.7997 50.4394 45.413 50.2128 44.893 50.0528L42.033 49.1328C40.873 48.7728 39.9997 48.2328 39.413 47.5128C38.8263 46.7928 38.533 45.9461 38.533 44.9728C38.533 44.1194 38.7397 43.3661 39.153 42.7128C39.5797 42.0594 40.1663 41.5528 40.913 41.1928C41.673 40.8194 42.5397 40.6328 43.513 40.6328C44.4063 40.6328 45.2263 40.7928 45.973 41.1128C46.7197 41.4194 47.3597 41.8528 47.893 42.4128C48.4397 42.9594 48.8463 43.6061 49.113 44.3528L46.873 45.3528C46.5797 44.6061 46.1397 44.0328 45.553 43.6328C44.9663 43.2194 44.2863 43.0128 43.513 43.0128C43.0597 43.0128 42.6597 43.0928 42.313 43.2528C41.9663 43.3994 41.693 43.6128 41.493 43.8928C41.3063 44.1594 41.213 44.4794 41.213 44.8528C41.213 45.2661 41.3463 45.6328 41.613 45.9528C41.8797 46.2594 42.2863 46.4994 42.833 46.6728L45.573 47.5328C46.7597 47.9194 47.6463 48.4528 48.233 49.1328C48.833 49.8128 49.133 50.6528 49.133 51.6528C49.133 52.5061 48.913 53.2594 48.473 53.9128C48.033 54.5661 47.4263 55.0794 46.653 55.4528C45.8797 55.8261 44.9797 56.0128 43.953 56.0128ZM56.3222 55.8928C55.0955 55.8928 54.1422 55.5594 53.4622 54.8928C52.7955 54.2128 52.4622 53.2594 52.4622 52.0328V47.2328H50.5822V44.8928H50.7822C51.3155 44.8928 51.7289 44.7528 52.0222 44.4728C52.3155 44.1928 52.4622 43.7861 52.4622 43.2528V42.4128H55.0822V44.8928H57.5822V47.2328H55.0822V51.8928C55.0822 52.2528 55.1422 52.5594 55.2622 52.8128C55.3955 53.0661 55.5955 53.2594 55.8622 53.3928C56.1422 53.5261 56.4955 53.5928 56.9222 53.5928C57.0155 53.5928 57.1222 53.5861 57.2422 53.5728C57.3755 53.5594 57.5022 53.5461 57.6222 53.5328V55.7728C57.4355 55.7994 57.2222 55.8261 56.9822 55.8528C56.7422 55.8794 56.5222 55.8928 56.3222 55.8928ZM62.8849 56.0128C62.1249 56.0128 61.4649 55.8861 60.9049 55.6328C60.3449 55.3794 59.9115 55.0194 59.6049 54.5528C59.2982 54.0728 59.1449 53.5194 59.1449 52.8928C59.1449 52.2928 59.2782 51.7594 59.5449 51.2928C59.8115 50.8128 60.2249 50.4128 60.7849 50.0928C61.3449 49.7728 62.0515 49.5461 62.9049 49.4128L66.4649 48.8328V50.8328L63.4049 51.3528C62.8849 51.4461 62.4982 51.6128 62.2449 51.8528C61.9915 52.0928 61.8649 52.4061 61.8649 52.7928C61.8649 53.1661 62.0049 53.4661 62.2849 53.6928C62.5782 53.9061 62.9382 54.0128 63.3649 54.0128C63.9115 54.0128 64.3915 53.8994 64.8049 53.6728C65.2315 53.4328 65.5582 53.1061 65.7849 52.6928C66.0249 52.2794 66.1449 51.8261 66.1449 51.3328V48.5328C66.1449 48.0661 65.9582 47.6794 65.5849 47.3728C65.2249 47.0528 64.7449 46.8928 64.1449 46.8928C63.5849 46.8928 63.0849 47.0461 62.6449 47.3528C62.2182 47.6461 61.9049 48.0394 61.7049 48.5328L59.5649 47.4928C59.7782 46.9194 60.1115 46.4261 60.5649 46.0128C61.0315 45.5861 61.5782 45.2528 62.2049 45.0128C62.8315 44.7728 63.5115 44.6528 64.2449 44.6528C65.1382 44.6528 65.9249 44.8194 66.6049 45.1528C67.2849 45.4728 67.8115 45.9261 68.1849 46.5128C68.5715 47.0861 68.7649 47.7594 68.7649 48.5328V55.7728H66.2849V53.9128L66.8449 53.8728C66.5649 54.3394 66.2315 54.7328 65.8449 55.0528C65.4582 55.3594 65.0182 55.5994 64.5249 55.7728C64.0315 55.9328 63.4849 56.0128 62.8849 56.0128ZM75.9511 55.8928C74.7245 55.8928 73.7711 55.5594 73.0911 54.8928C72.4245 54.2128 72.0911 53.2594 72.0911 52.0328V47.2328H70.2111V44.8928H70.4111C70.9445 44.8928 71.3578 44.7528 71.6511 44.4728C71.9445 44.1928 72.0911 43.7861 72.0911 43.2528V42.4128H74.7111V44.8928H77.2111V47.2328H74.7111V51.8928C74.7111 52.2528 74.7711 52.5594 74.8911 52.8128C75.0245 53.0661 75.2245 53.2594 75.4911 53.3928C75.7711 53.5261 76.1245 53.5928 76.5511 53.5928C76.6445 53.5928 76.7511 53.5861 76.8711 53.5728C77.0045 53.5594 77.1311 53.5461 77.2511 53.5328V55.7728C77.0645 55.7994 76.8511 55.8261 76.6111 55.8528C76.3711 55.8794 76.1511 55.8928 75.9511 55.8928ZM83.1328 56.0128C82.2928 56.0128 81.5595 55.8261 80.9328 55.4528C80.3195 55.0794 79.8462 54.5594 79.5128 53.8928C79.1928 53.2261 79.0328 52.4461 79.0328 51.5528V44.8928H81.6528V51.3328C81.6528 51.7861 81.7395 52.1861 81.9128 52.5328C82.0995 52.8661 82.3595 53.1328 82.6928 53.3328C83.0395 53.5194 83.4262 53.6128 83.8528 53.6128C84.2795 53.6128 84.6595 53.5194 84.9928 53.3328C85.3262 53.1328 85.5862 52.8594 85.7728 52.5128C85.9595 52.1661 86.0528 51.7528 86.0528 51.2728V44.8928H88.6728V55.7728H86.1928V53.6328L86.4128 54.0128C86.1595 54.6794 85.7395 55.1794 85.1528 55.5128C84.5795 55.8461 83.9062 56.0128 83.1328 56.0128ZM95.2483 56.0128C94.0883 56.0128 93.075 55.7394 92.2083 55.1928C91.355 54.6328 90.7683 53.8794 90.4483 52.9328L92.4083 51.9928C92.6883 52.6061 93.075 53.0861 93.5683 53.4328C94.075 53.7794 94.635 53.9528 95.2483 53.9528C95.7283 53.9528 96.1083 53.8461 96.3883 53.6328C96.6683 53.4194 96.8083 53.1394 96.8083 52.7928C96.8083 52.5794 96.7483 52.4061 96.6283 52.2728C96.5216 52.1261 96.3683 52.0061 96.1683 51.9128C95.9816 51.8061 95.775 51.7194 95.5483 51.6528L93.7683 51.1528C92.8483 50.8861 92.1483 50.4794 91.6683 49.9328C91.2016 49.3861 90.9683 48.7394 90.9683 47.9928C90.9683 47.3261 91.135 46.7461 91.4683 46.2528C91.815 45.7461 92.2883 45.3528 92.8883 45.0728C93.5016 44.7928 94.2016 44.6528 94.9883 44.6528C96.015 44.6528 96.9216 44.8994 97.7083 45.3928C98.495 45.8861 99.055 46.5794 99.3883 47.4728L97.3883 48.4128C97.2016 47.9194 96.8883 47.5261 96.4483 47.2328C96.0083 46.9394 95.515 46.7928 94.9683 46.7928C94.5283 46.7928 94.1816 46.8928 93.9283 47.0928C93.675 47.2928 93.5483 47.5528 93.5483 47.8728C93.5483 48.0728 93.6016 48.2461 93.7083 48.3928C93.815 48.5394 93.9616 48.6594 94.1483 48.7528C94.3483 48.8461 94.575 48.9328 94.8283 49.0128L96.5683 49.5328C97.4616 49.7994 98.1483 50.1994 98.6283 50.7328C99.1216 51.2661 99.3683 51.9194 99.3683 52.6928C99.3683 53.3461 99.195 53.9261 98.8483 54.4328C98.5016 54.9261 98.0216 55.3128 97.4083 55.5928C96.795 55.8728 96.075 56.0128 95.2483 56.0128ZM43.953 81.0128C43.0063 81.0128 42.1263 80.8394 41.313 80.4928C40.513 80.1461 39.8197 79.6661 39.233 79.0528C38.6597 78.4261 38.2397 77.6994 37.973 76.8728L40.233 75.8928C40.593 76.7461 41.113 77.4194 41.793 77.9128C42.473 78.3928 43.2397 78.6328 44.093 78.6328C44.573 78.6328 44.9863 78.5594 45.333 78.4128C45.693 78.2528 45.9663 78.0394 46.153 77.7728C46.353 77.5061 46.453 77.1861 46.453 76.8128C46.453 76.3728 46.3197 76.0128 46.053 75.7328C45.7997 75.4394 45.413 75.2128 44.893 75.0528L42.033 74.1328C40.873 73.7728 39.9997 73.2328 39.413 72.5128C38.8263 71.7928 38.533 70.9461 38.533 69.9728C38.533 69.1194 38.7397 68.3661 39.153 67.7128C39.5797 67.0594 40.1663 66.5528 40.913 66.1928C41.673 65.8194 42.5397 65.6328 43.513 65.6328C44.4063 65.6328 45.2263 65.7928 45.973 66.1128C46.7197 66.4194 47.3597 66.8528 47.893 67.4128C48.4397 67.9594 48.8463 68.6061 49.113 69.3528L46.873 70.3528C46.5797 69.6061 46.1397 69.0328 45.553 68.6328C44.9663 68.2194 44.2863 68.0128 43.513 68.0128C43.0597 68.0128 42.6597 68.0928 42.313 68.2528C41.9663 68.3994 41.693 68.6128 41.493 68.8928C41.3063 69.1594 41.213 69.4794 41.213 69.8528C41.213 70.2661 41.3463 70.6328 41.613 70.9528C41.8797 71.2594 42.2863 71.4994 42.833 71.6728L45.573 72.5328C46.7597 72.9194 47.6463 73.4528 48.233 74.1328C48.833 74.8128 49.133 75.6528 49.133 76.6528C49.133 77.5061 48.913 78.2594 48.473 78.9128C48.033 79.5661 47.4263 80.0794 46.653 80.4528C45.8797 80.8261 44.9797 81.0128 43.953 81.0128ZM56.5222 81.0128C55.4022 81.0128 54.4222 80.7594 53.5822 80.2528C52.7422 79.7461 52.0889 79.0594 51.6222 78.1928C51.1555 77.3261 50.9222 76.3661 50.9222 75.3128C50.9222 74.2194 51.1555 73.2528 51.6222 72.4128C52.1022 71.5594 52.7489 70.8861 53.5622 70.3928C54.3889 69.8994 55.3089 69.6528 56.3222 69.6528C57.1755 69.6528 57.9222 69.7928 58.5622 70.0728C59.2155 70.3528 59.7689 70.7394 60.2222 71.2328C60.6755 71.7261 61.0222 72.2928 61.2622 72.9328C61.5022 73.5594 61.6222 74.2394 61.6222 74.9728C61.6222 75.1594 61.6089 75.3528 61.5822 75.5528C61.5689 75.7528 61.5355 75.9261 61.4822 76.0728H53.0822V74.0728H60.0022L58.7622 75.0128C58.8822 74.3994 58.8489 73.8528 58.6622 73.3728C58.4889 72.8928 58.1955 72.5128 57.7822 72.2328C57.3822 71.9528 56.8955 71.8128 56.3222 71.8128C55.7755 71.8128 55.2889 71.9528 54.8622 72.2328C54.4355 72.4994 54.1089 72.8994 53.8822 73.4328C53.6689 73.9528 53.5889 74.5861 53.6422 75.3328C53.5889 75.9994 53.6755 76.5928 53.9022 77.1128C54.1422 77.6194 54.4889 78.0128 54.9422 78.2928C55.4089 78.5728 55.9422 78.7128 56.5422 78.7128C57.1422 78.7128 57.6489 78.5861 58.0622 78.3328C58.4889 78.0794 58.8222 77.7394 59.0622 77.3128L61.1822 78.3528C60.9689 78.8728 60.6355 79.3328 60.1822 79.7328C59.7289 80.1328 59.1889 80.4461 58.5622 80.6728C57.9489 80.8994 57.2689 81.0128 56.5222 81.0128ZM67.7483 81.0128C66.5883 81.0128 65.575 80.7394 64.7083 80.1928C63.855 79.6328 63.2683 78.8794 62.9483 77.9328L64.9083 76.9928C65.1883 77.6061 65.575 78.0861 66.0683 78.4328C66.575 78.7794 67.135 78.9528 67.7483 78.9528C68.2283 78.9528 68.6083 78.8461 68.8883 78.6328C69.1683 78.4194 69.3083 78.1394 69.3083 77.7928C69.3083 77.5794 69.2483 77.4061 69.1283 77.2728C69.0216 77.1261 68.8683 77.0061 68.6683 76.9128C68.4816 76.8061 68.275 76.7194 68.0483 76.6528L66.2683 76.1528C65.3483 75.8861 64.6483 75.4794 64.1683 74.9328C63.7016 74.3861 63.4683 73.7394 63.4683 72.9928C63.4683 72.3261 63.635 71.7461 63.9683 71.2528C64.315 70.7461 64.7883 70.3528 65.3883 70.0728C66.0016 69.7928 66.7016 69.6528 67.4883 69.6528C68.515 69.6528 69.4216 69.8994 70.2083 70.3928C70.995 70.8861 71.555 71.5794 71.8883 72.4728L69.8883 73.4128C69.7016 72.9194 69.3883 72.5261 68.9483 72.2328C68.5083 71.9394 68.015 71.7928 67.4683 71.7928C67.0283 71.7928 66.6816 71.8928 66.4283 72.0928C66.175 72.2928 66.0483 72.5528 66.0483 72.8728C66.0483 73.0728 66.1016 73.2461 66.2083 73.3928C66.315 73.5394 66.4616 73.6594 66.6483 73.7528C66.8483 73.8461 67.075 73.9328 67.3283 74.0128L69.0683 74.5328C69.9616 74.7994 70.6483 75.1994 71.1283 75.7328C71.6216 76.2661 71.8683 76.9194 71.8683 77.6928C71.8683 78.3461 71.695 78.9261 71.3483 79.4328C71.0016 79.9261 70.5216 80.3128 69.9083 80.5928C69.295 80.8728 68.575 81.0128 67.7483 81.0128ZM78.0217 81.0128C76.8617 81.0128 75.8484 80.7394 74.9817 80.1928C74.1284 79.6328 73.5417 78.8794 73.2217 77.9328L75.1817 76.9928C75.4617 77.6061 75.8484 78.0861 76.3417 78.4328C76.8484 78.7794 77.4084 78.9528 78.0217 78.9528C78.5017 78.9528 78.8817 78.8461 79.1617 78.6328C79.4417 78.4194 79.5817 78.1394 79.5817 77.7928C79.5817 77.5794 79.5217 77.4061 79.4017 77.2728C79.2951 77.1261 79.1417 77.0061 78.9417 76.9128C78.7551 76.8061 78.5484 76.7194 78.3217 76.6528L76.5417 76.1528C75.6217 75.8861 74.9217 75.4794 74.4417 74.9328C73.9751 74.3861 73.7417 73.7394 73.7417 72.9928C73.7417 72.3261 73.9084 71.7461 74.2417 71.2528C74.5884 70.7461 75.0617 70.3528 75.6617 70.0728C76.2751 69.7928 76.9751 69.6528 77.7617 69.6528C78.7884 69.6528 79.6951 69.8994 80.4817 70.3928C81.2684 70.8861 81.8284 71.5794 82.1617 72.4728L80.1617 73.4128C79.9751 72.9194 79.6617 72.5261 79.2217 72.2328C78.7817 71.9394 78.2884 71.7928 77.7417 71.7928C77.3017 71.7928 76.9551 71.8928 76.7017 72.0928C76.4484 72.2928 76.3217 72.5528 76.3217 72.8728C76.3217 73.0728 76.3751 73.2461 76.4817 73.3928C76.5884 73.5394 76.7351 73.6594 76.9217 73.7528C77.1217 73.8461 77.3484 73.9328 77.6017 74.0128L79.3417 74.5328C80.2351 74.7994 80.9217 75.1994 81.4017 75.7328C81.8951 76.2661 82.1417 76.9194 82.1417 77.6928C82.1417 78.3461 81.9684 78.9261 81.6217 79.4328C81.2751 79.9261 80.7951 80.3128 80.1817 80.5928C79.5684 80.8728 78.8484 81.0128 78.0217 81.0128ZM38.413 105.773V94.8928H41.033V105.773H38.413ZM38.413 93.6728V90.8728H41.033V93.6728H38.413ZM48.7721 106.013C47.7054 106.013 46.7321 105.766 45.8521 105.273C44.9854 104.779 44.2921 104.106 43.7721 103.253C43.2654 102.399 43.0121 101.426 43.0121 100.333C43.0121 99.2394 43.2654 98.2661 43.7721 97.4128C44.2921 96.5594 44.9854 95.8861 45.8521 95.3928C46.7187 94.8994 47.6921 94.6528 48.7721 94.6528C49.8387 94.6528 50.8054 94.8994 51.6721 95.3928C52.5387 95.8861 53.2254 96.5594 53.7321 97.4128C54.2521 98.2528 54.5121 99.2261 54.5121 100.333C54.5121 101.426 54.2521 102.399 53.7321 103.253C53.2121 104.106 52.5187 104.779 51.6521 105.273C50.7854 105.766 49.8254 106.013 48.7721 106.013ZM48.7721 103.613C49.3587 103.613 49.8721 103.473 50.3121 103.193C50.7654 102.913 51.1187 102.526 51.3721 102.033C51.6387 101.526 51.7721 100.959 51.7721 100.333C51.7721 99.6928 51.6387 99.1328 51.3721 98.6528C51.1187 98.1594 50.7654 97.7728 50.3121 97.4928C49.8721 97.1994 49.3587 97.0528 48.7721 97.0528C48.1721 97.0528 47.6454 97.1994 47.1921 97.4928C46.7387 97.7728 46.3787 98.1594 46.1121 98.6528C45.8587 99.1328 45.7321 99.6928 45.7321 100.333C45.7321 100.959 45.8587 101.526 46.1121 102.033C46.3787 102.526 46.7387 102.913 47.1921 103.193C47.6454 103.473 48.1721 103.613 48.7721 103.613ZM56.4989 105.773V94.8928H58.9589V97.0328L58.7589 96.6528C59.0123 95.9994 59.4256 95.5061 59.9989 95.1728C60.5856 94.8261 61.2656 94.6528 62.0389 94.6528C62.8389 94.6528 63.5456 94.8261 64.1589 95.1728C64.7856 95.5194 65.2723 96.0061 65.6189 96.6328C65.9656 97.2461 66.1389 97.9594 66.1389 98.7728V105.773H63.5189V99.3928C63.5189 98.9128 63.4256 98.4994 63.2389 98.1528C63.0523 97.8061 62.7923 97.5394 62.4589 97.3528C62.1389 97.1528 61.7589 97.0528 61.3189 97.0528C60.8923 97.0528 60.5123 97.1528 60.1789 97.3528C59.8456 97.5394 59.5856 97.8061 59.3989 98.1528C59.2123 98.4994 59.1189 98.9128 59.1189 99.3928V105.773H56.4989Z" fill="#111827"/>
<path d="M488.158 32.4546H432.368C429.801 32.4546 427.719 34.5304 427.719 37.091V48.2182C427.719 50.7788 429.801 52.8546 432.368 52.8546H488.158C490.726 52.8546 492.807 50.7788 492.807 48.2182V37.091C492.807 34.5304 490.726 32.4546 488.158 32.4546Z" fill="url(#paint0_linear_21_2112)"/>
<path d="M449.732 52.9456V42.7637H453.749C454.518 42.7637 455.174 42.9013 455.718 43.1764C456.265 43.4482 456.681 43.8343 456.966 44.3348C457.254 44.8319 457.398 45.4169 457.398 46.0897C457.398 46.7659 457.252 47.3475 456.961 47.8348C456.669 48.3187 456.247 48.6899 455.693 48.9484C455.143 49.2069 454.477 49.3362 453.694 49.3362H451.005V47.6061H453.346C453.757 47.6061 454.099 47.5497 454.371 47.437C454.642 47.3243 454.845 47.1553 454.977 46.9299C455.113 46.7046 455.181 46.4245 455.181 46.0897C455.181 45.7517 455.113 45.4666 454.977 45.2346C454.845 45.0026 454.641 44.8269 454.366 44.7076C454.094 44.585 453.751 44.5237 453.336 44.5237H451.885V52.9456H449.732ZM455.231 48.312L457.761 52.9456H455.385L452.909 48.312H455.231ZM462.237 53.0947C461.451 53.0947 460.775 52.9356 460.208 52.6174C459.645 52.2959 459.211 51.8419 458.906 51.2552C458.601 50.6653 458.449 49.9676 458.449 49.1622C458.449 48.3767 458.601 47.6873 458.906 47.094C459.211 46.5007 459.64 46.0384 460.194 45.7069C460.75 45.3755 461.403 45.2098 462.152 45.2098C462.656 45.2098 463.125 45.291 463.559 45.4534C463.997 45.6125 464.378 45.8528 464.703 46.1742C465.031 46.4957 465.286 46.9001 465.468 47.3873C465.651 47.8712 465.742 48.438 465.742 49.0876V49.6693H459.294V48.3568H463.748C463.748 48.0519 463.682 47.7817 463.549 47.5464C463.417 47.3111 463.233 47.1271 462.998 46.9946C462.766 46.8587 462.495 46.7907 462.187 46.7907C461.866 46.7907 461.581 46.8653 461.332 47.0144C461.087 47.1603 460.895 47.3575 460.755 47.6061C460.616 47.8513 460.545 48.1248 460.542 48.4264V49.6742C460.542 50.0521 460.611 50.3786 460.75 50.6537C460.893 50.9287 461.093 51.1409 461.352 51.29C461.61 51.4392 461.917 51.5137 462.272 51.5137C462.507 51.5137 462.722 51.4806 462.918 51.4143C463.114 51.348 463.281 51.2486 463.42 51.116C463.559 50.9834 463.665 50.821 463.738 50.6288L465.697 50.7581C465.598 51.2287 465.394 51.6397 465.086 51.991C464.781 52.339 464.386 52.6108 463.902 52.8064C463.422 52.9986 462.867 53.0947 462.237 53.0947ZM471.23 45.3092V46.9001H466.517V45.3092H471.23ZM467.596 52.9456V44.7573C467.596 44.2038 467.704 43.7448 467.919 43.3802C468.138 43.0156 468.436 42.7422 468.814 42.5599C469.192 42.3776 469.621 42.2865 470.102 42.2865C470.427 42.2865 470.723 42.3113 470.992 42.361C471.264 42.4108 471.466 42.4555 471.598 42.4953L471.221 44.0862C471.138 44.0597 471.035 44.0348 470.912 44.0116C470.793 43.9884 470.67 43.9768 470.544 43.9768C470.233 43.9768 470.016 44.0497 469.893 44.1956C469.77 44.3381 469.709 44.5386 469.709 44.7971V52.9456H467.596ZM450.308 69.9456V62.3092H452.361V63.6416H452.44C452.58 63.1676 452.813 62.8097 453.141 62.5677C453.469 62.3225 453.847 62.1998 454.275 62.1998C454.381 62.1998 454.495 62.2064 454.618 62.2197C454.741 62.233 454.848 62.2512 454.941 62.2744V64.1537C454.842 64.1238 454.704 64.0973 454.528 64.0741C454.353 64.0509 454.192 64.0393 454.046 64.0393C453.735 64.0393 453.456 64.1073 453.211 64.2431C452.969 64.3757 452.777 64.5613 452.634 64.8C452.495 65.0386 452.425 65.3137 452.425 65.6252V69.9456H450.308ZM459.161 70.0947C458.375 70.0947 457.699 69.9356 457.132 69.6174C456.569 69.2959 456.135 68.8419 455.83 68.2552C455.525 67.6653 455.372 66.9676 455.372 66.1622C455.372 65.3767 455.525 64.6873 455.83 64.094C456.135 63.5007 456.564 63.0384 457.117 62.7069C457.674 62.3755 458.327 62.2098 459.076 62.2098C459.58 62.2098 460.049 62.291 460.483 62.4534C460.921 62.6125 461.302 62.8528 461.627 63.1742C461.955 63.4957 462.21 63.9001 462.392 64.3873C462.575 64.8712 462.666 65.438 462.666 66.0876V66.6693H456.218V65.3568H460.672C460.672 65.0519 460.606 64.7817 460.473 64.5464C460.341 64.3111 460.157 64.1271 459.921 63.9946C459.689 63.8587 459.419 63.7907 459.111 63.7907C458.789 63.7907 458.504 63.8653 458.256 64.0144C458.011 64.1603 457.818 64.3575 457.679 64.6061C457.54 64.8513 457.469 65.1248 457.465 65.4264V66.6742C457.465 67.0521 457.535 67.3786 457.674 67.6537C457.817 67.9287 458.017 68.1409 458.276 68.29C458.534 68.4392 458.841 68.5137 459.195 68.5137C459.431 68.5137 459.646 68.4806 459.842 68.4143C460.037 68.348 460.205 68.2486 460.344 68.116C460.483 67.9834 460.589 67.821 460.662 67.6288L462.621 67.7581C462.521 68.2287 462.318 68.6397 462.009 68.991C461.704 69.339 461.31 69.6108 460.826 69.8064C460.346 69.9986 459.79 70.0947 459.161 70.0947ZM470.401 64.4867L468.463 64.6061C468.429 64.4403 468.358 64.2912 468.249 64.1586C468.139 64.0227 467.995 63.915 467.816 63.8355C467.641 63.7526 467.43 63.7112 467.185 63.7112C466.857 63.7112 466.58 63.7808 466.355 63.92C466.129 64.0559 466.017 64.2382 466.017 64.4669C466.017 64.6492 466.089 64.8033 466.235 64.9292C466.381 65.0552 466.631 65.1563 466.986 65.2325L468.368 65.5109C469.111 65.6634 469.664 65.9086 470.029 66.2467C470.393 66.5848 470.575 67.0289 470.575 67.5791C470.575 68.0796 470.428 68.5187 470.133 68.8966C469.841 69.2744 469.44 69.5694 468.93 69.7815C468.423 69.9903 467.838 70.0947 467.175 70.0947C466.164 70.0947 465.359 69.8842 464.759 69.4633C464.162 69.0391 463.812 68.4624 463.71 67.7332L465.793 67.6238C465.856 67.9321 466.008 68.1674 466.25 68.3298C466.492 68.4889 466.802 68.5684 467.18 68.5684C467.551 68.5684 467.849 68.4972 468.075 68.3546C468.303 68.2088 468.419 68.0216 468.423 67.7929C468.419 67.6006 468.338 67.4432 468.179 67.3206C468.02 67.1946 467.775 67.0985 467.443 67.0322L466.121 66.7687C465.375 66.6196 464.82 66.361 464.455 65.9931C464.094 65.6252 463.914 65.1563 463.914 64.5862C463.914 64.0957 464.046 63.6731 464.311 63.3184C464.58 62.9638 464.956 62.6903 465.44 62.4981C465.927 62.3059 466.497 62.2098 467.15 62.2098C468.115 62.2098 468.874 62.4136 469.427 62.8213C469.984 63.2289 470.309 63.7841 470.401 64.4867ZM458.858 82.5308V86.9456H456.74V76.7637H458.798V80.6565H458.888C459.06 80.2057 459.339 79.8528 459.723 79.5975C460.108 79.339 460.59 79.2098 461.17 79.2098C461.7 79.2098 462.162 79.3258 462.557 79.5578C462.955 79.7865 463.263 80.1162 463.482 80.5471C463.704 80.9747 463.813 81.4867 463.81 82.0833V86.9456H461.692V82.4612C461.695 81.9905 461.576 81.6243 461.334 81.3625C461.095 81.1006 460.761 80.9697 460.33 80.9697C460.041 80.9697 459.786 81.031 459.564 81.1537C459.345 81.2763 459.173 81.4553 459.047 81.6906C458.924 81.9226 458.861 82.2027 458.858 82.5308Z" fill="white"/>
<g filter="url(#filter0_f_21_2112)">
<path d="M92.9825 97.3637C95.5501 97.3637 97.6316 95.2879 97.6316 92.7273C97.6316 90.1667 95.5501 88.0909 92.9825 88.0909C90.4148 88.0909 88.3333 90.1667 88.3333 92.7273C88.3333 95.2879 90.4148 97.3637 92.9825 97.3637Z" fill="#97EA90"/>
</g>
<path d="M84.9496 114.1H83.7167C83.6437 113.745 83.5161 113.434 83.3338 113.165C83.1549 112.897 82.9361 112.671 82.6776 112.489C82.4224 112.304 82.139 112.164 81.8275 112.072C81.5159 111.979 81.1911 111.932 80.853 111.932C80.2365 111.932 79.6781 112.088 79.1776 112.4C78.6804 112.711 78.2844 113.17 77.9894 113.777C77.6977 114.383 77.5519 115.127 77.5519 116.009C77.5519 116.891 77.6977 117.635 77.9894 118.241C78.2844 118.848 78.6804 119.307 79.1776 119.618C79.6781 119.93 80.2365 120.086 80.853 120.086C81.1911 120.086 81.5159 120.039 81.8275 119.947C82.139 119.854 82.4224 119.716 82.6776 119.534C82.9361 119.348 83.1549 119.121 83.3338 118.853C83.5161 118.581 83.6437 118.269 83.7167 117.918H84.9496C84.8568 118.439 84.6878 118.904 84.4425 119.315C84.1972 119.726 83.8923 120.076 83.5277 120.364C83.1632 120.649 82.7538 120.866 82.2998 121.015C81.849 121.165 81.3668 121.239 80.853 121.239C79.9847 121.239 79.2124 121.027 78.5363 120.603C77.8601 120.179 77.3282 119.575 76.9404 118.793C76.5526 118.011 76.3587 117.083 76.3587 116.009C76.3587 114.935 76.5526 114.007 76.9404 113.225C77.3282 112.443 77.8601 111.84 78.5363 111.415C79.2124 110.991 79.9847 110.779 80.853 110.779C81.3668 110.779 81.849 110.854 82.2998 111.003C82.7538 111.152 83.1632 111.371 83.5277 111.659C83.8923 111.944 84.1972 112.292 84.4425 112.703C84.6878 113.111 84.8568 113.576 84.9496 114.1ZM89.8852 121.259C89.1958 121.259 88.5909 121.095 88.0705 120.767C87.5535 120.439 87.1491 119.98 86.8575 119.39C86.5691 118.8 86.4249 118.11 86.4249 117.322C86.4249 116.526 86.5691 115.832 86.8575 115.238C87.1491 114.645 87.5535 114.184 88.0705 113.856C88.5909 113.528 89.1958 113.364 89.8852 113.364C90.5746 113.364 91.1778 113.528 91.6948 113.856C92.2152 114.184 92.6195 114.645 92.9079 115.238C93.1996 115.832 93.3454 116.526 93.3454 117.322C93.3454 118.11 93.1996 118.8 92.9079 119.39C92.6195 119.98 92.2152 120.439 91.6948 120.767C91.1778 121.095 90.5746 121.259 89.8852 121.259ZM89.8852 120.205C90.4088 120.205 90.8397 120.071 91.1778 119.802C91.5158 119.534 91.7661 119.181 91.9285 118.743C92.0909 118.306 92.1721 117.832 92.1721 117.322C92.1721 116.811 92.0909 116.336 91.9285 115.895C91.7661 115.454 91.5158 115.098 91.1778 114.826C90.8397 114.554 90.4088 114.418 89.8852 114.418C89.3615 114.418 88.9306 114.554 88.5925 114.826C88.2545 115.098 88.0042 115.454 87.8418 115.895C87.6794 116.336 87.5982 116.811 87.5982 117.322C87.5982 117.832 87.6794 118.306 87.8418 118.743C88.0042 119.181 88.2545 119.534 88.5925 119.802C88.9306 120.071 89.3615 120.205 89.8852 120.205ZM96.3097 116.506V121.1H95.1364V113.464H96.2699V114.657H96.3694C96.5483 114.269 96.8201 113.957 97.1847 113.722C97.5493 113.483 98.0199 113.364 98.5966 113.364C99.1137 113.364 99.5661 113.47 99.9539 113.682C100.342 113.891 100.643 114.209 100.859 114.637C101.074 115.061 101.182 115.598 101.182 116.248V121.1H100.009V116.327C100.009 115.727 99.8528 115.26 99.5412 114.925C99.2297 114.587 98.8021 114.418 98.2586 114.418C97.884 114.418 97.5493 114.499 97.2543 114.662C96.9626 114.824 96.7323 115.061 96.5633 115.373C96.3942 115.684 96.3097 116.062 96.3097 116.506ZM104.499 116.506V121.1H103.326V113.464H104.459V114.657H104.559C104.738 114.269 105.01 113.957 105.374 113.722C105.739 113.483 106.209 113.364 106.786 113.364C107.303 113.364 107.756 113.47 108.143 113.682C108.531 113.891 108.833 114.209 109.048 114.637C109.264 115.061 109.371 115.598 109.371 116.248V121.1H108.198V116.327C108.198 115.727 108.042 115.26 107.731 114.925C107.419 114.587 106.992 114.418 106.448 114.418C106.073 114.418 105.739 114.499 105.444 114.662C105.152 114.824 104.922 115.061 104.753 115.373C104.584 115.684 104.499 116.062 104.499 116.506ZM86.7307 138.259C85.9949 138.259 85.3602 138.097 84.8266 137.772C84.2963 137.444 83.8869 136.986 83.5986 136.4C83.3135 135.81 83.171 135.124 83.171 134.341C83.171 133.559 83.3135 132.87 83.5986 132.273C83.8869 131.673 84.288 131.206 84.8017 130.871C85.3188 130.533 85.922 130.364 86.6114 130.364C87.0091 130.364 87.4019 130.43 87.7896 130.563C88.1774 130.696 88.5304 130.911 88.8486 131.209C89.1668 131.504 89.4203 131.895 89.6092 132.383C89.7982 132.87 89.8926 133.47 89.8926 134.182V134.68H84.0063V133.665H88.6994C88.6994 133.234 88.6133 132.85 88.4409 132.512C88.2719 132.174 88.0299 131.907 87.7151 131.711C87.4035 131.516 87.0356 131.418 86.6114 131.418C86.144 131.418 85.7397 131.534 85.3983 131.766C85.0602 131.995 84.8001 132.293 84.6178 132.661C84.4355 133.029 84.3443 133.423 84.3443 133.844V134.52C84.3443 135.097 84.4438 135.586 84.6426 135.987C84.8448 136.385 85.1249 136.688 85.4828 136.897C85.8408 137.102 86.2567 137.205 86.7307 137.205C87.0389 137.205 87.3173 137.162 87.5659 137.076C87.8178 136.986 88.0349 136.854 88.2172 136.678C88.3995 136.499 88.5403 136.277 88.6398 136.012L89.7733 136.33C89.654 136.715 89.4535 137.053 89.1717 137.344C88.89 137.633 88.542 137.858 88.1277 138.02C87.7134 138.18 87.2477 138.259 86.7307 138.259ZM94.7797 138.259C94.0638 138.259 93.4473 138.09 92.9303 137.752C92.4132 137.414 92.0155 136.948 91.7371 136.355C91.4587 135.762 91.3195 135.084 91.3195 134.322C91.3195 133.546 91.462 132.862 91.747 132.268C92.0354 131.672 92.4364 131.206 92.9501 130.871C93.4672 130.533 94.0704 130.364 94.7598 130.364C95.2967 130.364 95.7806 130.464 96.2115 130.662C96.6424 130.861 96.9954 131.14 97.2705 131.498C97.5456 131.856 97.7162 132.273 97.7825 132.751H96.6092C96.5197 132.403 96.3209 132.094 96.0126 131.826C95.7077 131.554 95.2967 131.418 94.7797 131.418C94.3223 131.418 93.9213 131.537 93.5766 131.776C93.2352 132.011 92.9684 132.345 92.7761 132.775C92.5872 133.203 92.4928 133.705 92.4928 134.282C92.4928 134.872 92.5856 135.385 92.7712 135.823C92.9601 136.26 93.2252 136.6 93.5666 136.842C93.9113 137.084 94.3157 137.205 94.7797 137.205C95.0846 137.205 95.3614 137.152 95.6099 137.046C95.8585 136.94 96.069 136.787 96.2413 136.589C96.4137 136.39 96.5363 136.151 96.6092 135.873H97.7825C97.7162 136.323 97.5522 136.729 97.2903 137.091C97.0318 137.449 96.6888 137.734 96.2612 137.946C95.837 138.155 95.3431 138.259 94.7797 138.259ZM102.819 130.464V131.458H98.8614V130.464H102.819ZM100.015 128.634H101.188V135.912C101.188 136.244 101.236 136.492 101.332 136.658C101.432 136.821 101.558 136.93 101.71 136.986C101.866 137.039 102.03 137.066 102.202 137.066C102.332 137.066 102.438 137.059 102.52 137.046C102.603 137.029 102.67 137.016 102.719 137.006L102.958 138.06C102.878 138.09 102.767 138.12 102.625 138.15C102.482 138.183 102.302 138.199 102.083 138.199C101.752 138.199 101.427 138.128 101.109 137.986C100.794 137.843 100.532 137.626 100.323 137.334C100.118 137.043 100.015 136.675 100.015 136.231V128.634ZM84.1237 155.1V147.464H85.297V155.1H84.1237ZM84.7203 146.191C84.4916 146.191 84.2944 146.113 84.1287 145.957C83.9663 145.801 83.8851 145.614 83.8851 145.395C83.8851 145.177 83.9663 144.989 84.1287 144.834C84.2944 144.678 84.4916 144.6 84.7203 144.6C84.949 144.6 85.1445 144.678 85.3069 144.834C85.4727 144.989 85.5555 145.177 85.5555 145.395C85.5555 145.614 85.4727 145.801 85.3069 145.957C85.1445 146.113 84.949 146.191 84.7203 146.191ZM90.5482 155.259C89.8589 155.259 89.254 155.095 88.7336 154.767C88.2166 154.439 87.8122 153.98 87.5205 153.39C87.2322 152.8 87.088 152.11 87.088 151.322C87.088 150.526 87.2322 149.832 87.5205 149.238C87.8122 148.645 88.2166 148.184 88.7336 147.856C89.254 147.528 89.8589 147.364 90.5482 147.364C91.2376 147.364 91.8409 147.528 92.3579 147.856C92.8783 148.184 93.2826 148.645 93.571 149.238C93.8626 149.832 94.0085 150.526 94.0085 151.322C94.0085 152.11 93.8626 152.8 93.571 153.39C93.2826 153.98 92.8783 154.439 92.3579 154.767C91.8409 155.095 91.2376 155.259 90.5482 155.259ZM90.5482 154.205C91.0719 154.205 91.5028 154.071 91.8409 153.802C92.1789 153.534 92.4292 153.181 92.5916 152.743C92.754 152.306 92.8352 151.832 92.8352 151.322C92.8352 150.811 92.754 150.336 92.5916 149.895C92.4292 149.454 92.1789 149.098 91.8409 148.826C91.5028 148.554 91.0719 148.418 90.5482 148.418C90.0246 148.418 89.5937 148.554 89.2556 148.826C88.9176 149.098 88.6673 149.454 88.5049 149.895C88.3425 150.336 88.2613 150.811 88.2613 151.322C88.2613 151.832 88.3425 152.306 88.5049 152.743C88.6673 153.181 88.9176 153.534 89.2556 153.802C89.5937 154.071 90.0246 154.205 90.5482 154.205ZM96.9728 150.506V155.1H95.7995V147.464H96.933V148.657H97.0324C97.2114 148.269 97.4832 147.957 97.8478 147.722C98.2124 147.483 98.683 147.364 99.2597 147.364C99.7768 147.364 100.229 147.47 100.617 147.682C101.005 147.891 101.306 148.209 101.522 148.637C101.737 149.061 101.845 149.598 101.845 150.248V155.1H100.672V150.327C100.672 149.727 100.516 149.26 100.204 148.925C99.8928 148.587 99.4652 148.418 98.9216 148.418C98.5471 148.418 98.2124 148.499 97.9174 148.662C97.6257 148.824 97.3954 149.061 97.2263 149.373C97.0573 149.684 96.9728 150.062 96.9728 150.506Z" fill="#374151"/>
<path d="M91.0435 127.739H88.4331L87.8047 129.764H86.8111L89.3355 121.943H90.168L92.6495 129.764H91.6612L91.0435 127.739ZM88.7017 126.874H90.7803L89.7491 123.479L88.7017 126.874ZM98.982 127.411C98.9354 127.773 98.8423 128.106 98.7027 128.41C98.563 128.711 98.3822 128.969 98.1602 129.184C97.9346 129.402 97.6678 129.572 97.3599 129.694C97.0555 129.812 96.7154 129.871 96.3394 129.871C96.0171 129.871 95.7235 129.826 95.4585 129.737C95.1971 129.644 94.9644 129.517 94.7603 129.355C94.5526 129.194 94.3736 129.005 94.2232 128.786C94.0764 128.568 93.9546 128.33 93.858 128.072C93.7577 127.814 93.6825 127.544 93.6324 127.261C93.5858 126.978 93.5608 126.691 93.5572 126.401V125.311C93.5608 125.021 93.5858 124.735 93.6324 124.452C93.6825 124.169 93.7577 123.898 93.858 123.641C93.9546 123.383 94.0764 123.145 94.2232 122.926C94.3736 122.704 94.5526 122.513 94.7603 122.352C94.9644 122.19 95.1971 122.065 95.4585 121.976C95.7199 121.882 96.0136 121.836 96.3394 121.836C96.7297 121.836 97.0788 121.897 97.3868 122.019C97.6947 122.137 97.9597 122.305 98.1817 122.523C98.4037 122.745 98.5809 123.01 98.7134 123.318C98.8495 123.626 98.939 123.966 98.982 124.339H97.9883C97.9561 124.103 97.9006 123.882 97.8218 123.678C97.743 123.474 97.6374 123.295 97.5049 123.141C97.3724 122.987 97.2095 122.867 97.0162 122.781C96.8264 122.692 96.6008 122.647 96.3394 122.647C96.1031 122.647 95.8936 122.686 95.711 122.765C95.5319 122.84 95.378 122.944 95.2491 123.077C95.1166 123.209 95.0056 123.363 94.9161 123.539C94.8301 123.714 94.7603 123.9 94.7066 124.097C94.6529 124.294 94.6135 124.496 94.5884 124.704C94.5669 124.908 94.5562 125.107 94.5562 125.3V126.401C94.5562 126.595 94.5669 126.795 94.5884 127.003C94.6135 127.207 94.6529 127.408 94.7066 127.604C94.7603 127.805 94.8301 127.993 94.9161 128.168C95.002 128.344 95.1112 128.498 95.2437 128.63C95.3762 128.766 95.5319 128.874 95.711 128.953C95.89 129.028 96.0995 129.065 96.3394 129.065C96.6008 129.065 96.8264 129.024 97.0162 128.942C97.2095 128.86 97.3724 128.743 97.5049 128.593C97.6374 128.446 97.743 128.272 97.8218 128.072C97.9006 127.868 97.9561 127.647 97.9883 127.411H98.982ZM92.585 137.792H90.168V144.764H89.2012V137.792H86.7842V136.943H92.585V137.792ZM93.917 136.943H98.6436V137.808H96.7691V143.904H98.6436V144.764H93.917V143.904H95.7486V137.808H93.917V136.943ZM89.2281 159.764L86.7574 151.943H87.8208L89.5396 157.782L89.6524 158.163L89.7706 157.771L91.5 151.943H92.5581L90.0928 159.764H89.2281ZM98.2193 156.149H94.9537V158.92H98.7618V159.764H93.96V151.943H98.7134V152.792H94.9537V155.306H98.2193V156.149Z" fill="#97EA90"/>
<g filter="url(#filter1_f_21_2112)">
<path d="M204.561 97.3637C207.129 97.3637 209.211 95.2879 209.211 92.7273C209.211 90.1667 207.129 88.0909 204.561 88.0909C201.994 88.0909 199.912 90.1667 199.912 92.7273C199.912 95.2879 201.994 97.3637 204.561 97.3637Z" fill="#97EA90"/>
</g>
<path d="M199.735 114.1H198.502C198.429 113.745 198.301 113.434 198.119 113.165C197.94 112.897 197.721 112.671 197.463 112.489C197.207 112.304 196.924 112.164 196.612 112.072C196.301 111.979 195.976 111.932 195.638 111.932C195.022 111.932 194.463 112.088 193.963 112.4C193.465 112.711 193.069 113.17 192.774 113.777C192.483 114.383 192.337 115.127 192.337 116.009C192.337 116.891 192.483 117.635 192.774 118.241C193.069 118.848 193.465 119.307 193.963 119.618C194.463 119.93 195.022 120.086 195.638 120.086C195.976 120.086 196.301 120.039 196.612 119.947C196.924 119.854 197.207 119.716 197.463 119.534C197.721 119.348 197.94 119.121 198.119 118.853C198.301 118.581 198.429 118.269 198.502 117.918H199.735C199.642 118.439 199.473 118.904 199.228 119.315C198.982 119.726 198.677 120.076 198.313 120.364C197.948 120.649 197.539 120.866 197.085 121.015C196.634 121.165 196.152 121.239 195.638 121.239C194.77 121.239 193.997 121.027 193.321 120.603C192.645 120.179 192.113 119.575 191.725 118.793C191.338 118.011 191.144 117.083 191.144 116.009C191.144 114.935 191.338 114.007 191.725 113.225C192.113 112.443 192.645 111.84 193.321 111.415C193.997 110.991 194.77 110.779 195.638 110.779C196.152 110.779 196.634 110.854 197.085 111.003C197.539 111.152 197.948 111.371 198.313 111.659C198.677 111.944 198.982 112.292 199.228 112.703C199.473 113.111 199.642 113.576 199.735 114.1ZM206.38 117.978V113.464H207.554V121.1H206.38V119.807H206.301C206.122 120.195 205.843 120.525 205.466 120.797C205.088 121.065 204.611 121.199 204.034 121.199C203.557 121.199 203.132 121.095 202.761 120.886C202.39 120.674 202.098 120.356 201.886 119.932C201.674 119.504 201.568 118.966 201.568 118.316V113.464H202.741V118.236C202.741 118.793 202.897 119.237 203.209 119.569C203.523 119.9 203.924 120.066 204.412 120.066C204.703 120.066 205 119.991 205.302 119.842C205.606 119.693 205.862 119.464 206.067 119.156C206.276 118.848 206.38 118.455 206.38 117.978ZM209.703 121.1V113.464H210.836V114.617H210.916C211.055 114.239 211.307 113.933 211.671 113.697C212.036 113.462 212.447 113.344 212.904 113.344C212.991 113.344 213.098 113.346 213.228 113.349C213.357 113.353 213.455 113.358 213.521 113.364V114.557C213.481 114.547 213.39 114.533 213.247 114.513C213.108 114.489 212.961 114.478 212.805 114.478C212.434 114.478 212.102 114.556 211.811 114.711C211.522 114.864 211.294 115.076 211.125 115.348C210.959 115.616 210.876 115.923 210.876 116.268V121.1H209.703ZM214.912 121.1V113.464H216.045V114.617H216.125C216.264 114.239 216.516 113.933 216.88 113.697C217.245 113.462 217.656 113.344 218.113 113.344C218.2 113.344 218.307 113.346 218.437 113.349C218.566 113.353 218.664 113.358 218.73 113.364V114.557C218.69 114.547 218.599 114.533 218.456 114.513C218.317 114.489 218.17 114.478 218.014 114.478C217.643 114.478 217.311 114.556 217.02 114.711C216.731 114.864 216.503 115.076 216.334 115.348C216.168 115.616 216.085 115.923 216.085 116.268V121.1H214.912ZM198.125 138.259C197.389 138.259 196.755 138.097 196.221 137.772C195.691 137.444 195.281 136.986 194.993 136.4C194.708 135.81 194.565 135.124 194.565 134.341C194.565 133.559 194.708 132.87 194.993 132.273C195.281 131.673 195.682 131.206 196.196 130.871C196.713 130.533 197.316 130.364 198.006 130.364C198.403 130.364 198.796 130.43 199.184 130.563C199.572 130.696 199.925 130.911 200.243 131.209C200.561 131.504 200.815 131.895 201.004 132.383C201.193 132.87 201.287 133.47 201.287 134.182V134.68H195.401V133.665H200.094C200.094 133.234 200.008 132.85 199.835 132.512C199.666 132.174 199.424 131.907 199.109 131.711C198.798 131.516 198.43 131.418 198.006 131.418C197.538 131.418 197.134 131.534 196.793 131.766C196.455 131.995 196.194 132.293 196.012 132.661C195.83 133.029 195.739 133.423 195.739 133.844V134.52C195.739 135.097 195.838 135.586 196.037 135.987C196.239 136.385 196.519 136.688 196.877 136.897C197.235 137.102 197.651 137.205 198.125 137.205C198.433 137.205 198.712 137.162 198.96 137.076C199.212 136.986 199.429 136.854 199.612 136.678C199.794 136.499 199.935 136.277 200.034 136.012L201.168 136.33C201.048 136.715 200.848 137.053 200.566 137.344C200.284 137.633 199.936 137.858 199.522 138.02C199.108 138.18 198.642 138.259 198.125 138.259ZM204.245 133.506V138.1H203.072V130.464H204.205V131.657H204.305C204.484 131.269 204.756 130.957 205.12 130.722C205.485 130.483 205.955 130.364 206.532 130.364C207.049 130.364 207.501 130.47 207.889 130.682C208.277 130.891 208.579 131.209 208.794 131.637C209.01 132.061 209.117 132.598 209.117 133.248V138.1H207.944V133.327C207.944 132.727 207.788 132.26 207.477 131.925C207.165 131.587 206.738 131.418 206.194 131.418C205.819 131.418 205.485 131.499 205.19 131.662C204.898 131.824 204.668 132.061 204.499 132.373C204.33 132.684 204.245 133.062 204.245 133.506ZM214.582 130.464V131.458H210.625V130.464H214.582ZM211.778 128.634H212.952V135.912C212.952 136.244 213 136.492 213.096 136.658C213.195 136.821 213.321 136.93 213.474 136.986C213.629 137.039 213.793 137.066 213.966 137.066C214.095 137.066 214.201 137.059 214.284 137.046C214.367 137.029 214.433 137.016 214.483 137.006L214.721 138.06C214.642 138.09 214.531 138.12 214.388 138.15C214.246 138.183 214.065 138.199 213.846 138.199C213.515 138.199 213.19 138.128 212.872 137.986C212.557 137.843 212.295 137.626 212.087 137.334C211.881 137.043 211.778 136.675 211.778 136.231V128.634ZM196.057 147.464C195.997 146.96 195.755 146.569 195.331 146.29C194.907 146.012 194.386 145.873 193.77 145.873C193.319 145.873 192.925 145.946 192.587 146.091C192.252 146.237 191.99 146.438 191.801 146.693C191.616 146.948 191.523 147.238 191.523 147.563C191.523 147.835 191.587 148.068 191.717 148.264C191.849 148.456 192.018 148.617 192.224 148.746C192.429 148.872 192.645 148.977 192.87 149.059C193.095 149.139 193.303 149.204 193.492 149.253L194.526 149.532C194.791 149.601 195.086 149.698 195.411 149.82C195.739 149.943 196.052 150.11 196.35 150.322C196.652 150.531 196.9 150.8 197.096 151.128C197.291 151.456 197.389 151.858 197.389 152.336C197.389 152.886 197.245 153.383 196.957 153.827C196.672 154.271 196.254 154.624 195.704 154.886C195.157 155.148 194.492 155.279 193.71 155.279C192.981 155.279 192.35 155.161 191.816 154.926C191.286 154.691 190.868 154.363 190.563 153.942C190.262 153.521 190.091 153.032 190.051 152.475H191.324C191.357 152.859 191.486 153.178 191.712 153.43C191.94 153.678 192.229 153.864 192.577 153.986C192.928 154.106 193.306 154.165 193.71 154.165C194.181 154.165 194.604 154.089 194.978 153.937C195.353 153.781 195.649 153.565 195.868 153.29C196.087 153.012 196.196 152.687 196.196 152.316C196.196 151.978 196.102 151.703 195.913 151.491C195.724 151.278 195.475 151.106 195.167 150.974C194.859 150.841 194.526 150.725 194.168 150.626L192.915 150.268C192.119 150.039 191.49 149.712 191.026 149.288C190.562 148.864 190.33 148.309 190.33 147.623C190.33 147.053 190.484 146.555 190.792 146.131C191.104 145.704 191.521 145.372 192.045 145.137C192.572 144.898 193.16 144.779 193.81 144.779C194.466 144.779 195.049 144.897 195.56 145.132C196.07 145.364 196.475 145.682 196.773 146.086C197.074 146.491 197.233 146.95 197.25 147.464H196.057ZM202.578 147.464V148.458H198.621V147.464H202.578ZM199.774 145.634H200.948V152.912C200.948 153.244 200.996 153.492 201.092 153.658C201.191 153.821 201.317 153.93 201.47 153.986C201.625 154.039 201.79 154.066 201.962 154.066C202.091 154.066 202.197 154.059 202.28 154.046C202.363 154.029 202.429 154.016 202.479 154.006L202.718 155.06C202.638 155.09 202.527 155.12 202.384 155.15C202.242 155.183 202.061 155.199 201.843 155.199C201.511 155.199 201.186 155.128 200.868 154.986C200.553 154.843 200.291 154.626 200.083 154.334C199.877 154.043 199.774 153.675 199.774 153.231V145.634ZM207.463 155.259C206.727 155.259 206.092 155.097 205.559 154.772C205.029 154.444 204.619 153.986 204.331 153.4C204.046 152.81 203.903 152.124 203.903 151.341C203.903 150.559 204.046 149.87 204.331 149.273C204.619 148.673 205.02 148.206 205.534 147.871C206.051 147.533 206.654 147.364 207.344 147.364C207.741 147.364 208.134 147.43 208.522 147.563C208.91 147.696 209.263 147.911 209.581 148.209C209.899 148.504 210.153 148.895 210.342 149.383C210.53 149.87 210.625 150.47 210.625 151.182V151.68H204.739V150.665H209.432C209.432 150.234 209.346 149.85 209.173 149.512C209.004 149.174 208.762 148.907 208.447 148.711C208.136 148.516 207.768 148.418 207.344 148.418C206.876 148.418 206.472 148.534 206.131 148.766C205.793 148.995 205.532 149.293 205.35 149.661C205.168 150.029 205.077 150.423 205.077 150.844V151.52C205.077 152.097 205.176 152.586 205.375 152.987C205.577 153.385 205.857 153.688 206.215 153.897C206.573 154.102 206.989 154.205 207.463 154.205C207.771 154.205 208.05 154.162 208.298 154.076C208.55 153.986 208.767 153.854 208.949 153.678C209.132 153.499 209.273 153.277 209.372 153.012L210.506 153.33C210.386 153.715 210.186 154.053 209.904 154.344C209.622 154.633 209.274 154.858 208.86 155.02C208.446 155.18 207.98 155.259 207.463 155.259ZM212.41 157.964V147.464H213.543V148.677H213.682C213.769 148.544 213.888 148.375 214.04 148.17C214.196 147.961 214.418 147.775 214.707 147.613C214.998 147.447 215.393 147.364 215.89 147.364C216.533 147.364 217.1 147.525 217.59 147.846C218.081 148.168 218.463 148.624 218.739 149.214C219.014 149.804 219.151 150.5 219.151 151.302C219.151 152.11 219.014 152.811 218.739 153.405C218.463 153.995 218.082 154.452 217.595 154.777C217.108 155.098 216.546 155.259 215.91 155.259C215.419 155.259 215.026 155.178 214.731 155.015C214.436 154.85 214.209 154.662 214.05 154.454C213.891 154.242 213.769 154.066 213.682 153.927H213.583V157.964H212.41ZM213.563 151.282C213.563 151.858 213.648 152.367 213.817 152.808C213.986 153.246 214.233 153.589 214.557 153.837C214.882 154.082 215.28 154.205 215.751 154.205C216.241 154.205 216.65 154.076 216.979 153.817C217.31 153.555 217.559 153.204 217.724 152.763C217.893 152.319 217.978 151.825 217.978 151.282C217.978 150.745 217.895 150.261 217.729 149.83C217.567 149.396 217.32 149.053 216.989 148.801C216.66 148.546 216.248 148.418 215.751 148.418C215.273 148.418 214.872 148.539 214.547 148.781C214.223 149.02 213.977 149.354 213.812 149.785C213.646 150.213 213.563 150.712 213.563 151.282Z" fill="#374151"/>
<path d="M199.679 127.787C199.679 127.547 199.624 127.345 199.513 127.18C199.405 127.015 199.266 126.876 199.094 126.761C198.922 126.65 198.732 126.557 198.524 126.482C198.32 126.407 198.123 126.339 197.933 126.278C197.658 126.188 197.377 126.081 197.09 125.956C196.807 125.827 196.55 125.673 196.317 125.494C196.08 125.311 195.887 125.096 195.737 124.849C195.59 124.598 195.516 124.305 195.516 123.968C195.516 123.632 195.59 123.331 195.737 123.066C195.887 122.801 196.082 122.577 196.322 122.395C196.562 122.212 196.834 122.074 197.139 121.981C197.443 121.884 197.749 121.836 198.057 121.836C198.397 121.836 198.725 121.893 199.04 122.008C199.355 122.119 199.634 122.276 199.878 122.48C200.121 122.685 200.316 122.932 200.463 123.222C200.61 123.512 200.687 123.836 200.694 124.194H199.674C199.645 123.968 199.59 123.764 199.507 123.582C199.425 123.395 199.316 123.236 199.18 123.104C199.044 122.971 198.881 122.869 198.691 122.797C198.505 122.722 198.293 122.685 198.057 122.685C197.867 122.685 197.681 122.711 197.498 122.765C197.319 122.819 197.16 122.899 197.02 123.007C196.877 123.114 196.763 123.247 196.677 123.404C196.594 123.562 196.553 123.744 196.553 123.952C196.557 124.178 196.614 124.369 196.725 124.527C196.836 124.681 196.977 124.812 197.149 124.919C197.318 125.026 197.5 125.116 197.697 125.188C197.898 125.259 198.086 125.322 198.261 125.375C198.551 125.465 198.841 125.574 199.131 125.703C199.421 125.828 199.686 125.99 199.926 126.187C200.162 126.369 200.352 126.593 200.495 126.858C200.642 127.123 200.716 127.429 200.716 127.776C200.716 128.127 200.637 128.433 200.479 128.695C200.325 128.956 200.125 129.173 199.878 129.345C199.631 129.52 199.351 129.653 199.04 129.742C198.728 129.828 198.417 129.871 198.105 129.871C197.733 129.871 197.366 129.808 197.004 129.683C196.646 129.558 196.335 129.377 196.07 129.141C195.833 128.937 195.645 128.698 195.506 128.426C195.37 128.151 195.296 127.844 195.286 127.508H196.301C196.333 127.751 196.399 127.968 196.499 128.158C196.6 128.344 196.729 128.501 196.886 128.63C197.044 128.763 197.225 128.863 197.429 128.931C197.636 128.996 197.862 129.028 198.105 129.028C198.299 129.028 198.488 129.005 198.675 128.958C198.864 128.908 199.033 128.831 199.18 128.727C199.326 128.627 199.446 128.5 199.539 128.346C199.633 128.188 199.679 128.002 199.679 127.787ZM207.467 122.792H205.05V129.764H204.083V122.792H201.666V121.943H207.467V122.792ZM213.101 126.149H209.836V128.92H213.644V129.764H208.842V121.943H213.596V122.792H209.836V125.306H213.101V126.149ZM203.278 141.627V144.764H202.284V136.943H204.819C205.17 136.951 205.501 137.006 205.813 137.11C206.128 137.214 206.404 137.364 206.64 137.561C206.876 137.758 207.063 138.001 207.199 138.292C207.338 138.582 207.408 138.915 207.408 139.291C207.408 139.667 207.338 140 207.199 140.29C207.063 140.576 206.876 140.818 206.64 141.015C206.404 141.212 206.128 141.362 205.813 141.466C205.501 141.57 205.17 141.623 204.819 141.627H203.278ZM203.278 140.811H204.819C205.048 140.807 205.26 140.771 205.453 140.703C205.646 140.632 205.815 140.531 205.958 140.402C206.101 140.273 206.212 140.118 206.291 139.935C206.373 139.749 206.414 139.538 206.414 139.301C206.414 139.065 206.373 138.852 206.291 138.662C206.212 138.472 206.103 138.311 205.963 138.179C205.82 138.046 205.65 137.944 205.453 137.873C205.26 137.801 205.048 137.763 204.819 137.76H203.278V140.811ZM196.746 155.375H197.455C197.706 155.375 197.926 155.341 198.116 155.273C198.309 155.205 198.472 155.112 198.605 154.994C198.734 154.876 198.832 154.735 198.9 154.57C198.968 154.405 199.002 154.224 199.002 154.027C199.002 153.795 198.972 153.592 198.911 153.42C198.85 153.245 198.761 153.1 198.642 152.985C198.528 152.874 198.385 152.792 198.213 152.738C198.044 152.681 197.851 152.652 197.633 152.652C197.421 152.652 197.228 152.685 197.053 152.749C196.881 152.81 196.734 152.899 196.612 153.018C196.487 153.136 196.39 153.277 196.322 153.442C196.254 153.607 196.22 153.791 196.22 153.995H195.221C195.221 153.698 195.278 153.419 195.393 153.157C195.511 152.892 195.676 152.661 195.887 152.464C196.098 152.271 196.351 152.119 196.644 152.008C196.942 151.893 197.271 151.836 197.633 151.836C197.984 151.836 198.304 151.884 198.594 151.981C198.884 152.074 199.133 152.214 199.341 152.4C199.548 152.586 199.71 152.817 199.824 153.093C199.939 153.368 199.996 153.687 199.996 154.049C199.996 154.199 199.973 154.355 199.926 154.516C199.88 154.677 199.808 154.833 199.711 154.983C199.615 155.137 199.489 155.282 199.335 155.418C199.185 155.551 199.004 155.662 198.793 155.751C199.047 155.834 199.258 155.941 199.427 156.074C199.599 156.206 199.736 156.355 199.84 156.52C199.94 156.684 200.01 156.858 200.05 157.041C200.093 157.223 200.114 157.404 200.114 157.583C200.114 157.948 200.051 158.272 199.926 158.555C199.801 158.838 199.627 159.076 199.405 159.27C199.183 159.466 198.92 159.617 198.616 159.721C198.315 159.821 197.989 159.871 197.638 159.871C197.294 159.871 196.97 159.823 196.666 159.726C196.365 159.629 196.104 159.488 195.882 159.302C195.66 159.116 195.482 158.888 195.35 158.62C195.221 158.351 195.157 158.045 195.157 157.701H196.15C196.15 157.905 196.184 158.091 196.252 158.26C196.324 158.428 196.424 158.571 196.553 158.689C196.682 158.808 196.838 158.899 197.02 158.963C197.207 159.028 197.412 159.06 197.638 159.06C197.864 159.06 198.068 159.031 198.25 158.974C198.433 158.913 198.589 158.822 198.718 158.7C198.847 158.578 198.945 158.428 199.013 158.249C199.085 158.066 199.12 157.852 199.12 157.604C199.12 157.361 199.079 157.152 198.997 156.976C198.918 156.797 198.807 156.648 198.664 156.53C198.517 156.412 198.34 156.324 198.132 156.267C197.928 156.21 197.703 156.181 197.455 156.181H196.746V155.375ZM203.503 160.435H202.612L205.877 151.943H206.764L203.503 160.435ZM209.154 155.843L209.546 151.943H213.558V152.91H210.384L210.163 154.994C210.317 154.905 210.502 154.826 210.717 154.758C210.932 154.69 211.18 154.656 211.463 154.656C211.825 154.656 212.149 154.718 212.435 154.844C212.722 154.969 212.965 155.145 213.166 155.37C213.366 155.599 213.52 155.875 213.628 156.197C213.735 156.52 213.789 156.878 213.789 157.271C213.789 157.644 213.739 157.989 213.639 158.308C213.538 158.627 213.388 158.901 213.187 159.13C212.983 159.363 212.727 159.545 212.419 159.678C212.111 159.807 211.75 159.871 211.334 159.871C211.016 159.871 210.715 159.826 210.432 159.737C210.149 159.647 209.898 159.513 209.68 159.334C209.458 159.155 209.275 158.929 209.132 158.657C208.993 158.385 208.905 158.068 208.869 157.707H209.814C209.875 158.151 210.038 158.487 210.303 158.716C210.572 158.945 210.915 159.06 211.334 159.06C211.571 159.06 211.78 159.019 211.963 158.937C212.145 158.851 212.299 158.729 212.425 158.571C212.546 158.417 212.638 158.231 212.699 158.013C212.763 157.794 212.795 157.551 212.795 157.282C212.795 157.039 212.759 156.811 212.688 156.6C212.62 156.389 212.52 156.204 212.387 156.047C212.255 155.893 212.092 155.771 211.898 155.682C211.705 155.592 211.483 155.547 211.232 155.547C211.068 155.547 210.924 155.56 210.803 155.585C210.684 155.606 210.577 155.639 210.48 155.682C210.384 155.725 210.292 155.777 210.206 155.837C210.124 155.898 210.038 155.968 209.949 156.047L209.154 155.843Z" fill="#1258CA"/>
<path d="M316.14 97.3637C318.708 97.3637 320.789 95.2879 320.789 92.7273C320.789 90.1667 318.708 88.0909 316.14 88.0909C313.573 88.0909 311.491 90.1667 311.491 92.7273C311.491 95.2879 313.573 97.3637 316.14 97.3637Z" fill="#D1D5DB"/>
<path d="M315.057 114.1C314.948 113.765 314.804 113.465 314.625 113.2C314.449 112.932 314.239 112.703 313.993 112.514C313.751 112.325 313.476 112.181 313.168 112.082C312.86 111.982 312.522 111.932 312.154 111.932C311.551 111.932 311.002 112.088 310.508 112.4C310.014 112.711 309.622 113.17 309.33 113.777C309.038 114.383 308.892 115.127 308.892 116.009C308.892 116.891 309.04 117.635 309.335 118.241C309.63 118.848 310.029 119.307 310.533 119.618C311.037 119.93 311.604 120.086 312.233 120.086C312.817 120.086 313.33 119.961 313.774 119.713C314.222 119.461 314.57 119.106 314.819 118.649C315.07 118.188 315.196 117.646 315.196 117.023L315.574 117.103H312.512V116.009H316.39V117.103C316.39 117.941 316.211 118.671 315.853 119.29C315.498 119.91 315.007 120.391 314.381 120.732C313.758 121.07 313.042 121.239 312.233 121.239C311.332 121.239 310.54 121.027 309.857 120.603C309.177 120.179 308.647 119.575 308.266 118.793C307.888 118.011 307.699 117.083 307.699 116.009C307.699 115.204 307.807 114.479 308.022 113.836C308.241 113.19 308.549 112.64 308.947 112.186C309.345 111.732 309.815 111.384 310.359 111.142C310.903 110.9 311.501 110.779 312.154 110.779C312.691 110.779 313.191 110.86 313.655 111.023C314.123 111.182 314.538 111.409 314.903 111.704C315.271 111.995 315.578 112.345 315.823 112.753C316.068 113.157 316.237 113.606 316.33 114.1H315.057ZM321.544 121.259C320.808 121.259 320.173 121.097 319.64 120.772C319.109 120.444 318.7 119.986 318.412 119.4C318.127 118.81 317.984 118.124 317.984 117.341C317.984 116.559 318.127 115.87 318.412 115.273C318.7 114.673 319.101 114.206 319.615 113.871C320.132 113.533 320.735 113.364 321.425 113.364C321.822 113.364 322.215 113.43 322.603 113.563C322.991 113.696 323.344 113.911 323.662 114.209C323.98 114.504 324.233 114.895 324.422 115.383C324.611 115.87 324.706 116.47 324.706 117.182V117.68H318.819V116.665H323.513C323.513 116.234 323.426 115.85 323.254 115.512C323.085 115.174 322.843 114.907 322.528 114.711C322.217 114.516 321.849 114.418 321.425 114.418C320.957 114.418 320.553 114.534 320.211 114.766C319.873 114.995 319.613 115.293 319.431 115.661C319.249 116.029 319.157 116.423 319.157 116.844V117.52C319.157 118.097 319.257 118.586 319.456 118.987C319.658 119.385 319.938 119.688 320.296 119.897C320.654 120.102 321.07 120.205 321.544 120.205C321.852 120.205 322.13 120.162 322.379 120.076C322.631 119.986 322.848 119.854 323.03 119.678C323.213 119.499 323.354 119.277 323.453 119.012L324.586 119.33C324.467 119.715 324.267 120.053 323.985 120.344C323.703 120.633 323.355 120.858 322.941 121.02C322.527 121.18 322.061 121.259 321.544 121.259ZM310.116 133.506V138.1H308.943V130.464H310.076V131.657H310.176C310.355 131.269 310.626 130.957 310.991 130.722C311.356 130.483 311.826 130.364 312.403 130.364C312.92 130.364 313.372 130.47 313.76 130.682C314.148 130.891 314.45 131.209 314.665 131.637C314.88 132.061 314.988 132.598 314.988 133.248V138.1H313.815V133.327C313.815 132.727 313.659 132.26 313.348 131.925C313.036 131.587 312.608 131.418 312.065 131.418C311.69 131.418 311.356 131.499 311.061 131.662C310.769 131.824 310.539 132.061 310.37 132.373C310.201 132.684 310.116 133.062 310.116 133.506ZM320.234 138.259C319.545 138.259 318.94 138.095 318.42 137.767C317.903 137.439 317.498 136.98 317.207 136.39C316.918 135.8 316.774 135.11 316.774 134.322C316.774 133.526 316.918 132.832 317.207 132.238C317.498 131.645 317.903 131.184 318.42 130.856C318.94 130.528 319.545 130.364 320.234 130.364C320.924 130.364 321.527 130.528 322.044 130.856C322.564 131.184 322.969 131.645 323.257 132.238C323.549 132.832 323.695 133.526 323.695 134.322C323.695 135.11 323.549 135.8 323.257 136.39C322.969 136.98 322.564 137.439 322.044 137.767C321.527 138.095 320.924 138.259 320.234 138.259ZM320.234 137.205C320.758 137.205 321.189 137.071 321.527 136.802C321.865 136.534 322.115 136.181 322.278 135.743C322.44 135.306 322.521 134.832 322.521 134.322C322.521 133.811 322.44 133.336 322.278 132.895C322.115 132.454 321.865 132.098 321.527 131.826C321.189 131.554 320.758 131.418 320.234 131.418C319.711 131.418 319.28 131.554 318.942 131.826C318.604 132.098 318.354 132.454 318.191 132.895C318.029 133.336 317.948 133.811 317.948 134.322C317.948 134.832 318.029 135.306 318.191 135.743C318.354 136.181 318.604 136.534 318.942 136.802C319.28 137.071 319.711 137.205 320.234 137.205ZM307.056 155.1V147.464H308.19V148.657H308.289C308.448 148.249 308.705 147.933 309.06 147.707C309.414 147.479 309.84 147.364 310.337 147.364C310.841 147.364 311.26 147.479 311.595 147.707C311.933 147.933 312.197 148.249 312.386 148.657H312.465C312.661 148.262 312.954 147.949 313.345 147.717C313.736 147.482 314.205 147.364 314.752 147.364C315.435 147.364 315.993 147.578 316.427 148.006C316.862 148.43 317.079 149.091 317.079 149.989V155.1H315.905V149.989C315.905 149.426 315.751 149.023 315.443 148.781C315.135 148.539 314.772 148.418 314.354 148.418C313.817 148.418 313.401 148.581 313.106 148.905C312.811 149.227 312.664 149.635 312.664 150.128V155.1H311.471V149.87C311.471 149.436 311.33 149.086 311.048 148.821C310.766 148.552 310.404 148.418 309.959 148.418C309.654 148.418 309.369 148.499 309.104 148.662C308.842 148.824 308.63 149.05 308.468 149.338C308.309 149.623 308.229 149.953 308.229 150.327V155.1H307.056ZM322.426 155.259C321.69 155.259 321.055 155.097 320.522 154.772C319.991 154.444 319.582 153.986 319.294 153.4C319.009 152.81 318.866 152.124 318.866 151.341C318.866 150.559 319.009 149.87 319.294 149.273C319.582 148.673 319.983 148.206 320.497 147.871C321.014 147.533 321.617 147.364 322.306 147.364C322.704 147.364 323.097 147.43 323.485 147.563C323.872 147.696 324.225 147.911 324.544 148.209C324.862 148.504 325.115 148.895 325.304 149.383C325.493 149.87 325.588 150.47 325.588 151.182V151.68H319.701V150.665H324.394C324.394 150.234 324.308 149.85 324.136 149.512C323.967 149.174 323.725 148.907 323.41 148.711C323.099 148.516 322.731 148.418 322.306 148.418C321.839 148.418 321.435 148.534 321.093 148.766C320.755 148.995 320.495 149.293 320.313 149.661C320.13 150.029 320.039 150.423 320.039 150.844V151.52C320.039 152.097 320.139 152.586 320.338 152.987C320.54 153.385 320.82 153.688 321.178 153.897C321.536 154.102 321.952 154.205 322.426 154.205C322.734 154.205 323.012 154.162 323.261 154.076C323.513 153.986 323.73 153.854 323.912 153.678C324.094 153.499 324.235 153.277 324.335 153.012L325.468 153.33C325.349 153.715 325.148 154.053 324.867 154.344C324.585 154.633 324.237 154.858 323.823 155.02C323.408 155.18 322.943 155.259 322.426 155.259Z" fill="#374151"/>
<path d="M307.573 129.764L306.623 121.943H307.568L308.132 127.336L308.164 127.647L308.223 127.325L309.169 121.943H310.033L310.984 127.331L311.043 127.647L311.075 127.325L311.639 121.943H312.579L311.629 129.764H310.613L309.663 124.199L309.609 123.872L309.55 124.205L308.594 129.764H307.573ZM317.505 127.739H314.894L314.266 129.764H313.272L315.797 121.943H316.629L319.111 129.764H318.122L317.505 127.739ZM315.163 126.874H317.241L316.21 123.479L315.163 126.874ZM320.378 121.943H325.105V122.808H323.23V128.904H325.105V129.764H320.378V128.904H322.21V122.808H320.378V121.943ZM312.44 137.792H310.023V144.764H309.056V137.792H306.639V136.943H312.44V137.792ZM313.772 136.943H318.498V137.808H316.624V143.904H318.498V144.764H313.772V143.904H315.603V137.808H313.772V136.943ZM325.277 144.764H324.267L321.232 138.92L321.216 144.764H320.212V136.943H321.221L324.256 142.776L324.272 136.943H325.277V144.764ZM318.831 158.738C318.71 158.881 318.581 159.012 318.445 159.13C318.308 159.244 318.167 159.345 318.02 159.431C317.77 159.581 317.499 159.692 317.209 159.764C316.919 159.839 316.615 159.875 316.296 159.871C315.974 159.868 315.677 159.819 315.405 159.726C315.136 159.629 314.894 159.497 314.679 159.329C314.465 159.164 314.277 158.969 314.115 158.743C313.954 158.518 313.82 158.272 313.713 158.007C313.602 157.746 313.517 157.472 313.46 157.186C313.406 156.896 313.378 156.604 313.374 156.31V155.402C313.378 155.112 313.403 154.824 313.449 154.538C313.5 154.248 313.575 153.97 313.675 153.705C313.775 153.44 313.901 153.195 314.051 152.969C314.201 152.74 314.382 152.541 314.593 152.373C314.801 152.208 315.037 152.078 315.302 151.981C315.567 151.884 315.865 151.836 316.194 151.836C316.559 151.836 316.896 151.893 317.204 152.008C317.512 152.119 317.78 152.278 318.009 152.486C318.239 152.697 318.423 152.951 318.563 153.249C318.702 153.542 318.788 153.872 318.821 154.237H317.838C317.798 154.011 317.737 153.804 317.655 153.614C317.573 153.42 317.465 153.256 317.333 153.12C317.197 152.984 317.036 152.878 316.849 152.803C316.663 152.724 316.446 152.685 316.199 152.685C315.963 152.685 315.754 152.726 315.571 152.808C315.388 152.887 315.229 152.994 315.093 153.13C314.957 153.266 314.844 153.426 314.755 153.608C314.665 153.787 314.592 153.977 314.534 154.178C314.477 154.378 314.436 154.582 314.411 154.79C314.386 154.998 314.373 155.198 314.373 155.392V156.31C314.377 156.507 314.393 156.711 314.422 156.922C314.454 157.13 314.502 157.334 314.567 157.535C314.631 157.735 314.713 157.925 314.814 158.104C314.914 158.283 315.036 158.441 315.179 158.577C315.319 158.713 315.481 158.822 315.668 158.904C315.854 158.983 316.065 159.024 316.301 159.028C316.438 159.031 316.579 159.026 316.726 159.012C316.876 158.997 317.021 158.969 317.161 158.926C317.3 158.883 317.431 158.826 317.553 158.754C317.675 158.679 317.777 158.582 317.859 158.464L317.87 156.708H316.28V155.87H318.815L318.831 158.738Z" fill="#9CA3AF"/>
<g filter="url(#filter2_f_21_2112)">
<path d="M427.719 97.3637C430.287 97.3637 432.368 95.2879 432.368 92.7273C432.368 90.1667 430.287 88.0909 427.719 88.0909C425.152 88.0909 423.07 90.1667 423.07 92.7273C423.07 95.2879 425.152 97.3637 427.719 97.3637Z" fill="#97EA90"/>
</g>
<path d="M420.674 121.1V110.918H426.819V112.012H421.907V115.452H426.501V116.546H421.907V120.006H426.898V121.1H420.674ZM430.055 116.506V121.1H428.882V113.464H430.016V114.657H430.115C430.294 114.269 430.566 113.957 430.93 113.722C431.295 113.483 431.766 113.364 432.342 113.364C432.859 113.364 433.312 113.47 433.7 113.682C434.087 113.891 434.389 114.209 434.604 114.637C434.82 115.061 434.928 115.598 434.928 116.248V121.1H433.754V116.327C433.754 115.727 433.598 115.26 433.287 114.925C432.975 114.587 432.548 114.418 432.004 114.418C431.63 114.418 431.295 114.499 431 114.662C430.708 114.824 430.478 115.061 430.309 115.373C430.14 115.684 430.055 116.062 430.055 116.506ZM425.306 130.464V131.458H421.348V130.464H425.306ZM422.502 128.634H423.675V135.912C423.675 136.244 423.723 136.492 423.819 136.658C423.919 136.821 424.045 136.93 424.197 136.986C424.353 137.039 424.517 137.066 424.689 137.066C424.818 137.066 424.924 137.059 425.007 137.046C425.09 137.029 425.156 137.016 425.206 137.006L425.445 138.06C425.365 138.09 425.254 138.12 425.112 138.15C424.969 138.183 424.789 138.199 424.57 138.199C424.238 138.199 423.914 138.128 423.595 137.986C423.281 137.843 423.019 137.626 422.81 137.334C422.604 137.043 422.502 136.675 422.502 136.231V128.634ZM427.071 138.1V130.464H428.204V131.617H428.284C428.423 131.239 428.675 130.933 429.039 130.697C429.404 130.462 429.815 130.344 430.272 130.344C430.358 130.344 430.466 130.346 430.595 130.349C430.725 130.353 430.822 130.358 430.889 130.364V131.557C430.849 131.547 430.758 131.533 430.615 131.513C430.476 131.489 430.329 131.478 430.173 131.478C429.802 131.478 429.47 131.556 429.179 131.711C428.89 131.864 428.661 132.076 428.492 132.348C428.327 132.616 428.244 132.923 428.244 133.268V138.1H427.071ZM432.28 138.1V130.464H433.453V138.1H432.28ZM432.876 129.191C432.647 129.191 432.45 129.113 432.285 128.957C432.122 128.801 432.041 128.614 432.041 128.395C432.041 128.177 432.122 127.989 432.285 127.834C432.45 127.678 432.647 127.6 432.876 127.6C433.105 127.6 433.3 127.678 433.463 127.834C433.629 127.989 433.711 128.177 433.711 128.395C433.711 128.614 433.629 128.801 433.463 128.957C433.3 129.113 433.105 129.191 432.876 129.191ZM424.263 155.259C423.528 155.259 422.893 155.097 422.359 154.772C421.829 154.444 421.42 153.986 421.131 153.4C420.846 152.81 420.704 152.124 420.704 151.341C420.704 150.559 420.846 149.87 421.131 149.273C421.42 148.673 421.821 148.206 422.334 147.871C422.852 147.533 423.455 147.364 424.144 147.364C424.542 147.364 424.935 147.43 425.322 147.563C425.71 147.696 426.063 147.911 426.381 148.209C426.7 148.504 426.953 148.895 427.142 149.383C427.331 149.87 427.425 150.47 427.425 151.182V151.68H421.539V150.665H426.232C426.232 150.234 426.146 149.85 425.974 149.512C425.805 149.174 425.563 148.907 425.248 148.711C424.936 148.516 424.568 148.418 424.144 148.418C423.677 148.418 423.272 148.534 422.931 148.766C422.593 148.995 422.333 149.293 422.151 149.661C421.968 150.029 421.877 150.423 421.877 150.844V151.52C421.877 152.097 421.977 152.586 422.175 152.987C422.378 153.385 422.658 153.688 423.016 153.897C423.374 154.102 423.79 154.205 424.263 154.205C424.572 154.205 424.85 154.162 425.099 154.076C425.351 153.986 425.568 153.854 425.75 153.678C425.932 153.499 426.073 153.277 426.173 153.012L427.306 153.33C427.187 153.715 426.986 154.053 426.705 154.344C426.423 154.633 426.075 154.858 425.66 155.02C425.246 155.18 424.781 155.259 424.263 155.259ZM434.619 149.174L433.565 149.472C433.499 149.296 433.401 149.126 433.272 148.96C433.146 148.791 432.974 148.652 432.755 148.542C432.536 148.433 432.256 148.378 431.915 148.378C431.447 148.378 431.058 148.486 430.746 148.702C430.438 148.914 430.284 149.184 430.284 149.512C430.284 149.804 430.39 150.034 430.602 150.203C430.814 150.372 431.146 150.513 431.597 150.626L432.73 150.904C433.413 151.07 433.922 151.323 434.256 151.665C434.591 152.003 434.759 152.439 434.759 152.972C434.759 153.41 434.633 153.801 434.381 154.145C434.132 154.49 433.784 154.762 433.337 154.961C432.889 155.16 432.369 155.259 431.776 155.259C430.997 155.259 430.352 155.09 429.842 154.752C429.331 154.414 429.008 153.92 428.872 153.27L429.986 152.992C430.092 153.403 430.292 153.711 430.587 153.917C430.886 154.122 431.275 154.225 431.756 154.225C432.303 154.225 432.737 154.109 433.058 153.877C433.383 153.642 433.545 153.36 433.545 153.032C433.545 152.767 433.453 152.545 433.267 152.366C433.081 152.183 432.796 152.047 432.412 151.958L431.139 151.66C430.44 151.494 429.926 151.237 429.598 150.889C429.273 150.538 429.111 150.099 429.111 149.572C429.111 149.141 429.232 148.76 429.474 148.428C429.719 148.097 430.052 147.836 430.473 147.648C430.897 147.459 431.378 147.364 431.915 147.364C432.67 147.364 433.264 147.53 433.695 147.861C434.129 148.193 434.437 148.63 434.619 149.174Z" fill="#374151"/>
<path d="M425.27 129.764H424.276V123.211L422.23 123.99V123.082L425.19 121.943H425.27V129.764ZM431.173 129.533C431.173 129.891 431.089 130.256 430.92 130.628C430.752 131.001 430.525 131.314 430.238 131.568L429.621 131.23C429.793 130.979 429.914 130.713 429.986 130.43C430.058 130.147 430.093 129.853 430.093 129.549V128.587H431.173V129.533ZM426.844 144.764H421.72V144.049L424.282 141.203C424.511 140.948 424.703 140.723 424.857 140.526C425.01 140.329 425.134 140.146 425.227 139.978C425.32 139.813 425.386 139.658 425.426 139.511C425.465 139.36 425.485 139.206 425.485 139.049C425.485 138.855 425.453 138.675 425.388 138.506C425.327 138.334 425.238 138.186 425.12 138.061C424.998 137.935 424.851 137.837 424.679 137.765C424.511 137.69 424.319 137.652 424.105 137.652C423.843 137.652 423.616 137.69 423.422 137.765C423.233 137.84 423.075 137.946 422.95 138.082C422.821 138.222 422.724 138.39 422.66 138.587C422.599 138.784 422.568 139.004 422.568 139.248H421.569C421.569 138.918 421.627 138.608 421.741 138.318C421.856 138.025 422.022 137.769 422.241 137.55C422.456 137.332 422.719 137.158 423.03 137.029C423.345 136.9 423.704 136.836 424.105 136.836C424.473 136.836 424.805 136.891 425.098 137.002C425.395 137.11 425.646 137.26 425.85 137.454C426.054 137.647 426.21 137.876 426.317 138.141C426.428 138.406 426.484 138.694 426.484 139.006C426.484 139.239 426.445 139.47 426.366 139.699C426.287 139.924 426.181 140.148 426.049 140.37C425.913 140.592 425.755 140.812 425.576 141.031C425.401 141.246 425.215 141.46 425.018 141.675L422.918 143.953H426.844V144.764ZM433.466 138.984C433.463 139.246 433.413 139.491 433.316 139.72C433.219 139.946 433.085 140.145 432.913 140.316C432.831 140.399 432.739 140.476 432.639 140.547C432.539 140.619 432.432 140.683 432.317 140.741C432.517 140.827 432.698 140.934 432.859 141.063C433.024 141.188 433.166 141.333 433.284 141.498C433.398 141.663 433.486 141.842 433.547 142.035C433.611 142.229 433.644 142.434 433.644 142.653C433.644 143.007 433.577 143.322 433.445 143.598C433.316 143.874 433.141 144.105 432.919 144.291C432.693 144.481 432.43 144.626 432.129 144.726C431.828 144.823 431.506 144.871 431.162 144.871C430.811 144.871 430.484 144.823 430.179 144.726C429.878 144.629 429.617 144.486 429.395 144.296C429.169 144.11 428.992 143.879 428.863 143.604C428.734 143.328 428.67 143.011 428.67 142.653C428.67 142.434 428.7 142.229 428.761 142.035C428.822 141.838 428.91 141.657 429.024 141.493C429.139 141.332 429.277 141.187 429.438 141.058C429.599 140.929 429.78 140.821 429.981 140.735C429.809 140.649 429.653 140.547 429.513 140.429C429.374 140.307 429.255 140.171 429.159 140.021C429.062 139.874 428.987 139.713 428.933 139.538C428.879 139.362 428.853 139.178 428.853 138.984C428.853 138.644 428.91 138.342 429.024 138.077C429.139 137.808 429.298 137.583 429.503 137.4C429.703 137.217 429.943 137.078 430.222 136.981C430.505 136.884 430.813 136.836 431.146 136.836C431.475 136.836 431.782 136.884 432.065 136.981C432.347 137.078 432.593 137.217 432.8 137.4C433.008 137.583 433.171 137.808 433.289 138.077C433.407 138.342 433.466 138.644 433.466 138.984ZM432.65 142.631C432.65 142.413 432.612 142.212 432.537 142.03C432.466 141.847 432.364 141.69 432.231 141.557C432.099 141.428 431.939 141.328 431.753 141.256C431.57 141.185 431.37 141.149 431.151 141.149C430.926 141.149 430.722 141.185 430.539 141.256C430.357 141.328 430.201 141.428 430.072 141.557C429.943 141.69 429.843 141.847 429.771 142.03C429.703 142.212 429.669 142.413 429.669 142.631C429.669 142.857 429.703 143.059 429.771 143.238C429.843 143.414 429.943 143.562 430.072 143.684C430.201 143.806 430.357 143.899 430.539 143.963C430.725 144.028 430.933 144.06 431.162 144.06C431.381 144.06 431.581 144.028 431.764 143.963C431.946 143.899 432.104 143.806 432.236 143.684C432.365 143.562 432.466 143.414 432.537 143.238C432.612 143.059 432.65 142.857 432.65 142.631ZM432.467 139C432.467 138.804 432.433 138.623 432.365 138.458C432.301 138.293 432.211 138.15 432.097 138.028C431.979 137.91 431.839 137.819 431.678 137.754C431.517 137.686 431.339 137.652 431.146 137.652C430.953 137.652 430.777 137.685 430.62 137.749C430.462 137.81 430.326 137.899 430.211 138.018C430.097 138.136 430.007 138.279 429.943 138.447C429.882 138.612 429.852 138.796 429.852 139C429.852 139.205 429.882 139.389 429.943 139.554C430.007 139.715 430.099 139.853 430.217 139.967C430.331 140.085 430.468 140.177 430.625 140.241C430.786 140.302 430.963 140.333 431.157 140.333C431.347 140.333 431.522 140.302 431.683 140.241C431.844 140.177 431.984 140.085 432.102 139.967C432.217 139.853 432.306 139.713 432.371 139.548C432.435 139.384 432.467 139.201 432.467 139ZM429.379 157.137H430.469V157.948H429.379V159.764H428.385V157.948H424.819V157.363L428.321 151.943H429.379V157.137ZM425.92 157.137H428.385V153.265L428.224 153.565L425.92 157.137Z" fill="#1258CA"/>
<path d="M37.193 148.364H492.807" stroke="#E5E7EB"/>
<path d="M38.2498 175.664V166.936H39.3066V174.726H43.3634V175.664H38.2498ZM46.7896 175.817C46.3748 175.817 45.9984 175.739 45.6603 175.583C45.3223 175.424 45.0538 175.195 44.8549 174.897C44.6561 174.596 44.5566 174.232 44.5566 173.806C44.5566 173.431 44.6305 173.127 44.7782 172.894C44.9259 172.658 45.1234 172.473 45.3706 172.34C45.6177 172.206 45.8904 172.107 46.1887 172.042C46.4899 171.973 46.7924 171.919 47.0964 171.88C47.4941 171.828 47.8166 171.79 48.0637 171.765C48.3137 171.736 48.4956 171.689 48.6092 171.624C48.7257 171.559 48.7839 171.445 48.7839 171.283V171.249C48.7839 170.828 48.6688 170.502 48.4387 170.269C48.2115 170.036 47.8663 169.919 47.4032 169.919C46.9231 169.919 46.5467 170.024 46.274 170.235C46.0012 170.445 45.8095 170.669 45.6987 170.908L44.7441 170.567C44.9146 170.169 45.1419 169.86 45.4259 169.638C45.7129 169.414 46.0254 169.257 46.3634 169.169C46.7044 169.078 47.0396 169.033 47.3691 169.033C47.5794 169.033 47.8208 169.059 48.0936 169.11C48.3691 169.158 48.6348 169.259 48.8904 169.412C49.149 169.566 49.3634 169.797 49.5339 170.107C49.7044 170.417 49.7896 170.831 49.7896 171.351V175.664H48.7839V174.777H48.7328C48.6646 174.919 48.5509 175.071 48.3919 175.233C48.2328 175.395 48.0211 175.533 47.7569 175.647C47.4927 175.76 47.1703 175.817 46.7896 175.817ZM46.943 174.914C47.3407 174.914 47.6759 174.836 47.9487 174.679C48.2242 174.523 48.4316 174.321 48.5708 174.074C48.7129 173.827 48.7839 173.567 48.7839 173.294V172.374C48.7413 172.425 48.6475 172.472 48.5027 172.515C48.3606 172.554 48.1958 172.59 48.0083 172.621C47.8237 172.649 47.6433 172.675 47.4671 172.698C47.2938 172.718 47.1532 172.735 47.0453 172.749C46.7839 172.783 46.5396 172.838 46.3123 172.915C46.0879 172.989 45.9061 173.101 45.7669 173.252C45.6305 173.399 45.5623 173.601 45.5623 173.857C45.5623 174.206 45.6916 174.471 45.9501 174.649C46.2115 174.826 46.5424 174.914 46.943 174.914ZM56.2615 170.584L55.3581 170.84C55.3013 170.689 55.2175 170.543 55.1067 170.401C54.9987 170.256 54.851 170.137 54.6635 170.043C54.476 169.949 54.236 169.902 53.9433 169.902C53.5428 169.902 53.209 169.995 52.9419 170.179C52.6777 170.361 52.5456 170.593 52.5456 170.874C52.5456 171.124 52.6365 171.321 52.8183 171.466C53.0002 171.611 53.2843 171.732 53.6706 171.828L54.6422 172.067C55.2274 172.209 55.6635 172.426 55.9505 172.719C56.2374 173.009 56.3808 173.382 56.3808 173.84C56.3808 174.215 56.2729 174.55 56.057 174.846C55.8439 175.141 55.5456 175.374 55.1621 175.544C54.7786 175.715 54.3326 175.8 53.824 175.8C53.1564 175.8 52.6039 175.655 52.1664 175.365C51.7289 175.076 51.4519 174.652 51.3354 174.096L52.2899 173.857C52.3808 174.209 52.5527 174.473 52.8056 174.649C53.0612 174.826 53.3951 174.914 53.807 174.914C54.2757 174.914 54.6479 174.814 54.9235 174.615C55.2019 174.414 55.3411 174.172 55.3411 173.891C55.3411 173.664 55.2615 173.473 55.1024 173.32C54.9433 173.164 54.699 173.047 54.3695 172.971L53.2786 172.715C52.6791 172.573 52.2388 172.353 51.9576 172.054C51.6791 171.753 51.5399 171.377 51.5399 170.925C51.5399 170.556 51.6436 170.229 51.851 169.945C52.0612 169.661 52.3468 169.438 52.7076 169.276C53.0712 169.114 53.4831 169.033 53.9433 169.033C54.5911 169.033 55.0996 169.175 55.4689 169.459C55.8411 169.743 56.1053 170.118 56.2615 170.584ZM60.7413 169.118V169.971H57.3492V169.118H60.7413ZM58.3379 167.55H59.3436V173.789C59.3436 174.073 59.3848 174.286 59.4671 174.428C59.5524 174.567 59.6603 174.661 59.791 174.709C59.9245 174.755 60.0652 174.777 60.2129 174.777C60.3237 174.777 60.4146 174.772 60.4856 174.76C60.5566 174.746 60.6134 174.735 60.6561 174.726L60.8606 175.63C60.7924 175.655 60.6973 175.681 60.5751 175.706C60.4529 175.735 60.2981 175.749 60.1106 175.749C59.8265 175.749 59.5481 175.688 59.2754 175.566C59.0055 175.444 58.7811 175.257 58.6021 175.007C58.4259 174.757 58.3379 174.442 58.3379 174.061V167.55ZM42.7498 185.584L41.8464 185.84C41.7896 185.689 41.7058 185.543 41.595 185.401C41.487 185.256 41.3393 185.137 41.1518 185.043C40.9643 184.949 40.7242 184.902 40.4316 184.902C40.0311 184.902 39.6973 184.995 39.4302 185.179C39.166 185.361 39.0339 185.593 39.0339 185.874C39.0339 186.124 39.1248 186.321 39.3066 186.466C39.4884 186.611 39.7725 186.732 40.1589 186.828L41.1305 187.067C41.7157 187.209 42.1518 187.426 42.4387 187.719C42.7257 188.009 42.8691 188.382 42.8691 188.84C42.8691 189.215 42.7612 189.55 42.5453 189.846C42.3322 190.141 42.0339 190.374 41.6504 190.544C41.2669 190.715 40.8208 190.8 40.3123 190.8C39.6447 190.8 39.0921 190.655 38.6546 190.365C38.2171 190.076 37.9402 189.652 37.8237 189.096L38.7782 188.857C38.8691 189.209 39.041 189.473 39.2938 189.649C39.5495 189.826 39.8833 189.914 40.2953 189.914C40.764 189.914 41.1362 189.814 41.4117 189.615C41.6902 189.414 41.8294 189.172 41.8294 188.891C41.8294 188.664 41.7498 188.473 41.5907 188.32C41.4316 188.164 41.1873 188.047 40.8578 187.971L39.7669 187.715C39.1674 187.573 38.7271 187.353 38.4458 187.054C38.1674 186.753 38.0282 186.377 38.0282 185.925C38.0282 185.556 38.1319 185.229 38.3393 184.945C38.5495 184.661 38.835 184.438 39.1958 184.276C39.5595 184.114 39.9714 184.033 40.4316 184.033C41.0794 184.033 41.5879 184.175 41.9572 184.459C42.3294 184.743 42.5936 185.118 42.7498 185.584ZM45.0307 193.118C44.8603 193.118 44.7083 193.104 44.5747 193.076C44.4412 193.05 44.3489 193.024 44.2978 192.999L44.5534 192.113C44.7978 192.175 45.0137 192.198 45.2012 192.181C45.3887 192.164 45.5549 192.08 45.6997 191.929C45.8475 191.782 45.9824 191.542 46.1046 191.209L46.2921 190.698L43.8716 184.118H44.9625L46.7693 189.334H46.8375L48.6443 184.118H49.7353L46.9568 191.618C46.8318 191.956 46.677 192.236 46.4924 192.458C46.3077 192.682 46.0932 192.848 45.8489 192.956C45.6074 193.064 45.3347 193.118 45.0307 193.118ZM52.0683 186.726V190.664H51.0627V184.118H52.0343V185.141H52.1195C52.2729 184.809 52.5058 184.542 52.8183 184.34C53.1308 184.135 53.5343 184.033 54.0286 184.033C54.4718 184.033 54.8595 184.124 55.1919 184.306C55.5243 184.485 55.7828 184.757 55.9675 185.124C56.1522 185.488 56.2445 185.948 56.2445 186.505V190.664H55.2388V186.573C55.2388 186.059 55.1053 185.658 54.8382 185.371C54.5712 185.081 54.2047 184.936 53.7388 184.936C53.4178 184.936 53.1308 185.006 52.878 185.145C52.628 185.284 52.4306 185.488 52.2857 185.755C52.1408 186.022 52.0683 186.346 52.0683 186.726ZM60.7413 190.8C60.1277 190.8 59.5992 190.655 59.1561 190.365C58.7129 190.076 58.372 189.676 58.1333 189.168C57.8947 188.659 57.7754 188.078 57.7754 187.425C57.7754 186.76 57.8975 186.174 58.1419 185.665C58.389 185.154 58.7328 184.755 59.1731 184.468C59.6163 184.178 60.1333 184.033 60.7242 184.033C61.1845 184.033 61.5992 184.118 61.9686 184.289C62.3379 184.459 62.6404 184.698 62.8762 185.005C63.112 185.311 63.2583 185.669 63.3152 186.078H62.3095C62.2328 185.78 62.0623 185.516 61.7981 185.286C61.5367 185.053 61.1845 184.936 60.7413 184.936C60.3492 184.936 60.0055 185.039 59.71 185.243C59.4174 185.445 59.1887 185.73 59.024 186.1C58.862 186.466 58.7811 186.897 58.7811 187.391C58.7811 187.897 58.8606 188.337 59.0197 188.712C59.1816 189.087 59.4089 189.378 59.7015 189.586C59.997 189.793 60.3436 189.897 60.7413 189.897C61.0027 189.897 61.2399 189.851 61.4529 189.76C61.666 189.669 61.8464 189.539 61.9941 189.368C62.1419 189.198 62.247 188.993 62.3095 188.755H63.3152C63.2583 189.141 63.1177 189.489 62.8933 189.799C62.6717 190.105 62.3777 190.35 62.0112 190.532C61.6475 190.711 61.2242 190.8 60.7413 190.8ZM65.791 186.726V190.664H64.7853V181.936H65.791V185.141H65.8762C66.0296 184.803 66.2598 184.534 66.5666 184.336C66.8762 184.134 67.2882 184.033 67.8024 184.033C68.2484 184.033 68.639 184.123 68.9742 184.301C69.3095 184.478 69.5694 184.749 69.7541 185.115C69.9416 185.479 70.0353 185.942 70.0353 186.505V190.664H69.0296V186.573C69.0296 186.053 68.8947 185.651 68.6248 185.367C68.3578 185.08 67.987 184.936 67.5126 184.936C67.1831 184.936 66.8876 185.006 66.6262 185.145C66.3677 185.284 66.1632 185.488 66.0126 185.755C65.8649 186.022 65.791 186.346 65.791 186.726ZM71.8752 190.664V184.118H72.8468V185.107H72.9149C73.0343 184.783 73.2502 184.52 73.5627 184.319C73.8752 184.117 74.2274 184.016 74.6195 184.016C74.6933 184.016 74.7857 184.017 74.8965 184.02C75.0073 184.023 75.0911 184.027 75.1479 184.033V185.056C75.1138 185.047 75.0357 185.034 74.9135 185.017C74.7942 184.998 74.6678 184.988 74.5343 184.988C74.2161 184.988 73.932 185.054 73.682 185.188C73.4348 185.319 73.2388 185.5 73.0939 185.733C72.9519 185.963 72.8808 186.226 72.8808 186.522V190.664H71.8752ZM78.7999 190.8C78.209 190.8 77.6905 190.659 77.2445 190.378C76.8013 190.097 76.4547 189.703 76.2047 189.198C75.9576 188.692 75.834 188.101 75.834 187.425C75.834 186.743 75.9576 186.148 76.2047 185.64C76.4547 185.131 76.8013 184.736 77.2445 184.455C77.6905 184.174 78.209 184.033 78.7999 184.033C79.3908 184.033 79.9078 184.174 80.351 184.455C80.797 184.736 81.1436 185.131 81.3908 185.64C81.6408 186.148 81.7658 186.743 81.7658 187.425C81.7658 188.101 81.6408 188.692 81.3908 189.198C81.1436 189.703 80.797 190.097 80.351 190.378C79.9078 190.659 79.3908 190.8 78.7999 190.8ZM78.7999 189.897C79.2487 189.897 79.6181 189.782 79.9078 189.551C80.1976 189.321 80.4121 189.019 80.5513 188.644C80.6905 188.269 80.7601 187.863 80.7601 187.425C80.7601 186.988 80.6905 186.58 80.5513 186.202C80.4121 185.824 80.1976 185.519 79.9078 185.286C79.6181 185.053 79.2487 184.936 78.7999 184.936C78.351 184.936 77.9817 185.053 77.6919 185.286C77.4022 185.519 77.1877 185.824 77.0485 186.202C76.9093 186.58 76.8397 186.988 76.8397 187.425C76.8397 187.863 76.9093 188.269 77.0485 188.644C77.1877 189.019 77.4022 189.321 77.6919 189.551C77.9817 189.782 78.351 189.897 78.7999 189.897ZM84.3066 186.726V190.664H83.3009V184.118H84.2725V185.141H84.3578C84.5112 184.809 84.7441 184.542 85.0566 184.34C85.3691 184.135 85.7725 184.033 86.2669 184.033C86.71 184.033 87.0978 184.124 87.4302 184.306C87.7626 184.485 88.0211 184.757 88.2058 185.124C88.3904 185.488 88.4828 185.948 88.4828 186.505V190.664H87.4771V186.573C87.4771 186.059 87.3436 185.658 87.0765 185.371C86.8095 185.081 86.443 184.936 85.9771 184.936C85.6561 184.936 85.3691 185.006 85.1163 185.145C84.8663 185.284 84.6688 185.488 84.524 185.755C84.3791 186.022 84.3066 186.346 84.3066 186.726ZM90.3205 190.664V184.118H91.3262V190.664H90.3205ZM90.8318 183.027C90.6358 183.027 90.4668 182.961 90.3247 182.827C90.1855 182.694 90.1159 182.533 90.1159 182.346C90.1159 182.158 90.1855 181.998 90.3247 181.864C90.4668 181.73 90.6358 181.664 90.8318 181.664C91.0279 181.664 91.1955 181.73 91.3347 181.864C91.4767 181.998 91.5478 182.158 91.5478 182.346C91.5478 182.533 91.4767 182.694 91.3347 182.827C91.1955 182.961 91.0279 183.027 90.8318 183.027ZM92.9806 190.664V189.897L96.6965 185.124V185.056H93.1V184.118H97.992V184.919L94.3784 189.658V189.726H98.1113V190.664H92.9806ZM40.8578 205.8C40.2271 205.8 39.683 205.661 39.2257 205.382C38.7711 205.101 38.4203 204.709 38.1731 204.206C37.9288 203.701 37.8066 203.113 37.8066 202.442C37.8066 201.772 37.9288 201.181 38.1731 200.669C38.4203 200.155 38.764 199.755 39.2044 199.468C39.6475 199.178 40.1646 199.033 40.7555 199.033C41.0964 199.033 41.4331 199.09 41.7654 199.203C42.0978 199.317 42.4004 199.502 42.6731 199.757C42.9458 200.01 43.1632 200.346 43.3251 200.763C43.487 201.181 43.568 201.695 43.568 202.306V202.732H38.5225V201.863H42.5453C42.5453 201.493 42.4714 201.164 42.3237 200.874C42.1788 200.584 41.9714 200.355 41.7015 200.188C41.4345 200.02 41.1191 199.936 40.7555 199.936C40.3549 199.936 40.0083 200.036 39.7157 200.235C39.4259 200.431 39.2029 200.686 39.0467 201.002C38.8904 201.317 38.8123 201.655 38.8123 202.016V202.596C38.8123 203.09 38.8975 203.509 39.068 203.853C39.2413 204.194 39.4813 204.453 39.7882 204.632C40.095 204.809 40.4515 204.897 40.8578 204.897C41.122 204.897 41.3606 204.86 41.5737 204.786C41.7896 204.709 41.9757 204.596 42.1319 204.445C42.2882 204.292 42.4089 204.101 42.4941 203.874L43.4657 204.147C43.3634 204.476 43.1916 204.766 42.9501 205.016C42.7086 205.263 42.4103 205.456 42.0552 205.596C41.7001 205.732 41.3009 205.8 40.8578 205.8ZM47.5694 205.8C47.024 205.8 46.5424 205.662 46.1248 205.387C45.7072 205.108 45.3805 204.716 45.1447 204.211C44.9089 203.702 44.791 203.101 44.791 202.408C44.791 201.721 44.9089 201.124 45.1447 200.618C45.3805 200.113 45.7086 199.722 46.1291 199.446C46.5495 199.171 47.0353 199.033 47.5865 199.033C48.0126 199.033 48.3492 199.104 48.5964 199.246C48.8464 199.385 49.0367 199.544 49.1674 199.723C49.3009 199.899 49.4046 200.044 49.4785 200.158H49.5637V196.936H50.5694V205.664H49.5978V204.658H49.4785C49.4046 204.777 49.2995 204.928 49.1632 205.11C49.0268 205.289 48.8322 205.449 48.5794 205.591C48.3265 205.73 47.9899 205.8 47.5694 205.8ZM47.7058 204.897C48.1092 204.897 48.4501 204.792 48.7285 204.581C49.0069 204.368 49.2186 204.074 49.3634 203.699C49.5083 203.321 49.5808 202.885 49.5808 202.391C49.5808 201.902 49.5098 201.475 49.3677 201.108C49.2257 200.739 49.0154 200.452 48.737 200.248C48.4586 200.04 48.1149 199.936 47.7058 199.936C47.2796 199.936 46.9245 200.046 46.6404 200.265C46.3592 200.48 46.1475 200.774 46.0055 201.147C45.8663 201.516 45.7967 201.931 45.7967 202.391C45.7967 202.857 45.8677 203.28 46.0098 203.661C46.1546 204.039 46.3677 204.34 46.649 204.564C46.9331 204.786 47.2853 204.897 47.7058 204.897ZM53.2839 205.732C53.0737 205.732 52.8933 205.657 52.7427 205.506C52.5921 205.355 52.5169 205.175 52.5169 204.965C52.5169 204.755 52.5921 204.574 52.7427 204.424C52.8933 204.273 53.0737 204.198 53.2839 204.198C53.4941 204.198 53.6745 204.273 53.8251 204.424C53.9757 204.574 54.0509 204.755 54.0509 204.965C54.0509 205.104 54.0154 205.232 53.9444 205.348C53.8762 205.465 53.7839 205.559 53.6674 205.63C53.5538 205.698 53.4259 205.732 53.2839 205.732ZM53.2839 200.874C53.0737 200.874 52.8933 200.799 52.7427 200.648C52.5921 200.498 52.5169 200.317 52.5169 200.107C52.5169 199.897 52.5921 199.716 52.7427 199.566C52.8933 199.415 53.0737 199.34 53.2839 199.34C53.4941 199.34 53.6745 199.415 53.8251 199.566C53.9757 199.716 54.0509 199.897 54.0509 200.107C54.0509 200.246 54.0154 200.374 53.9444 200.49C53.8762 200.607 53.7839 200.701 53.6674 200.772C53.5538 200.84 53.4259 200.874 53.2839 200.874ZM59.2136 205.664V204.897L62.0943 201.743C62.4323 201.374 62.7107 201.053 62.9295 200.78C63.1482 200.505 63.3102 200.246 63.4153 200.005C63.5232 199.76 63.5772 199.505 63.5772 199.238C63.5772 198.931 63.5034 198.665 63.3556 198.441C63.2107 198.216 63.0119 198.043 62.759 197.921C62.5062 197.799 62.2221 197.738 61.9068 197.738C61.5715 197.738 61.2789 197.807 61.0289 197.946C60.7818 198.083 60.59 198.274 60.4536 198.522C60.3201 198.769 60.2534 199.059 60.2534 199.391H59.2477C59.2477 198.88 59.3656 198.431 59.6014 198.044C59.8372 197.658 60.1582 197.357 60.5644 197.141C60.9735 196.925 61.4323 196.817 61.9409 196.817C62.4522 196.817 62.9054 196.925 63.3002 197.141C63.6951 197.357 64.0048 197.648 64.2292 198.015C64.4536 198.381 64.5659 198.789 64.5659 199.238C64.5659 199.559 64.5076 199.873 64.3911 200.179C64.2775 200.483 64.0786 200.823 63.7946 201.198C63.5133 201.57 63.1227 202.024 62.6227 202.561L60.6625 204.658V204.726H64.7193V205.664H59.2136ZM66.4963 205.664V199.118H67.4679V200.141H67.5531C67.6894 199.792 67.9096 199.52 68.2136 199.327C68.5176 199.131 68.8826 199.033 69.3088 199.033C69.7406 199.033 70.1 199.131 70.3869 199.327C70.6767 199.52 70.9025 199.792 71.0644 200.141H71.1326C71.3002 199.803 71.5517 199.534 71.8869 199.336C72.2221 199.134 72.6241 199.033 73.0929 199.033C73.6781 199.033 74.1568 199.216 74.5289 199.583C74.9011 199.946 75.0872 200.513 75.0872 201.283V205.664H74.0815V201.283C74.0815 200.8 73.9494 200.455 73.6852 200.248C73.421 200.04 73.1099 199.936 72.7519 199.936C72.2917 199.936 71.9352 200.076 71.6823 200.354C71.4295 200.63 71.3031 200.979 71.3031 201.402V205.664H70.2804V201.181C70.2804 200.809 70.1596 200.509 69.9181 200.282C69.6767 200.051 69.3656 199.936 68.9849 199.936C68.7235 199.936 68.4792 200.006 68.2519 200.145C68.0275 200.284 67.8457 200.478 67.7065 200.725C67.5701 200.969 67.5019 201.252 67.5019 201.573V205.664H66.4963ZM82.2271 205.817C81.8123 205.817 81.4359 205.739 81.0978 205.583C80.7598 205.424 80.4913 205.195 80.2924 204.897C80.0936 204.596 79.9941 204.232 79.9941 203.806C79.9941 203.431 80.068 203.127 80.2157 202.894C80.3634 202.658 80.5609 202.473 80.8081 202.34C81.0552 202.206 81.3279 202.107 81.6262 202.042C81.9274 201.973 82.2299 201.919 82.5339 201.88C82.9316 201.828 83.2541 201.79 83.5012 201.765C83.7512 201.736 83.9331 201.689 84.0467 201.624C84.1632 201.559 84.2214 201.445 84.2214 201.283V201.249C84.2214 200.828 84.1063 200.502 83.8762 200.269C83.649 200.036 83.3038 199.919 82.8407 199.919C82.3606 199.919 81.9842 200.024 81.7115 200.235C81.4387 200.445 81.247 200.669 81.1362 200.908L80.1816 200.567C80.3521 200.169 80.5794 199.86 80.8634 199.638C81.1504 199.414 81.4629 199.257 81.8009 199.169C82.1419 199.078 82.4771 199.033 82.8066 199.033C83.0169 199.033 83.2583 199.059 83.5311 199.11C83.8066 199.158 84.0723 199.259 84.3279 199.412C84.5865 199.566 84.8009 199.797 84.9714 200.107C85.1419 200.417 85.2271 200.831 85.2271 201.351V205.664H84.2214V204.777H84.1703C84.1021 204.919 83.9884 205.071 83.8294 205.233C83.6703 205.395 83.4586 205.533 83.1944 205.647C82.9302 205.76 82.6078 205.817 82.2271 205.817ZM82.3805 204.914C82.7782 204.914 83.1134 204.836 83.3862 204.679C83.6617 204.523 83.8691 204.321 84.0083 204.074C84.1504 203.827 84.2214 203.567 84.2214 203.294V202.374C84.1788 202.425 84.085 202.472 83.9402 202.515C83.7981 202.554 83.6333 202.59 83.4458 202.621C83.2612 202.649 83.0808 202.675 82.9046 202.698C82.7313 202.718 82.5907 202.735 82.4828 202.749C82.2214 202.783 81.9771 202.838 81.7498 202.915C81.5254 202.989 81.3436 203.101 81.2044 203.252C81.068 203.399 80.9998 203.601 80.9998 203.857C80.9998 204.206 81.1291 204.471 81.3876 204.649C81.649 204.826 81.9799 204.914 82.3805 204.914ZM89.7047 208.255C89.2189 208.255 88.8013 208.192 88.4519 208.067C88.1024 207.945 87.8112 207.783 87.5783 207.581C87.3482 207.382 87.1649 207.169 87.0286 206.942L87.8297 206.38C87.9206 206.499 88.0357 206.635 88.1749 206.789C88.3141 206.945 88.5044 207.08 88.7459 207.194C88.9902 207.31 89.3098 207.368 89.7047 207.368C90.2331 207.368 90.6692 207.24 91.013 206.985C91.3567 206.729 91.5286 206.328 91.5286 205.783V204.453H91.4433C91.3695 204.573 91.2644 204.721 91.128 204.897C90.9945 205.07 90.8013 205.225 90.5485 205.361C90.2985 205.495 89.9604 205.561 89.5343 205.561C89.0058 205.561 88.5314 205.436 88.111 205.186C87.6933 204.936 87.3624 204.573 87.1181 204.096C86.8766 203.618 86.7558 203.039 86.7558 202.357C86.7558 201.686 86.8737 201.103 87.1095 200.605C87.3453 200.105 87.6735 199.719 88.0939 199.446C88.5144 199.171 89.0002 199.033 89.5513 199.033C89.9774 199.033 90.3155 199.104 90.5655 199.246C90.8183 199.385 91.0115 199.544 91.1451 199.723C91.2814 199.899 91.3865 200.044 91.4604 200.158H91.5627V199.118H92.5343V205.851C92.5343 206.414 92.4064 206.871 92.1507 207.223C91.8979 207.578 91.557 207.838 91.128 208.003C90.7019 208.171 90.2274 208.255 89.7047 208.255ZM89.6706 204.658C90.074 204.658 90.4149 204.566 90.6933 204.381C90.9718 204.196 91.1834 203.931 91.3283 203.584C91.4732 203.238 91.5456 202.823 91.5456 202.34C91.5456 201.868 91.4746 201.452 91.3326 201.091C91.1905 200.73 90.9803 200.448 90.7019 200.243C90.4235 200.039 90.0797 199.936 89.6706 199.936C89.2445 199.936 88.8894 200.044 88.6053 200.26C88.324 200.476 88.1124 200.766 87.9703 201.13C87.8311 201.493 87.7615 201.897 87.7615 202.34C87.7615 202.794 87.8326 203.196 87.9746 203.546C88.1195 203.892 88.3326 204.165 88.6138 204.364C88.8979 204.56 89.2502 204.658 89.6706 204.658ZM97.0343 205.8C96.4433 205.8 95.9249 205.659 95.4789 205.378C95.0357 205.097 94.6891 204.703 94.4391 204.198C94.1919 203.692 94.0683 203.101 94.0683 202.425C94.0683 201.743 94.1919 201.148 94.4391 200.64C94.6891 200.131 95.0357 199.736 95.4789 199.455C95.9249 199.174 96.4433 199.033 97.0343 199.033C97.6252 199.033 98.1422 199.174 98.5854 199.455C99.0314 199.736 99.378 200.131 99.6252 200.64C99.8752 201.148 100 201.743 100 202.425C100 203.101 99.8752 203.692 99.6252 204.198C99.378 204.703 99.0314 205.097 98.5854 205.378C98.1422 205.659 97.6252 205.8 97.0343 205.8ZM97.0343 204.897C97.4831 204.897 97.8524 204.782 98.1422 204.551C98.432 204.321 98.6465 204.019 98.7857 203.644C98.9249 203.269 98.9945 202.863 98.9945 202.425C98.9945 201.988 98.9249 201.58 98.7857 201.202C98.6465 200.824 98.432 200.519 98.1422 200.286C97.8524 200.053 97.4831 199.936 97.0343 199.936C96.5854 199.936 96.2161 200.053 95.9263 200.286C95.6365 200.519 95.422 200.824 95.2828 201.202C95.1436 201.58 95.074 201.988 95.074 202.425C95.074 202.863 95.1436 203.269 95.2828 203.644C95.422 204.019 95.6365 204.321 95.9263 204.551C96.2161 204.782 96.5854 204.897 97.0343 204.897Z" fill="#9CA3AF"/>
</g>
<defs>
<filter id="filter0_f_21_2112" x="83.3333" y="83.0909" width="19.2982" height="19.2727" filterUnits="userSpaceOnUse" color-interpolation-filters="sRGB">
<feFlood flood-opacity="0" result="BackgroundImageFix"/>
<feBlend mode="normal" in="SourceGraphic" in2="BackgroundImageFix" result="shape"/>
<feGaussianBlur stdDeviation="2.5" result="effect1_foregroundBlur_21_2112"/>
</filter>
<filter id="filter1_f_21_2112" x="194.912" y="83.0909" width="19.2982" height="19.2727" filterUnits="userSpaceOnUse" color-interpolation-filters="sRGB">
<feFlood flood-opacity="0" result="BackgroundImageFix"/>
<feBlend mode="normal" in="SourceGraphic" in2="BackgroundImageFix" result="shape"/>
<feGaussianBlur stdDeviation="2.5" result="effect1_foregroundBlur_21_2112"/>
</filter>
<filter id="filter2_f_21_2112" x="418.07" y="83.0909" width="19.2982" height="19.2727" filterUnits="userSpaceOnUse" color-interpolation-filters="sRGB">
<feFlood flood-opacity="0" result="BackgroundImageFix"/>
<feBlend mode="normal" in="SourceGraphic" in2="BackgroundImageFix" result="shape"/>
<feGaussianBlur stdDeviation="2.5" result="effect1_foregroundBlur_21_2112"/>
</filter>
<linearGradient id="paint0_linear_21_2112" x1="427.719" y1="32.4546" x2="427.719" y2="2072.45" gradientUnits="userSpaceOnUse">
<stop stop-color="#1258CA"/>
<stop offset="1" stop-color="#0E46A0"/>
</linearGradient>
<clipPath id="clip0_21_2112">
<rect width="530" height="204" fill="white"/>
</clipPath>
</defs>
</svg>
