<svg width="400" height="240" viewBox="0 0 400 240" fill="none" xmlns="http://www.w3.org/2000/svg">
<path d="M370 20H30C24.4772 20 20 24.4772 20 30V210C20 215.523 24.4772 220 30 220H370C375.523 220 380 215.523 380 210V30C380 24.4772 375.523 20 370 20Z" fill="url(#paint0_linear_21_1912)" stroke="#E2E8F0"/>
<path opacity="0.1" d="M110 40H50C44.4772 40 40 44.4772 40 50V110C40 115.523 44.4772 120 50 120H110C115.523 120 120 115.523 120 110V50C120 44.4772 115.523 40 110 40Z" fill="#3B82F6"/>
<path d="M80 100C91.0457 100 100 91.0457 100 80C100 68.9543 91.0457 60 80 60C68.9543 60 60 68.9543 60 80C60 91.0457 68.9543 100 80 100Z" fill="#3B82F6"/>
<path d="M154.098 64.5469H150.987C150.93 64.1444 150.814 63.7869 150.639 63.4744C150.464 63.1572 150.239 62.8873 149.964 62.6648C149.69 62.4422 149.373 62.2718 149.013 62.1534C148.658 62.035 148.272 61.9759 147.855 61.9759C147.102 61.9759 146.446 62.1629 145.888 62.5369C145.329 62.9062 144.896 63.446 144.588 64.1562C144.28 64.8617 144.126 65.7187 144.126 66.7273C144.126 67.7642 144.28 68.6354 144.588 69.3409C144.901 70.0464 145.336 70.5791 145.895 70.9389C146.454 71.2988 147.1 71.4787 147.834 71.4787C148.246 71.4787 148.627 71.4242 148.977 71.3153C149.332 71.2064 149.647 71.0478 149.922 70.8395C150.196 70.6264 150.424 70.3684 150.604 70.0653C150.788 69.7623 150.916 69.4167 150.987 69.0284L154.098 69.0426C154.018 69.7102 153.816 70.3542 153.494 70.9744C153.177 71.59 152.749 72.1416 152.209 72.6293C151.674 73.1122 151.035 73.4957 150.291 73.7798C149.553 74.0592 148.717 74.1989 147.784 74.1989C146.487 74.1989 145.327 73.9053 144.304 73.3182C143.286 72.7311 142.481 71.8812 141.889 70.7685C141.302 69.6558 141.009 68.3087 141.009 66.7273C141.009 65.1411 141.307 63.7917 141.903 62.679C142.5 61.5663 143.31 60.7187 144.332 60.1364C145.355 59.5492 146.506 59.2557 147.784 59.2557C148.627 59.2557 149.408 59.3741 150.128 59.6108C150.852 59.8475 151.494 60.1932 152.053 60.6477C152.611 61.0975 153.066 61.6491 153.416 62.3026C153.771 62.956 153.999 63.7041 154.098 64.5469ZM161.175 74.2131C160.072 74.2131 159.118 73.9787 158.313 73.5099C157.513 73.0365 156.895 72.3783 156.46 71.5355C156.024 70.688 155.806 69.7055 155.806 68.5881C155.806 67.4612 156.024 66.4763 156.46 65.6335C156.895 64.786 157.513 64.1278 158.313 63.6591C159.118 63.1856 160.072 62.9489 161.175 62.9489C162.279 62.9489 163.23 63.1856 164.031 63.6591C164.835 64.1278 165.456 64.786 165.891 65.6335C166.327 66.4763 166.545 67.4612 166.545 68.5881C166.545 69.7055 166.327 70.688 165.891 71.5355C165.456 72.3783 164.835 73.0365 164.031 73.5099C163.23 73.9787 162.279 74.2131 161.175 74.2131ZM161.19 71.8693C161.692 71.8693 162.111 71.7273 162.447 71.4432C162.783 71.1544 163.036 70.7614 163.207 70.2642C163.382 69.767 163.469 69.2012 163.469 68.5668C163.469 67.9323 163.382 67.3665 163.207 66.8693C163.036 66.3722 162.783 65.9792 162.447 65.6903C162.111 65.4015 161.692 65.2571 161.19 65.2571C160.683 65.2571 160.257 65.4015 159.911 65.6903C159.57 65.9792 159.312 66.3722 159.137 66.8693C158.967 67.3665 158.881 67.9323 158.881 68.5668C158.881 69.2012 158.967 69.767 159.137 70.2642C159.312 70.7614 159.57 71.1544 159.911 71.4432C160.257 71.7273 160.683 71.8693 161.19 71.8693ZM168.512 74V63.0909H171.396V65.0156H171.523C171.751 64.3764 172.129 63.8722 172.66 63.5028C173.19 63.1335 173.825 62.9489 174.563 62.9489C175.311 62.9489 175.948 63.1359 176.474 63.5099C176.999 63.8793 177.35 64.3812 177.525 65.0156H177.638C177.861 64.3906 178.263 63.8911 178.846 63.517C179.433 63.1383 180.127 62.9489 180.927 62.9489C181.945 62.9489 182.771 63.2732 183.406 63.9219C184.045 64.5658 184.364 65.4796 184.364 66.6634V74H181.346V67.2599C181.346 66.6539 181.185 66.1993 180.863 65.8963C180.541 65.5933 180.138 65.4418 179.656 65.4418C179.106 65.4418 178.678 65.617 178.37 65.9673C178.062 66.313 177.908 66.7699 177.908 67.3381V74H174.975V67.196C174.975 66.661 174.821 66.2348 174.513 65.9176C174.21 65.6004 173.81 65.4418 173.313 65.4418C172.977 65.4418 172.674 65.527 172.404 65.6974C172.139 65.8632 171.928 66.0975 171.772 66.4006C171.616 66.6989 171.538 67.0492 171.538 67.4517V74H168.512ZM186.754 78.0909V63.0909H189.737V64.9233H189.872C190.005 64.6297 190.196 64.3314 190.447 64.0284C190.703 63.7206 191.035 63.465 191.442 63.2614C191.854 63.053 192.365 62.9489 192.976 62.9489C193.771 62.9489 194.505 63.1572 195.178 63.5739C195.85 63.9858 196.387 64.6084 196.79 65.4418C197.192 66.2704 197.393 67.3097 197.393 68.5597C197.393 69.7765 197.197 70.804 196.804 71.642C196.416 72.4754 195.885 73.1075 195.213 73.5384C194.545 73.9645 193.797 74.1776 192.969 74.1776C192.382 74.1776 191.882 74.0805 191.47 73.8864C191.063 73.6922 190.729 73.4484 190.469 73.1548C190.208 72.8565 190.009 72.5559 189.872 72.2528H189.78V78.0909H186.754ZM189.716 68.5455C189.716 69.1941 189.806 69.7599 189.986 70.2429C190.166 70.7259 190.426 71.1023 190.767 71.3722C191.108 71.6373 191.522 71.7699 192.01 71.7699C192.502 71.7699 192.919 71.6349 193.26 71.3651C193.601 71.0904 193.859 70.7116 194.034 70.2287C194.214 69.741 194.304 69.1799 194.304 68.5455C194.304 67.9157 194.216 67.3617 194.041 66.8835C193.866 66.4053 193.608 66.0312 193.267 65.7614C192.926 65.4915 192.507 65.3565 192.01 65.3565C191.518 65.3565 191.101 65.4867 190.76 65.7472C190.424 66.0076 190.166 66.3769 189.986 66.8551C189.806 67.3333 189.716 67.8968 189.716 68.5455ZM204.339 74.2131C203.236 74.2131 202.282 73.9787 201.477 73.5099C200.677 73.0365 200.059 72.3783 199.624 71.5355C199.188 70.688 198.97 69.7055 198.97 68.5881C198.97 67.4612 199.188 66.4763 199.624 65.6335C200.059 64.786 200.677 64.1278 201.477 63.6591C202.282 63.1856 203.236 62.9489 204.339 62.9489C205.443 62.9489 206.394 63.1856 207.195 63.6591C208 64.1278 208.62 64.786 209.055 65.6335C209.491 66.4763 209.709 67.4612 209.709 68.5881C209.709 69.7055 209.491 70.688 209.055 71.5355C208.62 72.3783 208 73.0365 207.195 73.5099C206.394 73.9787 205.443 74.2131 204.339 74.2131ZM204.354 71.8693C204.856 71.8693 205.275 71.7273 205.611 71.4432C205.947 71.1544 206.2 70.7614 206.371 70.2642C206.546 69.767 206.634 69.2012 206.634 68.5668C206.634 67.9323 206.546 67.3665 206.371 66.8693C206.2 66.3722 205.947 65.9792 205.611 65.6903C205.275 65.4015 204.856 65.2571 204.354 65.2571C203.847 65.2571 203.421 65.4015 203.075 65.6903C202.734 65.9792 202.476 66.3722 202.301 66.8693C202.131 67.3665 202.045 67.9323 202.045 68.5668C202.045 69.2012 202.131 69.767 202.301 70.2642C202.476 70.7614 202.734 71.1544 203.075 71.4432C203.421 71.7273 203.847 71.8693 204.354 71.8693ZM214.702 67.6932V74H211.676V63.0909H214.56V65.0156H214.688C214.929 64.3812 215.334 63.8793 215.902 63.5099C216.47 63.1359 217.159 62.9489 217.969 62.9489C218.726 62.9489 219.387 63.1146 219.95 63.446C220.514 63.7775 220.952 64.2509 221.264 64.8665C221.577 65.4773 221.733 66.2064 221.733 67.054V74H218.707V67.5938C218.712 66.9261 218.542 66.4053 218.196 66.0312C217.85 65.6525 217.375 65.4631 216.768 65.4631C216.361 65.4631 216.001 65.5507 215.689 65.7259C215.381 65.901 215.14 66.1567 214.964 66.4929C214.794 66.8243 214.706 67.2244 214.702 67.6932ZM229.089 74.2131C227.967 74.2131 227.001 73.9858 226.191 73.5312C225.386 73.072 224.766 72.4233 224.331 71.5852C223.895 70.7424 223.677 69.7457 223.677 68.5952C223.677 67.473 223.895 66.4882 224.331 65.6406C224.766 64.7931 225.379 64.1326 226.17 63.6591C226.966 63.1856 227.898 62.9489 228.968 62.9489C229.688 62.9489 230.358 63.0649 230.978 63.2969C231.603 63.5241 232.148 63.8674 232.612 64.3267C233.081 64.786 233.445 65.3636 233.706 66.0597C233.966 66.7509 234.096 67.5606 234.096 68.4886V69.3196H224.885V67.4446H231.248C231.248 67.009 231.154 66.6231 230.964 66.2869C230.775 65.9508 230.512 65.688 230.176 65.4986C229.844 65.3045 229.458 65.2074 229.018 65.2074C228.559 65.2074 228.152 65.3139 227.797 65.527C227.446 65.7353 227.172 66.017 226.973 66.3722C226.774 66.7225 226.672 67.1132 226.667 67.544V69.3267C226.667 69.8665 226.767 70.3329 226.966 70.7259C227.169 71.1188 227.456 71.4219 227.825 71.6349C228.194 71.848 228.632 71.9545 229.139 71.9545C229.475 71.9545 229.783 71.9072 230.062 71.8125C230.342 71.7178 230.581 71.5758 230.779 71.3864C230.978 71.197 231.13 70.965 231.234 70.6903L234.032 70.875C233.89 71.5473 233.599 72.1345 233.159 72.6364C232.723 73.1335 232.16 73.5218 231.468 73.8011C230.782 74.0758 229.989 74.2131 229.089 74.2131ZM239.096 67.6932V74H236.071V63.0909H238.954V65.0156H239.082C239.324 64.3812 239.728 63.8793 240.297 63.5099C240.865 63.1359 241.554 62.9489 242.363 62.9489C243.121 62.9489 243.781 63.1146 244.345 63.446C244.908 63.7775 245.346 64.2509 245.659 64.8665C245.971 65.4773 246.127 66.2064 246.127 67.054V74H243.102V67.5938C243.107 66.9261 242.936 66.4053 242.591 66.0312C242.245 65.6525 241.769 65.4631 241.163 65.4631C240.756 65.4631 240.396 65.5507 240.083 65.7259C239.776 65.901 239.534 66.1567 239.359 66.4929C239.189 66.8243 239.101 67.2244 239.096 67.6932ZM254.315 63.0909V65.3636H247.745V63.0909H254.315ZM249.237 60.4773H252.262V70.6477C252.262 70.9271 252.305 71.1449 252.39 71.3011C252.475 71.4527 252.594 71.5592 252.745 71.6207C252.901 71.6823 253.081 71.7131 253.285 71.7131C253.427 71.7131 253.569 71.7012 253.711 71.6776C253.853 71.6491 253.962 71.6278 254.038 71.6136L254.513 73.8651C254.362 73.9124 254.149 73.9669 253.874 74.0284C253.6 74.0947 253.266 74.1349 252.873 74.1491C252.144 74.1776 251.504 74.0805 250.955 73.858C250.411 73.6354 249.987 73.2898 249.684 72.821C249.381 72.3523 249.232 71.7604 249.237 71.0455V60.4773ZM260.417 61.9901V59.4545H272.363V61.9901H267.91V74H264.87V61.9901H260.417ZM274.274 74V63.0909H277.299V74H274.274ZM275.794 61.6847C275.344 61.6847 274.958 61.5355 274.636 61.2372C274.319 60.9342 274.16 60.572 274.16 60.1506C274.16 59.7339 274.319 59.3764 274.636 59.0781C274.958 58.7751 275.344 58.6236 275.794 58.6236C276.243 58.6236 276.627 58.7751 276.944 59.0781C277.266 59.3764 277.427 59.7339 277.427 60.1506C277.427 60.572 277.266 60.9342 276.944 61.2372C276.627 61.5355 276.243 61.6847 275.794 61.6847ZM285.526 63.0909V65.3636H278.956V63.0909H285.526ZM280.447 60.4773H283.473V70.6477C283.473 70.9271 283.516 71.1449 283.601 71.3011C283.686 71.4527 283.804 71.5592 283.956 71.6207C284.112 71.6823 284.292 71.7131 284.496 71.7131C284.638 71.7131 284.78 71.7012 284.922 71.6776C285.064 71.6491 285.173 71.6278 285.249 71.6136L285.724 73.8651C285.573 73.9124 285.36 73.9669 285.085 74.0284C284.811 74.0947 284.477 74.1349 284.084 74.1491C283.355 74.1776 282.715 74.0805 282.166 73.858C281.622 73.6354 281.198 73.2898 280.895 72.821C280.592 72.3523 280.443 71.7604 280.447 71.0455V60.4773ZM290.756 59.4545V74H287.731V59.4545H290.756ZM298.152 74.2131C297.029 74.2131 296.064 73.9858 295.254 73.5312C294.449 73.072 293.829 72.4233 293.393 71.5852C292.958 70.7424 292.74 69.7457 292.74 68.5952C292.74 67.473 292.958 66.4882 293.393 65.6406C293.829 64.7931 294.442 64.1326 295.233 63.6591C296.028 63.1856 296.961 62.9489 298.031 62.9489C298.751 62.9489 299.421 63.0649 300.041 63.2969C300.666 63.5241 301.21 63.8674 301.674 64.3267C302.143 64.786 302.508 65.3636 302.768 66.0597C303.029 66.7509 303.159 67.5606 303.159 68.4886V69.3196H293.947V67.4446H300.311C300.311 67.009 300.216 66.6231 300.027 66.2869C299.837 65.9508 299.574 65.688 299.238 65.4986C298.907 65.3045 298.521 65.2074 298.081 65.2074C297.621 65.2074 297.214 65.3139 296.859 65.527C296.509 65.7353 296.234 66.017 296.035 66.3722C295.836 66.7225 295.734 67.1132 295.73 67.544V69.3267C295.73 69.8665 295.829 70.3329 296.028 70.7259C296.232 71.1188 296.518 71.4219 296.887 71.6349C297.257 71.848 297.695 71.9545 298.201 71.9545C298.538 71.9545 298.845 71.9072 299.125 71.8125C299.404 71.7178 299.643 71.5758 299.842 71.3864C300.041 71.197 300.192 70.965 300.297 70.6903L303.095 70.875C302.953 71.5473 302.662 72.1345 302.221 72.6364C301.786 73.1335 301.222 73.5218 300.531 73.8011C299.844 74.0758 299.051 74.2131 298.152 74.2131Z" fill="#0F172A"/>
<path d="M141.233 105V94.8182H142.466V99.3523H147.895V94.8182H149.128V105H147.895V100.446H142.466V105H141.233ZM151.437 105V97.3636H152.61V105H151.437ZM152.034 96.0909C151.805 96.0909 151.608 96.013 151.442 95.8572C151.28 95.7015 151.199 95.5142 151.199 95.2955C151.199 95.0767 151.28 94.8894 151.442 94.7337C151.608 94.5779 151.805 94.5 152.034 94.5C152.262 94.5 152.458 94.5779 152.62 94.7337C152.786 94.8894 152.869 95.0767 152.869 95.2955C152.869 95.5142 152.786 95.7015 152.62 95.8572C152.458 96.013 152.262 96.0909 152.034 96.0909ZM157.842 108.023C157.275 108.023 156.788 107.95 156.38 107.804C155.972 107.661 155.633 107.473 155.361 107.237C155.093 107.005 154.879 106.757 154.72 106.491L155.654 105.835C155.76 105.974 155.895 106.134 156.057 106.312C156.219 106.495 156.441 106.652 156.723 106.785C157.008 106.921 157.381 106.989 157.842 106.989C158.458 106.989 158.967 106.839 159.368 106.541C159.769 106.243 159.97 105.776 159.97 105.139V103.588H159.87C159.784 103.727 159.661 103.9 159.502 104.105C159.347 104.307 159.121 104.488 158.826 104.647C158.535 104.803 158.14 104.881 157.643 104.881C157.026 104.881 156.473 104.735 155.982 104.443C155.495 104.152 155.109 103.727 154.824 103.17C154.542 102.614 154.401 101.937 154.401 101.142C154.401 100.36 154.539 99.6787 154.814 99.0987C155.089 98.5154 155.472 98.0646 155.963 97.7464C156.453 97.425 157.02 97.2642 157.663 97.2642C158.16 97.2642 158.554 97.3471 158.846 97.5128C159.141 97.6752 159.366 97.8608 159.522 98.0696C159.681 98.2751 159.804 98.4441 159.89 98.5767H160.009V97.3636H161.143V105.219C161.143 105.875 160.994 106.409 160.695 106.82C160.401 107.234 160.003 107.537 159.502 107.729C159.005 107.925 158.452 108.023 157.842 108.023ZM157.802 103.827C158.273 103.827 158.67 103.719 158.995 103.504C159.32 103.288 159.567 102.978 159.736 102.574C159.905 102.17 159.99 101.686 159.99 101.122C159.99 100.572 159.907 100.086 159.741 99.6655C159.575 99.2446 159.33 98.9148 159.005 98.6761C158.68 98.4375 158.279 98.3182 157.802 98.3182C157.305 98.3182 156.891 98.4441 156.559 98.696C156.231 98.9479 155.984 99.286 155.818 99.7102C155.656 100.134 155.575 100.605 155.575 101.122C155.575 101.652 155.658 102.121 155.823 102.529C155.992 102.933 156.241 103.252 156.569 103.484C156.901 103.712 157.311 103.827 157.802 103.827ZM164.464 100.406V105H163.291V94.8182H164.464V98.5568H164.563C164.742 98.1624 165.011 97.8492 165.369 97.6172C165.73 97.3819 166.211 97.2642 166.811 97.2642C167.331 97.2642 167.787 97.3686 168.178 97.5774C168.569 97.7829 168.872 98.0994 169.088 98.527C169.306 98.9512 169.416 99.4915 169.416 100.148V105H168.242V100.227C168.242 99.6207 168.085 99.1518 167.77 98.8203C167.459 98.4856 167.026 98.3182 166.472 98.3182C166.088 98.3182 165.743 98.3994 165.438 98.5618C165.137 98.7242 164.898 98.9612 164.722 99.2727C164.55 99.5843 164.464 99.9621 164.464 100.406ZM175.937 100.088V101.182H171.483V100.088H175.937ZM181.402 97.3636V98.358H177.286V97.3636H181.402ZM178.519 105V96.3097C178.519 95.8722 178.621 95.5076 178.827 95.2159C179.032 94.9242 179.299 94.7055 179.627 94.5597C179.955 94.4138 180.302 94.3409 180.666 94.3409C180.955 94.3409 181.19 94.3641 181.372 94.4105C181.555 94.4569 181.691 94.5 181.78 94.5398L181.442 95.554C181.382 95.5341 181.299 95.5092 181.193 95.4794C181.091 95.4496 180.955 95.4347 180.786 95.4347C180.398 95.4347 180.118 95.5324 179.945 95.728C179.776 95.9235 179.692 96.2102 179.692 96.5881V105H178.519ZM183.047 105V97.3636H184.22V105H183.047ZM183.643 96.0909C183.414 96.0909 183.217 96.013 183.051 95.8572C182.889 95.7015 182.808 95.5142 182.808 95.2955C182.808 95.0767 182.889 94.8894 183.051 94.7337C183.217 94.5779 183.414 94.5 183.643 94.5C183.872 94.5 184.067 94.5779 184.23 94.7337C184.395 94.8894 184.478 95.0767 184.478 95.2955C184.478 95.5142 184.395 95.7015 184.23 95.8572C184.067 96.013 183.872 96.0909 183.643 96.0909ZM189.252 105.159C188.616 105.159 188.054 104.998 187.567 104.677C187.08 104.352 186.699 103.895 186.423 103.305C186.148 102.711 186.011 102.01 186.011 101.202C186.011 100.4 186.148 99.7036 186.423 99.1136C186.699 98.5237 187.081 98.0679 187.572 97.7464C188.062 97.425 188.629 97.2642 189.272 97.2642C189.769 97.2642 190.162 97.3471 190.45 97.5128C190.742 97.6752 190.964 97.8608 191.117 98.0696C191.272 98.2751 191.393 98.4441 191.48 98.5767H191.579V94.8182H192.752V105H191.619V103.827H191.48C191.393 103.966 191.271 104.142 191.112 104.354C190.953 104.562 190.726 104.75 190.431 104.915C190.136 105.078 189.743 105.159 189.252 105.159ZM189.411 104.105C189.882 104.105 190.28 103.982 190.605 103.737C190.929 103.489 191.176 103.146 191.345 102.708C191.514 102.267 191.599 101.759 191.599 101.182C191.599 100.612 191.516 100.113 191.35 99.6854C191.185 99.2545 190.939 98.9197 190.615 98.6811C190.29 98.4392 189.889 98.3182 189.411 98.3182C188.914 98.3182 188.5 98.4458 188.169 98.701C187.84 98.9529 187.593 99.2959 187.428 99.7301C187.265 100.161 187.184 100.645 187.184 101.182C187.184 101.725 187.267 102.219 187.433 102.663C187.602 103.104 187.85 103.455 188.178 103.717C188.51 103.976 188.921 104.105 189.411 104.105ZM198.266 105.159C197.53 105.159 196.895 104.997 196.362 104.672C195.831 104.344 195.422 103.886 195.134 103.3C194.849 102.71 194.706 102.024 194.706 101.241C194.706 100.459 194.849 99.7699 195.134 99.1733C195.422 98.5734 195.823 98.1061 196.337 97.7713C196.854 97.4332 197.457 97.2642 198.146 97.2642C198.544 97.2642 198.937 97.3305 199.325 97.4631C199.713 97.5956 200.066 97.8111 200.384 98.1094C200.702 98.4044 200.955 98.7955 201.144 99.2827C201.333 99.7699 201.428 100.37 201.428 101.082V101.58H195.541V100.565H200.235C200.235 100.134 200.148 99.75 199.976 99.4119C199.807 99.0739 199.565 98.8071 199.25 98.6115C198.939 98.416 198.571 98.3182 198.146 98.3182C197.679 98.3182 197.275 98.4342 196.933 98.6662C196.595 98.8949 196.335 99.1932 196.153 99.5611C195.971 99.929 195.879 100.323 195.879 100.744V101.42C195.879 101.997 195.979 102.486 196.178 102.887C196.38 103.285 196.66 103.588 197.018 103.797C197.376 104.002 197.792 104.105 198.266 104.105C198.574 104.105 198.852 104.062 199.101 103.976C199.353 103.886 199.57 103.754 199.752 103.578C199.935 103.399 200.075 103.177 200.175 102.912L201.308 103.23C201.189 103.615 200.989 103.953 200.707 104.244C200.425 104.533 200.077 104.758 199.663 104.92C199.249 105.08 198.783 105.159 198.266 105.159ZM204.386 94.8182V105H203.213V94.8182H204.386ZM206.535 105V97.3636H207.708V105H206.535ZM207.131 96.0909C206.903 96.0909 206.705 96.013 206.54 95.8572C206.377 95.7015 206.296 95.5142 206.296 95.2955C206.296 95.0767 206.377 94.8894 206.54 94.7337C206.705 94.5779 206.903 94.5 207.131 94.5C207.36 94.5 207.556 94.5779 207.718 94.7337C207.884 94.8894 207.967 95.0767 207.967 95.2955C207.967 95.5142 207.884 95.7015 207.718 95.8572C207.556 96.013 207.36 96.0909 207.131 96.0909ZM213.178 97.3636V98.358H209.221V97.3636H213.178ZM210.374 95.5341H211.547V102.812C211.547 103.144 211.595 103.393 211.692 103.558C211.791 103.721 211.917 103.83 212.069 103.886C212.225 103.939 212.389 103.966 212.562 103.966C212.691 103.966 212.797 103.959 212.88 103.946C212.963 103.929 213.029 103.916 213.079 103.906L213.317 104.96C213.238 104.99 213.127 105.02 212.984 105.05C212.842 105.083 212.661 105.099 212.442 105.099C212.111 105.099 211.786 105.028 211.468 104.886C211.153 104.743 210.891 104.526 210.682 104.234C210.477 103.943 210.374 103.575 210.374 103.131V95.5341ZM215.699 107.864C215.5 107.864 215.323 107.847 215.167 107.814C215.011 107.784 214.903 107.754 214.844 107.724L215.142 106.69C215.427 106.763 215.679 106.79 215.898 106.77C216.116 106.75 216.31 106.652 216.479 106.477C216.652 106.304 216.809 106.024 216.952 105.636L217.17 105.04L214.346 97.3636H215.619L217.727 103.449H217.807L219.915 97.3636H221.187L217.946 106.114C217.8 106.508 217.619 106.835 217.404 107.093C217.189 107.355 216.938 107.549 216.653 107.675C216.372 107.801 216.053 107.864 215.699 107.864ZM233.514 94.8182H234.747V101.56C234.747 102.256 234.583 102.877 234.255 103.424C233.93 103.968 233.471 104.397 232.878 104.712C232.285 105.023 231.589 105.179 230.79 105.179C229.991 105.179 229.295 105.023 228.702 104.712C228.109 104.397 227.648 103.968 227.32 103.424C226.995 102.877 226.833 102.256 226.833 101.56V94.8182H228.066V101.46C228.066 101.957 228.175 102.4 228.394 102.788C228.612 103.172 228.924 103.475 229.328 103.697C229.736 103.916 230.223 104.026 230.79 104.026C231.357 104.026 231.844 103.916 232.252 103.697C232.659 103.475 232.971 103.172 233.186 102.788C233.405 102.4 233.514 101.957 233.514 101.46V94.8182ZM238.442 94.8182V105H237.21V94.8182H238.442ZM247.895 105.159C247.159 105.159 246.524 104.997 245.991 104.672C245.46 104.344 245.051 103.886 244.763 103.3C244.478 102.71 244.335 102.024 244.335 101.241C244.335 100.459 244.478 99.7699 244.763 99.1733C245.051 98.5734 245.452 98.1061 245.966 97.7713C246.483 97.4332 247.086 97.2642 247.775 97.2642C248.173 97.2642 248.566 97.3305 248.954 97.4631C249.341 97.5956 249.694 97.8111 250.013 98.1094C250.331 98.4044 250.584 98.7955 250.773 99.2827C250.962 99.7699 251.057 100.37 251.057 101.082V101.58H245.17V100.565H249.863C249.863 100.134 249.777 99.75 249.605 99.4119C249.436 99.0739 249.194 98.8071 248.879 98.6115C248.568 98.416 248.2 98.3182 247.775 98.3182C247.308 98.3182 246.904 98.4342 246.562 98.6662C246.224 98.8949 245.964 99.1932 245.782 99.5611C245.599 99.929 245.508 100.323 245.508 100.744V101.42C245.508 101.997 245.608 102.486 245.807 102.887C246.009 103.285 246.289 103.588 246.647 103.797C247.005 104.002 247.421 104.105 247.895 104.105C248.203 104.105 248.481 104.062 248.73 103.976C248.982 103.886 249.199 103.754 249.381 103.578C249.564 103.399 249.704 103.177 249.804 102.912L250.937 103.23C250.818 103.615 250.617 103.953 250.336 104.244C250.054 104.533 249.706 104.758 249.292 104.92C248.877 105.08 248.412 105.159 247.895 105.159ZM254.015 94.8182V105H252.841V94.8182H254.015ZM259.365 105.159C258.63 105.159 257.995 104.997 257.461 104.672C256.931 104.344 256.522 103.886 256.233 103.3C255.948 102.71 255.806 102.024 255.806 101.241C255.806 100.459 255.948 99.7699 256.233 99.1733C256.522 98.5734 256.923 98.1061 257.436 97.7713C257.953 97.4332 258.557 97.2642 259.246 97.2642C259.644 97.2642 260.037 97.3305 260.424 97.4631C260.812 97.5956 261.165 97.8111 261.483 98.1094C261.801 98.4044 262.055 98.7955 262.244 99.2827C262.433 99.7699 262.527 100.37 262.527 101.082V101.58H256.641V100.565H261.334C261.334 100.134 261.248 99.75 261.076 99.4119C260.907 99.0739 260.665 98.8071 260.35 98.6115C260.038 98.416 259.67 98.3182 259.246 98.3182C258.779 98.3182 258.374 98.4342 258.033 98.6662C257.695 98.8949 257.435 99.1932 257.252 99.5611C257.07 99.929 256.979 100.323 256.979 100.744V101.42C256.979 101.997 257.078 102.486 257.277 102.887C257.48 103.285 257.76 103.588 258.118 103.797C258.475 104.002 258.891 104.105 259.365 104.105C259.674 104.105 259.952 104.062 260.201 103.976C260.453 103.886 260.67 103.754 260.852 103.578C261.034 103.399 261.175 103.177 261.275 102.912L262.408 103.23C262.289 103.615 262.088 103.953 261.806 104.244C261.525 104.533 261.177 104.758 260.762 104.92C260.348 105.08 259.882 105.159 259.365 105.159ZM264.312 105V97.3636H265.446V98.5568H265.545C265.704 98.1491 265.961 97.8326 266.316 97.6072C266.67 97.3786 267.096 97.2642 267.593 97.2642C268.097 97.2642 268.516 97.3786 268.851 97.6072C269.189 97.8326 269.453 98.1491 269.642 98.5568H269.721C269.917 98.1624 270.21 97.8492 270.601 97.6172C270.992 97.3819 271.461 97.2642 272.008 97.2642C272.691 97.2642 273.249 97.478 273.684 97.9055C274.118 98.3298 274.335 98.991 274.335 99.8892V105H273.162V99.8892C273.162 99.3258 273.007 98.9231 272.699 98.6811C272.391 98.4392 272.028 98.3182 271.61 98.3182C271.074 98.3182 270.658 98.4806 270.363 98.8054C270.068 99.1269 269.92 99.5346 269.92 100.028V105H268.727V99.7699C268.727 99.3357 268.586 98.986 268.304 98.7209C268.023 98.4524 267.66 98.3182 267.216 98.3182C266.911 98.3182 266.626 98.3994 266.36 98.5618C266.099 98.7242 265.886 98.9496 265.724 99.2379C265.565 99.523 265.485 99.8527 265.485 100.227V105H264.312ZM279.682 105.159C278.946 105.159 278.311 104.997 277.778 104.672C277.247 104.344 276.838 103.886 276.55 103.3C276.265 102.71 276.122 102.024 276.122 101.241C276.122 100.459 276.265 99.7699 276.55 99.1733C276.838 98.5734 277.239 98.1061 277.753 97.7713C278.27 97.4332 278.873 97.2642 279.562 97.2642C279.96 97.2642 280.353 97.3305 280.741 97.4631C281.129 97.5956 281.482 97.8111 281.8 98.1094C282.118 98.4044 282.371 98.7955 282.56 99.2827C282.749 99.7699 282.844 100.37 282.844 101.082V101.58H276.957V100.565H281.651C281.651 100.134 281.564 99.75 281.392 99.4119C281.223 99.0739 280.981 98.8071 280.666 98.6115C280.355 98.416 279.987 98.3182 279.562 98.3182C279.095 98.3182 278.691 98.4342 278.349 98.6662C278.011 98.8949 277.751 99.1932 277.569 99.5611C277.387 99.929 277.295 100.323 277.295 100.744V101.42C277.295 101.997 277.395 102.486 277.594 102.887C277.796 103.285 278.076 103.588 278.434 103.797C278.792 104.002 279.208 104.105 279.682 104.105C279.99 104.105 280.268 104.062 280.517 103.976C280.769 103.886 280.986 103.754 281.168 103.578C281.351 103.399 281.491 103.177 281.591 102.912L282.724 103.23C282.605 103.615 282.405 103.953 282.123 104.244C281.841 104.533 281.493 104.758 281.079 104.92C280.665 105.08 280.199 105.159 279.682 105.159ZM285.802 100.406V105H284.629V97.3636H285.762V98.5568H285.862C286.04 98.169 286.312 97.8575 286.677 97.6222C287.041 97.3835 287.512 97.2642 288.089 97.2642C288.606 97.2642 289.058 97.3703 289.446 97.5824C289.834 97.7912 290.135 98.1094 290.351 98.5369C290.566 98.9612 290.674 99.4981 290.674 100.148V105H289.501V100.227C289.501 99.6274 289.345 99.16 289.033 98.8253C288.722 98.4872 288.294 98.3182 287.751 98.3182C287.376 98.3182 287.041 98.3994 286.746 98.5618C286.455 98.7242 286.224 98.9612 286.055 99.2727C285.886 99.5843 285.802 99.9621 285.802 100.406ZM296.139 97.3636V98.358H292.182V97.3636H296.139ZM293.335 95.5341H294.508V102.812C294.508 103.144 294.556 103.393 294.653 103.558C294.752 103.721 294.878 103.83 295.03 103.886C295.186 103.939 295.35 103.966 295.523 103.966C295.652 103.966 295.758 103.959 295.841 103.946C295.924 103.929 295.99 103.916 296.04 103.906L296.278 104.96C296.199 104.99 296.088 105.02 295.945 105.05C295.803 105.083 295.622 105.099 295.403 105.099C295.072 105.099 294.747 105.028 294.429 104.886C294.114 104.743 293.852 104.526 293.643 104.234C293.438 103.943 293.335 103.575 293.335 103.131V95.5341Z" fill="#64748B"/>
<path d="M250 160H150C144.477 160 140 164.477 140 170V190C140 195.523 144.477 200 150 200H250C255.523 200 260 195.523 260 190V170C260 164.477 255.523 160 250 160Z" fill="#0F172A"/>
<path d="M179.621 179H178.388C178.316 178.645 178.188 178.334 178.006 178.065C177.827 177.797 177.608 177.571 177.349 177.389C177.094 177.204 176.811 177.064 176.499 176.972C176.188 176.879 175.863 176.832 175.525 176.832C174.908 176.832 174.35 176.988 173.849 177.3C173.352 177.611 172.956 178.07 172.661 178.677C172.37 179.283 172.224 180.027 172.224 180.909C172.224 181.791 172.37 182.535 172.661 183.141C172.956 183.748 173.352 184.207 173.849 184.518C174.35 184.83 174.908 184.986 175.525 184.986C175.863 184.986 176.188 184.939 176.499 184.847C176.811 184.754 177.094 184.616 177.349 184.434C177.608 184.248 177.827 184.021 178.006 183.753C178.188 183.481 178.316 183.17 178.388 182.818H179.621C179.529 183.339 179.36 183.804 179.114 184.215C178.869 184.626 178.564 184.976 178.2 185.264C177.835 185.549 177.426 185.766 176.972 185.915C176.521 186.065 176.039 186.139 175.525 186.139C174.656 186.139 173.884 185.927 173.208 185.503C172.532 185.079 172 184.475 171.612 183.693C171.224 182.911 171.031 181.983 171.031 180.909C171.031 179.835 171.224 178.907 171.612 178.125C172 177.343 172.532 176.74 173.208 176.315C173.884 175.891 174.656 175.679 175.525 175.679C176.039 175.679 176.521 175.754 176.972 175.903C177.426 176.052 177.835 176.271 178.2 176.559C178.564 176.844 178.869 177.192 179.114 177.603C179.36 178.011 179.529 178.476 179.621 179ZM184.557 186.159C183.868 186.159 183.263 185.995 182.742 185.667C182.225 185.339 181.821 184.88 181.529 184.29C181.241 183.7 181.097 183.01 181.097 182.222C181.097 181.426 181.241 180.732 181.529 180.138C181.821 179.545 182.225 179.085 182.742 178.756C183.263 178.428 183.868 178.264 184.557 178.264C185.246 178.264 185.85 178.428 186.367 178.756C186.887 179.085 187.291 179.545 187.58 180.138C187.871 180.732 188.017 181.426 188.017 182.222C188.017 183.01 187.871 183.7 187.58 184.29C187.291 184.88 186.887 185.339 186.367 185.667C185.85 185.995 185.246 186.159 184.557 186.159ZM184.557 185.105C185.081 185.105 185.512 184.971 185.85 184.702C186.188 184.434 186.438 184.081 186.6 183.643C186.763 183.206 186.844 182.732 186.844 182.222C186.844 181.711 186.763 181.236 186.6 180.795C186.438 180.354 186.188 179.998 185.85 179.726C185.512 179.454 185.081 179.318 184.557 179.318C184.033 179.318 183.602 179.454 183.264 179.726C182.926 179.998 182.676 180.354 182.514 180.795C182.351 181.236 182.27 181.711 182.27 182.222C182.27 182.732 182.351 183.206 182.514 183.643C182.676 184.081 182.926 184.434 183.264 184.702C183.602 184.971 184.033 185.105 184.557 185.105ZM190.982 181.406V186H189.808V178.364H190.942V179.557H191.041C191.22 179.169 191.492 178.857 191.857 178.622C192.221 178.384 192.692 178.264 193.268 178.264C193.786 178.264 194.238 178.37 194.626 178.582C195.013 178.791 195.315 179.109 195.531 179.537C195.746 179.961 195.854 180.498 195.854 181.148V186H194.68V181.227C194.68 180.627 194.525 180.16 194.213 179.825C193.902 179.487 193.474 179.318 192.93 179.318C192.556 179.318 192.221 179.399 191.926 179.562C191.634 179.724 191.404 179.961 191.235 180.273C191.066 180.584 190.982 180.962 190.982 181.406ZM201.319 178.364V179.358H197.361V178.364H201.319ZM198.515 176.534H199.688V183.812C199.688 184.144 199.736 184.393 199.832 184.558C199.932 184.721 200.058 184.83 200.21 184.886C200.366 184.939 200.53 184.966 200.702 184.966C200.831 184.966 200.938 184.959 201.02 184.946C201.103 184.929 201.17 184.916 201.219 184.906L201.458 185.96C201.378 185.99 201.267 186.02 201.125 186.05C200.982 186.083 200.802 186.099 200.583 186.099C200.251 186.099 199.927 186.028 199.608 185.886C199.294 185.743 199.032 185.526 198.823 185.234C198.617 184.943 198.515 184.575 198.515 184.131V176.534ZM203.084 186V178.364H204.257V186H203.084ZM203.68 177.091C203.452 177.091 203.254 177.013 203.089 176.857C202.926 176.701 202.845 176.514 202.845 176.295C202.845 176.077 202.926 175.889 203.089 175.734C203.254 175.578 203.452 175.5 203.68 175.5C203.909 175.5 204.104 175.578 204.267 175.734C204.433 175.889 204.515 176.077 204.515 176.295C204.515 176.514 204.433 176.701 204.267 176.857C204.104 177.013 203.909 177.091 203.68 177.091ZM207.579 181.406V186H206.406V178.364H207.539V179.557H207.639C207.818 179.169 208.09 178.857 208.454 178.622C208.819 178.384 209.289 178.264 209.866 178.264C210.383 178.264 210.836 178.37 211.223 178.582C211.611 178.791 211.913 179.109 212.128 179.537C212.344 179.961 212.451 180.498 212.451 181.148V186H211.278V181.227C211.278 180.627 211.122 180.16 210.811 179.825C210.499 179.487 210.072 179.318 209.528 179.318C209.154 179.318 208.819 179.399 208.524 179.562C208.232 179.724 208.002 179.961 207.833 180.273C207.664 180.584 207.579 180.962 207.579 181.406ZM219.408 182.878V178.364H220.581V186H219.408V184.707H219.328C219.149 185.095 218.871 185.425 218.493 185.697C218.115 185.965 217.638 186.099 217.061 186.099C216.584 186.099 216.16 185.995 215.789 185.786C215.417 185.574 215.126 185.256 214.914 184.832C214.701 184.404 214.595 183.866 214.595 183.216V178.364H215.769V183.136C215.769 183.693 215.924 184.137 216.236 184.469C216.551 184.8 216.952 184.966 217.439 184.966C217.731 184.966 218.027 184.891 218.329 184.742C218.634 184.593 218.889 184.364 219.095 184.056C219.303 183.748 219.408 183.355 219.408 182.878ZM225.932 186.159C225.196 186.159 224.561 185.997 224.028 185.672C223.497 185.344 223.088 184.886 222.8 184.3C222.515 183.71 222.372 183.024 222.372 182.241C222.372 181.459 222.515 180.77 222.8 180.173C223.088 179.573 223.489 179.106 224.003 178.771C224.52 178.433 225.123 178.264 225.812 178.264C226.21 178.264 226.603 178.33 226.991 178.463C227.379 178.596 227.732 178.811 228.05 179.109C228.368 179.404 228.621 179.795 228.81 180.283C228.999 180.77 229.094 181.37 229.094 182.082V182.58H223.207V181.565H227.901C227.901 181.134 227.814 180.75 227.642 180.412C227.473 180.074 227.231 179.807 226.916 179.612C226.605 179.416 226.237 179.318 225.812 179.318C225.345 179.318 224.941 179.434 224.599 179.666C224.261 179.895 224.001 180.193 223.819 180.561C223.637 180.929 223.545 181.323 223.545 181.744V182.42C223.545 182.997 223.645 183.486 223.844 183.887C224.046 184.285 224.326 184.588 224.684 184.797C225.042 185.002 225.458 185.105 225.932 185.105C226.24 185.105 226.518 185.062 226.767 184.976C227.019 184.886 227.236 184.754 227.418 184.578C227.601 184.399 227.741 184.177 227.841 183.912L228.974 184.23C228.855 184.615 228.655 184.953 228.373 185.244C228.091 185.533 227.743 185.758 227.329 185.92C226.915 186.08 226.449 186.159 225.932 186.159Z" fill="white"/>
<defs>
<linearGradient id="paint0_linear_21_1912" x1="200" y1="-1.07288e-06" x2="200" y2="240" gradientUnits="userSpaceOnUse">
<stop stop-color="white"/>
<stop offset="1" stop-color="#F8FAFC"/>
</linearGradient>
</defs>
</svg>
