<svg width="360" height="240" viewBox="0 0 360 240" fill="none" xmlns="http://www.w3.org/2000/svg">
<g clip-path="url(#clip0_21_2139)">
<path d="M350 0H10C4.47715 0 0 4.47715 0 10V230C0 235.523 4.47715 240 10 240H350C355.523 240 360 235.523 360 230V10C360 4.47715 355.523 0 350 0Z" fill="white" stroke="#E5E7EB"/>
<path d="M332 20H28C23.5817 20 20 23.5817 20 28V60C20 64.4183 23.5817 68 28 68H332C336.418 68 340 64.4183 340 60V28C340 23.5817 336.418 20 332 20Z" fill="#F9FAFB"/>
<path d="M37.0114 49V37.3636H41.6023C42.4848 37.3636 43.2367 37.5322 43.858 37.8693C44.4792 38.2027 44.9527 38.6667 45.2784 39.2614C45.608 39.8523 45.7727 40.5341 45.7727 41.3068C45.7727 42.0795 45.6061 42.7614 45.2727 43.3523C44.9394 43.9432 44.4564 44.4034 43.8239 44.733C43.1951 45.0625 42.4337 45.2273 41.5398 45.2273H38.6136V43.2557H41.142C41.6155 43.2557 42.0057 43.1742 42.3125 43.0114C42.6231 42.8447 42.8542 42.6155 43.0057 42.3239C43.161 42.0284 43.2386 41.6894 43.2386 41.3068C43.2386 40.9205 43.161 40.5833 43.0057 40.2955C42.8542 40.0038 42.6231 39.7784 42.3125 39.6193C42.0019 39.4564 41.608 39.375 41.1307 39.375H39.4716V49H37.0114ZM47.3253 49V40.2727H49.6719V41.7955H49.7628C49.9219 41.2538 50.1889 40.8447 50.5639 40.5682C50.9389 40.2879 51.3707 40.1477 51.8594 40.1477C51.9806 40.1477 52.1113 40.1553 52.2514 40.1705C52.3916 40.1856 52.5147 40.2064 52.6207 40.233V42.3807C52.5071 42.3466 52.3499 42.3163 52.1491 42.2898C51.9484 42.2633 51.7647 42.25 51.598 42.25C51.242 42.25 50.9238 42.3277 50.6435 42.483C50.367 42.6345 50.1473 42.8466 49.9844 43.1193C49.8253 43.392 49.7457 43.7064 49.7457 44.0625V49H47.3253ZM57.4091 49.1705C56.5265 49.1705 55.7633 48.983 55.1193 48.608C54.4792 48.2292 53.9848 47.7027 53.6364 47.0284C53.2879 46.3504 53.1136 45.5644 53.1136 44.6705C53.1136 43.7689 53.2879 42.9811 53.6364 42.3068C53.9848 41.6288 54.4792 41.1023 55.1193 40.7273C55.7633 40.3485 56.5265 40.1591 57.4091 40.1591C58.2917 40.1591 59.053 40.3485 59.6932 40.7273C60.3371 41.1023 60.8333 41.6288 61.1818 42.3068C61.5303 42.9811 61.7045 43.7689 61.7045 44.6705C61.7045 45.5644 61.5303 46.3504 61.1818 47.0284C60.8333 47.7027 60.3371 48.2292 59.6932 48.608C59.053 48.983 58.2917 49.1705 57.4091 49.1705ZM57.4205 47.2955C57.822 47.2955 58.1572 47.1818 58.4261 46.9545C58.6951 46.7235 58.8977 46.4091 59.0341 46.0114C59.1742 45.6136 59.2443 45.161 59.2443 44.6534C59.2443 44.1458 59.1742 43.6932 59.0341 43.2955C58.8977 42.8977 58.6951 42.5833 58.4261 42.3523C58.1572 42.1212 57.822 42.0057 57.4205 42.0057C57.0152 42.0057 56.6742 42.1212 56.3977 42.3523C56.125 42.5833 55.9186 42.8977 55.7784 43.2955C55.642 43.6932 55.5739 44.1458 55.5739 44.6534C55.5739 45.161 55.642 45.6136 55.7784 46.0114C55.9186 46.4091 56.125 46.7235 56.3977 46.9545C56.6742 47.1818 57.0152 47.2955 57.4205 47.2955ZM67.9716 40.2727V42.0909H62.5852V40.2727H67.9716ZM63.8182 49V39.642C63.8182 39.0095 63.9413 38.4848 64.1875 38.0682C64.4375 37.6515 64.7784 37.339 65.2102 37.1307C65.642 36.9223 66.1326 36.8182 66.6818 36.8182C67.053 36.8182 67.392 36.8466 67.6989 36.9034C68.0095 36.9602 68.2405 37.0114 68.392 37.0568L67.9602 38.875C67.8655 38.8447 67.7481 38.8163 67.608 38.7898C67.4716 38.7633 67.3314 38.75 67.1875 38.75C66.8314 38.75 66.5833 38.8333 66.4432 39C66.303 39.1629 66.233 39.392 66.233 39.6875V49H63.8182ZM69.4503 49V40.2727H71.8707V49H69.4503ZM70.6662 39.1477C70.3063 39.1477 69.9976 39.0284 69.7401 38.7898C69.4863 38.5473 69.3594 38.2576 69.3594 37.9205C69.3594 37.5871 69.4863 37.3011 69.7401 37.0625C69.9976 36.8201 70.3063 36.6989 70.6662 36.6989C71.026 36.6989 71.3329 36.8201 71.5866 37.0625C71.8442 37.3011 71.973 37.5871 71.973 37.9205C71.973 38.2576 71.8442 38.5473 71.5866 38.7898C71.3329 39.0284 71.026 39.1477 70.6662 39.1477ZM76.2301 37.3636V49H73.8097V37.3636H76.2301ZM82.1463 49.1705C81.2486 49.1705 80.4759 48.9886 79.8281 48.625C79.1842 48.2576 78.688 47.7386 78.3395 47.0682C77.991 46.3939 77.8168 45.5966 77.8168 44.6761C77.8168 43.7784 77.991 42.9905 78.3395 42.3125C78.688 41.6345 79.1785 41.1061 79.8111 40.7273C80.4474 40.3485 81.1937 40.1591 82.0497 40.1591C82.6255 40.1591 83.1615 40.2519 83.6577 40.4375C84.1577 40.6193 84.5933 40.8939 84.9645 41.2614C85.3395 41.6288 85.6312 42.0909 85.8395 42.6477C86.0478 43.2008 86.152 43.8485 86.152 44.5909V45.2557H78.7827V43.7557H83.8736C83.8736 43.4072 83.7978 43.0985 83.6463 42.8295C83.4948 42.5606 83.2846 42.3504 83.0156 42.1989C82.7505 42.0436 82.4418 41.9659 82.0895 41.9659C81.7221 41.9659 81.3963 42.0511 81.1122 42.2216C80.8319 42.3883 80.6122 42.6136 80.4531 42.8977C80.294 43.178 80.2126 43.4905 80.2088 43.8352V45.2614C80.2088 45.6932 80.2884 46.0663 80.4474 46.3807C80.6103 46.6951 80.8395 46.9375 81.1349 47.108C81.4304 47.2784 81.7808 47.3636 82.1861 47.3636C82.455 47.3636 82.7012 47.3258 82.9247 47.25C83.1482 47.1742 83.3395 47.0606 83.4986 46.9091C83.6577 46.7576 83.7789 46.572 83.8622 46.3523L86.1009 46.5C85.9872 47.0379 85.7543 47.5076 85.402 47.9091C85.0535 48.3068 84.6027 48.6174 84.0497 48.8409C83.5005 49.0606 82.866 49.1705 82.1463 49.1705ZM97.7926 40.7102C97.7472 40.2519 97.5521 39.8958 97.2074 39.642C96.8627 39.3883 96.3949 39.2614 95.804 39.2614C95.4025 39.2614 95.0634 39.3182 94.7869 39.4318C94.5104 39.5417 94.2983 39.6951 94.1506 39.892C94.0066 40.089 93.9347 40.3125 93.9347 40.5625C93.9271 40.7708 93.9706 40.9527 94.0653 41.108C94.1638 41.2633 94.2983 41.3977 94.4688 41.5114C94.6392 41.6212 94.8362 41.7178 95.0597 41.8011C95.2831 41.8807 95.5218 41.9489 95.7756 42.0057L96.821 42.2557C97.3286 42.3693 97.7945 42.5208 98.2188 42.7102C98.643 42.8996 99.0104 43.1326 99.321 43.4091C99.6316 43.6856 99.8722 44.0114 100.043 44.3864C100.217 44.7614 100.306 45.1913 100.31 45.6761C100.306 46.3883 100.124 47.0057 99.7642 47.5284C99.4081 48.0473 98.893 48.4508 98.2188 48.7386C97.5483 49.0227 96.7396 49.1648 95.7926 49.1648C94.8532 49.1648 94.035 49.0208 93.3381 48.733C92.6449 48.4451 92.1032 48.0189 91.7131 47.4545C91.3267 46.8864 91.1241 46.1837 91.1051 45.3466H93.4858C93.5123 45.7367 93.6241 46.0625 93.821 46.3239C94.0218 46.5814 94.2888 46.7765 94.6222 46.9091C94.9593 47.0379 95.34 47.1023 95.7642 47.1023C96.1809 47.1023 96.5426 47.0417 96.8494 46.9205C97.16 46.7992 97.4006 46.6307 97.571 46.4148C97.7415 46.1989 97.8267 45.9508 97.8267 45.6705C97.8267 45.4091 97.7491 45.1894 97.5938 45.0114C97.4422 44.8333 97.2188 44.6818 96.9233 44.5568C96.6316 44.4318 96.2737 44.3182 95.8494 44.2159L94.5824 43.8977C93.6013 43.6591 92.8267 43.286 92.2585 42.7784C91.6903 42.2708 91.4081 41.5871 91.4119 40.7273C91.4081 40.0227 91.5956 39.4072 91.9744 38.8807C92.357 38.3542 92.8816 37.9432 93.5483 37.6477C94.215 37.3523 94.9725 37.2045 95.821 37.2045C96.6847 37.2045 97.4384 37.3523 98.0824 37.6477C98.7301 37.9432 99.2339 38.3542 99.5938 38.8807C99.9536 39.4072 100.139 40.017 100.151 40.7102H97.7926ZM105.896 49.1705C104.999 49.1705 104.226 48.9886 103.578 48.625C102.934 48.2576 102.438 47.7386 102.089 47.0682C101.741 46.3939 101.567 45.5966 101.567 44.6761C101.567 43.7784 101.741 42.9905 102.089 42.3125C102.438 41.6345 102.929 41.1061 103.561 40.7273C104.197 40.3485 104.944 40.1591 105.8 40.1591C106.375 40.1591 106.911 40.2519 107.408 40.4375C107.908 40.6193 108.343 40.8939 108.714 41.2614C109.089 41.6288 109.381 42.0909 109.589 42.6477C109.798 43.2008 109.902 43.8485 109.902 44.5909V45.2557H102.533V43.7557H107.624C107.624 43.4072 107.548 43.0985 107.396 42.8295C107.245 42.5606 107.035 42.3504 106.766 42.1989C106.5 42.0436 106.192 41.9659 105.839 41.9659C105.472 41.9659 105.146 42.0511 104.862 42.2216C104.582 42.3883 104.362 42.6136 104.203 42.8977C104.044 43.178 103.963 43.4905 103.959 43.8352V45.2614C103.959 45.6932 104.038 46.0663 104.197 46.3807C104.36 46.6951 104.589 46.9375 104.885 47.108C105.18 47.2784 105.531 47.3636 105.936 47.3636C106.205 47.3636 106.451 47.3258 106.675 47.25C106.898 47.1742 107.089 47.0606 107.249 46.9091C107.408 46.7576 107.529 46.572 107.612 46.3523L109.851 46.5C109.737 47.0379 109.504 47.5076 109.152 47.9091C108.804 48.3068 108.353 48.6174 107.8 48.8409C107.25 49.0606 106.616 49.1705 105.896 49.1705ZM116.124 40.2727V42.0909H110.868V40.2727H116.124ZM112.061 38.1818H114.482V46.3182C114.482 46.5417 114.516 46.7159 114.584 46.8409C114.652 46.9621 114.747 47.0473 114.868 47.0966C114.993 47.1458 115.137 47.1705 115.3 47.1705C115.413 47.1705 115.527 47.161 115.641 47.142C115.754 47.1193 115.841 47.1023 115.902 47.0909L116.283 48.892C116.161 48.9299 115.991 48.9735 115.771 49.0227C115.552 49.0758 115.285 49.108 114.97 49.1193C114.387 49.142 113.875 49.0644 113.436 48.8864C113 48.7083 112.661 48.4318 112.419 48.0568C112.177 47.6818 112.057 47.2083 112.061 46.6364V38.1818ZM122.342 40.2727V42.0909H117.087V40.2727H122.342ZM118.28 38.1818H120.7V46.3182C120.7 46.5417 120.734 46.7159 120.803 46.8409C120.871 46.9621 120.965 47.0473 121.087 47.0966C121.212 47.1458 121.356 47.1705 121.518 47.1705C121.632 47.1705 121.746 47.161 121.859 47.142C121.973 47.1193 122.06 47.1023 122.121 47.0909L122.501 48.892C122.38 48.9299 122.21 48.9735 121.99 49.0227C121.77 49.0758 121.503 49.108 121.189 49.1193C120.606 49.142 120.094 49.0644 119.655 48.8864C119.219 48.7083 118.88 48.4318 118.638 48.0568C118.395 47.6818 118.276 47.2083 118.28 46.6364V38.1818ZM123.919 49V40.2727H126.339V49H123.919ZM125.135 39.1477C124.775 39.1477 124.466 39.0284 124.209 38.7898C123.955 38.5473 123.828 38.2576 123.828 37.9205C123.828 37.5871 123.955 37.3011 124.209 37.0625C124.466 36.8201 124.775 36.6989 125.135 36.6989C125.495 36.6989 125.802 36.8201 126.055 37.0625C126.313 37.3011 126.442 37.5871 126.442 37.9205C126.442 38.2576 126.313 38.5473 126.055 38.7898C125.802 39.0284 125.495 39.1477 125.135 39.1477ZM130.699 43.9545V49H128.278V40.2727H130.585V41.8125H130.688C130.881 41.3049 131.205 40.9034 131.659 40.608C132.114 40.3087 132.665 40.1591 133.312 40.1591C133.919 40.1591 134.447 40.2917 134.898 40.5568C135.348 40.822 135.699 41.2008 135.949 41.6932C136.199 42.1818 136.324 42.7652 136.324 43.4432V49H133.903V43.875C133.907 43.3409 133.771 42.9242 133.494 42.625C133.218 42.322 132.837 42.1705 132.352 42.1705C132.027 42.1705 131.739 42.2405 131.489 42.3807C131.242 42.5208 131.049 42.7254 130.909 42.9943C130.773 43.2595 130.703 43.5795 130.699 43.9545ZM142.163 52.4545C141.379 52.4545 140.707 52.3466 140.146 52.1307C139.589 51.9186 139.146 51.6288 138.817 51.2614C138.487 50.8939 138.273 50.4811 138.175 50.0227L140.413 49.7216C140.482 49.8958 140.589 50.0587 140.737 50.2102C140.885 50.3617 141.08 50.483 141.322 50.5739C141.569 50.6686 141.868 50.7159 142.22 50.7159C142.747 50.7159 143.18 50.5871 143.521 50.3295C143.866 50.0758 144.038 49.6496 144.038 49.0511V47.4545H143.936C143.83 47.697 143.671 47.9261 143.459 48.142C143.247 48.358 142.974 48.5341 142.641 48.6705C142.307 48.8068 141.91 48.875 141.447 48.875C140.792 48.875 140.196 48.7235 139.658 48.4205C139.124 48.1136 138.697 47.6458 138.379 47.017C138.065 46.3845 137.908 45.5852 137.908 44.6193C137.908 43.6307 138.069 42.8049 138.391 42.142C138.713 41.4792 139.141 40.983 139.675 40.6534C140.213 40.3239 140.802 40.1591 141.442 40.1591C141.93 40.1591 142.339 40.2424 142.669 40.4091C142.999 40.572 143.264 40.7765 143.464 41.0227C143.669 41.2652 143.826 41.5038 143.936 41.7386H144.027V40.2727H146.43V49.0852C146.43 49.8277 146.249 50.4489 145.885 50.9489C145.521 51.4489 145.018 51.8239 144.374 52.0739C143.733 52.3277 142.997 52.4545 142.163 52.4545ZM142.214 47.0568C142.605 47.0568 142.934 46.9602 143.203 46.767C143.476 46.5701 143.684 46.2898 143.828 45.9261C143.976 45.5587 144.05 45.1193 144.05 44.608C144.05 44.0966 143.978 43.6534 143.834 43.2784C143.69 42.8996 143.482 42.6061 143.209 42.3977C142.936 42.1894 142.605 42.0852 142.214 42.0852C141.817 42.0852 141.482 42.1932 141.209 42.4091C140.936 42.6212 140.73 42.9167 140.589 43.2955C140.449 43.6742 140.379 44.1117 140.379 44.608C140.379 45.1117 140.449 45.5473 140.589 45.9148C140.733 46.2784 140.94 46.5606 141.209 46.7614C141.482 46.9583 141.817 47.0568 142.214 47.0568ZM155.618 42.7614L153.402 42.8977C153.364 42.7083 153.283 42.5379 153.158 42.3864C153.033 42.2311 152.868 42.108 152.663 42.017C152.463 41.9223 152.222 41.875 151.942 41.875C151.567 41.875 151.25 41.9545 150.993 42.1136C150.735 42.2689 150.607 42.4773 150.607 42.7386C150.607 42.947 150.69 43.1231 150.857 43.267C151.023 43.411 151.309 43.5265 151.714 43.6136L153.294 43.9318C154.143 44.1061 154.775 44.3864 155.192 44.7727C155.608 45.1591 155.817 45.6667 155.817 46.2955C155.817 46.8674 155.648 47.3693 155.311 47.8011C154.978 48.233 154.519 48.5701 153.936 48.8125C153.357 49.0511 152.688 49.1705 151.93 49.1705C150.775 49.1705 149.855 48.9299 149.169 48.4489C148.487 47.964 148.088 47.3049 147.97 46.4716L150.351 46.3466C150.423 46.6989 150.597 46.9678 150.874 47.1534C151.15 47.3352 151.504 47.4261 151.936 47.4261C152.36 47.4261 152.701 47.3447 152.959 47.1818C153.22 47.0152 153.353 46.8011 153.357 46.5398C153.353 46.3201 153.26 46.1402 153.078 46C152.896 45.8561 152.616 45.7462 152.237 45.6705L150.726 45.3693C149.874 45.1989 149.239 44.9034 148.822 44.483C148.41 44.0625 148.203 43.5265 148.203 42.875C148.203 42.3144 148.355 41.8314 148.658 41.4261C148.964 41.0208 149.394 40.7083 149.947 40.4886C150.504 40.2689 151.156 40.1591 151.902 40.1591C153.004 40.1591 153.872 40.392 154.504 40.858C155.141 41.3239 155.512 41.9583 155.618 42.7614Z" fill="#111827"/>
<path d="M332 84H28C23.5817 84 20 87.5817 20 92V132C20 136.418 23.5817 140 28 140H332C336.418 140 340 136.418 340 132V92C340 87.5817 336.418 84 332 84Z" fill="#F9FAFB"/>
<path d="M43.9148 101.818H45.1477V108.56C45.1477 109.256 44.9837 109.877 44.6555 110.424C44.3307 110.968 43.8717 111.397 43.2784 111.712C42.6851 112.023 41.9891 112.179 41.1903 112.179C40.3916 112.179 39.6955 112.023 39.1023 111.712C38.509 111.397 38.0483 110.968 37.7202 110.424C37.3954 109.877 37.233 109.256 37.233 108.56V101.818H38.4659V108.46C38.4659 108.957 38.5753 109.4 38.794 109.788C39.0128 110.172 39.3243 110.475 39.7287 110.697C40.1364 110.916 40.6236 111.026 41.1903 111.026C41.7571 111.026 42.2443 110.916 42.652 110.697C43.0597 110.475 43.3712 110.172 43.5866 109.788C43.8054 109.4 43.9148 108.957 43.9148 108.46V101.818ZM47.4508 114.864V104.364H48.5843V105.577H48.7235C48.8097 105.444 48.929 105.275 49.0815 105.07C49.2373 104.861 49.4593 104.675 49.7477 104.513C50.0394 104.347 50.4338 104.264 50.9309 104.264C51.5739 104.264 52.1407 104.425 52.6312 104.746C53.1217 105.068 53.5046 105.524 53.7797 106.114C54.0547 106.704 54.1923 107.4 54.1923 108.202C54.1923 109.01 54.0547 109.711 53.7797 110.305C53.5046 110.895 53.1234 111.352 52.6362 111.677C52.149 111.998 51.5872 112.159 50.9508 112.159C50.4603 112.159 50.0675 112.078 49.7725 111.915C49.4776 111.75 49.2505 111.562 49.0914 111.354C48.9324 111.142 48.8097 110.966 48.7235 110.827H48.6241V114.864H47.4508ZM48.6042 108.182C48.6042 108.759 48.6887 109.267 48.8578 109.708C49.0268 110.146 49.2737 110.489 49.5985 110.737C49.9234 110.982 50.3211 111.105 50.7917 111.105C51.2823 111.105 51.6916 110.976 52.0197 110.717C52.3511 110.455 52.5997 110.104 52.7654 109.663C52.9345 109.219 53.019 108.725 53.019 108.182C53.019 107.645 52.9361 107.161 52.7704 106.73C52.608 106.296 52.3611 105.953 52.0297 105.701C51.7015 105.446 51.2889 105.318 50.7917 105.318C50.3145 105.318 49.9134 105.439 49.5886 105.681C49.2638 105.92 49.0185 106.254 48.8528 106.685C48.6871 107.113 48.6042 107.612 48.6042 108.182ZM58.8656 112.159C58.2292 112.159 57.6674 111.998 57.1802 111.677C56.693 111.352 56.3118 110.895 56.0368 110.305C55.7617 109.711 55.6241 109.01 55.6241 108.202C55.6241 107.4 55.7617 106.704 56.0368 106.114C56.3118 105.524 56.6947 105.068 57.1852 104.746C57.6757 104.425 58.2425 104.264 58.8855 104.264C59.3826 104.264 59.7754 104.347 60.0637 104.513C60.3554 104.675 60.5775 104.861 60.7299 105.07C60.8857 105.275 61.0067 105.444 61.0929 105.577H61.1923V101.818H62.3656V112H61.2321V110.827H61.0929C61.0067 110.966 60.8841 111.142 60.725 111.354C60.5659 111.562 60.3388 111.75 60.0439 111.915C59.7489 112.078 59.3561 112.159 58.8656 112.159ZM59.0247 111.105C59.4953 111.105 59.8931 110.982 60.2179 110.737C60.5427 110.489 60.7896 110.146 60.9586 109.708C61.1277 109.267 61.2122 108.759 61.2122 108.182C61.2122 107.612 61.1293 107.113 60.9636 106.685C60.7979 106.254 60.5526 105.92 60.2278 105.681C59.903 105.439 59.502 105.318 59.0247 105.318C58.5275 105.318 58.1132 105.446 57.7818 105.701C57.4537 105.953 57.2067 106.296 57.041 106.73C56.8786 107.161 56.7974 107.645 56.7974 108.182C56.7974 108.725 56.8803 109.219 57.046 109.663C57.215 110.104 57.4636 110.455 57.7917 110.717C58.1232 110.976 58.5342 111.105 59.0247 111.105ZM66.9245 112.179C66.4406 112.179 66.0015 112.088 65.6071 111.906C65.2127 111.72 64.8994 111.453 64.6674 111.105C64.4354 110.754 64.3194 110.33 64.3194 109.832C64.3194 109.395 64.4056 109.04 64.5779 108.768C64.7503 108.493 64.9806 108.278 65.269 108.122C65.5574 107.966 65.8755 107.85 66.2235 107.774C66.5749 107.695 66.9279 107.632 67.2825 107.585C67.7465 107.526 68.1227 107.481 68.411 107.451C68.7027 107.418 68.9148 107.363 69.0474 107.287C69.1833 107.211 69.2512 107.078 69.2512 106.889V106.849C69.2512 106.359 69.117 105.978 68.8485 105.706C68.5834 105.434 68.1807 105.298 67.6404 105.298C67.0803 105.298 66.6412 105.421 66.323 105.666C66.0048 105.911 65.7811 106.173 65.6518 106.452L64.5382 106.054C64.737 105.59 65.0022 105.229 65.3336 104.97C65.6684 104.708 66.033 104.526 66.4274 104.423C66.8251 104.317 67.2162 104.264 67.6007 104.264C67.8459 104.264 68.1277 104.294 68.4458 104.354C68.7673 104.41 69.0772 104.528 69.3755 104.707C69.6771 104.886 69.9274 105.156 70.1262 105.517C70.3251 105.878 70.4245 106.362 70.4245 106.969V112H69.2512V110.966H69.1916C69.112 111.132 68.9795 111.309 68.7939 111.498C68.6083 111.687 68.3613 111.848 68.0531 111.98C67.7449 112.113 67.3687 112.179 66.9245 112.179ZM67.1035 111.125C67.5675 111.125 67.9586 111.034 68.2768 110.852C68.5983 110.669 68.8403 110.434 69.0027 110.146C69.1684 109.857 69.2512 109.554 69.2512 109.236V108.162C69.2015 108.222 69.0922 108.276 68.9231 108.326C68.7574 108.372 68.5652 108.414 68.3464 108.45C68.131 108.483 67.9205 108.513 67.715 108.54C67.5128 108.563 67.3488 108.583 67.2228 108.599C66.9179 108.639 66.6329 108.704 66.3677 108.793C66.1059 108.879 65.8938 109.01 65.7314 109.186C65.5723 109.358 65.4927 109.594 65.4927 109.892C65.4927 110.3 65.6435 110.608 65.9451 110.817C66.2501 111.022 66.6362 111.125 67.1035 111.125ZM75.8871 104.364V105.358H71.9297V104.364H75.8871ZM73.0831 102.534H74.2564V109.812C74.2564 110.144 74.3045 110.393 74.4006 110.558C74.5 110.721 74.6259 110.83 74.7784 110.886C74.9342 110.939 75.0982 110.966 75.2706 110.966C75.3999 110.966 75.5059 110.959 75.5888 110.946C75.6716 110.929 75.7379 110.916 75.7876 110.906L76.0263 111.96C75.9467 111.99 75.8357 112.02 75.6932 112.05C75.5507 112.083 75.37 112.099 75.1513 112.099C74.8198 112.099 74.495 112.028 74.1768 111.886C73.862 111.743 73.6001 111.526 73.3913 111.234C73.1858 110.943 73.0831 110.575 73.0831 110.131V102.534ZM80.7717 112.159C80.0359 112.159 79.4012 111.997 78.8675 111.672C78.3372 111.344 77.9279 110.886 77.6396 110.3C77.3545 109.71 77.212 109.024 77.212 108.241C77.212 107.459 77.3545 106.77 77.6396 106.173C77.9279 105.573 78.329 105.106 78.8427 104.771C79.3597 104.433 79.9629 104.264 80.6523 104.264C81.0501 104.264 81.4428 104.33 81.8306 104.463C82.2184 104.596 82.5714 104.811 82.8896 105.109C83.2077 105.404 83.4613 105.795 83.6502 106.283C83.8391 106.77 83.9336 107.37 83.9336 108.082V108.58H78.0472V107.565H82.7404C82.7404 107.134 82.6542 106.75 82.4819 106.412C82.3129 106.074 82.0709 105.807 81.756 105.612C81.4445 105.416 81.0766 105.318 80.6523 105.318C80.185 105.318 79.7807 105.434 79.4393 105.666C79.1012 105.895 78.841 106.193 78.6587 106.561C78.4764 106.929 78.3853 107.323 78.3853 107.744V108.42C78.3853 108.997 78.4847 109.486 78.6836 109.887C78.8858 110.285 79.1658 110.588 79.5238 110.797C79.8817 111.002 80.2977 111.105 80.7717 111.105C81.0799 111.105 81.3583 111.062 81.6069 110.976C81.8588 110.886 82.0759 110.754 82.2582 110.578C82.4405 110.399 82.5813 110.177 82.6808 109.912L83.8143 110.23C83.695 110.615 83.4944 110.953 83.2127 111.244C82.931 111.533 82.583 111.758 82.1687 111.92C81.7544 112.08 81.2887 112.159 80.7717 112.159ZM90.4116 114.864C90.2127 114.864 90.0354 114.847 89.8796 114.814C89.7238 114.784 89.6161 114.754 89.5565 114.724L89.8548 113.69C90.1398 113.763 90.3917 113.79 90.6104 113.77C90.8292 113.75 91.0231 113.652 91.1921 113.477C91.3645 113.304 91.5219 113.024 91.6644 112.636L91.8832 112.04L89.0593 104.364H90.332L92.44 110.449H92.5195L94.6275 104.364H95.9002L92.6587 113.114C92.5129 113.508 92.3323 113.835 92.1168 114.093C91.9014 114.355 91.6512 114.549 91.3661 114.675C91.0844 114.801 90.7662 114.864 90.4116 114.864ZM100.278 112.159C99.5883 112.159 98.9834 111.995 98.4631 111.667C97.946 111.339 97.5417 110.88 97.25 110.29C96.9616 109.7 96.8175 109.01 96.8175 108.222C96.8175 107.426 96.9616 106.732 97.25 106.138C97.5417 105.545 97.946 105.085 98.4631 104.756C98.9834 104.428 99.5883 104.264 100.278 104.264C100.967 104.264 101.57 104.428 102.087 104.756C102.608 105.085 103.012 105.545 103.3 106.138C103.592 106.732 103.738 107.426 103.738 108.222C103.738 109.01 103.592 109.7 103.3 110.29C103.012 110.88 102.608 111.339 102.087 111.667C101.57 111.995 100.967 112.159 100.278 112.159ZM100.278 111.105C100.801 111.105 101.232 110.971 101.57 110.702C101.908 110.434 102.159 110.081 102.321 109.643C102.483 109.206 102.565 108.732 102.565 108.222C102.565 107.711 102.483 107.236 102.321 106.795C102.159 106.354 101.908 105.998 101.57 105.726C101.232 105.454 100.801 105.318 100.278 105.318C99.754 105.318 99.3232 105.454 98.9851 105.726C98.647 105.998 98.3968 106.354 98.2344 106.795C98.072 107.236 97.9908 107.711 97.9908 108.222C97.9908 108.732 98.072 109.206 98.2344 109.643C98.3968 110.081 98.647 110.434 98.9851 110.702C99.3232 110.971 99.754 111.105 100.278 111.105ZM110.341 108.878V104.364H111.515V112H110.341V110.707H110.262C110.083 111.095 109.805 111.425 109.427 111.697C109.049 111.965 108.572 112.099 107.995 112.099C107.518 112.099 107.093 111.995 106.722 111.786C106.351 111.574 106.059 111.256 105.847 110.832C105.635 110.404 105.529 109.866 105.529 109.216V104.364H106.702V109.136C106.702 109.693 106.858 110.137 107.17 110.469C107.484 110.8 107.885 110.966 108.373 110.966C108.664 110.966 108.961 110.891 109.263 110.742C109.568 110.593 109.823 110.364 110.028 110.056C110.237 109.748 110.341 109.355 110.341 108.878ZM113.664 112V104.364H114.797V105.517H114.877C115.016 105.139 115.268 104.833 115.632 104.597C115.997 104.362 116.408 104.244 116.865 104.244C116.952 104.244 117.059 104.246 117.189 104.249C117.318 104.253 117.416 104.258 117.482 104.264V105.457C117.442 105.447 117.351 105.433 117.208 105.413C117.069 105.389 116.922 105.378 116.766 105.378C116.395 105.378 116.063 105.456 115.772 105.612C115.483 105.764 115.255 105.976 115.086 106.248C114.92 106.516 114.837 106.823 114.837 107.168V112H113.664ZM122.81 114.864V104.364H123.944V105.577H124.083C124.169 105.444 124.288 105.275 124.441 105.07C124.597 104.861 124.819 104.675 125.107 104.513C125.399 104.347 125.793 104.264 126.29 104.264C126.933 104.264 127.5 104.425 127.991 104.746C128.481 105.068 128.864 105.524 129.139 106.114C129.414 106.704 129.552 107.4 129.552 108.202C129.552 109.01 129.414 109.711 129.139 110.305C128.864 110.895 128.483 111.352 127.996 111.677C127.508 111.998 126.947 112.159 126.31 112.159C125.82 112.159 125.427 112.078 125.132 111.915C124.837 111.75 124.61 111.562 124.451 111.354C124.292 111.142 124.169 110.966 124.083 110.827H123.983V114.864H122.81ZM123.964 108.182C123.964 108.759 124.048 109.267 124.217 109.708C124.386 110.146 124.633 110.489 124.958 110.737C125.283 110.982 125.68 111.105 126.151 111.105C126.642 111.105 127.051 110.976 127.379 110.717C127.711 110.455 127.959 110.104 128.125 109.663C128.294 109.219 128.378 108.725 128.378 108.182C128.378 107.645 128.296 107.161 128.13 106.73C127.967 106.296 127.72 105.953 127.389 105.701C127.061 105.446 126.648 105.318 126.151 105.318C125.674 105.318 125.273 105.439 124.948 105.681C124.623 105.92 124.378 106.254 124.212 106.685C124.046 107.113 123.964 107.612 123.964 108.182ZM131.341 112V104.364H132.475V105.517H132.555C132.694 105.139 132.946 104.833 133.31 104.597C133.675 104.362 134.086 104.244 134.543 104.244C134.629 104.244 134.737 104.246 134.866 104.249C134.996 104.253 135.093 104.258 135.16 104.264V105.457C135.12 105.447 135.029 105.433 134.886 105.413C134.747 105.389 134.599 105.378 134.444 105.378C134.073 105.378 133.741 105.456 133.449 105.612C133.161 105.764 132.932 105.976 132.763 106.248C132.598 106.516 132.515 106.823 132.515 107.168V112H131.341ZM139.52 112.159C138.784 112.159 138.149 111.997 137.616 111.672C137.085 111.344 136.676 110.886 136.388 110.3C136.103 109.71 135.96 109.024 135.96 108.241C135.96 107.459 136.103 106.77 136.388 106.173C136.676 105.573 137.077 105.106 137.591 104.771C138.108 104.433 138.711 104.264 139.4 104.264C139.798 104.264 140.191 104.33 140.579 104.463C140.966 104.596 141.319 104.811 141.638 105.109C141.956 105.404 142.209 105.795 142.398 106.283C142.587 106.77 142.682 107.37 142.682 108.082V108.58H136.795V107.565H141.488C141.488 107.134 141.402 106.75 141.23 106.412C141.061 106.074 140.819 105.807 140.504 105.612C140.193 105.416 139.825 105.318 139.4 105.318C138.933 105.318 138.529 105.434 138.187 105.666C137.849 105.895 137.589 106.193 137.407 106.561C137.224 106.929 137.133 107.323 137.133 107.744V108.42C137.133 108.997 137.233 109.486 137.432 109.887C137.634 110.285 137.914 110.588 138.272 110.797C138.63 111.002 139.046 111.105 139.52 111.105C139.828 111.105 140.106 111.062 140.355 110.976C140.607 110.886 140.824 110.754 141.006 110.578C141.189 110.399 141.329 110.177 141.429 109.912L142.562 110.23C142.443 110.615 142.242 110.953 141.961 111.244C141.679 111.533 141.331 111.758 140.917 111.92C140.502 112.08 140.037 112.159 139.52 112.159ZM147.867 104.364V105.358H143.751V104.364H147.867ZM144.983 112V103.31C144.983 102.872 145.086 102.508 145.292 102.216C145.497 101.924 145.764 101.705 146.092 101.56C146.42 101.414 146.767 101.341 147.131 101.341C147.42 101.341 147.655 101.364 147.837 101.411C148.019 101.457 148.155 101.5 148.245 101.54L147.907 102.554C147.847 102.534 147.764 102.509 147.658 102.479C147.555 102.45 147.42 102.435 147.251 102.435C146.863 102.435 146.583 102.532 146.41 102.728C146.241 102.924 146.157 103.21 146.157 103.588V112H144.983ZM152.399 112.159C151.663 112.159 151.028 111.997 150.494 111.672C149.964 111.344 149.555 110.886 149.267 110.3C148.981 109.71 148.839 109.024 148.839 108.241C148.839 107.459 148.981 106.77 149.267 106.173C149.555 105.573 149.956 105.106 150.47 104.771C150.987 104.433 151.59 104.264 152.279 104.264C152.677 104.264 153.07 104.33 153.458 104.463C153.845 104.596 154.198 104.811 154.517 105.109C154.835 105.404 155.088 105.795 155.277 106.283C155.466 106.77 155.561 107.37 155.561 108.082V108.58H149.674V107.565H154.367C154.367 107.134 154.281 106.75 154.109 106.412C153.94 106.074 153.698 105.807 153.383 105.612C153.071 105.416 152.704 105.318 152.279 105.318C151.812 105.318 151.408 105.434 151.066 105.666C150.728 105.895 150.468 106.193 150.286 106.561C150.103 106.929 150.012 107.323 150.012 107.744V108.42C150.012 108.997 150.112 109.486 150.311 109.887C150.513 110.285 150.793 110.588 151.151 110.797C151.509 111.002 151.925 111.105 152.399 111.105C152.707 111.105 152.985 111.062 153.234 110.976C153.486 110.886 153.703 110.754 153.885 110.578C154.067 110.399 154.208 110.177 154.308 109.912L155.441 110.23C155.322 110.615 155.121 110.953 154.84 111.244C154.558 111.533 154.21 111.758 153.796 111.92C153.381 112.08 152.916 112.159 152.399 112.159ZM157.345 112V104.364H158.479V105.517H158.558C158.698 105.139 158.95 104.833 159.314 104.597C159.679 104.362 160.09 104.244 160.547 104.244C160.633 104.244 160.741 104.246 160.87 104.249C160.999 104.253 161.097 104.258 161.164 104.264V105.457C161.124 105.447 161.033 105.433 160.89 105.413C160.751 105.389 160.603 105.378 160.448 105.378C160.076 105.378 159.745 105.456 159.453 105.612C159.165 105.764 158.936 105.976 158.767 106.248C158.602 106.516 158.519 106.823 158.519 107.168V112H157.345ZM165.524 112.159C164.788 112.159 164.153 111.997 163.619 111.672C163.089 111.344 162.68 110.886 162.392 110.3C162.106 109.71 161.964 109.024 161.964 108.241C161.964 107.459 162.106 106.77 162.392 106.173C162.68 105.573 163.081 105.106 163.595 104.771C164.112 104.433 164.715 104.264 165.404 104.264C165.802 104.264 166.195 104.33 166.583 104.463C166.97 104.596 167.323 104.811 167.642 105.109C167.96 105.404 168.213 105.795 168.402 106.283C168.591 106.77 168.686 107.37 168.686 108.082V108.58H162.799V107.565H167.492C167.492 107.134 167.406 106.75 167.234 106.412C167.065 106.074 166.823 105.807 166.508 105.612C166.196 105.416 165.829 105.318 165.404 105.318C164.937 105.318 164.533 105.434 164.191 105.666C163.853 105.895 163.593 106.193 163.411 106.561C163.228 106.929 163.137 107.323 163.137 107.744V108.42C163.137 108.997 163.237 109.486 163.436 109.887C163.638 110.285 163.918 110.588 164.276 110.797C164.634 111.002 165.05 111.105 165.524 111.105C165.832 111.105 166.11 111.062 166.359 110.976C166.611 110.886 166.828 110.754 167.01 110.578C167.192 110.399 167.333 110.177 167.433 109.912L168.566 110.23C168.447 110.615 168.246 110.953 167.965 111.244C167.683 111.533 167.335 111.758 166.921 111.92C166.506 112.08 166.041 112.159 165.524 112.159ZM171.644 107.406V112H170.47V104.364H171.604V105.557H171.703C171.882 105.169 172.154 104.857 172.519 104.622C172.883 104.384 173.354 104.264 173.931 104.264C174.448 104.264 174.9 104.37 175.288 104.582C175.676 104.791 175.977 105.109 176.193 105.537C176.408 105.961 176.516 106.498 176.516 107.148V112H175.343V107.227C175.343 106.627 175.187 106.16 174.875 105.825C174.564 105.487 174.136 105.318 173.593 105.318C173.218 105.318 172.883 105.399 172.588 105.562C172.297 105.724 172.066 105.961 171.897 106.273C171.728 106.584 171.644 106.962 171.644 107.406ZM181.762 112.159C181.046 112.159 180.43 111.99 179.913 111.652C179.396 111.314 178.998 110.848 178.719 110.255C178.441 109.662 178.302 108.984 178.302 108.222C178.302 107.446 178.444 106.762 178.729 106.168C179.018 105.572 179.419 105.106 179.933 104.771C180.45 104.433 181.053 104.264 181.742 104.264C182.279 104.264 182.763 104.364 183.194 104.562C183.625 104.761 183.978 105.04 184.253 105.398C184.528 105.756 184.699 106.173 184.765 106.651H183.592C183.502 106.303 183.303 105.994 182.995 105.726C182.69 105.454 182.279 105.318 181.762 105.318C181.305 105.318 180.904 105.437 180.559 105.676C180.218 105.911 179.951 106.245 179.759 106.675C179.57 107.103 179.475 107.605 179.475 108.182C179.475 108.772 179.568 109.286 179.754 109.723C179.942 110.161 180.208 110.5 180.549 110.742C180.894 110.984 181.298 111.105 181.762 111.105C182.067 111.105 182.344 111.052 182.592 110.946C182.841 110.84 183.051 110.688 183.224 110.489C183.396 110.29 183.519 110.051 183.592 109.773H184.765C184.699 110.223 184.535 110.629 184.273 110.991C184.014 111.349 183.671 111.634 183.244 111.846C182.819 112.055 182.326 112.159 181.762 112.159ZM189.682 112.159C188.946 112.159 188.311 111.997 187.778 111.672C187.247 111.344 186.838 110.886 186.55 110.3C186.265 109.71 186.122 109.024 186.122 108.241C186.122 107.459 186.265 106.77 186.55 106.173C186.838 105.573 187.239 105.106 187.753 104.771C188.27 104.433 188.873 104.264 189.562 104.264C189.96 104.264 190.353 104.33 190.741 104.463C191.129 104.596 191.482 104.811 191.8 105.109C192.118 105.404 192.371 105.795 192.56 106.283C192.749 106.77 192.844 107.37 192.844 108.082V108.58H186.957V107.565H191.651C191.651 107.134 191.564 106.75 191.392 106.412C191.223 106.074 190.981 105.807 190.666 105.612C190.355 105.416 189.987 105.318 189.562 105.318C189.095 105.318 188.691 105.434 188.349 105.666C188.011 105.895 187.751 106.193 187.569 106.561C187.387 106.929 187.295 107.323 187.295 107.744V108.42C187.295 108.997 187.395 109.486 187.594 109.887C187.796 110.285 188.076 110.588 188.434 110.797C188.792 111.002 189.208 111.105 189.682 111.105C189.99 111.105 190.268 111.062 190.517 110.976C190.769 110.886 190.986 110.754 191.168 110.578C191.351 110.399 191.491 110.177 191.591 109.912L192.724 110.23C192.605 110.615 192.405 110.953 192.123 111.244C191.841 111.533 191.493 111.758 191.079 111.92C190.665 112.08 190.199 112.159 189.682 112.159ZM200.038 106.074L198.984 106.372C198.917 106.196 198.82 106.026 198.69 105.86C198.564 105.691 198.392 105.552 198.173 105.442C197.955 105.333 197.674 105.278 197.333 105.278C196.866 105.278 196.476 105.386 196.165 105.602C195.857 105.814 195.702 106.084 195.702 106.412C195.702 106.704 195.808 106.934 196.021 107.103C196.233 107.272 196.564 107.413 197.015 107.526L198.148 107.804C198.831 107.97 199.34 108.223 199.675 108.565C200.009 108.903 200.177 109.339 200.177 109.872C200.177 110.31 200.051 110.701 199.799 111.045C199.55 111.39 199.202 111.662 198.755 111.861C198.308 112.06 197.787 112.159 197.194 112.159C196.415 112.159 195.77 111.99 195.26 111.652C194.75 111.314 194.426 110.82 194.29 110.17L195.404 109.892C195.51 110.303 195.711 110.611 196.006 110.817C196.304 111.022 196.693 111.125 197.174 111.125C197.721 111.125 198.155 111.009 198.477 110.777C198.801 110.542 198.964 110.26 198.964 109.932C198.964 109.667 198.871 109.445 198.685 109.266C198.5 109.083 198.215 108.947 197.83 108.858L196.558 108.56C195.858 108.394 195.344 108.137 195.016 107.789C194.692 107.438 194.529 106.999 194.529 106.472C194.529 106.041 194.65 105.66 194.892 105.328C195.137 104.997 195.47 104.737 195.891 104.548C196.316 104.359 196.796 104.264 197.333 104.264C198.089 104.264 198.682 104.43 199.113 104.761C199.547 105.093 199.855 105.53 200.038 106.074Z" fill="#374151"/>
<path d="M332 156H28C23.5817 156 20 159.582 20 164V212C20 216.418 23.5817 220 28 220H332C336.418 220 340 216.418 340 212V164C340 159.582 336.418 156 332 156Z" fill="#F9FAFB"/>
<path d="M45.3068 173.818V184H44.1136L38.5653 176.006H38.4659V184H37.233V173.818H38.4261L43.9943 181.832H44.0938V173.818H45.3068ZM50.7172 184.159C50.0278 184.159 49.4229 183.995 48.9025 183.667C48.3855 183.339 47.9811 182.88 47.6895 182.29C47.4011 181.7 47.2569 181.01 47.2569 180.222C47.2569 179.426 47.4011 178.732 47.6895 178.138C47.9811 177.545 48.3855 177.085 48.9025 176.756C49.4229 176.428 50.0278 176.264 50.7172 176.264C51.4065 176.264 52.0098 176.428 52.5268 176.756C53.0472 177.085 53.4515 177.545 53.7399 178.138C54.0315 178.732 54.1774 179.426 54.1774 180.222C54.1774 181.01 54.0315 181.7 53.7399 182.29C53.4515 182.88 53.0472 183.339 52.5268 183.667C52.0098 183.995 51.4065 184.159 50.7172 184.159ZM50.7172 183.105C51.2408 183.105 51.6717 182.971 52.0098 182.702C52.3478 182.434 52.5981 182.081 52.7605 181.643C52.9229 181.206 53.0041 180.732 53.0041 180.222C53.0041 179.711 52.9229 179.236 52.7605 178.795C52.5981 178.354 52.3478 177.998 52.0098 177.726C51.6717 177.454 51.2408 177.318 50.7172 177.318C50.1935 177.318 49.7626 177.454 49.4245 177.726C49.0865 177.998 48.8362 178.354 48.6738 178.795C48.5114 179.236 48.4302 179.711 48.4302 180.222C48.4302 180.732 48.5114 181.206 48.6738 181.643C48.8362 182.081 49.0865 182.434 49.4245 182.702C49.7626 182.971 50.1935 183.105 50.7172 183.105ZM59.2894 176.364V177.358H55.332V176.364H59.2894ZM56.4854 174.534H57.6587V181.812C57.6587 182.144 57.7068 182.393 57.8029 182.558C57.9023 182.721 58.0283 182.83 58.1808 182.886C58.3365 182.939 58.5006 182.966 58.6729 182.966C58.8022 182.966 58.9083 182.959 58.9911 182.946C59.074 182.929 59.1403 182.916 59.19 182.906L59.4286 183.96C59.3491 183.99 59.238 184.02 59.0955 184.05C58.953 184.083 58.7724 184.099 58.5536 184.099C58.2222 184.099 57.8974 184.028 57.5792 183.886C57.2643 183.743 57.0025 183.526 56.7937 183.234C56.5882 182.943 56.4854 182.575 56.4854 182.131V174.534ZM61.0543 184V176.364H62.2276V184H61.0543ZM61.6509 175.091C61.4222 175.091 61.225 175.013 61.0593 174.857C60.8969 174.701 60.8157 174.514 60.8157 174.295C60.8157 174.077 60.8969 173.889 61.0593 173.734C61.225 173.578 61.4222 173.5 61.6509 173.5C61.8796 173.5 62.0752 173.578 62.2376 173.734C62.4033 173.889 62.4862 174.077 62.4862 174.295C62.4862 174.514 62.4033 174.701 62.2376 174.857C62.0752 175.013 61.8796 175.091 61.6509 175.091ZM67.7772 176.364V177.358H63.6607V176.364H67.7772ZM64.8936 184V175.31C64.8936 174.872 64.9964 174.508 65.2019 174.216C65.4074 173.924 65.6742 173.705 66.0023 173.56C66.3304 173.414 66.6768 173.341 67.0414 173.341C67.3297 173.341 67.565 173.364 67.7473 173.411C67.9296 173.457 68.0655 173.5 68.155 173.54L67.8169 174.554C67.7573 174.534 67.6744 174.509 67.5684 174.479C67.4656 174.45 67.3297 174.435 67.1607 174.435C66.7729 174.435 66.4928 174.532 66.3205 174.728C66.1515 174.924 66.0669 175.21 66.0669 175.588V184H64.8936ZM69.4215 184V176.364H70.5948V184H69.4215ZM70.0181 175.091C69.7894 175.091 69.5922 175.013 69.4265 174.857C69.2641 174.701 69.1829 174.514 69.1829 174.295C69.1829 174.077 69.2641 173.889 69.4265 173.734C69.5922 173.578 69.7894 173.5 70.0181 173.5C70.2468 173.5 70.4424 173.578 70.6048 173.734C70.7705 173.889 70.8533 174.077 70.8533 174.295C70.8533 174.514 70.7705 174.701 70.6048 174.857C70.4424 175.013 70.2468 175.091 70.0181 175.091ZM75.8461 184.159C75.1301 184.159 74.5137 183.99 73.9966 183.652C73.4796 183.314 73.0819 182.848 72.8034 182.255C72.525 181.662 72.3858 180.984 72.3858 180.222C72.3858 179.446 72.5283 178.762 72.8134 178.168C73.1017 177.572 73.5028 177.106 74.0165 176.771C74.5336 176.433 75.1368 176.264 75.8262 176.264C76.3631 176.264 76.847 176.364 77.2779 176.562C77.7087 176.761 78.0617 177.04 78.3368 177.398C78.6119 177.756 78.7826 178.173 78.8489 178.651H77.6756C77.5861 178.303 77.3873 177.994 77.079 177.726C76.7741 177.454 76.3631 177.318 75.8461 177.318C75.3887 177.318 74.9876 177.437 74.6429 177.676C74.3016 177.911 74.0347 178.245 73.8425 178.675C73.6536 179.103 73.5591 179.605 73.5591 180.182C73.5591 180.772 73.6519 181.286 73.8375 181.723C74.0265 182.161 74.2916 182.5 74.633 182.742C74.9777 182.984 75.382 183.105 75.8461 183.105C76.151 183.105 76.4277 183.052 76.6763 182.946C76.9249 182.84 77.1354 182.688 77.3077 182.489C77.4801 182.29 77.6027 182.051 77.6756 181.773H78.8489C78.7826 182.223 78.6185 182.629 78.3567 182.991C78.0982 183.349 77.7551 183.634 77.3276 183.846C76.9034 184.055 76.4095 184.159 75.8461 184.159ZM82.8113 184.179C82.3274 184.179 81.8882 184.088 81.4938 183.906C81.0994 183.72 80.7862 183.453 80.5542 183.105C80.3221 182.754 80.2061 182.33 80.2061 181.832C80.2061 181.395 80.2923 181.04 80.4647 180.768C80.637 180.493 80.8674 180.278 81.1557 180.122C81.4441 179.966 81.7623 179.85 82.1103 179.774C82.4616 179.695 82.8146 179.632 83.1692 179.585C83.6332 179.526 84.0094 179.481 84.2978 179.451C84.5894 179.418 84.8016 179.363 84.9341 179.287C85.07 179.211 85.138 179.078 85.138 178.889V178.849C85.138 178.359 85.0037 177.978 84.7353 177.706C84.4701 177.434 84.0674 177.298 83.5272 177.298C82.967 177.298 82.5279 177.421 82.2097 177.666C81.8915 177.911 81.6678 178.173 81.5385 178.452L80.4249 178.054C80.6238 177.59 80.8889 177.229 81.2203 176.97C81.5551 176.708 81.9197 176.526 82.3141 176.423C82.7118 176.317 83.1029 176.264 83.4874 176.264C83.7327 176.264 84.0144 176.294 84.3326 176.354C84.6541 176.41 84.964 176.528 85.2623 176.707C85.5639 176.886 85.8141 177.156 86.013 177.517C86.2118 177.878 86.3113 178.362 86.3113 178.969V184H85.138V182.966H85.0783C84.9988 183.132 84.8662 183.309 84.6806 183.498C84.495 183.687 84.248 183.848 83.9398 183.98C83.6316 184.113 83.2554 184.179 82.8113 184.179ZM82.9902 183.125C83.4542 183.125 83.8453 183.034 84.1635 182.852C84.485 182.669 84.727 182.434 84.8894 182.146C85.0551 181.857 85.138 181.554 85.138 181.236V180.162C85.0882 180.222 84.9789 180.276 84.8098 180.326C84.6441 180.372 84.4519 180.414 84.2331 180.45C84.0177 180.483 83.8072 180.513 83.6017 180.54C83.3996 180.563 83.2355 180.583 83.1096 180.599C82.8046 180.639 82.5196 180.704 82.2544 180.793C81.9926 180.879 81.7805 181.01 81.6181 181.186C81.459 181.358 81.3794 181.594 81.3794 181.892C81.3794 182.3 81.5302 182.608 81.8319 182.817C82.1368 183.022 82.5229 183.125 82.9902 183.125ZM91.7738 176.364V177.358H87.8164V176.364H91.7738ZM88.9698 174.534H90.1431V181.812C90.1431 182.144 90.1912 182.393 90.2873 182.558C90.3867 182.721 90.5127 182.83 90.6651 182.886C90.8209 182.939 90.985 182.966 91.1573 182.966C91.2866 182.966 91.3926 182.959 91.4755 182.946C91.5584 182.929 91.6246 182.916 91.6744 182.906L91.913 183.96C91.8335 183.99 91.7224 184.02 91.5799 184.05C91.4374 184.083 91.2567 184.099 91.038 184.099C90.7066 184.099 90.3817 184.028 90.0636 183.886C89.7487 183.743 89.4869 183.526 89.2781 183.234C89.0726 182.943 88.9698 182.575 88.9698 182.131V174.534ZM93.5387 184V176.364H94.712V184H93.5387ZM94.1353 175.091C93.9066 175.091 93.7094 175.013 93.5437 174.857C93.3813 174.701 93.3001 174.514 93.3001 174.295C93.3001 174.077 93.3813 173.889 93.5437 173.734C93.7094 173.578 93.9066 173.5 94.1353 173.5C94.364 173.5 94.5595 173.578 94.7219 173.734C94.8877 173.889 94.9705 174.077 94.9705 174.295C94.9705 174.514 94.8877 174.701 94.7219 174.857C94.5595 175.013 94.364 175.091 94.1353 175.091ZM99.9632 184.159C99.2739 184.159 98.669 183.995 98.1486 183.667C97.6316 183.339 97.2272 182.88 96.9355 182.29C96.6472 181.7 96.503 181.01 96.503 180.222C96.503 179.426 96.6472 178.732 96.9355 178.138C97.2272 177.545 97.6316 177.085 98.1486 176.756C98.669 176.428 99.2739 176.264 99.9632 176.264C100.653 176.264 101.256 176.428 101.773 176.756C102.293 177.085 102.698 177.545 102.986 178.138C103.278 178.732 103.423 179.426 103.423 180.222C103.423 181.01 103.278 181.7 102.986 182.29C102.698 182.88 102.293 183.339 101.773 183.667C101.256 183.995 100.653 184.159 99.9632 184.159ZM99.9632 183.105C100.487 183.105 100.918 182.971 101.256 182.702C101.594 182.434 101.844 182.081 102.007 181.643C102.169 181.206 102.25 180.732 102.25 180.222C102.25 179.711 102.169 179.236 102.007 178.795C101.844 178.354 101.594 177.998 101.256 177.726C100.918 177.454 100.487 177.318 99.9632 177.318C99.4396 177.318 99.0087 177.454 98.6706 177.726C98.3326 177.998 98.0823 178.354 97.9199 178.795C97.7575 179.236 97.6763 179.711 97.6763 180.222C97.6763 180.732 97.7575 181.206 97.9199 181.643C98.0823 182.081 98.3326 182.434 98.6706 182.702C99.0087 182.971 99.4396 183.105 99.9632 183.105ZM106.388 179.406V184H105.214V176.364H106.348V177.557H106.447C106.626 177.169 106.898 176.857 107.263 176.622C107.627 176.384 108.098 176.264 108.675 176.264C109.192 176.264 109.644 176.37 110.032 176.582C110.42 176.791 110.721 177.109 110.937 177.537C111.152 177.961 111.26 178.498 111.26 179.148V184H110.087V179.227C110.087 178.627 109.931 178.16 109.619 177.825C109.308 177.487 108.88 177.318 108.337 177.318C107.962 177.318 107.627 177.399 107.332 177.562C107.041 177.724 106.81 177.961 106.641 178.273C106.472 178.584 106.388 178.962 106.388 179.406ZM122.751 178.074L121.697 178.372C121.63 178.196 121.532 178.026 121.403 177.86C121.277 177.691 121.105 177.552 120.886 177.442C120.667 177.333 120.387 177.278 120.046 177.278C119.579 177.278 119.189 177.386 118.878 177.602C118.569 177.814 118.415 178.084 118.415 178.412C118.415 178.704 118.521 178.934 118.733 179.103C118.946 179.272 119.277 179.413 119.728 179.526L120.861 179.804C121.544 179.97 122.053 180.223 122.388 180.565C122.722 180.903 122.89 181.339 122.89 181.872C122.89 182.31 122.764 182.701 122.512 183.045C122.263 183.39 121.915 183.662 121.468 183.861C121.02 184.06 120.5 184.159 119.907 184.159C119.128 184.159 118.483 183.99 117.973 183.652C117.462 183.314 117.139 182.82 117.003 182.17L118.117 181.892C118.223 182.303 118.424 182.611 118.719 182.817C119.017 183.022 119.406 183.125 119.887 183.125C120.434 183.125 120.868 183.009 121.189 182.777C121.514 182.542 121.677 182.26 121.677 181.932C121.677 181.667 121.584 181.445 121.398 181.266C121.213 181.083 120.928 180.947 120.543 180.858L119.27 180.56C118.571 180.394 118.057 180.137 117.729 179.789C117.404 179.438 117.242 178.999 117.242 178.472C117.242 178.041 117.363 177.66 117.605 177.328C117.85 176.997 118.183 176.737 118.604 176.548C119.028 176.359 119.509 176.264 120.046 176.264C120.802 176.264 121.395 176.43 121.826 176.761C122.26 177.093 122.568 177.53 122.751 178.074ZM127.858 184.159C127.122 184.159 126.487 183.997 125.953 183.672C125.423 183.344 125.014 182.886 124.725 182.3C124.44 181.71 124.298 181.024 124.298 180.241C124.298 179.459 124.44 178.77 124.725 178.173C125.014 177.573 125.415 177.106 125.929 176.771C126.446 176.433 127.049 176.264 127.738 176.264C128.136 176.264 128.529 176.33 128.917 176.463C129.304 176.596 129.657 176.811 129.975 177.109C130.294 177.404 130.547 177.795 130.736 178.283C130.925 178.77 131.02 179.37 131.02 180.082V180.58H125.133V179.565H129.826C129.826 179.134 129.74 178.75 129.568 178.412C129.399 178.074 129.157 177.807 128.842 177.612C128.53 177.416 128.163 177.318 127.738 177.318C127.271 177.318 126.867 177.434 126.525 177.666C126.187 177.895 125.927 178.193 125.745 178.561C125.562 178.929 125.471 179.323 125.471 179.744V180.42C125.471 180.997 125.571 181.486 125.77 181.887C125.972 182.285 126.252 182.588 126.61 182.797C126.968 183.002 127.384 183.105 127.858 183.105C128.166 183.105 128.444 183.062 128.693 182.976C128.945 182.886 129.162 182.754 129.344 182.578C129.526 182.399 129.667 182.177 129.767 181.912L130.9 182.23C130.781 182.615 130.58 182.953 130.299 183.244C130.017 183.533 129.669 183.758 129.255 183.92C128.84 184.08 128.375 184.159 127.858 184.159ZM136.125 176.364V177.358H132.168V176.364H136.125ZM133.321 174.534H134.495V181.812C134.495 182.144 134.543 182.393 134.639 182.558C134.738 182.721 134.864 182.83 135.017 182.886C135.172 182.939 135.337 182.966 135.509 182.966C135.638 182.966 135.744 182.959 135.827 182.946C135.91 182.929 135.976 182.916 136.026 182.906L136.265 183.96C136.185 183.99 136.074 184.02 135.931 184.05C135.789 184.083 135.608 184.099 135.39 184.099C135.058 184.099 134.733 184.028 134.415 183.886C134.1 183.743 133.838 183.526 133.63 183.234C133.424 182.943 133.321 182.575 133.321 182.131V174.534ZM141.211 176.364V177.358H137.254V176.364H141.211ZM138.407 174.534H139.581V181.812C139.581 182.144 139.629 182.393 139.725 182.558C139.824 182.721 139.95 182.83 140.103 182.886C140.258 182.939 140.422 182.966 140.595 182.966C140.724 182.966 140.83 182.959 140.913 182.946C140.996 182.929 141.062 182.916 141.112 182.906L141.35 183.96C141.271 183.99 141.16 184.02 141.017 184.05C140.875 184.083 140.694 184.099 140.475 184.099C140.144 184.099 139.819 184.028 139.501 183.886C139.186 183.743 138.924 183.526 138.716 183.234C138.51 182.943 138.407 182.575 138.407 182.131V174.534ZM142.976 184V176.364H144.15V184H142.976ZM143.573 175.091C143.344 175.091 143.147 175.013 142.981 174.857C142.819 174.701 142.738 174.514 142.738 174.295C142.738 174.077 142.819 173.889 142.981 173.734C143.147 173.578 143.344 173.5 143.573 173.5C143.801 173.5 143.997 173.578 144.159 173.734C144.325 173.889 144.408 174.077 144.408 174.295C144.408 174.514 144.325 174.701 144.159 174.857C143.997 175.013 143.801 175.091 143.573 175.091ZM147.472 179.406V184H146.298V176.364H147.432V177.557H147.531C147.71 177.169 147.982 176.857 148.347 176.622C148.711 176.384 149.182 176.264 149.759 176.264C150.276 176.264 150.728 176.37 151.116 176.582C151.504 176.791 151.805 177.109 152.021 177.537C152.236 177.961 152.344 178.498 152.344 179.148V184H151.171V179.227C151.171 178.627 151.015 178.16 150.703 177.825C150.392 177.487 149.964 177.318 149.421 177.318C149.046 177.318 148.711 177.399 148.416 177.562C148.125 177.724 147.894 177.961 147.725 178.273C147.556 178.584 147.472 178.962 147.472 179.406ZM157.57 187.023C157.004 187.023 156.516 186.95 156.109 186.804C155.701 186.661 155.361 186.473 155.089 186.237C154.821 186.005 154.607 185.757 154.448 185.491L155.383 184.835C155.489 184.974 155.623 185.134 155.786 185.312C155.948 185.495 156.17 185.652 156.452 185.785C156.737 185.921 157.11 185.989 157.57 185.989C158.187 185.989 158.696 185.839 159.097 185.541C159.498 185.243 159.698 184.776 159.698 184.139V182.588H159.599C159.513 182.727 159.39 182.9 159.231 183.105C159.075 183.307 158.85 183.488 158.555 183.647C158.263 183.803 157.869 183.881 157.371 183.881C156.755 183.881 156.201 183.735 155.711 183.443C155.224 183.152 154.838 182.727 154.553 182.17C154.271 181.614 154.13 180.937 154.13 180.142C154.13 179.36 154.268 178.679 154.543 178.099C154.818 177.515 155.201 177.065 155.691 176.746C156.182 176.425 156.748 176.264 157.391 176.264C157.888 176.264 158.283 176.347 158.575 176.513C158.87 176.675 159.095 176.861 159.251 177.07C159.41 177.275 159.532 177.444 159.619 177.577H159.738V176.364H160.871V184.219C160.871 184.875 160.722 185.409 160.424 185.82C160.129 186.234 159.731 186.537 159.231 186.729C158.734 186.925 158.18 187.023 157.57 187.023ZM157.531 182.827C158.001 182.827 158.399 182.719 158.724 182.504C159.049 182.288 159.295 181.978 159.464 181.574C159.634 181.17 159.718 180.686 159.718 180.122C159.718 179.572 159.635 179.086 159.469 178.665C159.304 178.245 159.058 177.915 158.734 177.676C158.409 177.437 158.008 177.318 157.531 177.318C157.033 177.318 156.619 177.444 156.288 177.696C155.96 177.948 155.713 178.286 155.547 178.71C155.384 179.134 155.303 179.605 155.303 180.122C155.303 180.652 155.386 181.121 155.552 181.529C155.721 181.933 155.969 182.252 156.298 182.484C156.629 182.712 157.04 182.827 157.531 182.827ZM168.428 178.074L167.374 178.372C167.308 178.196 167.21 178.026 167.081 177.86C166.955 177.691 166.783 177.552 166.564 177.442C166.345 177.333 166.065 177.278 165.724 177.278C165.256 177.278 164.867 177.386 164.555 177.602C164.247 177.814 164.093 178.084 164.093 178.412C164.093 178.704 164.199 178.934 164.411 179.103C164.623 179.272 164.955 179.413 165.406 179.526L166.539 179.804C167.222 179.97 167.731 180.223 168.065 180.565C168.4 180.903 168.567 181.339 168.567 181.872C168.567 182.31 168.442 182.701 168.19 183.045C167.941 183.39 167.593 183.662 167.146 183.861C166.698 184.06 166.178 184.159 165.585 184.159C164.806 184.159 164.161 183.99 163.651 183.652C163.14 183.314 162.817 182.82 162.681 182.17L163.795 181.892C163.901 182.303 164.101 182.611 164.396 182.817C164.695 183.022 165.084 183.125 165.565 183.125C166.112 183.125 166.546 183.009 166.867 182.777C167.192 182.542 167.354 182.26 167.354 181.932C167.354 181.667 167.262 181.445 167.076 181.266C166.89 181.083 166.605 180.947 166.221 180.858L164.948 180.56C164.249 180.394 163.735 180.137 163.407 179.789C163.082 179.438 162.92 178.999 162.92 178.472C162.92 178.041 163.041 177.66 163.283 177.328C163.528 176.997 163.861 176.737 164.282 176.548C164.706 176.359 165.187 176.264 165.724 176.264C166.479 176.264 167.073 176.43 167.504 176.761C167.938 177.093 168.246 177.53 168.428 178.074Z" fill="#374151"/>
<path d="M332 196H276C271.582 196 268 199.582 268 204V224C268 228.418 271.582 232 276 232H332C336.418 232 340 228.418 340 224V204C340 199.582 336.418 196 332 196Z" fill="#3B82F6"/>
<path d="M294.469 211.265C294.432 210.892 294.273 210.603 293.993 210.397C293.713 210.19 293.333 210.087 292.853 210.087C292.527 210.087 292.251 210.134 292.027 210.226C291.802 210.315 291.63 210.44 291.51 210.6C291.393 210.76 291.334 210.941 291.334 211.145C291.328 211.314 291.363 211.462 291.44 211.588C291.52 211.714 291.63 211.823 291.768 211.915C291.907 212.005 292.067 212.083 292.248 212.151C292.43 212.216 292.624 212.271 292.83 212.317L293.679 212.52C294.092 212.613 294.47 212.736 294.815 212.89C295.16 213.043 295.458 213.233 295.711 213.457C295.963 213.682 296.158 213.947 296.297 214.251C296.438 214.556 296.511 214.905 296.514 215.299C296.511 215.878 296.363 216.38 296.071 216.804C295.781 217.226 295.363 217.554 294.815 217.788C294.27 218.018 293.613 218.134 292.844 218.134C292.08 218.134 291.416 218.017 290.849 217.783C290.286 217.549 289.846 217.203 289.529 216.744C289.215 216.283 289.051 215.712 289.035 215.032H290.969C290.991 215.349 291.082 215.613 291.242 215.826C291.405 216.035 291.622 216.193 291.893 216.301C292.167 216.406 292.476 216.458 292.821 216.458C293.159 216.458 293.453 216.409 293.702 216.31C293.955 216.212 294.15 216.075 294.289 215.9C294.427 215.724 294.496 215.522 294.496 215.295C294.496 215.082 294.433 214.904 294.307 214.759C294.184 214.615 294.002 214.491 293.762 214.39C293.525 214.288 293.235 214.196 292.89 214.113L291.86 213.854C291.063 213.661 290.434 213.357 289.972 212.945C289.511 212.533 289.281 211.977 289.284 211.278C289.281 210.706 289.434 210.206 289.741 209.778C290.052 209.35 290.479 209.016 291.02 208.776C291.562 208.536 292.177 208.416 292.867 208.416C293.568 208.416 294.181 208.536 294.704 208.776C295.23 209.016 295.64 209.35 295.932 209.778C296.225 210.206 296.375 210.701 296.385 211.265H294.469ZM299.843 218.134C299.391 218.134 298.988 218.055 298.634 217.898C298.28 217.738 298 217.503 297.794 217.192C297.591 216.878 297.489 216.487 297.489 216.02C297.489 215.626 297.561 215.295 297.706 215.027C297.851 214.759 298.048 214.544 298.297 214.381C298.546 214.218 298.829 214.094 299.146 214.011C299.466 213.928 299.802 213.87 300.153 213.836C300.565 213.793 300.898 213.753 301.15 213.716C301.402 213.676 301.585 213.617 301.699 213.54C301.813 213.464 301.87 213.35 301.87 213.199V213.171C301.87 212.879 301.778 212.653 301.593 212.493C301.412 212.333 301.153 212.252 300.818 212.252C300.464 212.252 300.182 212.331 299.973 212.488C299.763 212.642 299.625 212.836 299.557 213.07L297.738 212.922C297.831 212.491 298.012 212.119 298.283 211.805C298.554 211.488 298.903 211.245 299.331 211.075C299.762 210.903 300.26 210.817 300.827 210.817C301.221 210.817 301.598 210.863 301.958 210.955C302.321 211.048 302.643 211.191 302.923 211.385C303.206 211.578 303.429 211.828 303.592 212.132C303.755 212.434 303.837 212.796 303.837 213.217V218H301.972V217.017H301.916C301.802 217.238 301.65 217.434 301.459 217.603C301.268 217.769 301.039 217.9 300.771 217.995C300.504 218.088 300.194 218.134 299.843 218.134ZM300.407 216.777C300.696 216.777 300.951 216.72 301.173 216.606C301.395 216.489 301.568 216.332 301.695 216.135C301.821 215.938 301.884 215.715 301.884 215.466V214.713C301.822 214.753 301.738 214.79 301.63 214.824C301.525 214.855 301.407 214.884 301.275 214.912C301.142 214.936 301.01 214.959 300.878 214.981C300.745 214.999 300.625 215.016 300.517 215.032C300.287 215.065 300.085 215.119 299.913 215.193C299.74 215.267 299.606 215.367 299.511 215.493C299.416 215.616 299.368 215.77 299.368 215.955C299.368 216.223 299.465 216.427 299.659 216.569C299.856 216.707 300.105 216.777 300.407 216.777ZM311.719 210.909L309.24 218H307.024L304.545 210.909H306.623L308.095 215.983H308.169L309.637 210.909H311.719ZM315.729 218.138C314.999 218.138 314.371 217.991 313.845 217.695C313.322 217.397 312.919 216.975 312.636 216.43C312.353 215.883 312.211 215.235 312.211 214.487C312.211 213.757 312.353 213.117 312.636 212.566C312.919 212.016 313.317 211.586 313.831 211.278C314.348 210.971 314.955 210.817 315.65 210.817C316.118 210.817 316.554 210.892 316.957 211.043C317.363 211.191 317.717 211.414 318.019 211.712C318.323 212.011 318.56 212.386 318.729 212.839C318.899 213.288 318.983 213.814 318.983 214.418V214.958H312.996V213.739H317.132C317.132 213.456 317.071 213.205 316.947 212.987C316.824 212.768 316.654 212.597 316.435 212.474C316.22 212.348 315.969 212.285 315.683 212.285C315.384 212.285 315.119 212.354 314.889 212.493C314.661 212.628 314.482 212.811 314.353 213.042C314.224 213.27 314.158 213.524 314.155 213.804V214.962C314.155 215.313 314.219 215.616 314.348 215.872C314.481 216.127 314.667 216.324 314.907 216.463C315.147 216.601 315.432 216.67 315.761 216.67C315.98 216.67 316.18 216.64 316.361 216.578C316.543 216.517 316.698 216.424 316.827 216.301C316.957 216.178 317.055 216.027 317.123 215.849L318.942 215.969C318.849 216.406 318.66 216.787 318.374 217.114C318.091 217.437 317.725 217.689 317.275 217.871C316.829 218.049 316.313 218.138 315.729 218.138Z" fill="white"/>
</g>
<defs>
<clipPath id="clip0_21_2139">
<rect width="360" height="240" fill="white"/>
</clipPath>
</defs>
</svg>
