<svg width="940" height="734" viewBox="0 0 940 734" fill="none" xmlns="http://www.w3.org/2000/svg">
<rect width="940" height="734" fill="white"/>
<rect x="31" y="70" width="80" height="80" rx="4" fill="black" fill-opacity="0.15"/>
<rect x="31.5" y="70.5" width="79" height="79" rx="3.5" stroke="#A16BFF" stroke-opacity="0.4"/>
<path d="M38.3438 77C38.2969 76.6042 38.1068 76.2969 37.7734 76.0781C37.4401 75.8594 37.0313 75.75 36.5469 75.75C36.1927 75.75 35.8828 75.8073 35.6172 75.9219C35.3542 76.0365 35.1484 76.194 35 76.3945C34.8542 76.5951 34.7813 76.8229 34.7813 77.0781C34.7813 77.2917 34.832 77.4753 34.9336 77.6289C35.0378 77.7799 35.1706 77.9062 35.332 78.0078C35.4935 78.1068 35.6628 78.1888 35.8398 78.2539C36.0169 78.3164 36.1797 78.3672 36.3281 78.4062L37.1406 78.625C37.349 78.6797 37.5807 78.7552 37.8359 78.8516C38.0938 78.9479 38.3398 79.0794 38.5742 79.2461C38.8112 79.4102 39.0065 79.6211 39.1602 79.8789C39.3138 80.1367 39.3906 80.4531 39.3906 80.8281C39.3906 81.2604 39.2773 81.651 39.0508 82C38.8268 82.349 38.4987 82.6263 38.0664 82.832C37.6367 83.0378 37.1146 83.1406 36.5 83.1406C35.9271 83.1406 35.431 83.0482 35.0117 82.8633C34.5951 82.6784 34.2669 82.4206 34.0273 82.0898C33.7904 81.7591 33.6563 81.375 33.625 80.9375H34.625C34.651 81.2396 34.7526 81.4896 34.9297 81.6875C35.1094 81.8828 35.3359 82.0286 35.6094 82.125C35.8854 82.2187 36.1823 82.2656 36.5 82.2656C36.8698 82.2656 37.2018 82.2057 37.4961 82.0859C37.7904 81.9635 38.0234 81.7943 38.1953 81.5781C38.3672 81.3594 38.4531 81.1042 38.4531 80.8125C38.4531 80.5469 38.3789 80.3307 38.2305 80.1641C38.082 79.9974 37.8867 79.862 37.6445 79.7578C37.4023 79.6536 37.1406 79.5625 36.8594 79.4844L35.875 79.2031C35.25 79.0234 34.7552 78.7669 34.3906 78.4336C34.026 78.1003 33.8438 77.6641 33.8438 77.125C33.8438 76.6771 33.9648 76.2865 34.207 75.9531C34.4518 75.6172 34.7799 75.3568 35.1914 75.1719C35.6055 74.9844 36.0677 74.8906 36.5781 74.8906C37.0938 74.8906 37.5521 74.9831 37.9531 75.168C38.3542 75.3503 38.6719 75.6003 38.9062 75.918C39.1432 76.2357 39.2682 76.5964 39.2813 77H38.3438ZM44.4053 83H43.3896L46.3271 75H47.3271L50.2646 83H49.249L46.8584 76.2656H46.7959L44.4053 83ZM44.7803 79.875H48.874V80.7344H44.7803V79.875ZM54.167 75.8594V75H60.167V75.8594H57.6514V83H56.6826V75.8594H54.167ZM71.5059 79C71.5059 79.8437 71.3535 80.5729 71.0488 81.1875C70.7441 81.8021 70.3262 82.276 69.7949 82.6094C69.2637 82.9427 68.6569 83.1094 67.9746 83.1094C67.2923 83.1094 66.6855 82.9427 66.1543 82.6094C65.623 82.276 65.2051 81.8021 64.9004 81.1875C64.5957 80.5729 64.4434 79.8437 64.4434 79C64.4434 78.1562 64.5957 77.4271 64.9004 76.8125C65.2051 76.1979 65.623 75.724 66.1543 75.3906C66.6855 75.0573 67.2923 74.8906 67.9746 74.8906C68.6569 74.8906 69.2637 75.0573 69.7949 75.3906C70.3262 75.724 70.7441 76.1979 71.0488 76.8125C71.3535 77.4271 71.5059 78.1562 71.5059 79ZM70.5684 79C70.5684 78.3073 70.4525 77.7227 70.2207 77.2461C69.9915 76.7695 69.6803 76.4089 69.2871 76.1641C68.8965 75.9193 68.459 75.7969 67.9746 75.7969C67.4902 75.7969 67.0514 75.9193 66.6582 76.1641C66.2676 76.4089 65.9564 76.7695 65.7246 77.2461C65.4954 77.7227 65.3809 78.3073 65.3809 79C65.3809 79.6927 65.4954 80.2773 65.7246 80.7539C65.9564 81.2305 66.2676 81.5911 66.6582 81.8359C67.0514 82.0807 67.4902 82.2031 67.9746 82.2031C68.459 82.2031 68.8965 82.0807 69.2871 81.8359C69.6803 81.5911 69.9915 81.2305 70.2207 80.7539C70.4525 80.2773 70.5684 79.6927 70.5684 79ZM76.2285 83V75H78.9316C79.5566 75 80.0697 75.1068 80.4707 75.3203C80.8717 75.5312 81.1686 75.8216 81.3613 76.1914C81.554 76.5612 81.6504 76.9818 81.6504 77.4531C81.6504 77.9245 81.554 78.3424 81.3613 78.707C81.1686 79.0716 80.873 79.3581 80.4746 79.5664C80.0762 79.7721 79.5671 79.875 78.9473 79.875H76.7598V79H78.916C79.3431 79 79.6868 78.9375 79.9473 78.8125C80.2103 78.6875 80.4004 78.5104 80.5176 78.2812C80.6374 78.0495 80.6973 77.7734 80.6973 77.4531C80.6973 77.1328 80.6374 76.8529 80.5176 76.6133C80.3978 76.3737 80.2064 76.1888 79.9434 76.0586C79.6803 75.9258 79.3327 75.8594 78.9004 75.8594H77.1973V83H76.2285ZM79.9941 79.4062L81.9629 83H80.8379L78.9004 79.4062H79.9941Z" fill="black"/>
<rect x="31" y="70" width="80" height="80" rx="4" fill="#A8C5FC"/>
<rect x="31.5" y="70.5" width="79" height="79" rx="3.5" stroke="#A16BFF" stroke-opacity="0.4"/>
<path d="M67.3782 106.712C67.3782 107.648 67.6062 108.464 68.0622 109.16C68.5182 109.856 69.0702 110.444 69.7182 110.924C70.3662 111.38 71.2782 111.968 72.4542 112.688C73.7022 113.432 74.6742 114.056 75.3702 114.56C76.0662 115.064 76.6542 115.712 77.1342 116.504C77.6382 117.272 77.8902 118.196 77.8902 119.276C77.8902 120.428 77.6022 121.472 77.0262 122.408C76.4502 123.344 75.5982 124.088 74.4702 124.64C73.3662 125.168 72.0342 125.432 70.4742 125.432C68.6262 125.432 66.9342 125.012 65.3982 124.172C65.2782 124.1 65.1942 124.016 65.1462 123.92C65.1222 123.824 65.0982 123.68 65.0742 123.488L64.6062 118.592C64.5822 118.496 64.6302 118.436 64.7502 118.412C64.8942 118.388 64.9782 118.424 65.0022 118.52C65.3622 120.224 66.0702 121.712 67.1262 122.984C68.1822 124.232 69.5742 124.856 71.3022 124.856C72.5022 124.856 73.5102 124.532 74.3262 123.884C75.1662 123.212 75.5862 122.156 75.5862 120.716C75.5862 119.636 75.3462 118.7 74.8662 117.908C74.3862 117.116 73.7982 116.468 73.1022 115.964C72.4302 115.436 71.5062 114.824 70.3302 114.128C69.1782 113.432 68.2662 112.832 67.5942 112.328C66.9462 111.824 66.3942 111.188 65.9382 110.42C65.4822 109.652 65.2542 108.752 65.2542 107.72C65.2542 106.52 65.5662 105.5 66.1902 104.66C66.8382 103.796 67.6662 103.16 68.6742 102.752C69.7062 102.32 70.7982 102.104 71.9502 102.104C73.3662 102.104 74.7702 102.392 76.1622 102.968C76.5222 103.088 76.7022 103.292 76.7022 103.58L76.9542 107.684C76.9542 107.804 76.8822 107.864 76.7382 107.864C76.6182 107.864 76.5462 107.816 76.5222 107.72C76.3542 106.472 75.8502 105.32 75.0102 104.264C74.1702 103.184 72.9582 102.644 71.3742 102.644C70.0302 102.644 69.0222 103.04 68.3502 103.832C67.7022 104.6 67.3782 105.56 67.3782 106.712Z" fill="black"/>
<rect x="31" y="150" width="80" height="80" rx="4" fill="#A8C5FC"/>
<rect x="31.5" y="150.5" width="79" height="79" rx="3.5" stroke="#A16BFF" stroke-opacity="0.4"/>
<path d="M66.5693 172.328H73.9853L74.2373 173.084H66.0293L66.5693 172.328ZM83.5253 184.568C83.6213 184.568 83.6693 184.64 83.6693 184.784C83.6693 184.928 83.6213 185 83.5253 185C83.0693 185 82.3613 184.976 81.4013 184.928C80.4413 184.88 79.7453 184.856 79.3133 184.856C78.7853 184.856 78.1133 184.88 77.2973 184.928C76.5293 184.976 75.9413 185 75.5333 185C75.4373 185 75.3893 184.928 75.3893 184.784C75.3893 184.64 75.4373 184.568 75.5333 184.568C76.4453 184.568 77.0933 184.484 77.4773 184.316C77.8853 184.148 78.0893 183.848 78.0893 183.416C78.0893 183.056 77.9453 182.552 77.6573 181.904L69.6653 165.02L70.5653 163.904L63.5813 180.428C63.2453 181.244 63.0773 181.916 63.0773 182.444C63.0773 183.86 64.2533 184.568 66.6053 184.568C66.7253 184.568 66.7853 184.64 66.7853 184.784C66.7853 184.928 66.7253 185 66.6053 185C66.1733 185 65.5493 184.976 64.7333 184.928C63.8213 184.88 63.0293 184.856 62.3573 184.856C61.7333 184.856 61.0133 184.88 60.1973 184.928C59.4773 184.976 58.8773 185 58.3973 185C58.2773 185 58.2173 184.928 58.2173 184.784C58.2173 184.64 58.2773 184.568 58.3973 184.568C59.0693 184.568 59.6333 184.448 60.0893 184.208C60.5693 183.944 61.0133 183.5 61.4213 182.876C61.8533 182.228 62.3213 181.304 62.8253 180.104L70.4213 162.176C70.4693 162.104 70.5533 162.068 70.6733 162.068C70.7933 162.068 70.8653 162.104 70.8893 162.176L79.3853 180.068C80.2013 181.844 80.8973 183.044 81.4733 183.668C82.0493 184.268 82.7333 184.568 83.5253 184.568Z" fill="black"/>
<rect x="31" y="230" width="80" height="80" rx="4" fill="#A8C5FC"/>
<rect x="31.5" y="230.5" width="79" height="79" rx="3.5" stroke="#A16BFF" stroke-opacity="0.4"/>
<path d="M66.3598 243.148C64.8718 243.148 63.7438 243.532 62.9758 244.3C62.2318 245.068 61.6918 246.376 61.3558 248.224C61.3558 248.272 61.2838 248.296 61.1398 248.296C61.0198 248.296 60.9598 248.272 60.9598 248.224C61.0558 247.36 61.1638 246.232 61.2838 244.84C61.4038 243.448 61.4638 242.404 61.4638 241.708C61.4638 241.588 61.5238 241.528 61.6438 241.528C61.7878 241.528 61.8598 241.588 61.8598 241.708C61.8598 242.236 62.5078 242.5 63.8038 242.5C65.8678 242.572 68.2798 242.608 71.0398 242.608C72.4558 242.608 73.9558 242.584 75.5398 242.536L77.9878 242.5C78.8518 242.5 79.4878 242.44 79.8958 242.32C80.3278 242.2 80.6038 241.96 80.7238 241.6C80.7478 241.504 80.8198 241.456 80.9398 241.456C81.0598 241.456 81.1198 241.504 81.1198 241.6C81.0478 242.296 80.9758 243.352 80.9038 244.768C80.8318 246.184 80.7958 247.336 80.7958 248.224C80.7958 248.272 80.7238 248.296 80.5798 248.296C80.4358 248.296 80.3638 248.272 80.3638 248.224C80.2918 246.352 79.9078 245.044 79.2118 244.3C78.5158 243.532 77.3638 243.148 75.7558 243.148C74.6758 243.148 73.9078 243.196 73.4518 243.292C72.9958 243.388 72.6838 243.592 72.5158 243.904C72.3478 244.216 72.2638 244.744 72.2638 245.488V262.084C72.2638 262.828 72.3478 263.368 72.5158 263.704C72.6838 264.04 73.0078 264.268 73.4878 264.388C73.9678 264.508 74.7238 264.568 75.7558 264.568C75.8278 264.568 75.8638 264.64 75.8638 264.784C75.8638 264.928 75.8278 265 75.7558 265C74.9638 265 74.3278 264.988 73.8478 264.964L71.0398 264.928L68.3398 264.964C67.8598 264.988 67.1998 265 66.3598 265C66.3118 265 66.2878 264.928 66.2878 264.784C66.2878 264.64 66.3118 264.568 66.3598 264.568C67.3918 264.568 68.1478 264.508 68.6278 264.388C69.1078 264.268 69.4318 264.04 69.5998 263.704C69.7918 263.344 69.8878 262.804 69.8878 262.084V245.416C69.8878 244.672 69.8038 244.156 69.6358 243.868C69.4678 243.556 69.1558 243.364 68.6998 243.292C68.2438 243.196 67.4638 243.148 66.3598 243.148Z" fill="black"/>
<rect x="31" y="308" width="80" height="80" rx="4" fill="#A8C5FC"/>
<rect x="31.5" y="308.5" width="79" height="79" rx="3.5" stroke="#A16BFF" stroke-opacity="0.4"/>
<path d="M70.3948 343.432C68.1628 343.432 66.1708 342.916 64.4188 341.884C62.6908 340.828 61.3468 339.412 60.3868 337.636C59.4508 335.836 58.9828 333.88 58.9828 331.768C58.9828 329.296 59.6068 327.184 60.8548 325.432C62.1028 323.656 63.6988 322.324 65.6428 321.436C67.6108 320.548 69.6148 320.104 71.6548 320.104C73.9348 320.104 75.9388 320.644 77.6668 321.724C79.3948 322.78 80.7148 324.184 81.6268 325.936C82.5628 327.688 83.0308 329.548 83.0308 331.516C83.0308 333.7 82.4548 335.704 81.3028 337.528C80.1508 339.352 78.6028 340.792 76.6588 341.848C74.7388 342.904 72.6508 343.432 70.3948 343.432ZM71.6548 342.676C73.2868 342.676 74.7508 342.28 76.0468 341.488C77.3668 340.696 78.3988 339.544 79.1428 338.032C79.9108 336.496 80.2948 334.66 80.2948 332.524C80.2948 330.268 79.8748 328.264 79.0348 326.512C78.1948 324.76 77.0068 323.392 75.4708 322.408C73.9588 321.424 72.1828 320.932 70.1428 320.932C67.5028 320.932 65.4388 321.784 63.9508 323.488C62.4628 325.192 61.7188 327.532 61.7188 330.508C61.7188 332.764 62.1388 334.828 62.9788 336.7C63.8188 338.548 64.9948 340.012 66.5068 341.092C68.0188 342.148 69.7348 342.676 71.6548 342.676Z" fill="black"/>
<rect x="31" y="388" width="80" height="80" rx="4" fill="#A8C5FC"/>
<rect x="31.5" y="388.5" width="79" height="79" rx="3.5" stroke="#A16BFF" stroke-opacity="0.4"/>
<path d="M78.8327 423C78.2327 423 77.0807 421.944 75.3767 419.832C73.6967 417.696 71.6687 414.768 69.2927 411.048L71.3087 410.4C73.3967 413.496 75.1367 415.92 76.5287 417.672C77.9447 419.4 79.1927 420.648 80.2727 421.416C81.3527 422.184 82.4087 422.568 83.4407 422.568C83.5127 422.568 83.5487 422.64 83.5487 422.784C83.5487 422.928 83.5127 423 83.4407 423H78.8327ZM69.0407 400.392C70.9847 400.392 72.4847 400.788 73.5407 401.58C74.5967 402.372 75.1247 403.476 75.1247 404.892C75.1247 406.068 74.7767 407.172 74.0807 408.204C73.3847 409.236 72.4487 410.064 71.2727 410.688C70.1207 411.288 68.8727 411.588 67.5287 411.588C67.0727 411.588 66.5327 411.564 65.9087 411.516V420.084C65.9087 420.828 65.9807 421.368 66.1247 421.704C66.2687 422.04 66.5447 422.268 66.9527 422.388C67.3847 422.508 68.0567 422.568 68.9687 422.568C69.0407 422.568 69.0767 422.64 69.0767 422.784C69.0767 422.928 69.0407 423 68.9687 423C68.2247 423 67.6367 422.988 67.2047 422.964L64.7207 422.928L62.2727 422.964C61.8407 422.988 61.2287 423 60.4367 423C60.3887 423 60.3647 422.928 60.3647 422.784C60.3647 422.64 60.3887 422.568 60.4367 422.568C61.3487 422.568 62.0207 422.508 62.4527 422.388C62.8847 422.244 63.1847 422.004 63.3527 421.668C63.5207 421.332 63.6047 420.804 63.6047 420.084V403.416C63.6047 402.696 63.5207 402.168 63.3527 401.832C63.2087 401.496 62.9207 401.268 62.4887 401.148C62.0807 401.004 61.4207 400.932 60.5087 400.932C60.4367 400.932 60.4007 400.86 60.4007 400.716C60.4007 400.572 60.4367 400.5 60.5087 400.5L62.2727 400.536C63.2807 400.584 64.0967 400.608 64.7207 400.608C65.1527 400.608 65.5607 400.596 65.9447 400.572C66.3287 400.548 66.6647 400.524 66.9527 400.5C67.7207 400.428 68.4167 400.392 69.0407 400.392ZM72.6767 406.152C72.6767 402.672 71.2127 400.932 68.2847 400.932C67.6367 400.932 67.1447 400.992 66.8087 401.112C66.4967 401.208 66.2687 401.436 66.1247 401.796C65.9807 402.132 65.9087 402.696 65.9087 403.488V410.616C66.4847 410.712 67.1927 410.76 68.0327 410.76C69.6887 410.76 70.8767 410.412 71.5967 409.716C72.3167 408.996 72.6767 407.808 72.6767 406.152Z" fill="black"/>
<rect x="111" y="70" width="80" height="80" rx="4" fill="black" fill-opacity="0.15"/>
<rect x="111.5" y="70.5" width="79" height="79" rx="3.5" stroke="#A16BFF" stroke-opacity="0.4"/>
<path d="M114.297 83H113.281L116.219 75H117.219L120.156 83H119.141L116.75 76.2656H116.688L114.297 83ZM114.672 79.875H118.766V80.7344H114.672V79.875ZM124.496 83V75H127.199C127.824 75 128.337 75.1068 128.738 75.3203C129.139 75.5312 129.436 75.8216 129.629 76.1914C129.822 76.5612 129.918 76.9818 129.918 77.4531C129.918 77.9245 129.822 78.3424 129.629 78.707C129.436 79.0716 129.141 79.3581 128.742 79.5664C128.344 79.7721 127.835 79.875 127.215 79.875H125.027V79H127.184C127.611 79 127.954 78.9375 128.215 78.8125C128.478 78.6875 128.668 78.5104 128.785 78.2812C128.905 78.0495 128.965 77.7734 128.965 77.4531C128.965 77.1328 128.905 76.8529 128.785 76.6133C128.665 76.3737 128.474 76.1888 128.211 76.0586C127.948 75.9258 127.6 75.8594 127.168 75.8594H125.465V83H124.496ZM128.262 79.4062L130.23 83H129.105L127.168 79.4062H128.262ZM134.626 83V75H139.454V75.8594H135.595V78.5625H139.204V79.4219H135.595V82.1406H139.517V83H134.626ZM144.294 83V75H146.997C147.625 75 148.138 75.1133 148.536 75.3398C148.937 75.5638 149.234 75.8672 149.427 76.25C149.619 76.6328 149.716 77.0599 149.716 77.5312C149.716 78.0026 149.619 78.431 149.427 78.8164C149.237 79.2018 148.942 79.5091 148.544 79.7383C148.146 79.9648 147.635 80.0781 147.013 80.0781H145.075V79.2188H146.981C147.411 79.2188 147.756 79.1445 148.017 78.9961C148.277 78.8477 148.466 78.6471 148.583 78.3945C148.703 78.1393 148.763 77.8516 148.763 77.5312C148.763 77.2109 148.703 76.9245 148.583 76.6719C148.466 76.4193 148.276 76.2214 148.013 76.0781C147.75 75.9323 147.401 75.8594 146.966 75.8594H145.263V83H144.294ZM161.12 79C161.12 79.8437 160.968 80.5729 160.663 81.1875C160.358 81.8021 159.94 82.276 159.409 82.6094C158.878 82.9427 158.271 83.1094 157.589 83.1094C156.907 83.1094 156.3 82.9427 155.769 82.6094C155.237 82.276 154.819 81.8021 154.515 81.1875C154.21 80.5729 154.058 79.8437 154.058 79C154.058 78.1562 154.21 77.4271 154.515 76.8125C154.819 76.1979 155.237 75.724 155.769 75.3906C156.3 75.0573 156.907 74.8906 157.589 74.8906C158.271 74.8906 158.878 75.0573 159.409 75.3906C159.94 75.724 160.358 76.1979 160.663 76.8125C160.968 77.4271 161.12 78.1562 161.12 79ZM160.183 79C160.183 78.3073 160.067 77.7227 159.835 77.2461C159.606 76.7695 159.295 76.4089 158.901 76.1641C158.511 75.9193 158.073 75.7969 157.589 75.7969C157.104 75.7969 156.666 75.9193 156.272 76.1641C155.882 76.4089 155.571 76.7695 155.339 77.2461C155.11 77.7227 154.995 78.3073 154.995 79C154.995 79.6927 155.11 80.2773 155.339 80.7539C155.571 81.2305 155.882 81.5911 156.272 81.8359C156.666 82.0807 157.104 82.2031 157.589 82.2031C158.073 82.2031 158.511 82.0807 158.901 81.8359C159.295 81.5911 159.606 81.2305 159.835 80.7539C160.067 80.2773 160.183 79.6927 160.183 79Z" fill="black"/>
<rect x="111" y="70" width="80" height="80" rx="4" fill="#A8C5FC"/>
<rect x="111.5" y="70.5" width="79" height="79" rx="3.5" stroke="#A16BFF" stroke-opacity="0.4"/>
<path d="M146.569 112.328H153.985L154.237 113.084H146.029L146.569 112.328ZM163.525 124.568C163.621 124.568 163.669 124.64 163.669 124.784C163.669 124.928 163.621 125 163.525 125C163.069 125 162.361 124.976 161.401 124.928C160.441 124.88 159.745 124.856 159.313 124.856C158.785 124.856 158.113 124.88 157.297 124.928C156.529 124.976 155.941 125 155.533 125C155.437 125 155.389 124.928 155.389 124.784C155.389 124.64 155.437 124.568 155.533 124.568C156.445 124.568 157.093 124.484 157.477 124.316C157.885 124.148 158.089 123.848 158.089 123.416C158.089 123.056 157.945 122.552 157.657 121.904L149.665 105.02L150.565 103.904L143.581 120.428C143.245 121.244 143.077 121.916 143.077 122.444C143.077 123.86 144.253 124.568 146.605 124.568C146.725 124.568 146.785 124.64 146.785 124.784C146.785 124.928 146.725 125 146.605 125C146.173 125 145.549 124.976 144.733 124.928C143.821 124.88 143.029 124.856 142.357 124.856C141.733 124.856 141.013 124.88 140.197 124.928C139.477 124.976 138.877 125 138.397 125C138.277 125 138.217 124.928 138.217 124.784C138.217 124.64 138.277 124.568 138.397 124.568C139.069 124.568 139.633 124.448 140.089 124.208C140.569 123.944 141.013 123.5 141.421 122.876C141.853 122.228 142.321 121.304 142.825 120.104L150.421 102.176C150.469 102.104 150.553 102.068 150.673 102.068C150.793 102.068 150.865 102.104 150.889 102.176L159.385 120.068C160.201 121.844 160.897 123.044 161.473 123.668C162.049 124.268 162.733 124.568 163.525 124.568Z" fill="black"/>
<rect x="111" y="150" width="80" height="80" rx="4" fill="#A8C5FC"/>
<rect x="111.5" y="150.5" width="79" height="79" rx="3.5" stroke="#A16BFF" stroke-opacity="0.4"/>
<path d="M158.833 185C158.233 185 157.081 183.944 155.377 181.832C153.697 179.696 151.669 176.768 149.293 173.048L151.309 172.4C153.397 175.496 155.137 177.92 156.529 179.672C157.945 181.4 159.193 182.648 160.273 183.416C161.353 184.184 162.409 184.568 163.441 184.568C163.513 184.568 163.549 184.64 163.549 184.784C163.549 184.928 163.513 185 163.441 185H158.833ZM149.041 162.392C150.985 162.392 152.485 162.788 153.541 163.58C154.597 164.372 155.125 165.476 155.125 166.892C155.125 168.068 154.777 169.172 154.081 170.204C153.385 171.236 152.449 172.064 151.273 172.688C150.121 173.288 148.873 173.588 147.529 173.588C147.073 173.588 146.533 173.564 145.909 173.516V182.084C145.909 182.828 145.981 183.368 146.125 183.704C146.269 184.04 146.545 184.268 146.953 184.388C147.385 184.508 148.057 184.568 148.969 184.568C149.041 184.568 149.077 184.64 149.077 184.784C149.077 184.928 149.041 185 148.969 185C148.225 185 147.637 184.988 147.205 184.964L144.721 184.928L142.273 184.964C141.841 184.988 141.229 185 140.437 185C140.389 185 140.365 184.928 140.365 184.784C140.365 184.64 140.389 184.568 140.437 184.568C141.349 184.568 142.021 184.508 142.453 184.388C142.885 184.244 143.185 184.004 143.353 183.668C143.521 183.332 143.605 182.804 143.605 182.084V165.416C143.605 164.696 143.521 164.168 143.353 163.832C143.209 163.496 142.921 163.268 142.489 163.148C142.081 163.004 141.421 162.932 140.509 162.932C140.437 162.932 140.401 162.86 140.401 162.716C140.401 162.572 140.437 162.5 140.509 162.5L142.273 162.536C143.281 162.584 144.097 162.608 144.721 162.608C145.153 162.608 145.561 162.596 145.945 162.572C146.329 162.548 146.665 162.524 146.953 162.5C147.721 162.428 148.417 162.392 149.041 162.392ZM152.677 168.152C152.677 164.672 151.213 162.932 148.285 162.932C147.637 162.932 147.145 162.992 146.809 163.112C146.497 163.208 146.269 163.436 146.125 163.796C145.981 164.132 145.909 164.696 145.909 165.488V172.616C146.485 172.712 147.193 172.76 148.033 172.76C149.689 172.76 150.877 172.412 151.597 171.716C152.317 170.996 152.677 169.808 152.677 168.152Z" fill="black"/>
<rect x="111" y="230" width="80" height="80" rx="4" fill="#A8DCC9"/>
<rect x="111.5" y="230.5" width="79" height="79" rx="3.5" stroke="#A16BFF" stroke-opacity="0.4"/>
<path d="M142.88 265C142.832 265 142.808 264.928 142.808 264.784C142.808 264.64 142.832 264.568 142.88 264.568C143.792 264.568 144.452 264.508 144.86 264.388C145.292 264.268 145.58 264.04 145.724 263.704C145.892 263.344 145.976 262.804 145.976 262.084V245.416C145.976 244.696 145.892 244.168 145.724 243.832C145.58 243.496 145.292 243.268 144.86 243.148C144.452 243.004 143.792 242.932 142.88 242.932C142.832 242.932 142.808 242.86 142.808 242.716C142.808 242.572 142.832 242.5 142.88 242.5H157.352C157.568 242.5 157.676 242.608 157.676 242.824L157.748 247.252C157.748 247.324 157.676 247.372 157.532 247.396C157.412 247.396 157.352 247.36 157.352 247.288C157.28 246.016 156.896 245.032 156.2 244.336C155.504 243.616 154.58 243.256 153.428 243.256H151.232C150.392 243.256 149.768 243.328 149.36 243.472C148.952 243.592 148.664 243.808 148.496 244.12C148.352 244.432 148.28 244.924 148.28 245.596V261.94C148.28 262.588 148.352 263.08 148.496 263.416C148.664 263.728 148.94 263.944 149.324 264.064C149.708 264.184 150.308 264.244 151.124 264.244H154.004C155.156 264.244 156.116 263.836 156.884 263.02C157.652 262.204 158.168 261.076 158.432 259.636C158.432 259.588 158.48 259.564 158.576 259.564C158.648 259.564 158.708 259.588 158.756 259.636C158.828 259.66 158.864 259.684 158.864 259.708C158.648 261.22 158.54 262.804 158.54 264.46C158.54 264.652 158.492 264.796 158.396 264.892C158.324 264.964 158.18 265 157.964 265H142.88ZM155.948 256.612C155.948 255.556 155.684 254.8 155.156 254.344C154.652 253.888 153.8 253.66 152.6 253.66H147.2V252.904H152.708C153.86 252.904 154.676 252.712 155.156 252.328C155.66 251.944 155.912 251.296 155.912 250.384C155.912 250.336 155.984 250.312 156.128 250.312C156.272 250.312 156.344 250.336 156.344 250.384L156.308 253.3C156.308 253.996 156.32 254.524 156.344 254.884L156.38 256.612C156.38 256.66 156.308 256.684 156.164 256.684C156.02 256.684 155.948 256.66 155.948 256.612Z" fill="black"/>
<rect x="111" y="308" width="80" height="80" rx="4" fill="#A8DCC9"/>
<rect x="111.5" y="308.5" width="79" height="79" rx="3.5" stroke="#A16BFF" stroke-opacity="0.4"/>
<path d="M148.139 339.94C148.139 340.708 148.235 341.272 148.427 341.632C148.643 341.968 149.039 342.208 149.615 342.352C150.215 342.496 151.151 342.568 152.423 342.568C152.495 342.568 152.531 342.64 152.531 342.784C152.531 342.928 152.495 343 152.423 343C151.439 343 150.671 342.988 150.119 342.964L146.987 342.928L144.575 342.964C144.119 342.988 143.507 343 142.739 343C142.691 343 142.667 342.928 142.667 342.784C142.667 342.64 142.691 342.568 142.739 342.568C143.651 342.568 144.311 342.508 144.719 342.388C145.151 342.268 145.439 342.04 145.583 341.704C145.727 341.344 145.799 340.804 145.799 340.084V323.416C145.799 322.696 145.727 322.168 145.583 321.832C145.439 321.496 145.151 321.268 144.719 321.148C144.311 321.004 143.651 320.932 142.739 320.932C142.691 320.932 142.667 320.86 142.667 320.716C142.667 320.572 142.691 320.5 142.739 320.5L144.539 320.536C145.547 320.584 146.351 320.608 146.951 320.608C147.551 320.608 148.223 320.572 148.967 320.5C149.255 320.5 149.711 320.488 150.335 320.464C150.959 320.416 151.499 320.392 151.955 320.392C154.163 320.392 155.927 320.884 157.247 321.868C158.591 322.852 159.263 324.352 159.263 326.368C159.263 327.952 158.867 329.284 158.075 330.364C157.307 331.444 156.311 332.248 155.087 332.776C153.863 333.304 152.603 333.568 151.307 333.568C150.611 333.568 150.035 333.508 149.579 333.388C149.507 333.388 149.471 333.328 149.471 333.208C149.471 333.136 149.483 333.064 149.507 332.992C149.555 332.92 149.603 332.896 149.651 332.92C150.035 333.016 150.467 333.064 150.947 333.064C152.531 333.064 153.863 332.548 154.943 331.516C156.047 330.484 156.599 328.996 156.599 327.052C156.599 325.156 156.083 323.668 155.051 322.588C154.019 321.484 152.699 320.932 151.091 320.932C150.227 320.932 149.603 320.98 149.219 321.076C148.835 321.172 148.559 321.4 148.391 321.76C148.223 322.096 148.139 322.672 148.139 323.488V339.94Z" fill="black"/>
<rect x="111" y="388" width="80" height="80" rx="4" fill="#A8DCC9"/>
<rect x="111.5" y="388.5" width="79" height="79" rx="3.5" stroke="#A16BFF" stroke-opacity="0.4"/>
<path d="M150.395 423.432C148.163 423.432 146.171 422.916 144.419 421.884C142.691 420.828 141.347 419.412 140.387 417.636C139.451 415.836 138.983 413.88 138.983 411.768C138.983 409.296 139.607 407.184 140.855 405.432C142.103 403.656 143.699 402.324 145.643 401.436C147.611 400.548 149.615 400.104 151.655 400.104C153.935 400.104 155.939 400.644 157.667 401.724C159.395 402.78 160.715 404.184 161.627 405.936C162.563 407.688 163.031 409.548 163.031 411.516C163.031 413.7 162.455 415.704 161.303 417.528C160.151 419.352 158.603 420.792 156.659 421.848C154.739 422.904 152.651 423.432 150.395 423.432ZM151.655 422.676C153.287 422.676 154.751 422.28 156.047 421.488C157.367 420.696 158.399 419.544 159.143 418.032C159.911 416.496 160.295 414.66 160.295 412.524C160.295 410.268 159.875 408.264 159.035 406.512C158.195 404.76 157.007 403.392 155.471 402.408C153.959 401.424 152.183 400.932 150.143 400.932C147.503 400.932 145.439 401.784 143.951 403.488C142.463 405.192 141.719 407.532 141.719 410.508C141.719 412.764 142.139 414.828 142.979 416.7C143.819 418.548 144.995 420.012 146.507 421.092C148.019 422.148 149.735 422.676 151.655 422.676Z" fill="black"/>
<g clip-path="url(#clip0_50_1809)">
<rect x="190" y="70" width="80" height="80" rx="4" fill="black" fill-opacity="0.15"/>
<path d="M204.369 83.6307V80.8182H224.006V83.6307H215.773V107H212.602V83.6307H204.369ZM239.024 107V80.8182H254.825V83.6307H242.194V92.4773H254.007V95.2898H242.194V104.188H255.03V107H239.024ZM224.559 124.818V151H221.491L207.224 130.443H206.968V151H203.797V124.818H206.866L221.184 145.426H221.439V124.818H224.559ZM241.028 151V124.818H256.829V127.631H244.198V136.477H256.011V139.29H244.198V148.188H257.034V151H241.028ZM220.19 171.631V168.818H239.826V171.631H231.593V195H228.423V171.631H220.19Z" fill="black"/>
</g>
<rect x="190.5" y="70.5" width="79" height="79" rx="3.5" stroke="#A16BFF" stroke-opacity="0.4"/>
<rect x="190" y="70" width="80" height="80" rx="4" fill="#F7F6F2"/>
<rect x="190.5" y="70.5" width="79" height="79" rx="3.5" stroke="#A16BFF" stroke-opacity="0.4"/>
<path d="M225.36 103.148C223.872 103.148 222.744 103.532 221.976 104.3C221.232 105.068 220.692 106.376 220.356 108.224C220.356 108.272 220.284 108.296 220.14 108.296C220.02 108.296 219.96 108.272 219.96 108.224C220.056 107.36 220.164 106.232 220.284 104.84C220.404 103.448 220.464 102.404 220.464 101.708C220.464 101.588 220.524 101.528 220.644 101.528C220.788 101.528 220.86 101.588 220.86 101.708C220.86 102.236 221.508 102.5 222.804 102.5C224.868 102.572 227.28 102.608 230.04 102.608C231.456 102.608 232.956 102.584 234.54 102.536L236.988 102.5C237.852 102.5 238.488 102.44 238.896 102.32C239.328 102.2 239.604 101.96 239.724 101.6C239.748 101.504 239.82 101.456 239.94 101.456C240.06 101.456 240.12 101.504 240.12 101.6C240.048 102.296 239.976 103.352 239.904 104.768C239.832 106.184 239.796 107.336 239.796 108.224C239.796 108.272 239.724 108.296 239.58 108.296C239.436 108.296 239.364 108.272 239.364 108.224C239.292 106.352 238.908 105.044 238.212 104.3C237.516 103.532 236.364 103.148 234.756 103.148C233.676 103.148 232.908 103.196 232.452 103.292C231.996 103.388 231.684 103.592 231.516 103.904C231.348 104.216 231.264 104.744 231.264 105.488V122.084C231.264 122.828 231.348 123.368 231.516 123.704C231.684 124.04 232.008 124.268 232.488 124.388C232.968 124.508 233.724 124.568 234.756 124.568C234.828 124.568 234.864 124.64 234.864 124.784C234.864 124.928 234.828 125 234.756 125C233.964 125 233.328 124.988 232.848 124.964L230.04 124.928L227.34 124.964C226.86 124.988 226.2 125 225.36 125C225.312 125 225.288 124.928 225.288 124.784C225.288 124.64 225.312 124.568 225.36 124.568C226.392 124.568 227.148 124.508 227.628 124.388C228.108 124.268 228.432 124.04 228.6 123.704C228.792 123.344 228.888 122.804 228.888 122.084V105.416C228.888 104.672 228.804 104.156 228.636 103.868C228.468 103.556 228.156 103.364 227.7 103.292C227.244 103.196 226.464 103.148 225.36 103.148Z" fill="black"/>
<rect x="190" y="150" width="80" height="80" rx="4" fill="#F7F6F2"/>
<rect x="190.5" y="150.5" width="79" height="79" rx="3.5" stroke="#A16BFF" stroke-opacity="0.4"/>
<path d="M221.88 185C221.832 185 221.808 184.928 221.808 184.784C221.808 184.64 221.832 184.568 221.88 184.568C222.792 184.568 223.452 184.508 223.86 184.388C224.292 184.268 224.58 184.04 224.724 183.704C224.892 183.344 224.976 182.804 224.976 182.084V165.416C224.976 164.696 224.892 164.168 224.724 163.832C224.58 163.496 224.292 163.268 223.86 163.148C223.452 163.004 222.792 162.932 221.88 162.932C221.832 162.932 221.808 162.86 221.808 162.716C221.808 162.572 221.832 162.5 221.88 162.5H236.352C236.568 162.5 236.676 162.608 236.676 162.824L236.748 167.252C236.748 167.324 236.676 167.372 236.532 167.396C236.412 167.396 236.352 167.36 236.352 167.288C236.28 166.016 235.896 165.032 235.2 164.336C234.504 163.616 233.58 163.256 232.428 163.256H230.232C229.392 163.256 228.768 163.328 228.36 163.472C227.952 163.592 227.664 163.808 227.496 164.12C227.352 164.432 227.28 164.924 227.28 165.596V181.94C227.28 182.588 227.352 183.08 227.496 183.416C227.664 183.728 227.94 183.944 228.324 184.064C228.708 184.184 229.308 184.244 230.124 184.244H233.004C234.156 184.244 235.116 183.836 235.884 183.02C236.652 182.204 237.168 181.076 237.432 179.636C237.432 179.588 237.48 179.564 237.576 179.564C237.648 179.564 237.708 179.588 237.756 179.636C237.828 179.66 237.864 179.684 237.864 179.708C237.648 181.22 237.54 182.804 237.54 184.46C237.54 184.652 237.492 184.796 237.396 184.892C237.324 184.964 237.18 185 236.964 185H221.88ZM234.948 176.612C234.948 175.556 234.684 174.8 234.156 174.344C233.652 173.888 232.8 173.66 231.6 173.66H226.2V172.904H231.708C232.86 172.904 233.676 172.712 234.156 172.328C234.66 171.944 234.912 171.296 234.912 170.384C234.912 170.336 234.984 170.312 235.128 170.312C235.272 170.312 235.344 170.336 235.344 170.384L235.308 173.3C235.308 173.996 235.32 174.524 235.344 174.884L235.38 176.612C235.38 176.66 235.308 176.684 235.164 176.684C235.02 176.684 234.948 176.66 234.948 176.612Z" fill="black"/>
<rect x="190" y="230" width="80" height="80" rx="4" fill="#D4B2BC"/>
<rect x="190.5" y="230.5" width="79" height="79" rx="3.5" stroke="#A16BFF" stroke-opacity="0.4"/>
<path d="M221.242 243.328L222.07 243.4V261.076C222.07 262.324 222.286 263.224 222.718 263.776C223.174 264.304 223.894 264.568 224.878 264.568C224.95 264.568 224.986 264.64 224.986 264.784C224.986 264.928 224.95 265 224.878 265C224.278 265 223.822 264.988 223.51 264.964L221.71 264.928L219.874 264.964C219.538 264.988 219.046 265 218.398 265C218.35 265 218.326 264.928 218.326 264.784C218.326 264.64 218.35 264.568 218.398 264.568C219.43 264.568 220.162 264.304 220.594 263.776C221.026 263.224 221.242 262.324 221.242 261.076V243.328ZM239.386 265.432C239.386 265.48 239.326 265.516 239.206 265.54C239.086 265.564 239.002 265.552 238.954 265.504L222.394 245.452C221.626 244.516 220.918 243.868 220.27 243.508C219.646 243.124 219.022 242.932 218.398 242.932C218.326 242.932 218.29 242.86 218.29 242.716C218.29 242.572 218.326 242.5 218.398 242.5L219.73 242.536C220.018 242.56 220.414 242.572 220.918 242.572C221.446 242.572 221.878 242.56 222.214 242.536C222.55 242.512 222.814 242.5 223.006 242.5C223.174 242.5 223.306 242.548 223.402 242.644C223.522 242.716 223.654 242.884 223.798 243.148C224.086 243.58 224.386 243.988 224.698 244.372L239.098 262.048L239.386 265.432ZM239.386 265.432L238.558 264.316V246.46C238.558 245.212 238.342 244.312 237.91 243.76C237.502 243.208 236.806 242.932 235.822 242.932C235.774 242.932 235.75 242.86 235.75 242.716C235.75 242.572 235.774 242.5 235.822 242.5L237.226 242.536C237.946 242.584 238.534 242.608 238.99 242.608C239.422 242.608 240.022 242.584 240.79 242.536L242.266 242.5C242.338 242.5 242.374 242.572 242.374 242.716C242.374 242.86 242.338 242.932 242.266 242.932C241.258 242.932 240.526 243.208 240.07 243.76C239.614 244.312 239.386 245.212 239.386 246.46V265.432Z" fill="black"/>
<rect x="190" y="308" width="80" height="80" rx="4" fill="#F7F6F2"/>
<rect x="190.5" y="308.5" width="79" height="79" rx="3.5" stroke="#A16BFF" stroke-opacity="0.4"/>
<path d="M221.88 343C221.832 343 221.808 342.928 221.808 342.784C221.808 342.64 221.832 342.568 221.88 342.568C222.792 342.568 223.452 342.508 223.86 342.388C224.292 342.268 224.58 342.04 224.724 341.704C224.892 341.344 224.976 340.804 224.976 340.084V323.416C224.976 322.696 224.892 322.168 224.724 321.832C224.58 321.496 224.292 321.268 223.86 321.148C223.452 321.004 222.792 320.932 221.88 320.932C221.832 320.932 221.808 320.86 221.808 320.716C221.808 320.572 221.832 320.5 221.88 320.5H236.352C236.568 320.5 236.676 320.608 236.676 320.824L236.748 325.252C236.748 325.324 236.676 325.372 236.532 325.396C236.412 325.396 236.352 325.36 236.352 325.288C236.28 324.016 235.896 323.032 235.2 322.336C234.504 321.616 233.58 321.256 232.428 321.256H230.232C229.392 321.256 228.768 321.328 228.36 321.472C227.952 321.592 227.664 321.808 227.496 322.12C227.352 322.432 227.28 322.924 227.28 323.596V339.94C227.28 340.588 227.352 341.08 227.496 341.416C227.664 341.728 227.94 341.944 228.324 342.064C228.708 342.184 229.308 342.244 230.124 342.244H233.004C234.156 342.244 235.116 341.836 235.884 341.02C236.652 340.204 237.168 339.076 237.432 337.636C237.432 337.588 237.48 337.564 237.576 337.564C237.648 337.564 237.708 337.588 237.756 337.636C237.828 337.66 237.864 337.684 237.864 337.708C237.648 339.22 237.54 340.804 237.54 342.46C237.54 342.652 237.492 342.796 237.396 342.892C237.324 342.964 237.18 343 236.964 343H221.88ZM234.948 334.612C234.948 333.556 234.684 332.8 234.156 332.344C233.652 331.888 232.8 331.66 231.6 331.66H226.2V330.904H231.708C232.86 330.904 233.676 330.712 234.156 330.328C234.66 329.944 234.912 329.296 234.912 328.384C234.912 328.336 234.984 328.312 235.128 328.312C235.272 328.312 235.344 328.336 235.344 328.384L235.308 331.3C235.308 331.996 235.32 332.524 235.344 332.884L235.38 334.612C235.38 334.66 235.308 334.684 235.164 334.684C235.02 334.684 234.948 334.66 234.948 334.612Z" fill="black"/>
<rect x="190" y="388" width="80" height="80" rx="4" fill="#F7F6F2"/>
<rect x="190.5" y="388.5" width="79" height="79" rx="3.5" stroke="#A16BFF" stroke-opacity="0.4"/>
<path d="M225.36 401.148C223.872 401.148 222.744 401.532 221.976 402.3C221.232 403.068 220.692 404.376 220.356 406.224C220.356 406.272 220.284 406.296 220.14 406.296C220.02 406.296 219.96 406.272 219.96 406.224C220.056 405.36 220.164 404.232 220.284 402.84C220.404 401.448 220.464 400.404 220.464 399.708C220.464 399.588 220.524 399.528 220.644 399.528C220.788 399.528 220.86 399.588 220.86 399.708C220.86 400.236 221.508 400.5 222.804 400.5C224.868 400.572 227.28 400.608 230.04 400.608C231.456 400.608 232.956 400.584 234.54 400.536L236.988 400.5C237.852 400.5 238.488 400.44 238.896 400.32C239.328 400.2 239.604 399.96 239.724 399.6C239.748 399.504 239.82 399.456 239.94 399.456C240.06 399.456 240.12 399.504 240.12 399.6C240.048 400.296 239.976 401.352 239.904 402.768C239.832 404.184 239.796 405.336 239.796 406.224C239.796 406.272 239.724 406.296 239.58 406.296C239.436 406.296 239.364 406.272 239.364 406.224C239.292 404.352 238.908 403.044 238.212 402.3C237.516 401.532 236.364 401.148 234.756 401.148C233.676 401.148 232.908 401.196 232.452 401.292C231.996 401.388 231.684 401.592 231.516 401.904C231.348 402.216 231.264 402.744 231.264 403.488V420.084C231.264 420.828 231.348 421.368 231.516 421.704C231.684 422.04 232.008 422.268 232.488 422.388C232.968 422.508 233.724 422.568 234.756 422.568C234.828 422.568 234.864 422.64 234.864 422.784C234.864 422.928 234.828 423 234.756 423C233.964 423 233.328 422.988 232.848 422.964L230.04 422.928L227.34 422.964C226.86 422.988 226.2 423 225.36 423C225.312 423 225.288 422.928 225.288 422.784C225.288 422.64 225.312 422.568 225.36 422.568C226.392 422.568 227.148 422.508 227.628 422.388C228.108 422.268 228.432 422.04 228.6 421.704C228.792 421.344 228.888 420.804 228.888 420.084V403.416C228.888 402.672 228.804 402.156 228.636 401.868C228.468 401.556 228.156 401.364 227.7 401.292C227.244 401.196 226.464 401.148 225.36 401.148Z" fill="black"/>
<g clip-path="url(#clip1_50_1809)">
<rect x="270" y="70" width="80" height="80" rx="4" fill="black" fill-opacity="0.15"/>
<path d="M295.403 105.432C293.171 105.432 291.179 104.916 289.427 103.884C287.699 102.828 286.355 101.412 285.395 99.636C284.459 97.836 283.991 95.88 283.991 93.768C283.991 91.296 284.615 89.184 285.863 87.432C287.111 85.656 288.707 84.324 290.651 83.436C292.619 82.548 294.623 82.104 296.663 82.104C298.943 82.104 300.947 82.644 302.675 83.724C304.403 84.78 305.723 86.184 306.635 87.936C307.571 89.688 308.039 91.548 308.039 93.516C308.039 95.7 307.463 97.704 306.311 99.528C305.159 101.352 303.611 102.792 301.667 103.848C299.747 104.904 297.659 105.432 295.403 105.432ZM296.663 104.676C298.295 104.676 299.759 104.28 301.055 103.488C302.375 102.696 303.407 101.544 304.151 100.032C304.919 98.496 305.303 96.66 305.303 94.524C305.303 92.268 304.883 90.264 304.043 88.512C303.203 86.76 302.015 85.392 300.479 84.408C298.967 83.424 297.191 82.932 295.151 82.932C292.511 82.932 290.447 83.784 288.959 85.488C287.471 87.192 286.727 89.532 286.727 92.508C286.727 94.764 287.147 96.828 287.987 98.7C288.827 100.548 290.003 102.012 291.515 103.092C293.027 104.148 294.743 104.676 296.663 104.676ZM325.139 101.94C325.139 102.708 325.235 103.272 325.427 103.632C325.643 103.968 326.039 104.208 326.615 104.352C327.215 104.496 328.151 104.568 329.423 104.568C329.495 104.568 329.531 104.64 329.531 104.784C329.531 104.928 329.495 105 329.423 105C328.439 105 327.671 104.988 327.119 104.964L323.987 104.928L321.575 104.964C321.119 104.988 320.507 105 319.739 105C319.691 105 319.667 104.928 319.667 104.784C319.667 104.64 319.691 104.568 319.739 104.568C320.651 104.568 321.311 104.508 321.719 104.388C322.151 104.268 322.439 104.04 322.583 103.704C322.727 103.344 322.799 102.804 322.799 102.084V85.416C322.799 84.696 322.727 84.168 322.583 83.832C322.439 83.496 322.151 83.268 321.719 83.148C321.311 83.004 320.651 82.932 319.739 82.932C319.691 82.932 319.667 82.86 319.667 82.716C319.667 82.572 319.691 82.5 319.739 82.5L321.539 82.536C322.547 82.584 323.351 82.608 323.951 82.608C324.551 82.608 325.223 82.572 325.967 82.5C326.255 82.5 326.711 82.488 327.335 82.464C327.959 82.416 328.499 82.392 328.955 82.392C331.163 82.392 332.927 82.884 334.247 83.868C335.591 84.852 336.263 86.352 336.263 88.368C336.263 89.952 335.867 91.284 335.075 92.364C334.307 93.444 333.311 94.248 332.087 94.776C330.863 95.304 329.603 95.568 328.307 95.568C327.611 95.568 327.035 95.508 326.579 95.388C326.507 95.388 326.471 95.328 326.471 95.208C326.471 95.136 326.483 95.064 326.507 94.992C326.555 94.92 326.603 94.896 326.651 94.92C327.035 95.016 327.467 95.064 327.947 95.064C329.531 95.064 330.863 94.548 331.943 93.516C333.047 92.484 333.599 90.996 333.599 89.052C333.599 87.156 333.083 85.668 332.051 84.588C331.019 83.484 329.699 82.932 328.091 82.932C327.227 82.932 326.603 82.98 326.219 83.076C325.835 83.172 325.559 83.4 325.391 83.76C325.223 84.096 325.139 84.672 325.139 85.488V101.94ZM285.55 149C285.502 149 285.478 148.928 285.478 148.784C285.478 148.64 285.502 148.568 285.55 148.568C286.462 148.568 287.122 148.508 287.53 148.388C287.962 148.268 288.25 148.04 288.394 147.704C288.562 147.344 288.646 146.804 288.646 146.084V129.416C288.646 128.696 288.562 128.168 288.394 127.832C288.25 127.496 287.962 127.268 287.53 127.148C287.122 127.004 286.462 126.932 285.55 126.932C285.502 126.932 285.478 126.86 285.478 126.716C285.478 126.572 285.502 126.5 285.55 126.5H300.022C300.238 126.5 300.346 126.608 300.346 126.824L300.418 131.252C300.418 131.324 300.346 131.372 300.202 131.396C300.082 131.396 300.022 131.36 300.022 131.288C299.95 130.016 299.566 129.032 298.87 128.336C298.174 127.616 297.25 127.256 296.098 127.256H293.902C293.062 127.256 292.438 127.328 292.03 127.472C291.622 127.592 291.334 127.808 291.166 128.12C291.022 128.432 290.95 128.924 290.95 129.596V145.94C290.95 146.588 291.022 147.08 291.166 147.416C291.334 147.728 291.61 147.944 291.994 148.064C292.378 148.184 292.978 148.244 293.794 148.244H296.674C297.826 148.244 298.786 147.836 299.554 147.02C300.322 146.204 300.838 145.076 301.102 143.636C301.102 143.588 301.15 143.564 301.246 143.564C301.318 143.564 301.378 143.588 301.426 143.636C301.498 143.66 301.534 143.684 301.534 143.708C301.318 145.22 301.21 146.804 301.21 148.46C301.21 148.652 301.162 148.796 301.066 148.892C300.994 148.964 300.85 149 300.634 149H285.55ZM298.618 140.612C298.618 139.556 298.354 138.8 297.826 138.344C297.322 137.888 296.47 137.66 295.27 137.66H289.87V136.904H295.378C296.53 136.904 297.346 136.712 297.826 136.328C298.33 135.944 298.582 135.296 298.582 134.384C298.582 134.336 298.654 134.312 298.798 134.312C298.942 134.312 299.014 134.336 299.014 134.384L298.978 137.3C298.978 137.996 298.99 138.524 299.014 138.884L299.05 140.612C299.05 140.66 298.978 140.684 298.834 140.684C298.69 140.684 298.618 140.66 298.618 140.612ZM331.719 149C331.119 149 329.967 147.944 328.263 145.832C326.583 143.696 324.555 140.768 322.179 137.048L324.195 136.4C326.283 139.496 328.023 141.92 329.415 143.672C330.831 145.4 332.079 146.648 333.159 147.416C334.239 148.184 335.295 148.568 336.327 148.568C336.399 148.568 336.435 148.64 336.435 148.784C336.435 148.928 336.399 149 336.327 149H331.719ZM321.927 126.392C323.871 126.392 325.371 126.788 326.427 127.58C327.483 128.372 328.011 129.476 328.011 130.892C328.011 132.068 327.663 133.172 326.967 134.204C326.271 135.236 325.335 136.064 324.159 136.688C323.007 137.288 321.759 137.588 320.415 137.588C319.959 137.588 319.419 137.564 318.795 137.516V146.084C318.795 146.828 318.867 147.368 319.011 147.704C319.155 148.04 319.431 148.268 319.839 148.388C320.271 148.508 320.943 148.568 321.855 148.568C321.927 148.568 321.963 148.64 321.963 148.784C321.963 148.928 321.927 149 321.855 149C321.111 149 320.523 148.988 320.091 148.964L317.607 148.928L315.159 148.964C314.727 148.988 314.115 149 313.323 149C313.275 149 313.251 148.928 313.251 148.784C313.251 148.64 313.275 148.568 313.323 148.568C314.235 148.568 314.907 148.508 315.339 148.388C315.771 148.244 316.071 148.004 316.239 147.668C316.407 147.332 316.491 146.804 316.491 146.084V129.416C316.491 128.696 316.407 128.168 316.239 127.832C316.095 127.496 315.807 127.268 315.375 127.148C314.967 127.004 314.307 126.932 313.395 126.932C313.323 126.932 313.287 126.86 313.287 126.716C313.287 126.572 313.323 126.5 313.395 126.5L315.159 126.536C316.167 126.584 316.983 126.608 317.607 126.608C318.039 126.608 318.447 126.596 318.831 126.572C319.215 126.548 319.551 126.524 319.839 126.5C320.607 126.428 321.303 126.392 321.927 126.392ZM325.563 132.152C325.563 128.672 324.099 126.932 321.171 126.932C320.523 126.932 320.031 126.992 319.695 127.112C319.383 127.208 319.155 127.436 319.011 127.796C318.867 128.132 318.795 128.696 318.795 129.488V136.616C319.371 136.712 320.079 136.76 320.919 136.76C322.575 136.76 323.763 136.412 324.483 135.716C325.203 134.996 325.563 133.808 325.563 132.152ZM305.569 180.328H312.985L313.237 181.084H305.029L305.569 180.328ZM322.525 192.568C322.621 192.568 322.669 192.64 322.669 192.784C322.669 192.928 322.621 193 322.525 193C322.069 193 321.361 192.976 320.401 192.928C319.441 192.88 318.745 192.856 318.313 192.856C317.785 192.856 317.113 192.88 316.297 192.928C315.529 192.976 314.941 193 314.533 193C314.437 193 314.389 192.928 314.389 192.784C314.389 192.64 314.437 192.568 314.533 192.568C315.445 192.568 316.093 192.484 316.477 192.316C316.885 192.148 317.089 191.848 317.089 191.416C317.089 191.056 316.945 190.552 316.657 189.904L308.665 173.02L309.565 171.904L302.581 188.428C302.245 189.244 302.077 189.916 302.077 190.444C302.077 191.86 303.253 192.568 305.605 192.568C305.725 192.568 305.785 192.64 305.785 192.784C305.785 192.928 305.725 193 305.605 193C305.173 193 304.549 192.976 303.733 192.928C302.821 192.88 302.029 192.856 301.357 192.856C300.733 192.856 300.013 192.88 299.197 192.928C298.477 192.976 297.877 193 297.397 193C297.277 193 297.217 192.928 297.217 192.784C297.217 192.64 297.277 192.568 297.397 192.568C298.069 192.568 298.633 192.448 299.089 192.208C299.569 191.944 300.013 191.5 300.421 190.876C300.853 190.228 301.321 189.304 301.825 188.104L309.421 170.176C309.469 170.104 309.553 170.068 309.673 170.068C309.793 170.068 309.865 170.104 309.889 170.176L318.385 188.068C319.201 189.844 319.897 191.044 320.473 191.668C321.049 192.268 321.733 192.568 322.525 192.568Z" fill="black"/>
</g>
<rect x="270.5" y="70.5" width="79" height="79" rx="3.5" stroke="#A16BFF" stroke-opacity="0.4"/>
<rect x="270" y="70" width="80" height="80" rx="4" fill="#F7F6F2"/>
<rect x="270.5" y="70.5" width="79" height="79" rx="3.5" stroke="#A16BFF" stroke-opacity="0.4"/>
<path d="M309.395 125.432C307.163 125.432 305.171 124.916 303.419 123.884C301.691 122.828 300.347 121.412 299.387 119.636C298.451 117.836 297.983 115.88 297.983 113.768C297.983 111.296 298.607 109.184 299.855 107.432C301.103 105.656 302.699 104.324 304.643 103.436C306.611 102.548 308.615 102.104 310.655 102.104C312.935 102.104 314.939 102.644 316.667 103.724C318.395 104.78 319.715 106.184 320.627 107.936C321.563 109.688 322.031 111.548 322.031 113.516C322.031 115.7 321.455 117.704 320.303 119.528C319.151 121.352 317.603 122.792 315.659 123.848C313.739 124.904 311.651 125.432 309.395 125.432ZM310.655 124.676C312.287 124.676 313.751 124.28 315.047 123.488C316.367 122.696 317.399 121.544 318.143 120.032C318.911 118.496 319.295 116.66 319.295 114.524C319.295 112.268 318.875 110.264 318.035 108.512C317.195 106.76 316.007 105.392 314.471 104.408C312.959 103.424 311.183 102.932 309.143 102.932C306.503 102.932 304.439 103.784 302.951 105.488C301.463 107.192 300.719 109.532 300.719 112.508C300.719 114.764 301.139 116.828 301.979 118.7C302.819 120.548 303.995 122.012 305.507 123.092C307.019 124.148 308.735 124.676 310.655 124.676Z" fill="black"/>
<rect x="270" y="150" width="80" height="80" rx="4" fill="#F7F6F2"/>
<rect x="270.5" y="150.5" width="79" height="79" rx="3.5" stroke="#A16BFF" stroke-opacity="0.4"/>
<path d="M307.139 181.94C307.139 182.708 307.235 183.272 307.427 183.632C307.643 183.968 308.039 184.208 308.615 184.352C309.215 184.496 310.151 184.568 311.423 184.568C311.495 184.568 311.531 184.64 311.531 184.784C311.531 184.928 311.495 185 311.423 185C310.439 185 309.671 184.988 309.119 184.964L305.987 184.928L303.575 184.964C303.119 184.988 302.507 185 301.739 185C301.691 185 301.667 184.928 301.667 184.784C301.667 184.64 301.691 184.568 301.739 184.568C302.651 184.568 303.311 184.508 303.719 184.388C304.151 184.268 304.439 184.04 304.583 183.704C304.727 183.344 304.799 182.804 304.799 182.084V165.416C304.799 164.696 304.727 164.168 304.583 163.832C304.439 163.496 304.151 163.268 303.719 163.148C303.311 163.004 302.651 162.932 301.739 162.932C301.691 162.932 301.667 162.86 301.667 162.716C301.667 162.572 301.691 162.5 301.739 162.5L303.539 162.536C304.547 162.584 305.351 162.608 305.951 162.608C306.551 162.608 307.223 162.572 307.967 162.5C308.255 162.5 308.711 162.488 309.335 162.464C309.959 162.416 310.499 162.392 310.955 162.392C313.163 162.392 314.927 162.884 316.247 163.868C317.591 164.852 318.263 166.352 318.263 168.368C318.263 169.952 317.867 171.284 317.075 172.364C316.307 173.444 315.311 174.248 314.087 174.776C312.863 175.304 311.603 175.568 310.307 175.568C309.611 175.568 309.035 175.508 308.579 175.388C308.507 175.388 308.471 175.328 308.471 175.208C308.471 175.136 308.483 175.064 308.507 174.992C308.555 174.92 308.603 174.896 308.651 174.92C309.035 175.016 309.467 175.064 309.947 175.064C311.531 175.064 312.863 174.548 313.943 173.516C315.047 172.484 315.599 170.996 315.599 169.052C315.599 167.156 315.083 165.668 314.051 164.588C313.019 163.484 311.699 162.932 310.091 162.932C309.227 162.932 308.603 162.98 308.219 163.076C307.835 163.172 307.559 163.4 307.391 163.76C307.223 164.096 307.139 164.672 307.139 165.488V181.94Z" fill="black"/>
<rect x="270" y="230" width="80" height="80" rx="4" fill="#F7F6F2"/>
<rect x="270.5" y="230.5" width="79" height="79" rx="3.5" stroke="#A16BFF" stroke-opacity="0.4"/>
<path d="M301.88 265C301.832 265 301.808 264.928 301.808 264.784C301.808 264.64 301.832 264.568 301.88 264.568C302.792 264.568 303.452 264.508 303.86 264.388C304.292 264.268 304.58 264.04 304.724 263.704C304.892 263.344 304.976 262.804 304.976 262.084V245.416C304.976 244.696 304.892 244.168 304.724 243.832C304.58 243.496 304.292 243.268 303.86 243.148C303.452 243.004 302.792 242.932 301.88 242.932C301.832 242.932 301.808 242.86 301.808 242.716C301.808 242.572 301.832 242.5 301.88 242.5H316.352C316.568 242.5 316.676 242.608 316.676 242.824L316.748 247.252C316.748 247.324 316.676 247.372 316.532 247.396C316.412 247.396 316.352 247.36 316.352 247.288C316.28 246.016 315.896 245.032 315.2 244.336C314.504 243.616 313.58 243.256 312.428 243.256H310.232C309.392 243.256 308.768 243.328 308.36 243.472C307.952 243.592 307.664 243.808 307.496 244.12C307.352 244.432 307.28 244.924 307.28 245.596V261.94C307.28 262.588 307.352 263.08 307.496 263.416C307.664 263.728 307.94 263.944 308.324 264.064C308.708 264.184 309.308 264.244 310.124 264.244H313.004C314.156 264.244 315.116 263.836 315.884 263.02C316.652 262.204 317.168 261.076 317.432 259.636C317.432 259.588 317.48 259.564 317.576 259.564C317.648 259.564 317.708 259.588 317.756 259.636C317.828 259.66 317.864 259.684 317.864 259.708C317.648 261.22 317.54 262.804 317.54 264.46C317.54 264.652 317.492 264.796 317.396 264.892C317.324 264.964 317.18 265 316.964 265H301.88ZM314.948 256.612C314.948 255.556 314.684 254.8 314.156 254.344C313.652 253.888 312.8 253.66 311.6 253.66H306.2V252.904H311.708C312.86 252.904 313.676 252.712 314.156 252.328C314.66 251.944 314.912 251.296 314.912 250.384C314.912 250.336 314.984 250.312 315.128 250.312C315.272 250.312 315.344 250.336 315.344 250.384L315.308 253.3C315.308 253.996 315.32 254.524 315.344 254.884L315.38 256.612C315.38 256.66 315.308 256.684 315.164 256.684C315.02 256.684 314.948 256.66 314.948 256.612Z" fill="black"/>
<rect x="270" y="308" width="80" height="80" rx="4" fill="#F08080"/>
<rect x="270.5" y="308.5" width="79" height="79" rx="3.5" stroke="#A16BFF" stroke-opacity="0.4"/>
<path d="M317.833 343C317.233 343 316.081 341.944 314.377 339.832C312.697 337.696 310.669 334.768 308.293 331.048L310.309 330.4C312.397 333.496 314.137 335.92 315.529 337.672C316.945 339.4 318.193 340.648 319.273 341.416C320.353 342.184 321.409 342.568 322.441 342.568C322.513 342.568 322.549 342.64 322.549 342.784C322.549 342.928 322.513 343 322.441 343H317.833ZM308.041 320.392C309.985 320.392 311.485 320.788 312.541 321.58C313.597 322.372 314.125 323.476 314.125 324.892C314.125 326.068 313.777 327.172 313.081 328.204C312.385 329.236 311.449 330.064 310.273 330.688C309.121 331.288 307.873 331.588 306.529 331.588C306.073 331.588 305.533 331.564 304.909 331.516V340.084C304.909 340.828 304.981 341.368 305.125 341.704C305.269 342.04 305.545 342.268 305.953 342.388C306.385 342.508 307.057 342.568 307.969 342.568C308.041 342.568 308.077 342.64 308.077 342.784C308.077 342.928 308.041 343 307.969 343C307.225 343 306.637 342.988 306.205 342.964L303.721 342.928L301.273 342.964C300.841 342.988 300.229 343 299.437 343C299.389 343 299.365 342.928 299.365 342.784C299.365 342.64 299.389 342.568 299.437 342.568C300.349 342.568 301.021 342.508 301.453 342.388C301.885 342.244 302.185 342.004 302.353 341.668C302.521 341.332 302.605 340.804 302.605 340.084V323.416C302.605 322.696 302.521 322.168 302.353 321.832C302.209 321.496 301.921 321.268 301.489 321.148C301.081 321.004 300.421 320.932 299.509 320.932C299.437 320.932 299.401 320.86 299.401 320.716C299.401 320.572 299.437 320.5 299.509 320.5L301.273 320.536C302.281 320.584 303.097 320.608 303.721 320.608C304.153 320.608 304.561 320.596 304.945 320.572C305.329 320.548 305.665 320.524 305.953 320.5C306.721 320.428 307.417 320.392 308.041 320.392ZM311.677 326.152C311.677 322.672 310.213 320.932 307.285 320.932C306.637 320.932 306.145 320.992 305.809 321.112C305.497 321.208 305.269 321.436 305.125 321.796C304.981 322.132 304.909 322.696 304.909 323.488V330.616C305.485 330.712 306.193 330.76 307.033 330.76C308.689 330.76 309.877 330.412 310.597 329.716C311.317 328.996 311.677 327.808 311.677 326.152Z" fill="black"/>
<rect x="270" y="388" width="80" height="80" rx="4" fill="#F08080"/>
<rect x="270.5" y="388.5" width="79" height="79" rx="3.5" stroke="#A16BFF" stroke-opacity="0.4"/>
<path d="M305.569 410.328H312.985L313.237 411.084H305.029L305.569 410.328ZM322.525 422.568C322.621 422.568 322.669 422.64 322.669 422.784C322.669 422.928 322.621 423 322.525 423C322.069 423 321.361 422.976 320.401 422.928C319.441 422.88 318.745 422.856 318.313 422.856C317.785 422.856 317.113 422.88 316.297 422.928C315.529 422.976 314.941 423 314.533 423C314.437 423 314.389 422.928 314.389 422.784C314.389 422.64 314.437 422.568 314.533 422.568C315.445 422.568 316.093 422.484 316.477 422.316C316.885 422.148 317.089 421.848 317.089 421.416C317.089 421.056 316.945 420.552 316.657 419.904L308.665 403.02L309.565 401.904L302.581 418.428C302.245 419.244 302.077 419.916 302.077 420.444C302.077 421.86 303.253 422.568 305.605 422.568C305.725 422.568 305.785 422.64 305.785 422.784C305.785 422.928 305.725 423 305.605 423C305.173 423 304.549 422.976 303.733 422.928C302.821 422.88 302.029 422.856 301.357 422.856C300.733 422.856 300.013 422.88 299.197 422.928C298.477 422.976 297.877 423 297.397 423C297.277 423 297.217 422.928 297.217 422.784C297.217 422.64 297.277 422.568 297.397 422.568C298.069 422.568 298.633 422.448 299.089 422.208C299.569 421.944 300.013 421.5 300.421 420.876C300.853 420.228 301.321 419.304 301.825 418.104L309.421 400.176C309.469 400.104 309.553 400.068 309.673 400.068C309.793 400.068 309.865 400.104 309.889 400.176L318.385 418.068C319.201 419.844 319.897 421.044 320.473 421.668C321.049 422.268 321.733 422.568 322.525 422.568Z" fill="black"/>
<g clip-path="url(#clip2_50_1809)">
<rect x="349" y="70" width="80" height="80" rx="4" fill="black" fill-opacity="0.15"/>
<path d="M378.833 105C378.233 105 377.081 103.944 375.377 101.832C373.697 99.696 371.669 96.768 369.293 93.048L371.309 92.4C373.397 95.496 375.137 97.92 376.529 99.672C377.945 101.4 379.193 102.648 380.273 103.416C381.353 104.184 382.409 104.568 383.441 104.568C383.513 104.568 383.549 104.64 383.549 104.784C383.549 104.928 383.513 105 383.441 105H378.833ZM369.041 82.392C370.985 82.392 372.485 82.788 373.541 83.58C374.597 84.372 375.125 85.476 375.125 86.892C375.125 88.068 374.777 89.172 374.081 90.204C373.385 91.236 372.449 92.064 371.273 92.688C370.121 93.288 368.873 93.588 367.529 93.588C367.073 93.588 366.533 93.564 365.909 93.516V102.084C365.909 102.828 365.981 103.368 366.125 103.704C366.269 104.04 366.545 104.268 366.953 104.388C367.385 104.508 368.057 104.568 368.969 104.568C369.041 104.568 369.077 104.64 369.077 104.784C369.077 104.928 369.041 105 368.969 105C368.225 105 367.637 104.988 367.205 104.964L364.721 104.928L362.273 104.964C361.841 104.988 361.229 105 360.437 105C360.389 105 360.365 104.928 360.365 104.784C360.365 104.64 360.389 104.568 360.437 104.568C361.349 104.568 362.021 104.508 362.453 104.388C362.885 104.244 363.185 104.004 363.353 103.668C363.521 103.332 363.605 102.804 363.605 102.084V85.416C363.605 84.696 363.521 84.168 363.353 83.832C363.209 83.496 362.921 83.268 362.489 83.148C362.081 83.004 361.421 82.932 360.509 82.932C360.437 82.932 360.401 82.86 360.401 82.716C360.401 82.572 360.437 82.5 360.509 82.5L362.273 82.536C363.281 82.584 364.097 82.608 364.721 82.608C365.153 82.608 365.561 82.596 365.945 82.572C366.329 82.548 366.665 82.524 366.953 82.5C367.721 82.428 368.417 82.392 369.041 82.392ZM372.677 88.152C372.677 84.672 371.213 82.932 368.285 82.932C367.637 82.932 367.145 82.992 366.809 83.112C366.497 83.208 366.269 83.436 366.125 83.796C365.981 84.132 365.909 84.696 365.909 85.488V92.616C366.485 92.712 367.193 92.76 368.033 92.76C369.689 92.76 370.877 92.412 371.597 91.716C372.317 90.996 372.677 89.808 372.677 88.152ZM404.725 105.432C402.493 105.432 400.501 104.916 398.749 103.884C397.021 102.828 395.677 101.412 394.717 99.636C393.781 97.836 393.313 95.88 393.313 93.768C393.313 91.296 393.937 89.184 395.185 87.432C396.433 85.656 398.029 84.324 399.973 83.436C401.941 82.548 403.945 82.104 405.985 82.104C408.265 82.104 410.269 82.644 411.997 83.724C413.725 84.78 415.045 86.184 415.957 87.936C416.893 89.688 417.361 91.548 417.361 93.516C417.361 95.7 416.785 97.704 415.633 99.528C414.481 101.352 412.933 102.792 410.989 103.848C409.069 104.904 406.981 105.432 404.725 105.432ZM405.985 104.676C407.617 104.676 409.081 104.28 410.377 103.488C411.697 102.696 412.729 101.544 413.473 100.032C414.241 98.496 414.625 96.66 414.625 94.524C414.625 92.268 414.205 90.264 413.365 88.512C412.525 86.76 411.337 85.392 409.801 84.408C408.289 83.424 406.513 82.932 404.473 82.932C401.833 82.932 399.769 83.784 398.281 85.488C396.793 87.192 396.049 89.532 396.049 92.508C396.049 94.764 396.469 96.828 397.309 98.7C398.149 100.548 399.325 102.012 400.837 103.092C402.349 104.148 404.065 104.676 405.985 104.676ZM367.502 127.148C366.014 127.148 364.886 127.532 364.118 128.3C363.374 129.068 362.834 130.376 362.498 132.224C362.498 132.272 362.426 132.296 362.282 132.296C362.162 132.296 362.102 132.272 362.102 132.224C362.198 131.36 362.306 130.232 362.426 128.84C362.546 127.448 362.606 126.404 362.606 125.708C362.606 125.588 362.666 125.528 362.786 125.528C362.93 125.528 363.002 125.588 363.002 125.708C363.002 126.236 363.65 126.5 364.946 126.5C367.01 126.572 369.422 126.608 372.182 126.608C373.598 126.608 375.098 126.584 376.682 126.536L379.13 126.5C379.994 126.5 380.63 126.44 381.038 126.32C381.47 126.2 381.746 125.96 381.866 125.6C381.89 125.504 381.962 125.456 382.082 125.456C382.202 125.456 382.262 125.504 382.262 125.6C382.19 126.296 382.118 127.352 382.046 128.768C381.974 130.184 381.938 131.336 381.938 132.224C381.938 132.272 381.866 132.296 381.722 132.296C381.578 132.296 381.506 132.272 381.506 132.224C381.434 130.352 381.05 129.044 380.354 128.3C379.658 127.532 378.506 127.148 376.898 127.148C375.818 127.148 375.05 127.196 374.594 127.292C374.138 127.388 373.826 127.592 373.658 127.904C373.49 128.216 373.406 128.744 373.406 129.488V146.084C373.406 146.828 373.49 147.368 373.658 147.704C373.826 148.04 374.15 148.268 374.63 148.388C375.11 148.508 375.866 148.568 376.898 148.568C376.97 148.568 377.006 148.64 377.006 148.784C377.006 148.928 376.97 149 376.898 149C376.106 149 375.47 148.988 374.99 148.964L372.182 148.928L369.482 148.964C369.002 148.988 368.342 149 367.502 149C367.454 149 367.43 148.928 367.43 148.784C367.43 148.64 367.454 148.568 367.502 148.568C368.534 148.568 369.29 148.508 369.77 148.388C370.25 148.268 370.574 148.04 370.742 147.704C370.934 147.344 371.03 146.804 371.03 146.084V129.416C371.03 128.672 370.946 128.156 370.778 127.868C370.61 127.556 370.298 127.364 369.842 127.292C369.386 127.196 368.606 127.148 367.502 127.148ZM400.196 136.328H407.612L407.864 137.084H399.656L400.196 136.328ZM417.152 148.568C417.248 148.568 417.296 148.64 417.296 148.784C417.296 148.928 417.248 149 417.152 149C416.696 149 415.988 148.976 415.028 148.928C414.068 148.88 413.372 148.856 412.94 148.856C412.412 148.856 411.74 148.88 410.924 148.928C410.156 148.976 409.568 149 409.16 149C409.064 149 409.016 148.928 409.016 148.784C409.016 148.64 409.064 148.568 409.16 148.568C410.072 148.568 410.72 148.484 411.104 148.316C411.512 148.148 411.716 147.848 411.716 147.416C411.716 147.056 411.572 146.552 411.284 145.904L403.292 129.02L404.192 127.904L397.208 144.428C396.872 145.244 396.704 145.916 396.704 146.444C396.704 147.86 397.88 148.568 400.232 148.568C400.352 148.568 400.412 148.64 400.412 148.784C400.412 148.928 400.352 149 400.232 149C399.8 149 399.176 148.976 398.36 148.928C397.448 148.88 396.656 148.856 395.984 148.856C395.36 148.856 394.64 148.88 393.824 148.928C393.104 148.976 392.504 149 392.024 149C391.904 149 391.844 148.928 391.844 148.784C391.844 148.64 391.904 148.568 392.024 148.568C392.696 148.568 393.26 148.448 393.716 148.208C394.196 147.944 394.64 147.5 395.048 146.876C395.48 146.228 395.948 145.304 396.452 144.104L404.048 126.176C404.096 126.104 404.18 126.068 404.3 126.068C404.42 126.068 404.492 126.104 404.516 126.176L413.012 144.068C413.828 145.844 414.524 147.044 415.1 147.668C415.676 148.268 416.36 148.568 417.152 148.568ZM385.378 174.712C385.378 175.648 385.606 176.464 386.062 177.16C386.518 177.856 387.07 178.444 387.718 178.924C388.366 179.38 389.278 179.968 390.454 180.688C391.702 181.432 392.674 182.056 393.37 182.56C394.066 183.064 394.654 183.712 395.134 184.504C395.638 185.272 395.89 186.196 395.89 187.276C395.89 188.428 395.602 189.472 395.026 190.408C394.45 191.344 393.598 192.088 392.47 192.64C391.366 193.168 390.034 193.432 388.474 193.432C386.626 193.432 384.934 193.012 383.398 192.172C383.278 192.1 383.194 192.016 383.146 191.92C383.122 191.824 383.098 191.68 383.074 191.488L382.606 186.592C382.582 186.496 382.63 186.436 382.75 186.412C382.894 186.388 382.978 186.424 383.002 186.52C383.362 188.224 384.07 189.712 385.126 190.984C386.182 192.232 387.574 192.856 389.302 192.856C390.502 192.856 391.51 192.532 392.326 191.884C393.166 191.212 393.586 190.156 393.586 188.716C393.586 187.636 393.346 186.7 392.866 185.908C392.386 185.116 391.798 184.468 391.102 183.964C390.43 183.436 389.506 182.824 388.33 182.128C387.178 181.432 386.266 180.832 385.594 180.328C384.946 179.824 384.394 179.188 383.938 178.42C383.482 177.652 383.254 176.752 383.254 175.72C383.254 174.52 383.566 173.5 384.19 172.66C384.838 171.796 385.666 171.16 386.674 170.752C387.706 170.32 388.798 170.104 389.95 170.104C391.366 170.104 392.77 170.392 394.162 170.968C394.522 171.088 394.702 171.292 394.702 171.58L394.954 175.684C394.954 175.804 394.882 175.864 394.738 175.864C394.618 175.864 394.546 175.816 394.522 175.72C394.354 174.472 393.85 173.32 393.01 172.264C392.17 171.184 390.958 170.644 389.374 170.644C388.03 170.644 387.022 171.04 386.35 171.832C385.702 172.6 385.378 173.56 385.378 174.712Z" fill="black"/>
</g>
<rect x="349.5" y="70.5" width="79" height="79" rx="3.5" stroke="#A16BFF" stroke-opacity="0.4"/>
<rect x="349" y="70" width="80" height="80" rx="4" fill="#EDD0B0"/>
<rect x="349.5" y="70.5" width="79" height="79" rx="3.5" stroke="#A16BFF" stroke-opacity="0.4"/>
<path d="M396.833 125C396.233 125 395.081 123.944 393.377 121.832C391.697 119.696 389.669 116.768 387.293 113.048L389.309 112.4C391.397 115.496 393.137 117.92 394.529 119.672C395.945 121.4 397.193 122.648 398.273 123.416C399.353 124.184 400.409 124.568 401.441 124.568C401.513 124.568 401.549 124.64 401.549 124.784C401.549 124.928 401.513 125 401.441 125H396.833ZM387.041 102.392C388.985 102.392 390.485 102.788 391.541 103.58C392.597 104.372 393.125 105.476 393.125 106.892C393.125 108.068 392.777 109.172 392.081 110.204C391.385 111.236 390.449 112.064 389.273 112.688C388.121 113.288 386.873 113.588 385.529 113.588C385.073 113.588 384.533 113.564 383.909 113.516V122.084C383.909 122.828 383.981 123.368 384.125 123.704C384.269 124.04 384.545 124.268 384.953 124.388C385.385 124.508 386.057 124.568 386.969 124.568C387.041 124.568 387.077 124.64 387.077 124.784C387.077 124.928 387.041 125 386.969 125C386.225 125 385.637 124.988 385.205 124.964L382.721 124.928L380.273 124.964C379.841 124.988 379.229 125 378.437 125C378.389 125 378.365 124.928 378.365 124.784C378.365 124.64 378.389 124.568 378.437 124.568C379.349 124.568 380.021 124.508 380.453 124.388C380.885 124.244 381.185 124.004 381.353 123.668C381.521 123.332 381.605 122.804 381.605 122.084V105.416C381.605 104.696 381.521 104.168 381.353 103.832C381.209 103.496 380.921 103.268 380.489 103.148C380.081 103.004 379.421 102.932 378.509 102.932C378.437 102.932 378.401 102.86 378.401 102.716C378.401 102.572 378.437 102.5 378.509 102.5L380.273 102.536C381.281 102.584 382.097 102.608 382.721 102.608C383.153 102.608 383.561 102.596 383.945 102.572C384.329 102.548 384.665 102.524 384.953 102.5C385.721 102.428 386.417 102.392 387.041 102.392ZM390.677 108.152C390.677 104.672 389.213 102.932 386.285 102.932C385.637 102.932 385.145 102.992 384.809 103.112C384.497 103.208 384.269 103.436 384.125 103.796C383.981 104.132 383.909 104.696 383.909 105.488V112.616C384.485 112.712 385.193 112.76 386.033 112.76C387.689 112.76 388.877 112.412 389.597 111.716C390.317 110.996 390.677 109.808 390.677 108.152Z" fill="black"/>
<rect x="349" y="150" width="80" height="80" rx="4" fill="#EDD0B0"/>
<rect x="349.5" y="150.5" width="79" height="79" rx="3.5" stroke="#A16BFF" stroke-opacity="0.4"/>
<path d="M388.395 185.432C386.163 185.432 384.171 184.916 382.419 183.884C380.691 182.828 379.347 181.412 378.387 179.636C377.451 177.836 376.983 175.88 376.983 173.768C376.983 171.296 377.607 169.184 378.855 167.432C380.103 165.656 381.699 164.324 383.643 163.436C385.611 162.548 387.615 162.104 389.655 162.104C391.935 162.104 393.939 162.644 395.667 163.724C397.395 164.78 398.715 166.184 399.627 167.936C400.563 169.688 401.031 171.548 401.031 173.516C401.031 175.7 400.455 177.704 399.303 179.528C398.151 181.352 396.603 182.792 394.659 183.848C392.739 184.904 390.651 185.432 388.395 185.432ZM389.655 184.676C391.287 184.676 392.751 184.28 394.047 183.488C395.367 182.696 396.399 181.544 397.143 180.032C397.911 178.496 398.295 176.66 398.295 174.524C398.295 172.268 397.875 170.264 397.035 168.512C396.195 166.76 395.007 165.392 393.471 164.408C391.959 163.424 390.183 162.932 388.143 162.932C385.503 162.932 383.439 163.784 381.951 165.488C380.463 167.192 379.719 169.532 379.719 172.508C379.719 174.764 380.139 176.828 380.979 178.7C381.819 180.548 382.995 182.012 384.507 183.092C386.019 184.148 387.735 184.676 389.655 184.676Z" fill="black"/>
<rect x="349" y="230" width="80" height="80" rx="4" fill="#F08080"/>
<rect x="349.5" y="230.5" width="79" height="79" rx="3.5" stroke="#A16BFF" stroke-opacity="0.4"/>
<path d="M384.36 243.148C382.872 243.148 381.744 243.532 380.976 244.3C380.232 245.068 379.692 246.376 379.356 248.224C379.356 248.272 379.284 248.296 379.14 248.296C379.02 248.296 378.96 248.272 378.96 248.224C379.056 247.36 379.164 246.232 379.284 244.84C379.404 243.448 379.464 242.404 379.464 241.708C379.464 241.588 379.524 241.528 379.644 241.528C379.788 241.528 379.86 241.588 379.86 241.708C379.86 242.236 380.508 242.5 381.804 242.5C383.868 242.572 386.28 242.608 389.04 242.608C390.456 242.608 391.956 242.584 393.54 242.536L395.988 242.5C396.852 242.5 397.488 242.44 397.896 242.32C398.328 242.2 398.604 241.96 398.724 241.6C398.748 241.504 398.82 241.456 398.94 241.456C399.06 241.456 399.12 241.504 399.12 241.6C399.048 242.296 398.976 243.352 398.904 244.768C398.832 246.184 398.796 247.336 398.796 248.224C398.796 248.272 398.724 248.296 398.58 248.296C398.436 248.296 398.364 248.272 398.364 248.224C398.292 246.352 397.908 245.044 397.212 244.3C396.516 243.532 395.364 243.148 393.756 243.148C392.676 243.148 391.908 243.196 391.452 243.292C390.996 243.388 390.684 243.592 390.516 243.904C390.348 244.216 390.264 244.744 390.264 245.488V262.084C390.264 262.828 390.348 263.368 390.516 263.704C390.684 264.04 391.008 264.268 391.488 264.388C391.968 264.508 392.724 264.568 393.756 264.568C393.828 264.568 393.864 264.64 393.864 264.784C393.864 264.928 393.828 265 393.756 265C392.964 265 392.328 264.988 391.848 264.964L389.04 264.928L386.34 264.964C385.86 264.988 385.2 265 384.36 265C384.312 265 384.288 264.928 384.288 264.784C384.288 264.64 384.312 264.568 384.36 264.568C385.392 264.568 386.148 264.508 386.628 264.388C387.108 264.268 387.432 264.04 387.6 263.704C387.792 263.344 387.888 262.804 387.888 262.084V245.416C387.888 244.672 387.804 244.156 387.636 243.868C387.468 243.556 387.156 243.364 386.7 243.292C386.244 243.196 385.464 243.148 384.36 243.148Z" fill="black"/>
<rect x="349" y="308" width="80" height="80" rx="4" fill="#F08080"/>
<rect x="349.5" y="308.5" width="79" height="79" rx="3.5" stroke="#A16BFF" stroke-opacity="0.4"/>
<path d="M384.569 330.328H391.985L392.237 331.084H384.029L384.569 330.328ZM401.525 342.568C401.621 342.568 401.669 342.64 401.669 342.784C401.669 342.928 401.621 343 401.525 343C401.069 343 400.361 342.976 399.401 342.928C398.441 342.88 397.745 342.856 397.313 342.856C396.785 342.856 396.113 342.88 395.297 342.928C394.529 342.976 393.941 343 393.533 343C393.437 343 393.389 342.928 393.389 342.784C393.389 342.64 393.437 342.568 393.533 342.568C394.445 342.568 395.093 342.484 395.477 342.316C395.885 342.148 396.089 341.848 396.089 341.416C396.089 341.056 395.945 340.552 395.657 339.904L387.665 323.02L388.565 321.904L381.581 338.428C381.245 339.244 381.077 339.916 381.077 340.444C381.077 341.86 382.253 342.568 384.605 342.568C384.725 342.568 384.785 342.64 384.785 342.784C384.785 342.928 384.725 343 384.605 343C384.173 343 383.549 342.976 382.733 342.928C381.821 342.88 381.029 342.856 380.357 342.856C379.733 342.856 379.013 342.88 378.197 342.928C377.477 342.976 376.877 343 376.397 343C376.277 343 376.217 342.928 376.217 342.784C376.217 342.64 376.277 342.568 376.397 342.568C377.069 342.568 377.633 342.448 378.089 342.208C378.569 341.944 379.013 341.5 379.421 340.876C379.853 340.228 380.321 339.304 380.825 338.104L388.421 320.176C388.469 320.104 388.553 320.068 388.673 320.068C388.793 320.068 388.865 320.104 388.889 320.176L397.385 338.068C398.201 339.844 398.897 341.044 399.473 341.668C400.049 342.268 400.733 342.568 401.525 342.568Z" fill="black"/>
<rect x="349" y="388" width="80" height="80" rx="4" fill="#F08080"/>
<rect x="349.5" y="388.5" width="79" height="79" rx="3.5" stroke="#A16BFF" stroke-opacity="0.4"/>
<path d="M385.378 404.712C385.378 405.648 385.606 406.464 386.062 407.16C386.518 407.856 387.07 408.444 387.718 408.924C388.366 409.38 389.278 409.968 390.454 410.688C391.702 411.432 392.674 412.056 393.37 412.56C394.066 413.064 394.654 413.712 395.134 414.504C395.638 415.272 395.89 416.196 395.89 417.276C395.89 418.428 395.602 419.472 395.026 420.408C394.45 421.344 393.598 422.088 392.47 422.64C391.366 423.168 390.034 423.432 388.474 423.432C386.626 423.432 384.934 423.012 383.398 422.172C383.278 422.1 383.194 422.016 383.146 421.92C383.122 421.824 383.098 421.68 383.074 421.488L382.606 416.592C382.582 416.496 382.63 416.436 382.75 416.412C382.894 416.388 382.978 416.424 383.002 416.52C383.362 418.224 384.07 419.712 385.126 420.984C386.182 422.232 387.574 422.856 389.302 422.856C390.502 422.856 391.51 422.532 392.326 421.884C393.166 421.212 393.586 420.156 393.586 418.716C393.586 417.636 393.346 416.7 392.866 415.908C392.386 415.116 391.798 414.468 391.102 413.964C390.43 413.436 389.506 412.824 388.33 412.128C387.178 411.432 386.266 410.832 385.594 410.328C384.946 409.824 384.394 409.188 383.938 408.42C383.482 407.652 383.254 406.752 383.254 405.72C383.254 404.52 383.566 403.5 384.19 402.66C384.838 401.796 385.666 401.16 386.674 400.752C387.706 400.32 388.798 400.104 389.95 400.104C391.366 400.104 392.77 400.392 394.162 400.968C394.522 401.088 394.702 401.292 394.702 401.58L394.954 405.684C394.954 405.804 394.882 405.864 394.738 405.864C394.618 405.864 394.546 405.816 394.522 405.72C394.354 404.472 393.85 403.32 393.01 402.264C392.17 401.184 390.958 400.644 389.374 400.644C388.03 400.644 387.022 401.04 386.35 401.832C385.702 402.6 385.378 403.56 385.378 404.712Z" fill="black"/>
<path d="M477.112 90.065C477.112 90.2997 477.141 90.472 477.2 90.582C477.266 90.6847 477.387 90.758 477.563 90.802C477.746 90.846 478.032 90.868 478.421 90.868C478.443 90.868 478.454 90.89 478.454 90.934C478.454 90.978 478.443 91 478.421 91C478.12 91 477.886 90.9963 477.717 90.989L476.76 90.978L476.023 90.989C475.884 90.9963 475.697 91 475.462 91C475.447 91 475.44 90.978 475.44 90.934C475.44 90.89 475.447 90.868 475.462 90.868C475.741 90.868 475.942 90.8497 476.067 90.813C476.199 90.7763 476.287 90.7067 476.331 90.604C476.375 90.494 476.397 90.329 476.397 90.109V85.016C476.397 84.796 476.375 84.6347 476.331 84.532C476.287 84.4293 476.199 84.3597 476.067 84.323C475.942 84.279 475.741 84.257 475.462 84.257C475.447 84.257 475.44 84.235 475.44 84.191C475.44 84.147 475.447 84.125 475.462 84.125L476.012 84.136C476.32 84.1507 476.566 84.158 476.749 84.158C476.932 84.158 477.138 84.147 477.365 84.125C477.453 84.125 477.592 84.1213 477.783 84.114C477.974 84.0993 478.139 84.092 478.278 84.092C478.953 84.092 479.492 84.2423 479.895 84.543C480.306 84.8437 480.511 85.302 480.511 85.918C480.511 86.402 480.39 86.809 480.148 87.139C479.913 87.469 479.609 87.7147 479.235 87.876C478.861 88.0373 478.476 88.118 478.08 88.118C477.867 88.118 477.691 88.0997 477.552 88.063C477.53 88.063 477.519 88.0447 477.519 88.008C477.519 87.986 477.523 87.964 477.53 87.942C477.545 87.92 477.559 87.9127 477.574 87.92C477.691 87.9493 477.823 87.964 477.97 87.964C478.454 87.964 478.861 87.8063 479.191 87.491C479.528 87.1757 479.697 86.721 479.697 86.127C479.697 85.5477 479.539 85.093 479.224 84.763C478.909 84.4257 478.505 84.257 478.014 84.257C477.75 84.257 477.559 84.2717 477.442 84.301C477.325 84.3303 477.24 84.4 477.189 84.51C477.138 84.6127 477.112 84.7887 477.112 85.038V90.065ZM483.008 90.065C483.008 90.2777 483.03 90.4317 483.074 90.527C483.118 90.6223 483.198 90.6883 483.316 90.725C483.433 90.7543 483.624 90.769 483.888 90.769H485.087C485.505 90.769 485.838 90.6407 486.088 90.384C486.337 90.1273 486.502 89.7717 486.583 89.317C486.583 89.295 486.601 89.2877 486.638 89.295C486.682 89.295 486.704 89.306 486.704 89.328C486.638 89.9367 486.605 90.439 486.605 90.835C486.605 90.8937 486.594 90.9377 486.572 90.967C486.55 90.989 486.506 91 486.44 91H481.358C481.343 91 481.336 90.978 481.336 90.934C481.336 90.89 481.343 90.868 481.358 90.868C481.636 90.868 481.838 90.8497 481.963 90.813C482.095 90.7763 482.183 90.7067 482.227 90.604C482.271 90.494 482.293 90.329 482.293 90.109V85.016C482.293 84.796 482.271 84.6347 482.227 84.532C482.183 84.4293 482.095 84.3597 481.963 84.323C481.838 84.279 481.636 84.257 481.358 84.257C481.343 84.257 481.336 84.235 481.336 84.191C481.336 84.147 481.343 84.125 481.358 84.125L481.897 84.136C482.205 84.1507 482.454 84.158 482.645 84.158C482.85 84.158 483.107 84.1507 483.415 84.136L483.943 84.125C483.965 84.125 483.976 84.147 483.976 84.191C483.976 84.235 483.965 84.257 483.943 84.257C483.671 84.257 483.47 84.279 483.338 84.323C483.206 84.3597 483.118 84.433 483.074 84.543C483.03 84.6457 483.008 84.807 483.008 85.027V90.065ZM489.082 87.755H491.997L492.074 87.975H488.972L489.082 87.755ZM494.527 90.868C494.556 90.868 494.571 90.89 494.571 90.934C494.571 90.978 494.556 91 494.527 91C494.388 91 494.171 90.9927 493.878 90.978C493.585 90.9633 493.372 90.956 493.24 90.956C493.079 90.956 492.873 90.9633 492.624 90.978C492.389 90.9927 492.21 91 492.085 91C492.056 91 492.041 90.978 492.041 90.934C492.041 90.89 492.056 90.868 492.085 90.868C492.364 90.868 492.562 90.8423 492.679 90.791C492.804 90.7397 492.866 90.648 492.866 90.516C492.866 90.406 492.822 90.252 492.734 90.054L490.292 84.895L490.567 84.554L488.433 89.603C488.33 89.8523 488.279 90.0577 488.279 90.219C488.279 90.6517 488.638 90.868 489.357 90.868C489.394 90.868 489.412 90.89 489.412 90.934C489.412 90.978 489.394 91 489.357 91C489.225 91 489.034 90.9927 488.785 90.978C488.506 90.9633 488.264 90.956 488.059 90.956C487.868 90.956 487.648 90.9633 487.399 90.978C487.179 90.9927 486.996 91 486.849 91C486.812 91 486.794 90.978 486.794 90.934C486.794 90.89 486.812 90.868 486.849 90.868C487.054 90.868 487.227 90.8313 487.366 90.758C487.513 90.6773 487.648 90.5417 487.773 90.351C487.905 90.153 488.048 89.8707 488.202 89.504L490.523 84.026C490.538 84.004 490.563 83.993 490.6 83.993C490.637 83.993 490.659 84.004 490.666 84.026L493.262 89.493C493.511 90.0357 493.724 90.4023 493.9 90.593C494.076 90.7763 494.285 90.868 494.527 90.868ZM498.954 84.004C499.416 84.004 499.804 84.037 500.12 84.103C500.435 84.169 500.75 84.2827 501.066 84.444C501.117 84.4733 501.146 84.499 501.154 84.521C501.161 84.543 501.172 84.598 501.187 84.686L501.319 85.995C501.319 86.017 501.297 86.0317 501.253 86.039C501.216 86.039 501.194 86.028 501.187 86.006C500.849 84.7813 500.094 84.169 498.921 84.169C498.305 84.169 497.758 84.3047 497.282 84.576C496.812 84.8473 496.449 85.236 496.193 85.742C495.936 86.2407 495.808 86.8237 495.808 87.491C495.808 88.129 495.951 88.7157 496.237 89.251C496.523 89.779 496.904 90.197 497.381 90.505C497.865 90.813 498.389 90.967 498.954 90.967C499.555 90.967 500.043 90.8203 500.417 90.527C500.791 90.2337 501.077 89.7863 501.275 89.185C501.275 89.1703 501.293 89.163 501.33 89.163C501.381 89.163 501.407 89.174 501.407 89.196L501.297 90.406C501.289 90.494 501.278 90.549 501.264 90.571C501.249 90.593 501.22 90.6187 501.176 90.648C500.794 90.8313 500.435 90.9597 500.098 91.033C499.768 91.1063 499.386 91.143 498.954 91.143C498.184 91.143 497.494 90.9927 496.886 90.692C496.284 90.384 495.815 89.955 495.478 89.405C495.14 88.855 494.972 88.2243 494.972 87.513C494.972 86.8237 495.144 86.215 495.489 85.687C495.833 85.1517 496.306 84.7373 496.908 84.444C497.516 84.1507 498.198 84.004 498.954 84.004ZM502.447 91C502.432 91 502.425 90.978 502.425 90.934C502.425 90.89 502.432 90.868 502.447 90.868C502.725 90.868 502.927 90.8497 503.052 90.813C503.184 90.7763 503.272 90.7067 503.316 90.604C503.367 90.494 503.393 90.329 503.393 90.109V85.016C503.393 84.796 503.367 84.6347 503.316 84.532C503.272 84.4293 503.184 84.3597 503.052 84.323C502.927 84.279 502.725 84.257 502.447 84.257C502.432 84.257 502.425 84.235 502.425 84.191C502.425 84.147 502.432 84.125 502.447 84.125H506.869C506.935 84.125 506.968 84.158 506.968 84.224L506.99 85.577C506.99 85.599 506.968 85.6137 506.924 85.621C506.887 85.621 506.869 85.61 506.869 85.588C506.847 85.1993 506.729 84.8987 506.517 84.686C506.304 84.466 506.022 84.356 505.67 84.356H504.999C504.742 84.356 504.551 84.378 504.427 84.422C504.302 84.4587 504.214 84.5247 504.163 84.62C504.119 84.7153 504.097 84.8657 504.097 85.071V90.065C504.097 90.263 504.119 90.4133 504.163 90.516C504.214 90.6113 504.298 90.6773 504.416 90.714C504.533 90.7507 504.716 90.769 504.966 90.769H505.846C506.198 90.769 506.491 90.6443 506.726 90.395C506.96 90.1457 507.118 89.801 507.199 89.361C507.199 89.3463 507.213 89.339 507.243 89.339C507.265 89.339 507.283 89.3463 507.298 89.361C507.32 89.3683 507.331 89.3757 507.331 89.383C507.265 89.845 507.232 90.329 507.232 90.835C507.232 90.8937 507.217 90.9377 507.188 90.967C507.166 90.989 507.122 91 507.056 91H502.447ZM506.44 88.437C506.44 88.1143 506.359 87.8833 506.198 87.744C506.044 87.6047 505.783 87.535 505.417 87.535H503.767V87.304H505.45C505.802 87.304 506.051 87.2453 506.198 87.128C506.352 87.0107 506.429 86.8127 506.429 86.534C506.429 86.5193 506.451 86.512 506.495 86.512C506.539 86.512 506.561 86.5193 506.561 86.534L506.55 87.425C506.55 87.6377 506.553 87.799 506.561 87.909L506.572 88.437C506.572 88.4517 506.55 88.459 506.506 88.459C506.462 88.459 506.44 88.4517 506.44 88.437ZM516.741 85.038C516.741 84.818 516.715 84.6567 516.664 84.554C516.62 84.444 516.532 84.367 516.4 84.323C516.268 84.279 516.059 84.257 515.773 84.257C515.751 84.257 515.74 84.235 515.74 84.191C515.74 84.147 515.751 84.125 515.773 84.125L516.301 84.136C516.624 84.1507 516.891 84.158 517.104 84.158C517.302 84.158 517.555 84.1507 517.863 84.136L518.402 84.125C518.424 84.125 518.435 84.147 518.435 84.191C518.435 84.235 518.424 84.257 518.402 84.257C518.123 84.257 517.918 84.279 517.786 84.323C517.654 84.3597 517.562 84.4293 517.511 84.532C517.467 84.6347 517.445 84.796 517.445 85.016V90.109C517.445 90.329 517.467 90.494 517.511 90.604C517.562 90.7067 517.654 90.7763 517.786 90.813C517.918 90.8497 518.123 90.868 518.402 90.868C518.424 90.868 518.435 90.89 518.435 90.934C518.435 90.978 518.424 91 518.402 91C518.175 91 517.995 90.9963 517.863 90.989L517.104 90.978L516.301 90.989C516.169 90.9963 515.993 91 515.773 91C515.751 91 515.74 90.978 515.74 90.934C515.74 90.89 515.751 90.868 515.773 90.868C516.059 90.868 516.268 90.8497 516.4 90.813C516.532 90.7763 516.62 90.7067 516.664 90.604C516.715 90.494 516.741 90.329 516.741 90.109V85.038ZM512.132 87.304H517.049V87.535H512.132V87.304ZM511.813 85.016C511.813 84.796 511.787 84.6347 511.736 84.532C511.692 84.4293 511.604 84.3597 511.472 84.323C511.34 84.279 511.135 84.257 510.856 84.257C510.841 84.257 510.834 84.235 510.834 84.191C510.834 84.147 510.841 84.125 510.856 84.125L511.417 84.136C511.725 84.1507 511.971 84.158 512.154 84.158C512.367 84.158 512.634 84.1507 512.957 84.136L513.485 84.125C513.5 84.125 513.507 84.147 513.507 84.191C513.507 84.235 513.5 84.257 513.485 84.257C513.206 84.257 512.997 84.279 512.858 84.323C512.726 84.367 512.634 84.444 512.583 84.554C512.539 84.6567 512.517 84.818 512.517 85.038V90.109C512.517 90.329 512.539 90.494 512.583 90.604C512.634 90.7067 512.726 90.7763 512.858 90.813C512.99 90.8497 513.199 90.868 513.485 90.868C513.5 90.868 513.507 90.89 513.507 90.934C513.507 90.978 513.5 91 513.485 91C513.258 91 513.078 90.9963 512.946 90.989L512.154 90.978L511.395 90.989C511.263 90.9963 511.08 91 510.845 91C510.83 91 510.823 90.978 510.823 90.934C510.823 90.89 510.83 90.868 510.845 90.868C511.124 90.868 511.329 90.8497 511.461 90.813C511.6 90.7763 511.692 90.7067 511.736 90.604C511.787 90.494 511.813 90.329 511.813 90.109V85.016ZM522.833 91.132C522.151 91.132 521.542 90.9743 521.007 90.659C520.479 90.3363 520.068 89.9037 519.775 89.361C519.489 88.811 519.346 88.2133 519.346 87.568C519.346 86.8127 519.536 86.1673 519.918 85.632C520.299 85.0893 520.787 84.6823 521.381 84.411C521.982 84.1397 522.594 84.004 523.218 84.004C523.914 84.004 524.527 84.169 525.055 84.499C525.583 84.8217 525.986 85.2507 526.265 85.786C526.551 86.3213 526.694 86.8897 526.694 87.491C526.694 88.1583 526.518 88.7707 526.166 89.328C525.814 89.8853 525.341 90.3253 524.747 90.648C524.16 90.9707 523.522 91.132 522.833 91.132ZM523.218 90.901C523.716 90.901 524.164 90.78 524.56 90.538C524.963 90.296 525.278 89.944 525.506 89.482C525.74 89.0127 525.858 88.4517 525.858 87.799C525.858 87.1097 525.729 86.4973 525.473 85.962C525.216 85.4267 524.853 85.0087 524.384 84.708C523.922 84.4073 523.379 84.257 522.756 84.257C521.949 84.257 521.318 84.5173 520.864 85.038C520.409 85.5587 520.182 86.2737 520.182 87.183C520.182 87.8723 520.31 88.503 520.567 89.075C520.823 89.6397 521.183 90.087 521.645 90.417C522.107 90.7397 522.631 90.901 523.218 90.901ZM529.264 90.065C529.264 90.2777 529.286 90.4317 529.33 90.527C529.374 90.6223 529.454 90.6883 529.572 90.725C529.689 90.7543 529.88 90.769 530.144 90.769H531.343C531.761 90.769 532.094 90.6407 532.344 90.384C532.593 90.1273 532.758 89.7717 532.839 89.317C532.839 89.295 532.857 89.2877 532.894 89.295C532.938 89.295 532.96 89.306 532.96 89.328C532.894 89.9367 532.861 90.439 532.861 90.835C532.861 90.8937 532.85 90.9377 532.828 90.967C532.806 90.989 532.762 91 532.696 91H527.614C527.599 91 527.592 90.978 527.592 90.934C527.592 90.89 527.599 90.868 527.614 90.868C527.892 90.868 528.094 90.8497 528.219 90.813C528.351 90.7763 528.439 90.7067 528.483 90.604C528.527 90.494 528.549 90.329 528.549 90.109V85.016C528.549 84.796 528.527 84.6347 528.483 84.532C528.439 84.4293 528.351 84.3597 528.219 84.323C528.094 84.279 527.892 84.257 527.614 84.257C527.599 84.257 527.592 84.235 527.592 84.191C527.592 84.147 527.599 84.125 527.614 84.125L528.153 84.136C528.461 84.1507 528.71 84.158 528.901 84.158C529.106 84.158 529.363 84.1507 529.671 84.136L530.199 84.125C530.221 84.125 530.232 84.147 530.232 84.191C530.232 84.235 530.221 84.257 530.199 84.257C529.927 84.257 529.726 84.279 529.594 84.323C529.462 84.3597 529.374 84.433 529.33 84.543C529.286 84.6457 529.264 84.807 529.264 85.027V90.065ZM536.427 91.044C536.214 91.044 535.968 91.033 535.69 91.011C535.587 91.0037 535.455 90.9963 535.294 90.989C535.14 90.9817 534.967 90.978 534.777 90.978L534.029 90.989C533.897 90.9963 533.713 91 533.479 91C533.464 91 533.457 90.978 533.457 90.934C533.457 90.89 533.464 90.868 533.479 90.868C533.757 90.868 533.959 90.8497 534.084 90.813C534.216 90.7763 534.304 90.7067 534.348 90.604C534.399 90.494 534.425 90.329 534.425 90.109V85.016C534.425 84.796 534.403 84.6347 534.359 84.532C534.315 84.4293 534.227 84.3597 534.095 84.323C533.97 84.279 533.768 84.257 533.49 84.257C533.475 84.257 533.468 84.235 533.468 84.191C533.468 84.147 533.475 84.125 533.49 84.125L534.04 84.136C534.348 84.1507 534.593 84.158 534.777 84.158C535.055 84.158 535.33 84.147 535.602 84.125C535.924 84.1103 536.148 84.103 536.273 84.103C537.035 84.103 537.71 84.2497 538.297 84.543C538.883 84.8363 539.338 85.236 539.661 85.742C539.991 86.248 540.156 86.8163 540.156 87.447C540.156 88.1583 539.987 88.789 539.65 89.339C539.32 89.8817 538.869 90.3033 538.297 90.604C537.725 90.8973 537.101 91.044 536.427 91.044ZM536.317 90.879C536.903 90.879 537.424 90.758 537.879 90.516C538.333 90.2667 538.685 89.9037 538.935 89.427C539.191 88.943 539.32 88.3637 539.32 87.689C539.32 87.051 539.199 86.4717 538.957 85.951C538.715 85.4303 538.37 85.0197 537.923 84.719C537.475 84.4183 536.958 84.268 536.372 84.268C536.056 84.268 535.811 84.2863 535.635 84.323C535.466 84.3597 535.341 84.433 535.261 84.543C535.18 84.653 535.14 84.818 535.14 85.038V89.988C535.14 90.208 535.169 90.3803 535.228 90.505C535.294 90.6297 535.411 90.725 535.58 90.791C535.756 90.8497 536.001 90.879 536.317 90.879ZM541.172 91C541.158 91 541.15 90.978 541.15 90.934C541.15 90.89 541.158 90.868 541.172 90.868C541.451 90.868 541.653 90.8497 541.777 90.813C541.909 90.7763 541.997 90.7067 542.041 90.604C542.093 90.494 542.118 90.329 542.118 90.109V85.016C542.118 84.796 542.093 84.6347 542.041 84.532C541.997 84.4293 541.909 84.3597 541.777 84.323C541.653 84.279 541.451 84.257 541.172 84.257C541.158 84.257 541.15 84.235 541.15 84.191C541.15 84.147 541.158 84.125 541.172 84.125H545.594C545.66 84.125 545.693 84.158 545.693 84.224L545.715 85.577C545.715 85.599 545.693 85.6137 545.649 85.621C545.613 85.621 545.594 85.61 545.594 85.588C545.572 85.1993 545.455 84.8987 545.242 84.686C545.03 84.466 544.747 84.356 544.395 84.356H543.724C543.468 84.356 543.277 84.378 543.152 84.422C543.028 84.4587 542.94 84.5247 542.888 84.62C542.844 84.7153 542.822 84.8657 542.822 85.071V90.065C542.822 90.263 542.844 90.4133 542.888 90.516C542.94 90.6113 543.024 90.6773 543.141 90.714C543.259 90.7507 543.442 90.769 543.691 90.769H544.571C544.923 90.769 545.217 90.6443 545.451 90.395C545.686 90.1457 545.844 89.801 545.924 89.361C545.924 89.3463 545.939 89.339 545.968 89.339C545.99 89.339 546.009 89.3463 546.023 89.361C546.045 89.3683 546.056 89.3757 546.056 89.383C545.99 89.845 545.957 90.329 545.957 90.835C545.957 90.8937 545.943 90.9377 545.913 90.967C545.891 90.989 545.847 91 545.781 91H541.172ZM545.165 88.437C545.165 88.1143 545.085 87.8833 544.923 87.744C544.769 87.6047 544.509 87.535 544.142 87.535H542.492V87.304H544.175C544.527 87.304 544.777 87.2453 544.923 87.128C545.077 87.0107 545.154 86.8127 545.154 86.534C545.154 86.5193 545.176 86.512 545.22 86.512C545.264 86.512 545.286 86.5193 545.286 86.534L545.275 87.425C545.275 87.6377 545.279 87.799 545.286 87.909L545.297 88.437C545.297 88.4517 545.275 88.459 545.231 88.459C545.187 88.459 545.165 88.4517 545.165 88.437ZM552.701 91C552.518 91 552.166 90.6883 551.645 90.065C551.132 89.4343 550.512 88.569 549.786 87.469L550.402 87.282C551.04 88.1987 551.572 88.9137 551.997 89.427C552.43 89.933 552.811 90.2997 553.141 90.527C553.471 90.7543 553.794 90.868 554.109 90.868C554.131 90.868 554.142 90.89 554.142 90.934C554.142 90.978 554.131 91 554.109 91H552.701ZM549.929 84.092C550.509 84.092 550.956 84.224 551.271 84.488C551.587 84.752 551.744 85.104 551.744 85.544C551.744 85.9327 551.631 86.2883 551.403 86.611C551.176 86.9263 550.868 87.1793 550.479 87.37C550.098 87.5533 549.687 87.645 549.247 87.645C549.203 87.645 549.038 87.634 548.752 87.612V90.109C548.752 90.3363 548.774 90.5013 548.818 90.604C548.862 90.7067 548.947 90.7763 549.071 90.813C549.203 90.8497 549.409 90.868 549.687 90.868C549.709 90.868 549.72 90.89 549.72 90.934C549.72 90.978 549.709 91 549.687 91C549.46 91 549.28 90.9963 549.148 90.989L548.389 90.978L547.641 90.989C547.509 90.9963 547.322 91 547.08 91C547.066 91 547.058 90.978 547.058 90.934C547.058 90.89 547.066 90.868 547.08 90.868C547.359 90.868 547.564 90.8497 547.696 90.813C547.828 90.769 547.92 90.6957 547.971 90.593C548.023 90.4903 548.048 90.329 548.048 90.109V85.016C548.048 84.796 548.023 84.6347 547.971 84.532C547.927 84.4293 547.839 84.3597 547.707 84.323C547.583 84.279 547.381 84.257 547.102 84.257C547.08 84.257 547.069 84.235 547.069 84.191C547.069 84.147 547.08 84.125 547.102 84.125L547.641 84.136C547.949 84.1507 548.199 84.158 548.389 84.158C548.551 84.158 548.701 84.1543 548.84 84.147C548.98 84.1397 549.097 84.1323 549.192 84.125C549.471 84.103 549.717 84.092 549.929 84.092ZM550.996 85.863C550.996 85.291 550.868 84.8803 550.611 84.631C550.362 84.3817 549.995 84.257 549.511 84.257C549.225 84.257 549.027 84.3083 548.917 84.411C548.807 84.5137 548.752 84.7227 548.752 85.038V87.348C548.928 87.3773 549.145 87.392 549.401 87.392C549.973 87.392 550.38 87.2673 550.622 87.018C550.872 86.7687 550.996 86.3837 550.996 85.863Z" fill="black"/>
<defs>
<clipPath id="clip0_50_1809">
<rect x="190" y="70" width="80" height="80" rx="4" fill="white"/>
</clipPath>
<clipPath id="clip1_50_1809">
<rect x="270" y="70" width="80" height="80" rx="4" fill="white"/>
</clipPath>
<clipPath id="clip2_50_1809">
<rect x="349" y="70" width="80" height="80" rx="4" fill="white"/>
</clipPath>
</defs>
</svg>
