<?xml version="1.0" encoding="UTF-8"?>
<!-- AetherFlow Genome Scaffold v3 — App Wireframe (header+sidebar+main) -->
<svg xmlns="http://www.w3.org/2000/svg" width="1440" height="3932">
  <defs><style>text { font-family: -apple-system, Helvetica, Arial, sans-serif; }</style></defs>
<!-- Phase: Brainstorm -->
<g id="n0_brainstorm" class="af-phase" data-genome-id="n0_brainstorm" data-name="Brainstorm">
<rect x="0" y="0" width="1440" height="900" fill="#f7f6f2"/>
<rect x="0" y="0" width="1440" height="48" fill="#e8e7e3" stroke="#d5d4d0" stroke-width="1"/>
<rect x="40" y="10" width="28" height="28" fill="#3d3d3c" rx="4"/>
<text x="48" y="29" font-size="11" fill="#ffffff" text-anchor="start" font-weight="700" font-family="-apple-system, Helvetica, Arial, sans-serif">AF</text>
<rect x="84" y="13" width="51" height="22" fill="#3d3d3c" rx="11"/>
<text x="109" y="28" font-size="9" fill="#ffffff" text-anchor="middle" font-weight="600" font-family="-apple-system, Helvetica, Arial, sans-serif">BRS</text>
<rect x="143" y="13" width="51" height="22" fill="none" rx="11"/>
<text x="168" y="28" font-size="9" fill="#9d9c98" text-anchor="middle" font-weight="600" font-family="-apple-system, Helvetica, Arial, sans-serif">BKS</text>
<rect x="202" y="13" width="51" height="22" fill="none" rx="11"/>
<text x="227" y="28" font-size="9" fill="#9d9c98" text-anchor="middle" font-weight="600" font-family="-apple-system, Helvetica, Arial, sans-serif">FRD</text>
<rect x="261" y="13" width="51" height="22" fill="none" rx="11"/>
<text x="286" y="28" font-size="9" fill="#9d9c98" text-anchor="middle" font-weight="600" font-family="-apple-system, Helvetica, Arial, sans-serif">DPL</text>
<line x1="324" y1="14" x2="324" y2="34" stroke="#d5d4d0" stroke-width="1"/>
<circle cx="1384" cy="24" r="14" fill="#d5d4d0" stroke="#b5b4b0" stroke-width="1"/>
<text x="1384" y="28" font-size="7" fill="#3d3d3c" text-anchor="middle" font-weight="normal" font-family="-apple-system, Helvetica, Arial, sans-serif">FJD</text>
<rect x="40" y="48" width="188" height="852" fill="#f0efeb" stroke="#d5d4d0" stroke-width="1"/>
<text x="52" y="68" font-size="7" fill="#9d9c98" text-anchor="start" font-weight="600" font-family="-apple-system, Helvetica, Arial, sans-serif">BRAINSTORM</text>
<rect x="46" y="78" width="176" height="30" fill="#a8c5fc" rx="4"/>
<rect x="52" y="87" width="14" height="14" fill="#3d3d3c" rx="3"/>
<text x="72" y="99" font-size="9" fill="#3d3d3c" text-anchor="start" font-weight="normal" font-family="-apple-system, Helvetica, Arial, sans-serif">Intent Refactoring</text>
<rect x="52" y="123" width="14" height="14" fill="#d5d4d0" rx="3"/>
<text x="72" y="135" font-size="9" fill="#9d9c98" text-anchor="start" font-weight="normal" font-family="-apple-system, Helvetica, Arial, sans-serif">Arbitrage</text>
<g id="n1_ir" class="af-organ" data-genome-id="n1_ir" data-name="Module / Intent Refactoring" data-ui-role="dashboard" data-ux-step="5">
<rect x="244" y="72" width="562" height="148" fill="#ffffff" stroke="#d5d4d0" stroke-width="1" rx="8"/>
<text x="256" y="90" font-size="7" fill="#b5b4b0" text-anchor="start" font-weight="600" font-family="-apple-system,Helvetica,Arial,sans-serif">Module / Intent Refactoring</text>
<rect x="244" y="100" width="382" height="28" fill="#e8e7e3" stroke="#d5d4d0" stroke-width="1" rx="4"/>
<text x="252" y="118" font-size="8" fill="#3d3d3c" text-anchor="start" font-weight="600" font-family="-apple-system,Helvetica,Arial,sans-serif">Vue Rapport IR</text>
<rect x="244" y="128" width="382" height="23" fill="#ffffff" stroke="#d5d4d0" stroke-width="1" rx="0"/>
<line x1="396" y1="128" x2="396" y2="151" stroke="#d5d4d0" stroke-width="1"/>
<line x1="549" y1="128" x2="549" y2="151" stroke="#d5d4d0" stroke-width="1"/>
<rect x="553" y="132" width="68" height="16" fill="#a8c5fc" stroke="none" stroke-width="1" rx="8"/>
<rect x="244" y="152" width="382" height="23" fill="#f7f6f2" stroke="#d5d4d0" stroke-width="1" rx="0"/>
<line x1="396" y1="152" x2="396" y2="175" stroke="#d5d4d0" stroke-width="1"/>
<line x1="549" y1="152" x2="549" y2="175" stroke="#d5d4d0" stroke-width="1"/>
<rect x="244" y="176" width="382" height="23" fill="#ffffff" stroke="#d5d4d0" stroke-width="1" rx="0"/>
<line x1="396" y1="176" x2="396" y2="199" stroke="#d5d4d0" stroke-width="1"/>
<line x1="549" y1="176" x2="549" y2="199" stroke="#d5d4d0" stroke-width="1"/>
<rect x="626" y="100" width="382" height="100" fill="#ffffff" stroke="#d5d4d0" stroke-width="1" rx="6"/>
<rect x="626" y="100" width="4" height="100" fill="#a8c5fc" stroke="none" stroke-width="1" rx="2"/>
<text x="638" y="118" font-size="10" fill="#3d3d3c" text-anchor="start" font-weight="600" font-family="-apple-system,Helvetica,Arial,sans-serif">Détail Organe</text>
<rect x="638" y="126" width="358" height="7" fill="#d5d4d0" stroke="none" stroke-width="1" rx="2"/>
<rect x="638" y="140" width="358" height="7" fill="#d5d4d0" stroke="none" stroke-width="1" rx="2"/>
</g>
<g id="n1_arbitrage" class="af-organ" data-genome-id="n1_arbitrage" data-name="Module / Arbitrage" data-ui-role="dashboard" data-ux-step="5">
<rect x="838" y="72" width="562" height="148" fill="#ffffff" stroke="#d5d4d0" stroke-width="1" rx="8"/>
<text x="850" y="90" font-size="7" fill="#b5b4b0" text-anchor="start" font-weight="600" font-family="-apple-system,Helvetica,Arial,sans-serif">Module / Arbitrage</text>
<rect x="878" y="100" width="522" height="28" fill="#e8e7e3" stroke="#d5d4d0" stroke-width="1" rx="4"/>
<text x="886" y="118" font-size="8" fill="#3d3d3c" text-anchor="start" font-weight="600" font-family="-apple-system,Helvetica,Arial,sans-serif">Tableau Expert</text>
<rect x="878" y="128" width="522" height="23" fill="#ffffff" stroke="#d5d4d0" stroke-width="1" rx="0"/>
<line x1="1086" y1="128" x2="1086" y2="151" stroke="#d5d4d0" stroke-width="1"/>
<line x1="1295" y1="128" x2="1295" y2="151" stroke="#d5d4d0" stroke-width="1"/>
<rect x="1299" y="132" width="96" height="16" fill="#a8c5fc" stroke="none" stroke-width="1" rx="8"/>
<rect x="878" y="152" width="522" height="23" fill="#f7f6f2" stroke="#d5d4d0" stroke-width="1" rx="0"/>
<line x1="1086" y1="152" x2="1086" y2="175" stroke="#d5d4d0" stroke-width="1"/>
<line x1="1295" y1="152" x2="1295" y2="175" stroke="#d5d4d0" stroke-width="1"/>
<rect x="878" y="176" width="522" height="23" fill="#ffffff" stroke="#d5d4d0" stroke-width="1" rx="0"/>
<line x1="1086" y1="176" x2="1086" y2="199" stroke="#d5d4d0" stroke-width="1"/>
<line x1="1295" y1="176" x2="1295" y2="199" stroke="#d5d4d0" stroke-width="1"/>
<text x="1448" y="112" font-size="8" fill="#9d9c98" text-anchor="start" font-weight="normal" font-family="-apple-system,Helvetica,Arial,sans-serif">Validation Arbitrage</text>
<rect x="1440" y="114" width="522" height="86" fill="#f7f6f2" stroke="#d5d4d0" stroke-width="1" rx="4"/>
<line x1="1448" y1="120" x2="1448" y2="196" stroke="#a8c5fc" stroke-width="1.5"/>
<rect x="2002" y="100" width="522" height="100" fill="#ffffff" stroke="#a8c5fc" stroke-width="1" rx="6"/>
<rect x="2008" y="106" width="510" height="60" fill="#f7f6f2" stroke="#d5d4d0" stroke-width="1" rx="4"/>
<text x="2263" y="180" font-size="9" fill="#3d3d3c" text-anchor="middle" font-weight="normal" font-family="-apple-system,Helvetica,Arial,sans-serif">Carte Stencil</text>
</g>
</g>
<!-- Phase: Backend -->
<g id="n0_backend" class="af-phase" data-genome-id="n0_backend" data-name="Backend">
<rect x="0" y="900" width="1440" height="900" fill="#f7f6f2"/>
<rect x="0" y="900" width="1440" height="48" fill="#e8e7e3" stroke="#d5d4d0" stroke-width="1"/>
<rect x="40" y="910" width="28" height="28" fill="#3d3d3c" rx="4"/>
<text x="48" y="929" font-size="11" fill="#ffffff" text-anchor="start" font-weight="700" font-family="-apple-system, Helvetica, Arial, sans-serif">AF</text>
<rect x="84" y="913" width="51" height="22" fill="none" rx="11"/>
<text x="109" y="928" font-size="9" fill="#9d9c98" text-anchor="middle" font-weight="600" font-family="-apple-system, Helvetica, Arial, sans-serif">BRS</text>
<rect x="143" y="913" width="51" height="22" fill="#3d3d3c" rx="11"/>
<text x="168" y="928" font-size="9" fill="#ffffff" text-anchor="middle" font-weight="600" font-family="-apple-system, Helvetica, Arial, sans-serif">BKS</text>
<rect x="202" y="913" width="51" height="22" fill="none" rx="11"/>
<text x="227" y="928" font-size="9" fill="#9d9c98" text-anchor="middle" font-weight="600" font-family="-apple-system, Helvetica, Arial, sans-serif">FRD</text>
<rect x="261" y="913" width="51" height="22" fill="none" rx="11"/>
<text x="286" y="928" font-size="9" fill="#9d9c98" text-anchor="middle" font-weight="600" font-family="-apple-system, Helvetica, Arial, sans-serif">DPL</text>
<line x1="324" y1="914" x2="324" y2="934" stroke="#d5d4d0" stroke-width="1"/>
<circle cx="1384" cy="924" r="14" fill="#d5d4d0" stroke="#b5b4b0" stroke-width="1"/>
<text x="1384" y="928" font-size="7" fill="#3d3d3c" text-anchor="middle" font-weight="normal" font-family="-apple-system, Helvetica, Arial, sans-serif">FJD</text>
<rect x="40" y="948" width="188" height="852" fill="#f0efeb" stroke="#d5d4d0" stroke-width="1"/>
<text x="52" y="968" font-size="7" fill="#9d9c98" text-anchor="start" font-weight="600" font-family="-apple-system, Helvetica, Arial, sans-serif">BACKEND</text>
<rect x="46" y="978" width="176" height="30" fill="#a8c5fc" rx="4"/>
<rect x="52" y="987" width="14" height="14" fill="#3d3d3c" rx="3"/>
<text x="72" y="999" font-size="9" fill="#3d3d3c" text-anchor="start" font-weight="normal" font-family="-apple-system, Helvetica, Arial, sans-serif">Session Management</text>
<g id="n1_session" class="af-organ" data-genome-id="n1_session" data-name="Module / Session Management" data-ui-role="dashboard" data-ux-step="5">
<rect x="244" y="972" width="562" height="1120" fill="#ffffff" stroke="#d5d4d0" stroke-width="1" rx="8"/>
<text x="256" y="990" font-size="7" fill="#b5b4b0" text-anchor="start" font-weight="600" font-family="-apple-system,Helvetica,Arial,sans-serif">Module / Session Management</text>
<rect x="268" y="1000" width="538" height="200" fill="#3d3d3c" stroke="none" stroke-width="1" rx="16"/>
<text x="537" y="1104" font-size="9" fill="#ffffff" text-anchor="middle" font-weight="600" font-family="-apple-system,Helvetica,Arial,sans-serif">Reset Session</text>
<rect x="268" y="1224" width="538" height="200" fill="#ffffff" stroke="#d5d4d0" stroke-width="1" rx="6" stroke-dasharray="4 4"/>
<rect x="280" y="1386" width="102" height="28" fill="#a8c5fc" stroke="none" stroke-width="1" rx="2"/>
<rect x="386" y="1374" width="102" height="40" fill="#a8c5fc" stroke="none" stroke-width="1" rx="2"/>
<rect x="492" y="1382" width="102" height="32" fill="#a8c5fc" stroke="none" stroke-width="1" rx="2"/>
<rect x="598" y="1362" width="102" height="52" fill="#a8c5fc" stroke="none" stroke-width="1" rx="2"/>
<rect x="704" y="1378" width="102" height="36" fill="#a8c5fc" stroke="none" stroke-width="1" rx="2"/>
<text x="537" y="1421" font-size="7" fill="#b5b4b0" text-anchor="middle" font-weight="normal" font-family="-apple-system,Helvetica,Arial,sans-serif">Résumé Genome</text>
<rect x="268" y="1448" width="538" height="200" fill="#f7f6f2" stroke="#d5d4d0" stroke-width="1" rx="4"/>
<circle cx="282" cy="1548" r="5" fill="#4ade80" stroke="none" stroke-width="1"/>
<text x="292" y="1552" font-size="8" fill="#9d9c98" text-anchor="start" font-weight="normal" font-family="-apple-system,Helvetica,Arial,sans-serif">Status Session</text>
<rect x="268" y="1672" width="161" height="131" fill="#f7f6f2" stroke="#d5d4d0" stroke-width="1" rx="2"/>
<text x="276" y="1742" font-size="8" fill="#3d3d3c" text-anchor="start" font-weight="normal" font-family="-apple-system,Helvetica,Arial,sans-serif">Liste Distillation</text>
<rect x="268" y="1805" width="161" height="131" fill="#f7f6f2" stroke="#d5d4d0" stroke-width="1" rx="2"/>
<text x="276" y="1875" font-size="8" fill="#3d3d3c" text-anchor="start" font-weight="normal" font-family="-apple-system,Helvetica,Arial,sans-serif">Liste Distillation</text>
<rect x="268" y="1938" width="161" height="131" fill="#f7f6f2" stroke="#d5d4d0" stroke-width="1" rx="2"/>
<text x="276" y="2008" font-size="8" fill="#3d3d3c" text-anchor="start" font-weight="normal" font-family="-apple-system,Helvetica,Arial,sans-serif">Liste Distillation</text>
</g>
</g>
<!-- Phase: Frontend -->
<g id="n0_frontend" class="af-phase" data-genome-id="n0_frontend" data-name="Frontend">
<rect x="0" y="1800" width="1440" height="1232" fill="#f7f6f2"/>
<rect x="0" y="1800" width="1440" height="48" fill="#e8e7e3" stroke="#d5d4d0" stroke-width="1"/>
<rect x="40" y="1810" width="28" height="28" fill="#3d3d3c" rx="4"/>
<text x="48" y="1829" font-size="11" fill="#ffffff" text-anchor="start" font-weight="700" font-family="-apple-system, Helvetica, Arial, sans-serif">AF</text>
<rect x="84" y="1813" width="51" height="22" fill="none" rx="11"/>
<text x="109" y="1828" font-size="9" fill="#9d9c98" text-anchor="middle" font-weight="600" font-family="-apple-system, Helvetica, Arial, sans-serif">BRS</text>
<rect x="143" y="1813" width="51" height="22" fill="none" rx="11"/>
<text x="168" y="1828" font-size="9" fill="#9d9c98" text-anchor="middle" font-weight="600" font-family="-apple-system, Helvetica, Arial, sans-serif">BKS</text>
<rect x="202" y="1813" width="51" height="22" fill="#3d3d3c" rx="11"/>
<text x="227" y="1828" font-size="9" fill="#ffffff" text-anchor="middle" font-weight="600" font-family="-apple-system, Helvetica, Arial, sans-serif">FRD</text>
<rect x="261" y="1813" width="51" height="22" fill="none" rx="11"/>
<text x="286" y="1828" font-size="9" fill="#9d9c98" text-anchor="middle" font-weight="600" font-family="-apple-system, Helvetica, Arial, sans-serif">DPL</text>
<line x1="324" y1="1814" x2="324" y2="1834" stroke="#d5d4d0" stroke-width="1"/>
<circle cx="1384" cy="1824" r="14" fill="#d5d4d0" stroke="#b5b4b0" stroke-width="1"/>
<text x="1384" y="1828" font-size="7" fill="#3d3d3c" text-anchor="middle" font-weight="normal" font-family="-apple-system, Helvetica, Arial, sans-serif">FJD</text>
<rect x="40" y="1848" width="188" height="1184" fill="#f0efeb" stroke="#d5d4d0" stroke-width="1"/>
<text x="52" y="1868" font-size="7" fill="#9d9c98" text-anchor="start" font-weight="600" font-family="-apple-system, Helvetica, Arial, sans-serif">FRONTEND</text>
<rect x="46" y="1878" width="176" height="30" fill="#a8c5fc" rx="4"/>
<rect x="52" y="1887" width="14" height="14" fill="#3d3d3c" rx="3"/>
<text x="72" y="1899" font-size="9" fill="#3d3d3c" text-anchor="start" font-weight="normal" font-family="-apple-system, Helvetica, Arial, sans-serif">Analyse PNG</text>
<rect x="52" y="1923" width="14" height="14" fill="#d5d4d0" rx="3"/>
<text x="72" y="1935" font-size="9" fill="#9d9c98" text-anchor="start" font-weight="normal" font-family="-apple-system, Helvetica, Arial, sans-serif">Layout Selection</text>
<rect x="52" y="1959" width="14" height="14" fill="#d5d4d0" rx="3"/>
<text x="72" y="1971" font-size="9" fill="#9d9c98" text-anchor="start" font-weight="normal" font-family="-apple-system, Helvetica, Arial, sans-serif">Validation Composa</text>
<rect x="52" y="1995" width="14" height="14" fill="#d5d4d0" rx="3"/>
<text x="72" y="2007" font-size="9" fill="#9d9c98" text-anchor="start" font-weight="normal" font-family="-apple-system, Helvetica, Arial, sans-serif">Adaptation / Zoom </text>
<rect x="52" y="2031" width="14" height="14" fill="#d5d4d0" rx="3"/>
<text x="72" y="2043" font-size="9" fill="#9d9c98" text-anchor="start" font-weight="normal" font-family="-apple-system, Helvetica, Arial, sans-serif">Upload Design</text>
<rect x="52" y="2067" width="14" height="14" fill="#d5d4d0" rx="3"/>
<text x="72" y="2079" font-size="9" fill="#9d9c98" text-anchor="start" font-weight="normal" font-family="-apple-system, Helvetica, Arial, sans-serif">Dialogue Utilisate</text>
<rect x="52" y="2103" width="14" height="14" fill="#d5d4d0" rx="3"/>
<text x="72" y="2115" font-size="9" fill="#9d9c98" text-anchor="start" font-weight="normal" font-family="-apple-system, Helvetica, Arial, sans-serif">Navigation</text>
<g id="n1_analysis" class="af-organ" data-genome-id="n1_analysis" data-name="Module / Analyse PNG" data-ui-role="main-canvas" data-ux-step="3">
<rect x="244" y="1872" width="562" height="240" fill="#ffffff" stroke="#d5d4d0" stroke-width="1" rx="8"/>
<line x1="245" y1="1896" x2="805" y2="1896" stroke="#f0efeb" stroke-width="1"/>
<line x1="245" y1="1920" x2="805" y2="1920" stroke="#f0efeb" stroke-width="1"/>
<line x1="245" y1="1944" x2="805" y2="1944" stroke="#f0efeb" stroke-width="1"/>
<line x1="245" y1="1968" x2="805" y2="1968" stroke="#f0efeb" stroke-width="1"/>
<line x1="245" y1="1992" x2="805" y2="1992" stroke="#f0efeb" stroke-width="1"/>
<line x1="245" y1="2016" x2="805" y2="2016" stroke="#f0efeb" stroke-width="1"/>
<line x1="245" y1="2040" x2="805" y2="2040" stroke="#f0efeb" stroke-width="1"/>
<line x1="245" y1="2064" x2="805" y2="2064" stroke="#f0efeb" stroke-width="1"/>
<line x1="245" y1="2088" x2="805" y2="2088" stroke="#f0efeb" stroke-width="1"/>
<text x="256" y="1892" font-size="7" fill="#b5b4b0" text-anchor="start" font-weight="600" font-family="-apple-system,Helvetica,Arial,sans-serif">CANVAS / EDITOR</text>
<rect x="260" y="1904" width="530" height="192" fill="#f7f6f2" stroke="#9d9c98" stroke-width="1" rx="4" stroke-dasharray="4 4"/>
<text x="525" y="1992" font-size="9" fill="#b5b4b0" text-anchor="middle" font-weight="normal" font-family="-apple-system,Helvetica,Arial,sans-serif">[ workspace ]</text>
</g>
<g id="n1_layout" class="af-organ" data-genome-id="n1_layout" data-name="Module / Layout Selection" data-ui-role="dashboard" data-ux-step="5">
<rect x="838" y="1872" width="562" height="680" fill="#ffffff" stroke="#d5d4d0" stroke-width="1" rx="8"/>
<text x="850" y="1890" font-size="7" fill="#b5b4b0" text-anchor="start" font-weight="600" font-family="-apple-system,Helvetica,Arial,sans-serif">Module / Layout Selection</text>
<rect x="854" y="1900" width="265" height="200" fill="#ffffff" stroke="#d5d4d0" stroke-width="1" rx="6"/>
<rect x="860" y="1906" width="253" height="120" fill="#f7f6f2" stroke="#d5d4d0" stroke-width="1" rx="4"/>
<text x="986" y="2040" font-size="9" fill="#3d3d3c" text-anchor="middle" font-weight="normal" font-family="-apple-system,Helvetica,Arial,sans-serif">Choix Style</text>
<rect x="854" y="2116" width="265" height="200" fill="#ffffff" stroke="#d5d4d0" stroke-width="1" rx="6"/>
<rect x="860" y="2122" width="253" height="120" fill="#f7f6f2" stroke="#d5d4d0" stroke-width="1" rx="4"/>
<text x="986" y="2256" font-size="9" fill="#3d3d3c" text-anchor="middle" font-weight="normal" font-family="-apple-system,Helvetica,Arial,sans-serif">Carte Layout</text>
<rect x="854" y="2332" width="265" height="200" fill="#f7f6f2" stroke="#d5d4d0" stroke-width="1" rx="4"/>
<text x="986" y="2436" font-size="8" fill="#3d3d3c" text-anchor="middle" font-weight="normal" font-family="-apple-system,Helvetica,Arial,sans-serif">Galerie Layouts</text>
</g>
<g id="n1_validation" class="af-organ" data-genome-id="n1_validation" data-name="Module / Validation Composants" data-ui-role="dashboard" data-ux-step="5">
<rect x="244" y="2584" width="562" height="920" fill="#ffffff" stroke="#d5d4d0" stroke-width="1" rx="8"/>
<text x="256" y="2602" font-size="7" fill="#b5b4b0" text-anchor="start" font-weight="600" font-family="-apple-system,Helvetica,Arial,sans-serif">Module / Validation Composants</text>
<rect x="268" y="2612" width="538" height="200" fill="#ffffff" stroke="#d5d4d0" stroke-width="1" rx="6" stroke-dasharray="4 4"/>
<rect x="280" y="2774" width="102" height="28" fill="#a8c5fc" stroke="none" stroke-width="1" rx="2"/>
<rect x="386" y="2762" width="102" height="40" fill="#a8c5fc" stroke="none" stroke-width="1" rx="2"/>
<rect x="492" y="2770" width="102" height="32" fill="#a8c5fc" stroke="none" stroke-width="1" rx="2"/>
<rect x="598" y="2750" width="102" height="52" fill="#a8c5fc" stroke="none" stroke-width="1" rx="2"/>
<rect x="704" y="2766" width="102" height="36" fill="#a8c5fc" stroke="none" stroke-width="1" rx="2"/>
<text x="537" y="2809" font-size="7" fill="#b5b4b0" text-anchor="middle" font-weight="normal" font-family="-apple-system,Helvetica,Arial,sans-serif">Dashboard Valida</text>
<rect x="268" y="2836" width="538" height="64" fill="#e8e7e3" stroke="#d5d4d0" stroke-width="1" rx="2"/>
<text x="278" y="2873" font-size="9" fill="#3d3d3c" text-anchor="start" font-weight="normal" font-family="-apple-system,Helvetica,Arial,sans-serif">Résumé Décisions</text>
<text x="792" y="2873" font-size="10" fill="#9d9c98" text-anchor="middle" font-weight="normal" font-family="-apple-system,Helvetica,Arial,sans-serif">›</text>
<rect x="268" y="2902" width="538" height="64" fill="#e8e7e3" stroke="#d5d4d0" stroke-width="1" rx="2"/>
<text x="278" y="2939" font-size="9" fill="#3d3d3c" text-anchor="start" font-weight="normal" font-family="-apple-system,Helvetica,Arial,sans-serif">Résumé Décisions</text>
<text x="792" y="2939" font-size="10" fill="#9d9c98" text-anchor="middle" font-weight="normal" font-family="-apple-system,Helvetica,Arial,sans-serif">›</text>
<rect x="268" y="2968" width="538" height="64" fill="#e8e7e3" stroke="#d5d4d0" stroke-width="1" rx="2"/>
<text x="278" y="3005" font-size="9" fill="#3d3d3c" text-anchor="start" font-weight="normal" font-family="-apple-system,Helvetica,Arial,sans-serif">Résumé Décisions</text>
<text x="792" y="3005" font-size="10" fill="#9d9c98" text-anchor="middle" font-weight="normal" font-family="-apple-system,Helvetica,Arial,sans-serif">›</text>
<rect x="268" y="3060" width="538" height="200" fill="#f7f6f2" stroke="#d5d4d0" stroke-width="1" rx="4"/>
<text x="537" y="3164" font-size="8" fill="#3d3d3c" text-anchor="middle" font-weight="normal" font-family="-apple-system,Helvetica,Arial,sans-serif">Grille Stencils</text>
<rect x="268" y="3284" width="538" height="200" fill="#ffffff" stroke="#d5d4d0" stroke-width="1" rx="6"/>
<rect x="274" y="3290" width="526" height="120" fill="#f7f6f2" stroke="#d5d4d0" stroke-width="1" rx="4"/>
<text x="537" y="3424" font-size="9" fill="#3d3d3c" text-anchor="middle" font-weight="normal" font-family="-apple-system,Helvetica,Arial,sans-serif">Sélection Comp</text>
</g>
<g id="n1_adaptation" class="af-organ" data-genome-id="n1_adaptation" data-name="Module / Adaptation / Zoom Atome" data-ui-role="dashboard" data-ux-step="5">
<rect x="838" y="2584" width="562" height="1368" fill="#ffffff" stroke="#d5d4d0" stroke-width="1" rx="8"/>
<text x="850" y="2602" font-size="7" fill="#b5b4b0" text-anchor="start" font-weight="600" font-family="-apple-system,Helvetica,Arial,sans-serif">Module / Adaptation / Zoom Ato</text>
<rect x="862" y="2612" width="32" height="200" fill="#ffffff" stroke="#d5d4d0" stroke-width="1" rx="4"/>
<text x="878" y="2716" font-size="12" fill="#3d3d3c" text-anchor="middle" font-weight="normal" font-family="-apple-system,Helvetica,Arial,sans-serif">+</text>
<rect x="902" y="2612" width="32" height="200" fill="#ffffff" stroke="#d5d4d0" stroke-width="1" rx="4"/>
<text x="918" y="2716" font-size="12" fill="#3d3d3c" text-anchor="middle" font-weight="normal" font-family="-apple-system,Helvetica,Arial,sans-serif">−</text>
<text x="1131" y="2822" font-size="7" fill="#b5b4b0" text-anchor="middle" font-weight="normal" font-family="-apple-system,Helvetica,Arial,sans-serif">Contrôles Zoom</text>
<rect x="862" y="2836" width="538" height="200" fill="#3d3d3c" stroke="none" stroke-width="1" rx="16"/>
<text x="1131" y="2940" font-size="9" fill="#ffffff" text-anchor="middle" font-weight="600" font-family="-apple-system,Helvetica,Arial,sans-serif">Zoom Out</text>
<rect x="862" y="3060" width="538" height="200" fill="#ffffff" stroke="#d5d4d0" stroke-width="1" rx="6"/>
<rect x="862" y="3060" width="4" height="200" fill="#a8c5fc" stroke="none" stroke-width="1" rx="2"/>
<text x="874" y="3078" font-size="10" fill="#3d3d3c" text-anchor="start" font-weight="600" font-family="-apple-system,Helvetica,Arial,sans-serif">Fiche Détail Atome</text>
<rect x="874" y="3086" width="514" height="7" fill="#d5d4d0" stroke="none" stroke-width="1" rx="2"/>
<rect x="874" y="3100" width="514" height="7" fill="#d5d4d0" stroke="none" stroke-width="1" rx="2"/>
<rect x="862" y="3284" width="538" height="200" fill="#1e1e1e" stroke="none" stroke-width="1" rx="4"/>
<rect x="872" y="3294" width="403" height="7" fill="#4ade80" stroke="none" stroke-width="1" rx="2"/>
<rect x="872" y="3308" width="269" height="7" fill="#a8c5fc" stroke="none" stroke-width="1" rx="2"/>
<rect x="872" y="3322" width="358" height="7" fill="#f7f6f2" stroke="none" stroke-width="1" rx="2"/>
<text x="866" y="3292" font-size="7" fill="#b5b4b0" text-anchor="start" font-weight="normal" font-family="-apple-system,Helvetica,Arial,sans-serif">Éditeur Code</text>
<rect x="862" y="3508" width="538" height="200" fill="#3d3d3c" stroke="none" stroke-width="1" rx="16"/>
<text x="1131" y="3612" font-size="9" fill="#ffffff" text-anchor="middle" font-weight="600" font-family="-apple-system,Helvetica,Arial,sans-serif">Lancer Distillat</text>
<rect x="862" y="3732" width="538" height="200" fill="#f7f6f2" stroke="#d5d4d0" stroke-width="1" rx="4"/>
<text x="1131" y="3836" font-size="8" fill="#3d3d3c" text-anchor="middle" font-weight="normal" font-family="-apple-system,Helvetica,Arial,sans-serif">Appliquer Changement</text>
</g>
<g id="n1_upload" class="af-organ" data-genome-id="n1_upload" data-name="Module / Upload Design" data-ui-role="upload-zone" data-ux-step="7">
<rect x="244" y="3984" width="562" height="148" fill="#ffffff" stroke="#d5d4d0" stroke-width="1" rx="8"/>
<text x="256" y="4002" font-size="7" fill="#b5b4b0" text-anchor="start" font-weight="600" font-family="-apple-system,Helvetica,Arial,sans-serif">Module / Upload Design</text>
<circle cx="296" cy="4062" r="10" fill="#a8c5fc" stroke="#ffffff" stroke-width="1"/>
<circle cx="320" cy="4062" r="10" fill="#f0efeb" stroke="#ffffff" stroke-width="1"/>
<circle cx="344" cy="4062" r="10" fill="#3d3d3c" stroke="#ffffff" stroke-width="1"/>
<circle cx="368" cy="4062" r="10" fill="#4ade80" stroke="#ffffff" stroke-width="1"/>
<circle cx="392" cy="4062" r="10" fill="#facc15" stroke="#ffffff" stroke-width="1"/>
<text x="545" y="4108" font-size="7" fill="#b5b4b0" text-anchor="middle" font-weight="normal" font-family="-apple-system,Helvetica,Arial,sans-serif">Palette Extraite</text>
<rect x="846" y="4012" width="522" height="100" fill="#f7f6f2" stroke="#9d9c98" stroke-width="1" rx="6" stroke-dasharray="6 4"/>
<text x="1107" y="4058" font-size="14" fill="#9d9c98" text-anchor="middle" font-weight="normal" font-family="-apple-system,Helvetica,Arial,sans-serif">↑</text>
<text x="1107" y="4076" font-size="9" fill="#3d3d3c" text-anchor="middle" font-weight="500" font-family="-apple-system,Helvetica,Arial,sans-serif">Zone Upload</text>
<rect x="1408" y="4012" width="522" height="100" fill="#3d3d3c" stroke="none" stroke-width="1" rx="16"/>
<text x="1669" y="4066" font-size="9" fill="#ffffff" text-anchor="middle" font-weight="600" font-family="-apple-system,Helvetica,Arial,sans-serif">Suppression Uplo</text>
<rect x="1970" y="4012" width="522" height="100" fill="#f7f6f2" stroke="#d5d4d0" stroke-width="1" rx="4" stroke-dasharray="6 4"/>
<text x="2231" y="4058" font-size="10" fill="#b5b4b0" text-anchor="middle" font-weight="normal" font-family="-apple-system,Helvetica,Arial,sans-serif">IMG</text>
<text x="2231" y="4104" font-size="7" fill="#b5b4b0" text-anchor="middle" font-weight="normal" font-family="-apple-system,Helvetica,Arial,sans-serif">Aperçu Zones</text>
</g>
<g id="n1_dialogue" class="af-organ" data-genome-id="n1_dialogue" data-name="Module / Dialogue Utilisateur" data-ui-role="chat-overlay" data-ux-step="8">
<rect x="838" y="3984" width="562" height="344" fill="#ffffff" stroke="#d5d4d0" stroke-width="1" rx="8"/>
<text x="850" y="4002" font-size="7" fill="#b5b4b0" text-anchor="start" font-weight="600" font-family="-apple-system,Helvetica,Arial,sans-serif">Module / Dialogue Utilisateur</text>
<rect x="1036" y="4012" width="364" height="24" fill="#a8c5fc" stroke="none" stroke-width="1" rx="10"/>
<text x="1044" y="4028" font-size="8" fill="#3d3d3c" text-anchor="start" font-weight="normal" font-family="-apple-system,Helvetica,Arial,sans-serif">Bulles Con</text>
<rect x="854" y="4044" width="364" height="24" fill="#e8e7e3" stroke="#d5d4d0" stroke-width="1" rx="10"/>
<text x="862" y="4060" font-size="8" fill="#3d3d3c" text-anchor="start" font-weight="normal" font-family="-apple-system,Helvetica,Arial,sans-serif">Bulles Con</text>
<rect x="854" y="4084" width="518" height="56" fill="#f7f6f2" stroke="#d5d4d0" stroke-width="1" rx="28"/>
<text x="866" y="4116" font-size="8" fill="#b5b4b0" text-anchor="start" font-weight="normal" font-family="-apple-system,Helvetica,Arial,sans-serif">Input Message</text>
<circle cx="1386" cy="4112" r="11" fill="#a8c5fc" stroke="none" stroke-width="1"/>
<rect x="854" y="4156" width="546" height="80" fill="#ffffff" stroke="#d5d4d0" stroke-width="1" rx="6"/>
<rect x="860" y="4162" width="534" height="48" fill="#f7f6f2" stroke="#d5d4d0" stroke-width="1" rx="4"/>
<text x="1127" y="4224" font-size="9" fill="#3d3d3c" text-anchor="middle" font-weight="normal" font-family="-apple-system,Helvetica,Arial,sans-serif">Réponse Questi</text>
<rect x="854" y="4252" width="546" height="56" fill="#3d3d3c" stroke="none" stroke-width="1" rx="16"/>
<text x="1127" y="4284" font-size="9" fill="#ffffff" text-anchor="middle" font-weight="600" font-family="-apple-system,Helvetica,Arial,sans-serif">Passer Dialogue</text>
</g>
<g id="n1_navigation" class="af-organ" data-genome-id="n1_navigation" data-name="Module / Navigation" data-ui-role="onboarding-flow" data-ux-step="9">
<rect x="244" y="4360" width="562" height="412" fill="#ffffff" stroke="#d5d4d0" stroke-width="1" rx="8"/>
<text x="256" y="4378" font-size="7" fill="#b5b4b0" text-anchor="start" font-weight="600" font-family="-apple-system,Helvetica,Arial,sans-serif">Module / Navigation</text>
<circle cx="330" cy="4438" r="10" fill="#3d3d3c" stroke="#d5d4d0" stroke-width="1.5"/>
<text x="330" y="4442" font-size="8" fill="#ffffff" text-anchor="middle" font-weight="600" font-family="-apple-system,Helvetica,Arial,sans-serif">1</text>
<line x1="340" y1="4438" x2="404" y2="4438" stroke="#d5d4d0" stroke-width="1"/>
<circle cx="414" cy="4438" r="10" fill="#d5d4d0" stroke="#d5d4d0" stroke-width="1.5"/>
<text x="414" y="4442" font-size="8" fill="#9d9c98" text-anchor="middle" font-weight="600" font-family="-apple-system,Helvetica,Arial,sans-serif">2</text>
<line x1="424" y1="4438" x2="488" y2="4438" stroke="#d5d4d0" stroke-width="1"/>
<circle cx="498" cy="4438" r="10" fill="#d5d4d0" stroke="#d5d4d0" stroke-width="1.5"/>
<text x="498" y="4442" font-size="8" fill="#9d9c98" text-anchor="middle" font-weight="600" font-family="-apple-system,Helvetica,Arial,sans-serif">3</text>
<line x1="508" y1="4438" x2="572" y2="4438" stroke="#d5d4d0" stroke-width="1"/>
<circle cx="582" cy="4438" r="10" fill="#d5d4d0" stroke="#d5d4d0" stroke-width="1.5"/>
<text x="582" y="4442" font-size="8" fill="#9d9c98" text-anchor="middle" font-weight="600" font-family="-apple-system,Helvetica,Arial,sans-serif">4</text>
<line x1="592" y1="4438" x2="656" y2="4438" stroke="#d5d4d0" stroke-width="1"/>
<circle cx="666" cy="4438" r="10" fill="#d5d4d0" stroke="#d5d4d0" stroke-width="1.5"/>
<text x="666" y="4442" font-size="8" fill="#9d9c98" text-anchor="middle" font-weight="600" font-family="-apple-system,Helvetica,Arial,sans-serif">5</text>
<line x1="676" y1="4438" x2="740" y2="4438" stroke="#d5d4d0" stroke-width="1"/>
<circle cx="750" cy="4438" r="10" fill="#d5d4d0" stroke="#d5d4d0" stroke-width="1.5"/>
<text x="750" y="4442" font-size="8" fill="#9d9c98" text-anchor="middle" font-weight="600" font-family="-apple-system,Helvetica,Arial,sans-serif">6</text>
<text x="541" y="4484" font-size="7" fill="#b5b4b0" text-anchor="middle" font-weight="normal" font-family="-apple-system,Helvetica,Arial,sans-serif">Stepper 9 Étapes</text>
<rect x="276" y="4520" width="530" height="100" fill="#3d3d3c" stroke="none" stroke-width="1" rx="16"/>
<text x="541" y="4574" font-size="9" fill="#ffffff" text-anchor="middle" font-weight="600" font-family="-apple-system,Helvetica,Arial,sans-serif">Bouton Suivant</text>
<text x="284" y="4706" font-size="8" fill="#9d9c98" text-anchor="start" font-weight="normal" font-family="-apple-system,Helvetica,Arial,sans-serif">Phase 1 › Phase 2 › Fil d'Aria</text>
</g>
</g>
<!-- Phase: Deploy -->
<g id="n0_deploy" class="af-phase" data-genome-id="n0_deploy" data-name="Deploy">
<rect x="0" y="3032" width="1440" height="900" fill="#f7f6f2"/>
<rect x="0" y="3032" width="1440" height="48" fill="#e8e7e3" stroke="#d5d4d0" stroke-width="1"/>
<rect x="40" y="3042" width="28" height="28" fill="#3d3d3c" rx="4"/>
<text x="48" y="3061" font-size="11" fill="#ffffff" text-anchor="start" font-weight="700" font-family="-apple-system, Helvetica, Arial, sans-serif">AF</text>
<rect x="84" y="3045" width="51" height="22" fill="none" rx="11"/>
<text x="109" y="3060" font-size="9" fill="#9d9c98" text-anchor="middle" font-weight="600" font-family="-apple-system, Helvetica, Arial, sans-serif">BRS</text>
<rect x="143" y="3045" width="51" height="22" fill="none" rx="11"/>
<text x="168" y="3060" font-size="9" fill="#9d9c98" text-anchor="middle" font-weight="600" font-family="-apple-system, Helvetica, Arial, sans-serif">BKS</text>
<rect x="202" y="3045" width="51" height="22" fill="none" rx="11"/>
<text x="227" y="3060" font-size="9" fill="#9d9c98" text-anchor="middle" font-weight="600" font-family="-apple-system, Helvetica, Arial, sans-serif">FRD</text>
<rect x="261" y="3045" width="51" height="22" fill="#3d3d3c" rx="11"/>
<text x="286" y="3060" font-size="9" fill="#ffffff" text-anchor="middle" font-weight="600" font-family="-apple-system, Helvetica, Arial, sans-serif">DPL</text>
<line x1="324" y1="3046" x2="324" y2="3066" stroke="#d5d4d0" stroke-width="1"/>
<circle cx="1384" cy="3056" r="14" fill="#d5d4d0" stroke="#b5b4b0" stroke-width="1"/>
<text x="1384" y="3060" font-size="7" fill="#3d3d3c" text-anchor="middle" font-weight="normal" font-family="-apple-system, Helvetica, Arial, sans-serif">FJD</text>
<rect x="40" y="3080" width="188" height="852" fill="#f0efeb" stroke="#d5d4d0" stroke-width="1"/>
<text x="52" y="3100" font-size="7" fill="#9d9c98" text-anchor="start" font-weight="600" font-family="-apple-system, Helvetica, Arial, sans-serif">DEPLOY</text>
<rect x="46" y="3110" width="176" height="30" fill="#a8c5fc" rx="4"/>
<rect x="52" y="3119" width="14" height="14" fill="#3d3d3c" rx="3"/>
<text x="72" y="3131" font-size="9" fill="#3d3d3c" text-anchor="start" font-weight="normal" font-family="-apple-system, Helvetica, Arial, sans-serif">Export / Télécharg</text>
<g id="n1_export" class="af-organ" data-genome-id="n1_export" data-name="Module / Export / Téléchargement" data-ui-role="export-action" data-ux-step="13">
<rect x="244" y="3104" width="562" height="384" fill="#ffffff" stroke="#d5d4d0" stroke-width="1" rx="8"/>
<text x="256" y="3122" font-size="7" fill="#b5b4b0" text-anchor="start" font-weight="600" font-family="-apple-system,Helvetica,Arial,sans-serif">Module / Export / Téléchargeme</text>
<rect x="268" y="3132" width="257" height="96" fill="#ffffff" stroke="#d5d4d0" stroke-width="1" rx="6"/>
<text x="396" y="3176" font-size="14" fill="#a8c5fc" text-anchor="middle" font-weight="normal" font-family="-apple-system,Helvetica,Arial,sans-serif">⬇</text>
<text x="396" y="3194" font-size="9" fill="#3d3d3c" text-anchor="middle" font-weight="normal" font-family="-apple-system,Helvetica,Arial,sans-serif">Téléchargement Z</text>
<text x="396" y="3222" font-size="7" fill="#b5b4b0" text-anchor="middle" font-weight="normal" font-family="-apple-system,Helvetica,Arial,sans-serif">.zip · Export</text>
<rect x="268" y="3252" width="257" height="96" fill="#ffffff" stroke="#a8c5fc" stroke-width="2" rx="8"/>
<rect x="268" y="3252" width="257" height="32" fill="#e8e7e3" stroke="none" stroke-width="1" rx="6"/>
<text x="278" y="3273" font-size="9" fill="#3d3d3c" text-anchor="start" font-weight="600" font-family="-apple-system,Helvetica,Arial,sans-serif">Modal Confirmation</text>
<rect x="477" y="3320" width="40" height="20" fill="#3d3d3c" stroke="none" stroke-width="1" rx="4"/>
<text x="497" y="3335" font-size="9" fill="#ffffff" text-anchor="middle" font-weight="600" font-family="-apple-system,Helvetica,Arial,sans-serif">OK</text>
<rect x="268" y="3372" width="257" height="96" fill="#3d3d3c" stroke="none" stroke-width="1" rx="16"/>
<text x="396" y="3424" font-size="9" fill="#ffffff" text-anchor="middle" font-weight="600" font-family="-apple-system,Helvetica,Arial,sans-serif">Nouvelle Session</text>
</g>
</g>
</svg>