<svg viewBox="0 0 700 400" xmlns="http://www.w3.org/2000/svg">
  <defs>
    <filter id="cardShadow" x="-50%" y="-50%" width="200%" height="200%">
      <feDropShadow dx="0" dy="4" stdDeviation="8" flood-opacity="0.08"/>
    </filter>
    <linearGradient id="toolbarGrad" x1="0%" y1="0%" x2="0%" y2="100%">
      <stop offset="0%" stop-color="#fafafa"/>
      <stop offset="100%" stop-color="#f0f0f0"/>
    </linearGradient>
    <linearGradient id="primaryBtn" x1="0%" y1="0%" x2="100%" y2="0%">
      <stop offset="0%" stop-color="#2458f3"/>
      <stop offset="100%" stop-color="#1a46c4"/>
    </linearGradient>
    <linearGradient id="runBtn" x1="0%" y1="0%" x2="100%" y2="100%">
      <stop offset="0%" stop-color="#10b981"/>
      <stop offset="100%" stop-color="#059669"/>
    </linearGradient>
  </defs>
  
  <!-- Card Background -->
  <rect x="0" y="0" width="700" height="400" rx="12" fill="#ffffff" filter="url(#cardShadow)"/>
  
  <!-- Header Section -->
  <rect x="0" y="0" width="700" height="56" rx="12" fill="transparent"/>
  <rect x="0" y="0" width="700" height="48" rx="12" fill="transparent"/>
  <rect x="0" y="12" width="700" height="44" fill="transparent"/>
  
  <!-- Title -->
  <text x="24" y="36" font-family="Plus Jakarta Sans, Inter, sans-serif" font-size="18" font-weight="700" fill="#1a1a1a">Éditeur Code</text>
  
  <!-- File Tab -->
  <rect x="160" y="12" width="120" height="32" rx="6" fill="#f8f7f4"/>
  <text x="176" y="32" font-family="Inter, system-ui, sans-serif" font-size="12" font-weight="500" fill="#4a4a4a">main.js</text>
  <circle cx="264" cy="28" r="4" fill="#10b981"/>
  
  <!-- Header Actions -->
  <rect x="540" y="12" width="64" height="32" rx="6" fill="url(#primaryBtn)"/>
  <text x="558" y="32" font-family="Inter, system-ui, sans-serif" font-size="12" font-weight="600" fill="#ffffff">Save</text>
  
  <rect x="612" y="12" width="64" height="32" rx="6" fill="url(#runBtn)"/>
  <polygon points="628,22 628,34 640,28" fill="#ffffff"/>
  <text x="646" y="32" font-family="Inter, system-ui, sans-serif" font-size="12" font-weight="600" fill="#ffffff">Run</text>
  
  <!-- Divider -->
  <rect x="24" y="56" width="652" height="1" fill="#e5e5e5"/>
  
  <!-- Toolbar -->
  <rect x="24" y="68" width="652" height="40" rx="6" fill="url(#toolbarGrad)"/>
  
  <!-- Toolbar Buttons -->
  <rect x="36" y="76" width="28" height="24" rx="4" fill="#ffffff" stroke="#e5e5e5" stroke-width="1"/>
  <rect x="42" y="84" width="16" height="2" rx="1" fill="#6b7280"/>
  <rect x="42" y="88" width="12" height="2" rx="1" fill="#6b7280"/>
  <rect x="42" y="92" width="14" height="2" rx="1" fill="#6b7280"/>
  
  <rect x="72" y="76" width="28" height="24" rx="4" fill="#ffffff" stroke="#e5e5e5" stroke-width="1"/>
  <rect x="80" y="82" width="12" height="12" rx="2" fill="none" stroke="#6b7280" stroke-width="1.5"/>
  
  <rect x="108" y="76" width="28" height="24" rx="4" fill="#ffffff" stroke="#e5e5e5" stroke-width="1"/>
  <path d="M118 88 L124 82 L124 94 Z" fill="#6b7280"/>
  <path d="M126 88 L132 82 L132 94 Z" fill="#6b7280"/>
  
  <rect x="144" y="76" width="28" height="24" rx="4" fill="#ffffff" stroke="#e5e5e5" stroke-width="1"/>
  <path d="M154 88 L160 94 L166 88" fill="none" stroke="#6b7280" stroke-width="1.5" stroke-linecap="round" stroke-linejoin="round"/>
  
  <rect x="180" y="76" width="28" height="24" rx="4" fill="#ffffff" stroke="#e5e5e5" stroke-width="1"/>
  <path d="M190 94 L196 88 L202 94" fill="none" stroke="#6b7280" stroke-width="1.5" stroke-linecap="round" stroke-linejoin="round"/>
  
  <!-- Toolbar Divider -->
  <rect x="220" y="80" width="1" height="16" fill="#d1d5db"/>
  
  <!-- Language Selector -->
  <rect x="232" y="76" width="80" height="24" rx="4" fill="#ffffff" stroke="#e5e5e5" stroke-width="1"/>
  <text x="242" y="92" font-family="Inter, system-ui, sans-serif" font-size="11" font-weight="500" fill="#4a4a4a">JavaScript</text>
  <path d="M302 88 L308 94 L314 88" fill="none" stroke="#9ca3af" stroke-width="1.5" stroke-linecap="round" stroke-linejoin="round" transform="rotate(180 308 91)"/>
  
  <!-- Search -->
  <rect x="580" y="76" width="84" height="24" rx="4" fill="#ffffff" stroke="#e5e5e5" stroke-width="1"/>
  <circle cx="592" cy="88" r="4" fill="none" stroke="#9ca3af" stroke-width="1.5"/>
  <line x1="595" y1="91" x2="598" y2="94" stroke="#9ca3af" stroke-width="1.5" stroke-linecap="round"/>
  <text x="604" y="92" font-family="Inter, system-ui, sans-serif" font-size="11" fill="#9ca3af">Search...</text>
  
  <!-- Code Editor Area -->
  <rect x="24" y="116" width="652" height="268" rx="6" fill="#fafafa"/>
  
  <!-- Line Numbers -->
  <rect x="24" y="116" width="48" height="268" rx="6" fill="#f0f0f0"/>
  <text x="52" y="144" font-family="Roboto Mono, monospace" font-size="12" fill="#9ca3af" text-anchor="end">1</text>
  <text x="52" y="164" font-family="Roboto Mono, monospace" font-size="12" fill="#9ca3af" text-anchor="end">2</text>
  <text x="52" y="184" font-family="Roboto Mono, monospace" font-size="12" fill="#9ca3af" text-anchor="end">3</text>
  <text x="52" y="204" font-family="Roboto Mono, monospace" font-size="12" fill="#9ca3af" text-anchor="end">4</text>
  <text x="52" y="224" font-family="Roboto Mono, monospace" font-size="12" fill="#9ca3af" text-anchor="end">5</text>
  <text x="52" y="244" font-family="Roboto Mono, monospace" font-size="12" fill="#9ca3af" text-anchor="end">6</text>
  <text x="52" y="264" font-family="Roboto Mono, monospace" font-size="12" fill="#9ca3af" text-anchor="end">7</text>
  <text x="52" y="284" font-family="Roboto Mono, monospace" font-size="12" fill="#9ca3af" text-anchor="end">8</text>
  <text x="52" y="304" font-family="Roboto Mono, monospace" font-size="12" fill="#9ca3af" text-anchor="end">9</text>
  <text x="52" y="324" font-family="Roboto Mono, monospace" font-size="12" fill="#9ca3af" text-anchor="end">10</text>
  <text x="52" y="344" font-family="Roboto Mono, monospace" font-size="12" fill="#9ca3af" text-anchor="end">11</text>
  <text x="52" y="364" font-family="Roboto Mono, monospace" font-size="12" fill="#9ca3af" text-anchor="end">12</text>
  
  <!-- Active Line Highlight -->
  <rect x="72" y="152" width="604" height="20" fill="#e0e7ff"/>
  
  <!-- Code Content -->
  <!-- Line 1: Import -->
  <text x="84" y="144" font-family="Roboto Mono, monospace" font-size="12" fill="#7c3aed">import</text>
  <text x="132" y="144" font-family="Roboto Mono, monospace" font-size="12" fill="#d97706">{</text>
  <text x="140" y="144" font-family="Roboto Mono, monospace" font-size="12" fill="#1f2937">useState</text>
  <text x="188" y="144" font-family="Roboto Mono, monospace" font-size="12" fill="#d97706">,</text>
  <text x="196" y="144" font-family="Roboto Mono, monospace" font-size="12" fill="#1f2937">useEffect</text>
  <text x="252" y="144" font-family="Roboto Mono, monospace" font-size="12" fill="#d97706">}</text>
  <text x="264" y="144" font-family="Roboto Mono, monospace" font-size="12" fill="#7c3aed">from</text>
  <text x="296" y="144" font-family="Roboto Mono, monospace" font-size="12" fill="#059669">'react'</text>
  <text x="340" y="144" font-family="Roboto Mono, monospace" font-size="12" fill="#d97706">;</text>
  
  <!-- Line 2: Empty -->
  
  <!-- Line 3: Comment -->
  <text x="84" y="184" font-family="Roboto Mono, monospace" font-size="12" fill="#6b7280">// Configuration du composant éditeur</text>
  
  <!-- Line 4: Const -->
  <text x="84" y="204" font-family="Roboto Mono, monospace" font-size="12" fill="#7c3aed">const</text>
  <text x="116" y="204" font-family="Roboto Mono, monospace" font-size="12" fill="#2458f3">Editor</text>
  <text x="156" y="204" font-family="Roboto Mono, monospace" font-size="12" fill="#d97706">=</text>
  <text x="168" y="204" font-family="Roboto Mono, monospace" font-size="12" fill="#d97706">({</text>
  <text x="180" y="204" font-family="Roboto Mono, monospace" font-size="12" fill="#1f2937">initialCode</text>
  <text x="252" y="204" font-family="Roboto Mono, monospace" font-size="12" fill="#d97706">})</text>
  <text x="268" y="204" font-family="Roboto Mono, monospace" font-size="12" fill="#7c3aed">=&gt;</text>
  <text x="288" y="204" font-family="Roboto Mono, monospace" font-size="12" fill="#d97706">{</text>
  
  <!-- Line 5: useState -->
  <text x="100" y="224" font-family="Roboto Mono, monospace" font-size="12" fill="#7c3aed">const</text>
  <text x="140" y="224" font-family="Roboto Mono, monospace" font-size="12" fill="#d97706">[</text>
  <text x="148" y="224" font-family="Roboto Mono, monospace" font-size="12" fill="#1f2937">code</text>
  <text x="176" y="224" font-family="Roboto Mono, monospace" font-size="12" fill="#d97706">,</text>
  <text x="188" y="224" font-family="Roboto Mono, monospace" font-size="12" fill="#2458f3">setCode</text>
  <text x="236" y="224" font-family="Roboto Mono, monospace" font-size="12" fill="#d97706">]</text>
  <text x="248" y="224" font-family="Roboto Mono, monospace" font-size="12" fill="#7c3aed">=</text>
  <text x="268" y="224" font-family="Roboto Mono, monospace" font-size="12" fill="#2458f3">useState</text>
  <text x="316" y="224" font-family="Roboto Mono, monospace" font-size="12" fill="#d97706">(</text>
  <text x="324" y="224" font-family="Roboto Mono, monospace" font-size="12" fill="#1f2937">initialCode</text>
  <text x="396" y="224" font-family="Roboto Mono, monospace" font-size="12" fill="#d97706">);</text>
  
  <!-- Line 6: Empty -->
  
  <!-- Line 7: useEffect -->
  <text x="100" y="264" font-family="Roboto Mono, monospace" font-size="12" fill="#2458f3">useEffect</text>
  <text x="156" y="264" font-family="Roboto Mono, monospace" font-size="12" fill="#d97706">(()</text>
  <text x="180" y="264" font-family="Roboto Mono, monospace" font-size="12" fill="#7c3aed">=&gt;</text>
  <text x="200" y="264" font-family="Roboto Mono, monospace" font-size="12" fill="#d97706">{</text>
  
  <!-- Line 8: console.log -->
  <text x="116" y="284" font-family="Roboto Mono, monospace" font-size="12" fill="#2458f3">console</text>
  <text x="164" y="284" font-family="Roboto Mono, monospace" font-size="12" fill="#d97706">.</text>
  <text x="172" y="284" font-family="Roboto Mono, monospace" font-size="12" fill="#2458f3">log</text>
  <text x="196" y="284" font-family="Roboto Mono, monospace" font-size="12" fill="#d97706">(</text>
  <text x="204" y="284" font-family="Roboto Mono, monospace" font-size="12" fill="#059669">'Éditeur initialisé'</text>
  <text x="340" y="284" font-family="Roboto Mono, monospace" font-size="12" fill="#d97706">);</text>
  
  <!-- Line 9: closing brace -->
  <text x="100" y="304" font-family="Roboto Mono, monospace" font-size="12" fill="#d97706">},</text>
  <text x="116" y="304" font-family="Roboto Mono, monospace" font-size="12" fill="#d97706">[]);</text>
  
  <!-- Line 10: Empty -->
  
  <!-- Line 11: return -->
  <text x="100" y="344" font-family="Roboto Mono, monospace" font-size="12" fill="#7c3aed">return</text>
  <text x="144" y="344" font-family="Roboto Mono, monospace" font-size="12" fill="#d97706">(</text>
  
  <!-- Line 12: div -->
  <text x="116" y="364" font-family="Roboto Mono, monospace" font-size="12" fill="#dc2626">&lt;div</text>
  <text x="156" y="364" font-family="Roboto Mono, monospace" font-size="12" fill="#7c3aed">className</text>
  <text x="220" y="364" font-family="Roboto Mono, monospace" font-size="12" fill="#d97706">=</text>
  <text x="232" y="364" font-family="Roboto Mono, monospace" font-size="12" fill="#059669">"editor-container"</text>
  <text x="356" y="364" font-family="Roboto Mono, monospace" font-size="12" fill="#dc2626">&gt;</text>
  
  <!-- Cursor -->
  <rect x="368" y="352" width="2" height="16" fill="#2458f3">
    <animate attributeName="opacity" values="1;0;1" dur="1s" repeatCount="indefinite"/>
  </rect>
  
  <!-- Status Bar -->
  <rect x="24" y="376" width="652" height="24" rx="0 0 6 6" fill="#f8f7f4"/>
  <text x="36" y="392" font-family="Inter, system-ui, sans-serif" font-size="10" font-weight="500" fill="#6b7280">UTF-8</text>
  <text x="84" y="392" font-family="Inter, system-ui, sans-serif" font-size="10" font-weight="500" fill="#6b7280">JavaScript</text>
  <text x="156" y="392" font-family="Inter, system-ui, sans-serif" font-size="10" font-weight="500" fill="#6b7280">Ln 12, Col 28</text>
  <text x="580" y="392" font-family="Inter, system-ui, sans-serif" font-size="10" font-weight="500" fill="#10b981">● Saved</text>
</svg>