<svg viewBox="0 0 1140 360" xmlns="http://www.w3.org/2000/svg" fill="none">
  <defs>
    <filter id="cardShadow" x="-4" y="-4" width="1148" height="368">
      <feDropShadow dx="0" dy="4" stdDeviation="8" flood-opacity="0.08"/>
    </filter>
    <linearGradient id="gradientAccent" x1="0" y1="0" x2="1" y2="0">
      <stop offset="0%" stop-color="#97ea90"/>
      <stop offset="100%" stop-color="#6dd365"/>
    </linearGradient>
    <linearGradient id="gradientBadge" x1="0" y1="0" x2="1" y2="1">
      <stop offset="0%" stop-color="#1258ca"/>
      <stop offset="100%" stop-color="#0e46a0"/>
    </linearGradient>
  </defs>
  
  <!-- Main Card -->
  <rect x="0" y="0" width="1140" height="360" rx="12" fill="#ffffff" filter="url(#cardShadow)"/>
  
  <!-- Header Section -->
  <text x="40" y="52" font-family="Plus Jakarta Sans, Inter, sans-serif" font-size="19" font-weight="700" fill="#151515">Liste Distillation</text>
  
  <!-- Header Action Button -->
  <rect x="960" y="32" width="140" height="36" rx="6" fill="url(#gradientAccent)"/>
  <text x="1030" y="55" font-family="Inter, system-ui, sans-serif" font-size="13" font-weight="600" fill="#0a3d0a" text-anchor="middle">Nouvelle analyse</text>
  
  <!-- Table Header -->
  <rect x="40" y="88" width="1060" height="44" rx="6" fill="#f8f7f4"/>
  <text x="64" y="115" font-family="Inter, system-ui, sans-serif" font-size="11" font-weight="600" fill="#6b7280" letter-spacing="0.5">ID</text>
  <text x="180" y="115" font-family="Inter, system-ui, sans-serif" font-size="11" font-weight="600" fill="#6b7280" letter-spacing="0.5">SOURCE</text>
  <text x="420" y="115" font-family="Inter, system-ui, sans-serif" font-size="11" font-weight="600" fill="#6b7280" letter-spacing="0.5">TIMESTAMP</text>
  <text x="640" y="115" font-family="Inter, system-ui, sans-serif" font-size="11" font-weight="600" fill="#6b7280" letter-spacing="0.5">SCORE</text>
  <text x="800" y="115" font-family="Inter, system-ui, sans-serif" font-size="11" font-weight="600" fill="#6b7280" letter-spacing="0.5">VERDICT</text>
  <text x="980" y="115" font-family="Inter, system-ui, sans-serif" font-size="11" font-weight="600" fill="#6b7280" letter-spacing="0.5">ACTIONS</text>
  
  <!-- Row 1 -->
  <rect x="40" y="140" width="1060" height="64" rx="6" fill="#ffffff" stroke="#f0f0ec" stroke-width="1"/>
  <text x="64" y="175" font-family="Roboto Mono, monospace" font-size="12" font-weight="500" fill="#1258ca">#DST-2847</text>
  <text x="180" y="175" font-family="Inter, system-ui, sans-serif" font-size="14" font-weight="500" fill="#151515">Rapport_Q3_Finance.pdf</text>
  <text x="180" y="192" font-family="Inter, system-ui, sans-serif" font-size="11" font-weight="400" fill="#9ca3af">2.4 MB • PDF</text>
  <text x="420" y="175" font-family="Inter, system-ui, sans-serif" font-size="13" font-weight="400" fill="#374151">14:32:07</text>
  <text x="420" y="192" font-family="Inter, system-ui, sans-serif" font-size="11" font-weight="400" fill="#9ca3af">Aujourd'hui</text>
  <!-- Score Bar -->
  <rect x="640" y="166" width="80" height="8" rx="4" fill="#e5e7eb"/>
  <rect x="640" y="166" width="72" height="8" rx="4" fill="url(#gradientAccent)"/>
  <text x="640" y="188" font-family="Inter, system-ui, sans-serif" font-size="12" font-weight="600" fill="#151515">94.2%</text>
  <!-- Verdict Badge -->
  <rect x="800" y="162" width="88" height="28" rx="9999" fill="#ecfdf5"/>
  <text x="844" y="180" font-family="Inter, system-ui, sans-serif" font-size="12" font-weight="600" fill="#059669" text-anchor="middle">Validé</text>
  <!-- Actions -->
  <circle cx="990" cy="172" r="16" fill="#f8f7f4"/>
  <path d="M984 172h12M990 166v12" stroke="#6b7280" stroke-width="1.5" stroke-linecap="round"/>
  <circle cx="1030" cy="172" r="16" fill="#f8f7f4"/>
  <path d="M1026 172l4 4 4-4M1030 168v8" stroke="#6b7280" stroke-width="1.5" stroke-linecap="round" stroke-linejoin="round"/>
  
  <!-- Row 2 -->
  <rect x="40" y="212" width="1060" height="64" rx="6" fill="#ffffff" stroke="#f0f0ec" stroke-width="1"/>
  <text x="64" y="247" font-family="Roboto Mono, monospace" font-size="12" font-weight="500" fill="#1258ca">#DST-2846</text>
  <text x="180" y="247" font-family="Inter, system-ui, sans-serif" font-size="14" font-weight="500" fill="#151515">Contrat_Fournisseur_v2.docx</text>
  <text x="180" y="264" font-family="Inter, system-ui, sans-serif" font-size="11" font-weight="400" fill="#9ca3af">1.1 MB • DOCX</text>
  <text x="420" y="247" font-family="Inter, system-ui, sans-serif" font-size="13" font-weight="400" fill="#374151">11:15:33</text>
  <text x="420" y="264" font-family="Inter, system-ui, sans-serif" font-size="11" font-weight="400" fill="#9ca3af">Aujourd'hui</text>
  <!-- Score Bar -->
  <rect x="640" y="238" width="80" height="8" rx="4" fill="#e5e7eb"/>
  <rect x="640" y="238" width="56" height="8" rx="4" fill="#ffd548"/>
  <text x="640" y="260" font-family="Inter, system-ui, sans-serif" font-size="12" font-weight="600" fill="#151515">67.5%</text>
  <!-- Verdict Badge -->
  <rect x="800" y="234" width="104" height="28" rx="9999" fill="#fffbeb"/>
  <text x="852" y="252" font-family="Inter, system-ui, sans-serif" font-size="12" font-weight="600" fill="#d97706" text-anchor="middle">Révision</text>
  <!-- Actions -->
  <circle cx="990" cy="244" r="16" fill="#f8f7f4"/>
  <path d="M984 244h12M990 238v12" stroke="#6b7280" stroke-width="1.5" stroke-linecap="round"/>
  <circle cx="1030" cy="244" r="16" fill="#f8f7f4"/>
  <path d="M1026 244l4 4 4-4M1030 240v8" stroke="#6b7280" stroke-width="1.5" stroke-linecap="round" stroke-linejoin="round"/>
  
  <!-- Row 3 -->
  <rect x="40" y="284" width="1060" height="64" rx="6" fill="#ffffff" stroke="#f0f0ec" stroke-width="1"/>
  <text x="64" y="319" font-family="Roboto Mono, monospace" font-size="12" font-weight="500" fill="#1258ca">#DST-2845</text>
  <text x="180" y="319" font-family="Inter, system-ui, sans-serif" font-size="14" font-weight="500" fill="#151515">Dataset_Export_2024.csv</text>
  <text x="180" y="336" font-family="Inter, system-ui, sans-serif" font-size="11" font-weight="400" fill="#9ca3af">8.7 MB • CSV</text>
  <text x="420" y="319" font-family="Inter, system-ui, sans-serif" font-size="13" font-weight="400" fill="#374151">09:48:12</text>
  <text x="420" y="336" font-family="Inter, system-ui, sans-serif" font-size="11" font-weight="400" fill="#9ca3af">Aujourd'hui</text>
  <!-- Score Bar -->
  <rect x="640" y="310" width="80" height="8" rx="4" fill="#e5e7eb"/>
  <rect x="640" y="310" width="24" height="8" rx="4" fill="#f05e23"/>
  <text x="640" y="332" font-family="Inter, system-ui, sans-serif" font-size="12" font-weight="600" fill="#151515">28.3%</text>
  <!-- Verdict Badge -->
  <rect x="800" y="306" width="96" height="28" rx="9999" fill="#fef2f2"/>
  <text x="848" y="324" font-family="Inter, system-ui, sans-serif" font-size="12" font-weight="600" fill="#dc2626" text-anchor="middle">Rejeté</text>
  <!-- Actions -->
  <circle cx="990" cy="316" r="16" fill="#f8f7f4"/>
  <path d="M984 316h12M990 310v12" stroke="#6b7280" stroke-width="1.5" stroke-linecap="round"/>
  <circle cx="1030" cy="316" r="16" fill="#f8f7f4"/>
  <path d="M1026 316l4 4 4-4M1030 312v8" stroke="#6b7280" stroke-width="1.5" stroke-linecap="round" stroke-linejoin="round"/>
  
  <!-- Pagination -->
  <text x="1012" y="344" font-family="Inter, system-ui, sans-serif" font-size="11" font-weight="500" fill="#6b7280">1-3 sur 247</text>
</svg>