<svg viewBox="0 0 1140 100" xmlns="http://www.w3.org/2000/svg">
  <defs>
    <filter id="shadow-active" x="-50%" y="-50%" width="200%" height="200%">
      <feDropShadow dx="0" dy="4" stdDeviation="8" flood-color="#ffd548" flood-opacity="0.35"/>
    </filter>
    <linearGradient id="grad-gold" x1="0%" y1="0%" x2="0%" y2="100%">
      <stop offset="0%" style="stop-color:#ffd548;stop-opacity:1" />
      <stop offset="100%" style="stop-color:#ffcc00;stop-opacity:1" />
    </linearGradient>
  </defs>
  <g id="component_root">
    <rect x="0" y="0" width="1140" height="100" fill="#0D0E13" rx="0"/>
    <line x1="0" y1="99" x2="1140" y2="99" stroke="#2a2b32" stroke-width="1"/>
    
    <text x="60" y="56" font-family="Plus Jakarta Sans, Inter, sans-serif" font-weight="700" font-size="22" fill="#ffffff" letter-spacing="-0.5">PRISTINE</text>
    
    <g transform="translate(0, 50)">
      <line x1="200" y1="0" x2="590" y2="0" stroke="#ffd548" stroke-width="2" stroke-linecap="round" opacity="0.6"/>
      <line x1="590" y1="0" x2="980" y2="0" stroke="#2a2b32" stroke-width="2" stroke-linecap="round"/>
      
      <g transform="translate(200, 0)">
        <circle r="14" fill="#0D0E13" stroke="#ffd548" stroke-width="2"/>
        <path d="M -5 0 L -2 3 L 5 -4" fill="none" stroke="#ffd548" stroke-width="2.5" stroke-linecap="round" stroke-linejoin="round"/>
      </g>
      
      <g transform="translate(297.5, 0)">
        <circle r="14" fill="#0D0E13" stroke="#ffd548" stroke-width="2"/>
        <path d="M -5 0 L -2 3 L 5 -4" fill="none" stroke="#ffd548" stroke-width="2.5" stroke-linecap="round" stroke-linejoin="round"/>
      </g>
      
      <g transform="translate(395, 0)">
        <circle r="14" fill="#0D0E13" stroke="#ffd548" stroke-width="2"/>
        <path d="M -5 0 L -2 3 L 5 -4" fill="none" stroke="#ffd548" stroke-width="2.5" stroke-linecap="round" stroke-linejoin="round"/>
      </g>
      
      <g transform="translate(492.5, 0)">
        <circle r="14" fill="#0D0E13" stroke="#ffd548" stroke-width="2"/>
        <path d="M -5 0 L -2 3 L 5 -4" fill="none" stroke="#ffd548" stroke-width="2.5" stroke-linecap="round" stroke-linejoin="round"/>
      </g>
      
      <g transform="translate(590, 0)">
        <circle r="16" fill="url(#grad-gold)" filter="url(#shadow-active)"/>
        <text x="0" y="4" text-anchor="middle" font-family="Roboto Mono, monospace" font-weight="700" font-size="11" fill="#0D0E13">05</text>
      </g>
      
      <g transform="translate(687.5, 0)">
        <circle r="14" fill="#1a1b21" stroke="#3a3b45" stroke-width="2"/>
        <text x="0" y="4" text-anchor="middle" font-family="Roboto Mono, monospace" font-weight="500" font-size="11" fill="#6b6c75">06</text>
      </g>
      
      <g transform="translate(785, 0)">
        <circle r="14" fill="#1a1b21" stroke="#3a3b45" stroke-width="2"/>
        <text x="0" y="4" text-anchor="middle" font-family="Roboto Mono, monospace" font-weight="500" font-size="11" fill="#6b6c75">07</text>
      </g>
      
      <g transform="translate(882.5, 0)">
        <circle r="14" fill="#1a1b21" stroke="#3a3b45" stroke-width="2"/>
        <text x="0" y="4" text-anchor="middle" font-family="Roboto Mono, monospace" font-weight="500" font-size="11" fill="#6b6c75">08</text>
      </g>
      
      <g transform="translate(980, 0)">
        <circle r="14" fill="#1a1b21" stroke="#3a3b45" stroke-width="2"/>
        <text x="0" y="4" text-anchor="middle" font-family="Roboto Mono, monospace" font-weight="500" font-size="11" fill="#6b6c75">09</text>
      </g>
    </g>
    
    <rect x="1000" y="30" width="110" height="40" rx="8" fill="#ffd548"/>
    <text x="1055" y="56" text-anchor="middle" font-family="Plus Jakarta Sans, Inter, sans-serif" font-weight="700" font-size="13" fill="#0D0E13" letter-spacing="0.5">SUIVANT</text>
  </g>
</svg>