<svg viewBox="0 0 240 520" xmlns="http://www.w3.org/2000/svg">
  <defs>
    <filter id="shadow" x="-20%" y="-20%" width="140%" height="140%">
      <feDropShadow dx="0" dy="4" stdDeviation="8" flood-opacity="0.08"/>
    </filter>
    <linearGradient id="activeGradient" x1="0%" y1="0%" x2="100%" y2="0%">
      <stop offset="0%" style="stop-color:#1258ca;stop-opacity:0.12"/>
      <stop offset="100%" style="stop-color:#1258ca;stop-opacity:0.04"/>
    </linearGradient>
  </defs>
  
  <g id="component_root">
    <rect x="12" y="12" width="216" height="496" rx="10" fill="#ffffff" filter="url(#shadow)"/>
    
    <text x="32" y="48" font-family="Plus Jakarta Sans, sans-serif" font-weight="700" font-size="18" fill="#111827">Workspace</text>
    
    <g transform="translate(196, 36)">
      <rect x="0" y="0" width="24" height="24" rx="6" fill="#f3f4f6" stroke="#e5e7eb" stroke-width="1"/>
      <path d="M12 7 L12 17 M7 12 L17 12" stroke="#6b7280" stroke-width="2" stroke-linecap="round"/>
    </g>
    
    <rect x="32" y="66" width="176" height="36" rx="6" fill="#fafafa" stroke="#d5d4d0" stroke-width="1"/>
    <g transform="translate(40, 74)">
      <circle cx="8" cy="10" r="6" stroke="#9ca3af" stroke-width="1.5" fill="none"/>
      <line x1="12.5" y1="14.5" x2="17" y2="19" stroke="#9ca3af" stroke-width="1.5" stroke-linecap="round"/>
    </g>
    <text x="68" y="88" font-family="Inter, sans-serif" font-size="12" fill="#9ca3af">Search files...</text>
    
    <text x="32" y="130" font-family="Inter, sans-serif" font-size="10" font-weight="600" fill="#6b7280" letter-spacing="0.05em">LOCAL</text>
    
    <g transform="translate(32, 146)">
      <rect x="-8" y="-6" width="192" height="32" rx="6" fill="transparent"/>
      <path d="M2 8 L2 4 C2 2.5 3 1.5 4.5 1.5 L8 1.5 L10 4 L20 4 C21.5 4 22.5 5 22.5 6.5 L22.5 8 Z" fill="#f59e0b" stroke="#d97706" stroke-width="1"/>
      <rect x="2" y="8" width="20.5" height="14" rx="1.5" fill="#fbbf24" stroke="#f59e0b" stroke-width="1"/>
      <text x="34" y="16" font-family="Inter, sans-serif" font-size="13" fill="#374151">src</text>
    </g>
    
    <g transform="translate(32, 182)">
      <rect x="-8" y="-6" width="192" height="32" rx="6" fill="url(#activeGradient)"/>
      <path d="M2 8 L2 4 C2 2.5 3 1.5 4.5 1.5 L8 1.5 L10 4 L20 4 C21.5 4 22.5 5 22.5 6.5 L22.5 8 Z" fill="#3b82f6" stroke="#2563eb" stroke-width="1"/>
      <rect x="2" y="8" width="20.5" height="14" rx="1.5" fill="#60a5fa" stroke="#3b82f6" stroke-width="1"/>
      <text x="34" y="16" font-family="Inter, sans-serif" font-size="13" fill="#1258ca" font-weight="600">components</text>
      <circle cx="168" cy="10" r="3" fill="#1258ca"/>
    </g>
    
    <g transform="translate(48, 218)">
      <rect x="-24" y="-6" width="176" height="28" rx="4" fill="transparent"/>
      <rect x="0" y="2" width="16" height="20" rx="2" fill="#eff6ff" stroke="#1258ca" stroke-width="1"/>
      <text x="3" y="16" font-family="Roboto Mono, monospace" font-size="9" fill="#1258ca" font-weight="600">TS</text>
      <text x="24" y="17" font-family="Inter, sans-serif" font-size="12" fill="#4b5563">main.tsx</text>
    </g>
    
    <g transform="translate(48, 250)">
      <rect x="-24" y="-6" width="176" height="28" rx="4" fill="transparent"/>
      <rect x="0" y="2" width="16" height="20" rx="2" fill="#f3f4f6" stroke="#d1d5db" stroke-width="1"/>
      <text x="4" y="16" font-family="Roboto Mono, monospace" font-size="9" fill="#6b7280">{ }</text>
      <text x="24" y="17" font-family="Inter, sans-serif" font-size="12" fill="#4b5563">config.json</text>
    </g>
    
    <g transform="translate(48, 282)">
      <rect x="-24" y="-6" width="176" height="28" rx="4" fill="transparent"/>
      <rect x="0" y="2" width="16" height="20" rx="2" fill="#fef3c7" stroke="#f59e0b" stroke-width="1"/>
      <text x="3" y="16" font-family="Roboto Mono, monospace" font-size="9" fill="#d97706">CSS</text>
      <text x="24" y="17" font-family="Inter, sans-serif" font-size="12" fill="#4b5563">styles.css</text>
    </g>
    
    <text x="32" y="344" font-family="Inter, sans-serif" font-size="10" font-weight="600" fill="#6b7280" letter-spacing="0.05em">CLOUD</text>
    
    <g transform="translate(32, 360)">
      <rect x="0" y="0" width="176" height="44" rx="8" fill="#fafafa" stroke="#e5e7eb" stroke-width="1"/>
      <path d="M16 32 L24 16 L32 16 L24 32 Z" fill="#f59e0b"/>
      <path d="M24 32 L32 16 L40 16 L32 32 Z" fill="#10b981"/>
      <path d="M20 32 L28 32 L24 24 Z" fill="#3b82f6"/>
      <text x="52" y="24" font-family="Inter, sans-serif" font-size="12" font-weight="500" fill="#374151">Google Drive</text>
      <text x="52" y="38" font-family="Inter, sans-serif" font-size="10" fill="#10b981">Connected</text>
    </g>
    
    <g transform="translate(32, 412)">
      <rect x="0" y="0" width="176" height="44" rx="8" fill="#fafafa" stroke="#e5e7eb" stroke-width="1"/>
      <path d="M20 14 L28 20 L36 14 L28 8 Z" fill="#3b82f6"/>
      <path d="M20 26 L28 32 L36 26 L28 20 Z" fill="#3b82f6"/>
      <text x="52" y="24" font-family="Inter, sans-serif" font-size="12" font-weight="500" fill="#374151">Dropbox</text>
      <text x="52" y="38" font-family="Inter, sans-serif" font-size="10" fill="#10b981">Connected</text>
    </g>
    
    <g transform="translate(32, 480)">
      <text x="0" y="0" font-family="Inter, sans-serif" font-size="11" fill="#6b7280">Storage</text>
      <text x="176" y="0" font-family="Inter, sans-serif" font-size="11" fill="#374151" text-anchor="end" font-weight="600">74%</text>
      <rect x="0" y="8" width="176" height="4" rx="2" fill="#e5e7eb"/>
      <rect x="0" y="8" width="130" height="4" rx="2" fill="#1258ca"/>
      <text x="0" y="28" font-family="Inter, sans-serif" font-size="10" fill="#9ca3af">14.8 GB of 20 GB used</text>
    </g>
  </g>
</svg>