<svg viewBox="0 0 400 260" xmlns="http://www.w3.org/2000/svg">
  <defs>
    <filter id="shadow-sidebar" x="-20%" y="-20%" width="140%" height="140%">
      <feDropShadow dx="0" dy="4" stdDeviation="8" flood-opacity="0.08"/>
    </filter>
    <linearGradient id="active-bg" x1="0%" y1="0%" x2="100%" y2="0%">
      <stop offset="0%" style="stop-color:#ffd548;stop-opacity:0.12" />
      <stop offset="100%" style="stop-color:#ffd548;stop-opacity:0" />
    </linearGradient>
  </defs>
  
  <g id="component_root">
    <rect x="0" y="0" width="400" height="260" rx="10" fill="#0D0E13" filter="url(#shadow-sidebar)"/>
    
    <rect x="0" y="0" width="400" height="60" rx="10" fill="#0D0E13"/>
    <circle cx="30" cy="30" r="6" fill="#ffd548"/>
    <text x="46" y="35" font-family="Plus Jakarta Sans, sans-serif" font-weight="700" font-size="16" fill="#ffffff">AETHER</text>
    <g transform="translate(360, 26)">
      <circle cx="2" cy="2" r="2" fill="#6B7280"/>
      <circle cx="10" cy="2" r="2" fill="#6B7280"/>
      <circle cx="18" cy="2" r="2" fill="#6B7280"/>
    </g>
    
    <g transform="translate(0, 60)">
      <rect x="0" y="0" width="400" height="50" fill="url(#active-bg)"/>
      <rect x="0" y="0" width="3" height="50" rx="2" fill="#ffd548"/>
      <g transform="translate(22, 15)">
        <circle cx="5" cy="5" r="3" fill="#ffd548"/>
        <circle cx="15" cy="2" r="2.5" fill="#ffd548"/>
        <circle cx="15" cy="12" r="2.5" fill="#ffd548"/>
        <path d="M 8 5 L 12.5 3.5 M 8 7 L 12.5 10.5" stroke="#ffd548" stroke-width="1.5" fill="none"/>
      </g>
      <text x="52" y="32" font-family="Plus Jakarta Sans, sans-serif" font-weight="700" font-size="13" fill="#ffffff">BRS — Trace</text>
    </g>
    
    <g transform="translate(0, 110)">
      <g transform="translate(22, 15)">
        <path d="M 12 2 L 6 10 L 12 18" stroke="#6B7280" stroke-width="2" fill="none" stroke-linecap="round" stroke-linejoin="round"/>
        <path d="M 18 2 L 24 10 L 18 18" stroke="#6B7280" stroke-width="2" fill="none" stroke-linecap="round" stroke-linejoin="round"/>
      </g>
      <text x="52" y="32" font-family="Inter, system-ui, sans-serif" font-weight="600" font-size="13" fill="#9CA3AF">BKD — Forge</text>
    </g>
    
    <g transform="translate(0, 160)">
      <g transform="translate(22, 15)">
        <rect x="2" y="2" width="7" height="7" rx="2" stroke="#6B7280" stroke-width="1.5" fill="none"/>
        <rect x="13" y="2" width="7" height="7" rx="2" stroke="#6B7280" stroke-width="1.5" fill="none"/>
        <rect x="2" y="13" width="7" height="5" rx="2" stroke="#6B7280" stroke-width="1.5" fill="none"/>
        <rect x="13" y="13" width="7" height="5" rx="2" stroke="#6B7280" stroke-width="1.5" fill="none"/>
      </g>
      <text x="52" y="32" font-family="Inter, system-ui, sans-serif" font-weight="600" font-size="13" fill="#9CA3AF">FRD — Tisseur</text>
    </g>
    
    <g transform="translate(0, 210)">
      <g transform="translate(22, 15)">
        <path d="M 15 4 L 18 14 L 15 12 L 12 14 Z" fill="#6B7280"/>
        <circle cx="15" cy="10" r="1.5" fill="#0D0E13"/>
        <path d="M 12 16 L 12 18 M 18 16 L 18 18" stroke="#6B7280" stroke-width="2" stroke-linecap="round"/>
      </g>
      <text x="52" y="32" font-family="Inter, system-ui, sans-serif" font-weight="600" font-size="13" fill="#9CA3AF">DPL — Propulseur</text>
    </g>
  </g>
</svg>