<svg viewBox="0 0 400 320" xmlns="http://www.w3.org/2000/svg">
  <defs>
    <filter id="cardShadow" x="-20%" y="-20%" width="140%" height="140%">
      <feDropShadow dx="0" dy="4" stdDeviation="8" flood-opacity="0.08"/>
    </filter>
  </defs>
  <g id="component_root">
    <rect x="20" y="20" width="360" height="280" rx="8" fill="#ffffff" filter="url(#cardShadow)"/>
    
    <text x="44" y="68" font-family="Plus Jakarta Sans, Inter, sans-serif" font-weight="700" font-size="18" fill="#1a1a1a">Organe #K-4429</text>
    <text x="44" y="88" font-family="Inter, system-ui, sans-serif" font-size="13" fill="#666666">Module Rénal Bio-synthétique</text>
    
    <rect x="308" y="52" width="72" height="24" rx="6" fill="#f0fdf4" stroke="#97ea90" stroke-width="1.5"/>
    <text x="344" y="68" font-family="Inter, system-ui, sans-serif" font-weight="600" font-size="11" fill="#166534" text-anchor="middle">ACTIF</text>
    
    <line x1="44" y1="108" x2="356" y2="108" stroke="#e5e4e0" stroke-width="1"/>
    
    <text x="44" y="132" font-family="Plus Jakarta Sans, Inter, sans-serif" font-weight="700" font-size="14" fill="#1a1a1a">Points d'accès API</text>
    
    <rect x="44" y="144" width="312" height="32" rx="6" fill="#fafafa" stroke="#e5e4e0" stroke-width="1"/>
    <text x="56" y="164" font-family="Roboto Mono, monospace" font-size="11" fill="#374151">GET /api/v1/organs/k-4429/metrics</text>
    <rect x="324" y="150" width="24" height="20" rx="4" fill="#ffffff" stroke="#d5d4d0" stroke-width="1"/>
    <rect x="328" y="154" width="8" height="10" rx="1" stroke="#6b7280" stroke-width="1.5" fill="none"/>
    <rect x="332" y="158" width="8" height="10" rx="1" stroke="#6b7280" stroke-width="1.5" fill="none"/>
    
    <rect x="44" y="184" width="312" height="32" rx="6" fill="#fafafa" stroke="#e5e4e0" stroke-width="1"/>
    <text x="56" y="204" font-family="Roboto Mono, monospace" font-size="11" fill="#374151">POST /api/v1/organs/k-4429/perfuse</text>
    <rect x="324" y="190" width="24" height="20" rx="4" fill="#ffffff" stroke="#d5d4d0" stroke-width="1"/>
    <rect x="328" y="194" width="8" height="10" rx="1" stroke="#6b7280" stroke-width="1.5" fill="none"/>
    <rect x="332" y="198" width="8" height="10" rx="1" stroke="#6b7280" stroke-width="1.5" fill="none"/>
    
    <text x="44" y="240" font-family="Plus Jakarta Sans, Inter, sans-serif" font-weight="700" font-size="14" fill="#1a1a1a">Configuration</text>
    
    <rect x="44" y="252" width="76" height="28" rx="6" fill="#f0fdf4" stroke="#97ea90" stroke-width="1.5"/>
    <text x="82" y="270" font-family="Inter, system-ui, sans-serif" font-weight="600" font-size="12" fill="#166534" text-anchor="middle">Standard</text>
    
    <rect x="128" y="252" width="56" height="28" rx="6" fill="#ffffff" stroke="#d5d4d0" stroke-width="1"/>
    <text x="156" y="270" font-family="Inter, system-ui, sans-serif" font-weight="500" font-size="12" fill="#4b5563" text-anchor="middle">Pro+</text>
    
    <rect x="194" y="252" width="56" height="28" rx="6" fill="#ffffff" stroke="#d5d4d0" stroke-width="1"/>
    <text x="222" y="270" font-family="Inter, system-ui, sans-serif" font-weight="500" font-size="12" fill="#4b5563" text-anchor="middle">Lite</text>
    
    <rect x="268" y="256" width="88" height="32" rx="6" fill="#97ea90"/>
    <text x="312" y="276" font-family="Inter, system-ui, sans-serif" font-weight="600" font-size="12" fill="#1a1a1a" text-anchor="middle">Tester</text>
  </g>
</svg>