<svg viewBox="0 0 220 520" xmlns="http://www.w3.org/2000/svg">
  <defs>
    <filter id="shadow-main" x="-20%" y="-20%" width="140%" height="140%">
      <feDropShadow dx="0" dy="4" stdDeviation="8" flood-opacity="0.08"/>
    </filter>
    <linearGradient id="gradient-accent" x1="0%" y1="0%" x2="100%" y2="100%">
      <stop offset="0%" style="stop-color:#1258ca;stop-opacity:1" />
      <stop offset="100%" style="stop-color:#0f47a8;stop-opacity:1" />
    </linearGradient>
  </defs>
  
  <g id="component_root">
    <rect x="10" y="10" width="200" height="500" rx="8" fill="#ffffff" filter="url(#shadow-main)"/>
    
    <text x="30" y="48" font-family="Plus Jakarta Sans, sans-serif" font-size="18" font-weight="700" fill="#1a1a1a">Centre de Recherche</text>
    
    <rect x="30" y="68" width="160" height="42" rx="6" fill="#ffffff" stroke="#d5d4d0" stroke-width="1"/>
    <text x="44" y="94" font-family="Inter, system-ui, sans-serif" font-size="13" fill="#9ca3af">rechercher un terme</text>
    <g transform="translate(170, 80)">
      <circle cx="8" cy="8" r="6" fill="none" stroke="#6b6b6b" stroke-width="1.5"/>
      <line x1="12" y1="12" x2="16" y2="16" stroke="#6b6b6b" stroke-width="1.5" stroke-linecap="round"/>
    </g>
    
    <text x="30" y="142" font-family="Plus Jakarta Sans, sans-serif" font-size="11" font-weight="600" fill="#6b6b6b" letter-spacing="0.5">SOURCE</text>
    
    <rect x="30" y="152" width="55" height="28" rx="6" fill="#f0f4ff" stroke="#1258ca" stroke-width="1"/>
    <text x="57" y="171" font-family="Inter, system-ui, sans-serif" font-size="11" fill="#1258ca" text-anchor="middle">Tous</text>
    
    <rect x="92" y="152" width="50" height="28" rx="6" fill="#f9f9f9" stroke="#e5e5e5" stroke-width="1"/>
    <text x="117" y="171" font-family="Inter, system-ui, sans-serif" font-size="11" fill="#4b5563" text-anchor="middle">Local</text>
    
    <rect x="149" y="152" width="41" height="28" rx="6" fill="#f9f9f9" stroke="#e5e5e5" stroke-width="1"/>
    <text x="169" y="171" font-family="Inter, system-ui, sans-serif" font-size="11" fill="#4b5563" text-anchor="middle">Cloud</text>
    
    <text x="30" y="212" font-family="Plus Jakarta Sans, sans-serif" font-size="11" font-weight="600" fill="#6b6b6b" letter-spacing="0.5">TYPE</text>
    
    <rect x="30" y="222" width="45" height="28" rx="6" fill="#f9f9f9" stroke="#e5e5e5" stroke-width="1"/>
    <text x="52" y="241" font-family="Inter, system-ui, sans-serif" font-size="11" fill="#4b5563" text-anchor="middle">Docs</text>
    
    <rect x="82" y="222" width="50" height="28" rx="6" fill="#f0f4ff" stroke="#1258ca" stroke-width="1"/>
    <text x="107" y="241" font-family="Inter, system-ui, sans-serif" font-size="11" fill="#1258ca" text-anchor="middle">Code</text>
    
    <rect x="139" y="222" width="51" height="28" rx="6" fill="#f9f9f9" stroke="#e5e5e5" stroke-width="1"/>
    <text x="164" y="241" font-family="Inter, system-ui, sans-serif" font-size="11" fill="#4b5563" text-anchor="middle">Images</text>
    
    <text x="30" y="282" font-family="Plus Jakarta Sans, sans-serif" font-size="11" font-weight="600" fill="#6b6b6b" letter-spacing="0.5">DATE</text>
    
    <rect x="30" y="292" width="40" height="28" rx="6" fill="#f9f9f9" stroke="#e5e5e5" stroke-width="1"/>
    <text x="50" y="311" font-family="Inter, system-ui, sans-serif" font-size="11" fill="#4b5563" text-anchor="middle">24h</text>
    
    <rect x="77" y="292" width="45" height="28" rx="6" fill="#f9f9f9" stroke="#e5e5e5" stroke-width="1"/>
    <text x="99" y="311" font-family="Inter, system-ui, sans-serif" font-size="11" fill="#4b5563" text-anchor="middle">7j</text>
    
    <rect x="129" y="292" width="55" height="28" rx="6" fill="#f9f9f9" stroke="#e5e5e5" stroke-width="1"/>
    <text x="156" y="311" font-family="Inter, system-ui, sans-serif" font-size="11" fill="#4b5563" text-anchor="middle">30j</text>
    
    <text x="30" y="352" font-family="Plus Jakarta Sans, sans-serif" font-size="11" font-weight="600" fill="#6b6b6b" letter-spacing="0.5">STATUT</text>
    
    <rect x="30" y="362" width="65" height="28" rx="6" fill="#f0f4ff" stroke="#1258ca" stroke-width="1"/>
    <text x="62" y="381" font-family="Inter, system-ui, sans-serif" font-size="11" fill="#1258ca" text-anchor="middle">Actif</text>
    
    <rect x="102" y="362" width="70" height="28" rx="6" fill="#f9f9f9" stroke="#e5e5e5" stroke-width="1"/>
    <text x="137" y="381" font-family="Inter, system-ui, sans-serif" font-size="11" fill="#4b5563" text-anchor="middle">Archive</text>
  </g>
</svg>