<svg viewBox="0 0 280 580" xmlns="http://www.w3.org/2000/svg">
  <defs>
    <filter id="shadow-soft" x="-50%" y="-50%" width="200%" height="200%">
      <feDropShadow dx="0" dy="4" stdDeviation="8" flood-opacity="0.08"/>
    </filter>
  </defs>
  
  <g id="component_root">
    <rect x="0" y="0" width="280" height="580" fill="#1a1a2e"/>
    
    <text x="24" y="44" font-family="Plus Jakarta Sans, Inter, sans-serif" font-weight="700" font-size="18" fill="#ffffff">DriveOS</text>
    
    <g transform="translate(16, 80)">
      <rect x="0" y="0" width="248" height="36" rx="8" fill="#f05e23"/>
      <path d="M16 10 L16 26 M12 14 L16 10 L20 14" fill="none" stroke="#ffffff" stroke-width="1.5" stroke-linecap="round" stroke-linejoin="round"/>
      <text x="40" y="24" font-family="Inter, system-ui, sans-serif" font-weight="500" font-size="12" fill="#ffffff">My Files</text>
    </g>
    
    <g transform="translate(16, 124)">
      <text x="40" y="24" font-family="Inter, system-ui, sans-serif" font-weight="400" font-size="12" fill="#a0a0b0">Shared</text>
      <path d="M12 12 C12 12, 14 8, 18 8 C22 8, 24 12, 24 12 C24 12, 26 12, 26 16 C26 20, 24 20, 24 20 L12 20 C12 20, 10 20, 10 16 C10 12, 12 12, 12 12" fill="none" stroke="#6a6a7e" stroke-width="1.5" stroke-linecap="round" stroke-linejoin="round"/>
    </g>
    
    <g transform="translate(16, 164)">
      <text x="40" y="24" font-family="Inter, system-ui, sans-serif" font-weight="400" font-size="12" fill="#a0a0b0">Recent</text>
      <path d="M14 8 L14 14 L20 14" fill="none" stroke="#6a6a7e" stroke-width="1.5" stroke-linecap="round" stroke-linejoin="round"/>
      <circle cx="18" cy="18" r="8" fill="none" stroke="#6a6a7e" stroke-width="1.5"/>
    </g>
    
    <g transform="translate(16, 204)">
      <text x="40" y="24" font-family="Inter, system-ui, sans-serif" font-weight="400" font-size="12" fill="#a0a0b0">Trash</text>
      <path d="M10 10 L26 10 M14 10 L14 8 C14 6, 16 6, 16 6 L20 6 C20 6, 22 6, 22 8 L22 10 M12 14 L14 26 C14 28, 16 28, 16 28 L20 28 C20 28, 22 28, 22 26 L24 14" fill="none" stroke="#6a6a7e" stroke-width="1.5" stroke-linecap="round" stroke-linejoin="round"/>
    </g>
    
    <line x1="24" y1="260" x2="256" y2="260" stroke="#2a2a3e" stroke-width="1"/>
    
    <text x="24" y="290" font-family="Inter, system-ui, sans-serif" font-weight="600" font-size="10" fill="#6a6a7e" letter-spacing="0.5">ACTIONS</text>
    
    <g id="connect-drive-btn" transform="translate(16, 310)">
      <rect x="0" y="0" width="248" height="40" rx="8" fill="rgba(240, 94, 35, 0.08)" stroke="#f05e23" stroke-width="1.5" filter="url(#shadow-soft)"/>
      
      <g transform="translate(16, 12)">
        <path d="M2 8 C2 8, 4 4, 8 4 C8 4, 10 0, 14 0 C18 0, 20 4, 20 4 C20 4, 22 4, 22 8 C22 12, 20 12, 20 12" fill="none" stroke="#f05e23" stroke-width="1.5" stroke-linecap="round" stroke-linejoin="round"/>
        <circle cx="14" cy="16" r="3" fill="none" stroke="#f05e23" stroke-width="1.5"/>
        <path d="M16.5 18.5 L20 22" stroke="#f05e23" stroke-width="1.5" stroke-linecap="round"/>
      </g>
      
      <text x="48" y="26" font-family="Inter, system-ui, sans-serif" font-weight="500" font-size="12" fill="#f05e23">Connect Drive</text>
    </g>
    
    <text x="24" y="390" font-family="Inter, system-ui, sans-serif" font-weight="600" font-size="10" fill="#6a6a7e" letter-spacing="0.5">STORAGE</text>
    
    <text x="24" y="420" font-family="Roboto Mono, monospace" font-size="11" fill="#d5d4d0">128.4 GB used</text>
    
    <rect x="24" y="432" width="232" height="6" rx="3" fill="#2a2a3e"/>
    <rect x="24" y="432" width="86" height="6" rx="3" fill="#f05e23"/>
    
    <text x="24" y="460" font-family="Inter, system-ui, sans-serif" font-size="11" fill="#6a6a7e">of 1 TB total</text>
  </g>
</svg>