<svg viewBox="0 0 700 580" xmlns="http://www.w3.org/2000/svg">
  <defs>
    <filter id="card-shadow" x="-50%" y="-50%" width="200%" height="200%">
      <feDropShadow dx="0" dy="4" stdDeviation="8" flood-opacity="0.08"/>
    </filter>
    <filter id="btn-shadow" x="-50%" y="-50%" width="200%" height="200%">
      <feDropShadow dx="0" dy="2" stdDeviation="4" flood-opacity="0.12"/>
    </filter>
    <linearGradient id="btn-gradient" x1="0%" y1="0%" x2="0%" y2="100%">
      <stop offset="0%" style="stop-color:#3b6ef5;stop-opacity:1"/>
      <stop offset="100%" style="stop-color:#2458f3;stop-opacity:1"/>
    </linearGradient>
  </defs>
  
  <g id="component_root">
    <rect x="40" y="40" width="620" height="500" rx="10" fill="#ffffff" filter="url(#card-shadow)"/>
    <rect x="40" y="40" width="620" height="500" rx="10" fill="none" stroke="#d5d4d0" stroke-width="1"/>
    
    <text x="80" y="90" font-family="Plus Jakarta Sans, Inter, sans-serif" font-size="20" font-weight="700" fill="#1a1a1a">Analyse des Performances</text>
    
    <rect x="80" y="120" width="180" height="80" rx="8" fill="#fafafa" stroke="#e5e5e3" stroke-width="1"/>
    <text x="100" y="155" font-family="Inter, system-ui, sans-serif" font-size="12" fill="#6b6b6b">Taux de Conversion</text>
    <text x="100" y="185" font-family="Plus Jakarta Sans, Inter, sans-serif" font-size="24" font-weight="700" fill="#1a1a1a">24.8%</text>
    <circle cx="240" cy="165" r="12" fill="#97ea90" opacity="0.3"/>
    <text x="234" y="169" font-family="Inter, system-ui, sans-serif" font-size="10" fill="#2d7d32">↑</text>
    
    <rect x="280" y="120" width="180" height="80" rx="8" fill="#fafafa" stroke="#e5e5e3" stroke-width="1"/>
    <text x="300" y="155" font-family="Inter, system-ui, sans-serif" font-size="12" fill="#6b6b6b">Engagement Moyen</text>
    <text x="300" y="185" font-family="Plus Jakarta Sans, Inter, sans-serif" font-size="24" font-weight="700" fill="#1a1a1a">68.2%</text>
    <circle cx="440" cy="165" r="12" fill="#ffd548" opacity="0.3"/>
    <text x="436" y="169" font-family="Inter, system-ui, sans-serif" font-size="10" fill="#b78103">→</text>
    
    <rect x="480" y="120" width="180" height="80" rx="8" fill="#fafafa" stroke="#e5e5e3" stroke-width="1"/>
    <text x="500" y="155" font-family="Inter, system-ui, sans-serif" font-size="12" fill="#6b6b6b">Satisfaction Client</text>
    <text x="500" y="185" font-family="Plus Jakarta Sans, Inter, sans-serif" font-size="24" font-weight="700" fill="#1a1a1a">4.8/5</text>
    <circle cx="640" cy="165" r="12" fill="#2458f3" opacity="0.15"/>
    <text x="634" y="169" font-family="Inter, system-ui, sans-serif" font-size="10" fill="#2458f3">★</text>
    
    <rect x="80" y="220" width="540" height="200" rx="8" fill="#fafafa" stroke="#e5e5e3" stroke-width="1"/>
    
    <line x1="100" y1="380" x2="600" y2="380" stroke="#e0e0de" stroke-width="1"/>
    <line x1="100" y1="340" x2="600" y2="340" stroke="#e0e0de" stroke-width="1"/>
    <line x1="100" y1="300" x2="600" y2="300" stroke="#e0e0de" stroke-width="1"/>
    <line x1="100" y1="260" x2="600" y2="260" stroke="#e0e0de" stroke-width="1"/>
    
    <rect x="120" y="320" width="40" height="60" rx="4" fill="#2458f3" opacity="0.7"/>
    <rect x="180" y="280" width="40" height="100" rx="4" fill="#2458f3" opacity="0.8"/>
    <rect x="240" y="300" width="40" height="80" rx="4" fill="#2458f3" opacity="0.7"/>
    <rect x="300" y="250" width="40" height="130" rx="4" fill="#2458f3"/>
    <rect x="360" y="270" width="40" height="110" rx="4" fill="#2458f3" opacity="0.9"/>
    <rect x="420" y="310" width="40" height="70" rx="4" fill="#2458f3" opacity="0.7"/>
    <rect x="480" y="290" width="40" height="90" rx="4" fill="#2458f3" opacity="0.8"/>
    
    <text x="120" y="405" font-family="Inter, system-ui, sans-serif" font-size="10" fill="#8b8b89" text-anchor="middle">Lun</text>
    <text x="200" y="405" font-family="Inter, system-ui, sans-serif" font-size="10" fill="#8b8b89" text-anchor="middle">Mar</text>
    <text x="260" y="405" font-family="Inter, system-ui, sans-serif" font-size="10" fill="#8b8b89" text-anchor="middle">Mer</text>
    <text x="320" y="405" font-family="Inter, system-ui, sans-serif" font-size="10" fill="#8b8b89" text-anchor="middle">Jeu</text>
    <text x="380" y="405" font-family="Inter, system-ui, sans-serif" font-size="10" fill="#8b8b89" text-anchor="middle">Ven</text>
    <text x="440" y="405" font-family="Inter, system-ui, sans-serif" font-size="10" fill="#8b8b89" text-anchor="middle">Sam</text>
    <text x="500" y="405" font-family="Inter, system-ui, sans-serif" font-size="10" fill="#8b8b89" text-anchor="middle">Dim</text>
    
    <text x="80" y="455" font-family="Inter, system-ui, sans-serif" font-size="13" fill="#6b6b6b">Analyse générée le 24 janvier 2024 à 14:30 • Données des 7 derniers jours</text>
    
    <g transform="translate(240, 480)">
      <rect x="0" y="0" width="220" height="44" rx="8" fill="url(#btn-gradient)" filter="url(#btn-shadow)"/>
      
      <g transform="translate(20, 10)">
        <path d="M14 4C9.58172 4 6 7.58172 6 12C6 16.4183 9.58172 20 14 20C17.2895 20 20.1982 18.2353 21.5 15.5" stroke="white" stroke-width="2" stroke-linecap="round" fill="none"/>
        <path d="M20 8L20 4M20 4L16 4M20 4L24 8" stroke="white" stroke-width="2" stroke-linecap="round" stroke-linejoin="round"/>
      </g>
      
      <text x="125" y="28" font-family="Plus Jakarta Sans, Inter, sans-serif" font-size="14" font-weight="600" fill="white" text-anchor="middle">Régénérer l'analyse</text>
    </g>
  </g>
</svg>