<svg viewBox="0 0 240 560" xmlns="http://www.w3.org/2000/svg">
  <defs>
    <filter id="card-shadow" x="-20%" y="-20%" width="140%" height="140%">
      <feDropShadow dx="0" dy="4" stdDeviation="8" flood-opacity="0.08"/>
    </filter>
    <linearGradient id="grad-retro" x1="0%" y1="0%" x2="100%" y2="100%">
      <stop offset="0%" style="stop-color:#f05e23;stop-opacity:0.2"/>
      <stop offset="100%" style="stop-color:#ffd548;stop-opacity:0.2"/>
    </linearGradient>
    <linearGradient id="grad-gold" x1="0%" y1="0%" x2="100%" y2="100%">
      <stop offset="0%" style="stop-color:#ffd548;stop-opacity:0.3"/>
      <stop offset="100%" style="stop-color:#ffd548;stop-opacity:0.05"/>
    </linearGradient>
  </defs>
  
  <g id="component_root">
    <rect x="10" y="10" width="220" height="540" rx="10" fill="#ffffff" filter="url(#card-shadow)"/>
    
    <text x="120" y="45" font-family="Plus Jakarta Sans, Inter, sans-serif" font-size="19" font-weight="700" text-anchor="middle" fill="#1a1a1a">Style Choice</text>
    <text x="120" y="68" font-family="Inter, system-ui, sans-serif" font-size="11" text-anchor="middle" fill="#6b6b6b">Select a visual direction</text>
    
    <g transform="translate(25, 90)">
      <rect x="0" y="0" width="90" height="90" rx="8" fill="#fafafa" stroke="#d5d4d0" stroke-width="1"/>
      <rect x="32" y="35" width="26" height="20" rx="2" fill="none" stroke="#1a1a1a" stroke-width="1.5"/>
      <text x="45" y="78" font-family="Inter, system-ui, sans-serif" font-size="10" text-anchor="middle" fill="#4a4a4a">Minimal</text>
    </g>
    
    <g transform="translate(125, 90)">
      <rect x="0" y="0" width="90" height="90" rx="8" fill="url(#grad-retro)" stroke="#f05e23" stroke-width="1.5"/>
      <rect x="28" y="32" width="34" height="26" rx="2" fill="#f05e23" opacity="0.8"/>
      <text x="45" y="78" font-family="Inter, system-ui, sans-serif" font-size="10" text-anchor="middle" fill="#4a4a4a">Retro</text>
    </g>
    
    <g transform="translate(25, 195)">
      <rect x="0" y="0" width="90" height="90" rx="8" fill="#0f172a" stroke="#2458f3" stroke-width="1"/>
      <circle cx="45" cy="40" r="14" fill="none" stroke="#97ea90" stroke-width="2.5"/>
      <circle cx="45" cy="40" r="6" fill="#97ea90" opacity="0.6"/>
      <text x="45" y="78" font-family="Inter, system-ui, sans-serif" font-size="10" text-anchor="middle" fill="#4a4a4a">Neon</text>
    </g>
    
    <g transform="translate(125, 195)">
      <rect x="0" y="0" width="90" height="90" rx="8" fill="#fafafa" stroke="#d5d4d0" stroke-width="1"/>
      <path d="M32,38 Q45,28 58,38 Q62,48 45,54 Q28,48 32,38" fill="#97ea90" opacity="0.7"/>
      <text x="45" y="78" font-family="Inter, system-ui, sans-serif" font-size="10" text-anchor="middle" fill="#4a4a4a">Organic</text>
    </g>
    
    <g transform="translate(25, 300)">
      <rect x="0" y="0" width="90" height="90" rx="8" fill="#fafafa" stroke="#d5d4d0" stroke-width="1"/>
      <polygon points="45,30 62,56 28,56" fill="#1258ca" opacity="0.85"/>
      <text x="45" y="78" font-family="Inter, system-ui, sans-serif" font-size="10" text-anchor="middle" fill="#4a4a4a">Geometric</text>
    </g>
    
    <g transform="translate(125, 300)">
      <rect x="0" y="0" width="90" height="90" rx="8" fill="#fafafa" stroke="#d5d4d0" stroke-width="1"/>
      <path d="M22,42 Q35,32 45,42 Q55,52 68,42" fill="none" stroke="#1258ca" stroke-width="3" stroke-linecap="round"/>
      <text x="45" y="78" font-family="Inter, system-ui, sans-serif" font-size="10" text-anchor="middle" fill="#4a4a4a">Fluid</text>
    </g>
    
    <g transform="translate(25, 405)">
      <rect x="0" y="0" width="90" height="90" rx="8" fill="#fafafa" stroke="#d5d4d0" stroke-width="1"/>
      <rect x="25" y="34" width="40" height="7" rx="1" fill="#1a1a1a"/>
      <rect x="25" y="45" width="28" height="7" rx="1" fill="#1a1a1a"/>
      <rect x="25" y="56" width="34" height="7" rx="1" fill="#1a1a1a"/>
      <text x="45" y="78" font-family="Inter, system-ui, sans-serif" font-size="10" text-anchor="middle" fill="#4a4a4a">Bold</text>
    </g>
    
    <g transform="translate(125, 405)">
      <rect x="0" y="0" width="90" height="90" rx="8" fill="url(#grad-gold)" stroke="#ffd548" stroke-width="2"/>
      <rect x="30" y="35" width="30" height="20" rx="1" fill="none" stroke="#1a1a1a" stroke-width="1"/>
      <line x1="30" y1="42" x2="60" y2="42" stroke="#1a1a1a" stroke-width="1"/>
      <line x1="30" y1="48" x2="50" y2="48" stroke="#1a1a1a" stroke-width="1"/>
      <circle cx="78" cy="12" r="8" fill="#ffd548"/>
      <path d="M75,12 L77,14 L81,10" stroke="#ffffff" stroke-width="2" fill="none" stroke-linecap="round" stroke-linejoin="round"/>
      <text x="45" y="78" font-family="Inter, system-ui, sans-serif" font-size="10" text-anchor="middle" fill="#4a4a4a">Classic</text>
    </g>
    
    <g transform="translate(25, 510)">
      <rect x="0" y="0" width="190" height="40" rx="8" fill="#fafafa" stroke="#d5d4d0" stroke-width="1" stroke-dasharray="4,3"/>
      <text x="95" y="25" font-family="Inter, system-ui, sans-serif" font-size="11" text-anchor="middle" fill="#6b6b6b">+ Upload custom style</text>
    </g>
  </g>
</svg>