<svg viewBox="0 0 720 560" xmlns="http://www.w3.org/2000/svg" fill="none">
  <defs>
    <filter id="cardShadow" x="-50%" y="-50%" width="200%" height="200%">
      <feDropShadow dx="0" dy="4" stdDeviation="8" flood-opacity="0.08"/>
    </filter>
    
    <linearGradient id="gradHeart" x1="0%" y1="0%" x2="100%" y2="100%">
      <stop offset="0%" style="stop-color:#ff6b6b;stop-opacity:1" />
      <stop offset="100%" style="stop-color:#ee5a5a;stop-opacity:1" />
    </linearGradient>
    
    <linearGradient id="gradLung" x1="0%" y1="0%" x2="100%" y2="100%">
      <stop offset="0%" style="stop-color:#ff8e8e;stop-opacity:0.8" />
      <stop offset="100%" style="stop-color:#2458f3;stop-opacity:0.3" />
    </linearGradient>
    
    <linearGradient id="gradBrain" x1="0%" y1="0%" x2="100%" y2="100%">
      <stop offset="0%" style="stop-color:#a8a4e6;stop-opacity:1" />
      <stop offset="100%" style="stop-color:#7c78c8;stop-opacity:1" />
    </linearGradient>
    
    <linearGradient id="gradLiver" x1="0%" y1="0%" x2="100%" y2="100%">
      <stop offset="0%" style="stop-color:#d4a373;stop-opacity:1" />
      <stop offset="100%" style="stop-color:#bc8a5f;stop-opacity:1" />
    </linearGradient>
    
    <linearGradient id="gradAccent" x1="0%" y1="0%" x2="100%" y2="0%">
      <stop offset="0%" style="stop-color:#2458f3;stop-opacity:0.1" />
      <stop offset="100%" style="stop-color:#2458f3;stop-opacity:0.4" />
    </linearGradient>
  </defs>
  
  <g id="component_root">
    <rect x="20" y="20" width="680" height="520" rx="10" fill="#ffffff" filter="url(#cardShadow)"/>
    <rect x="20" y="20" width="680" height="520" rx="10" stroke="#d5d4d0" stroke-width="1"/>
    
    <text x="50" y="60" font-family="Plus Jakarta Sans, Inter, sans-serif" font-weight="700" font-size="20" fill="#1a1a1a">Genome Explorer</text>
    <text x="50" y="82" font-family="Inter, system-ui, sans-serif" font-size="13" fill="#666666">Visualisation explosive des organes • v2.4.0</text>
    
    <g transform="translate(520, 45)">
      <rect x="0" y="0" width="160" height="50" rx="6" fill="#f8f9fa" stroke="#e9ecef" stroke-width="1"/>
      <text x="12" y="18" font-family="Roboto Mono, monospace" font-size="10" fill="#2458f3">GENOME_SEQ</text>
      <text x="12" y="35" font-family="Roboto Mono, monospace" font-size="11" fill="#1a1a1a">98.4% MATCH</text>
      <circle cx="140" cy="25" r="8" fill="#2458f3" opacity="0.1"/>
      <circle cx="140" cy="25" r="4" fill="#2458f3"/>
    </g>
    
    <g transform="translate(360, 280)">
      <g opacity="0.3">
        <line x1="-80" y1="-60" x2="0" y2="0" stroke="#2458f3" stroke-width="1.5" stroke-dasharray="4 2"/>
        <line x1="80" y1="-60" x2="0" y2="0" stroke="#2458f3" stroke-width="1.5" stroke-dasharray="4 2"/>
        <line x1="0" y1="-100" x2="0" y2="0" stroke="#2458f3" stroke-width="1.5"/>
        <line x1="-60" y1="80" x2="0" y2="0" stroke="#2458f3" stroke-width="1.5" stroke-dasharray="4 2"/>
        <line x1="60" y1="80" x2="0" y2="0" stroke="#2458f3" stroke-width="1.5" stroke-dasharray="4 2"/>
      </g>
      
      <circle cx="0" cy="0" r="25" fill="#ffffff" stroke="#2458f3" stroke-width="2"/>
      <circle cx="0" cy="0" r="15" fill="url(#gradAccent)"/>
      <text x="0" y="4" text-anchor="middle" font-family="Roboto Mono, monospace" font-size="9" fill="#2458f3">DNA</text>
      
      <g transform="translate(0, -130)">
        <path d="M-35 10 C-35 -20, -20 -35, 0 -35 C20 -35, 35 -20, 35 10 C35 25, 20 30, 0 30 C-20 30, -35 25, -35 10 Z" fill="url(#gradBrain)" stroke="#6c63ff" stroke-width="1.5"/>
        <path d="M-20 -10 Q0 -20, 20 -10" stroke="#ffffff" stroke-width="2" opacity="0.5" fill="none"/>
        <text x="0" y="50" text-anchor="middle" font-family="Inter, system-ui, sans-serif" font-size="11" fill="#4a4a4a">Cerveau</text>
        <rect x="20" y="-40" width="40" height="16" rx="4" fill="#2458f3"/>
        <text x="40" y="-29" text-anchor="middle" font-family="Roboto Mono, monospace" font-size="8" fill="#ffffff">23K</text>
      </g>
      
      <g transform="translate(-110, -40)">
        <path d="M0 10 C-20 -15, -40 5, -40 25 C-40 45, -10 55, 0 65 C10 55, 40 45, 40 25 C40 5, 20 -15, 0 10 Z" fill="url(#gradHeart)" stroke="#dc2626" stroke-width="1.5"/>
        <circle cx="-10" cy="30" r="3" fill="#ffffff" opacity="0.6"/>
        <text x="0" y="85" text-anchor="middle" font-family="Inter, system-ui, sans-serif" font-size="11" fill="#4a4a4a">Cœur</text>
        <rect x="-50" y="-20" width="36" height="16" rx="4" fill="#2458f3"/>
        <text x="-32" y="-9" text-anchor="middle" font-family="Roboto Mono, monospace" font-size="8" fill="#ffffff">BPM</text>
      </g>
      
      <g transform="translate(110, -40)">
        <path d="M-25 0 C-35 -10, -35 -30, -15 -40 C5 -50, 25 -30, 25 0 C25 30, 5 50, -15 40 C-35 30, -35 10, -25 0 Z" fill="url(#gradLung)" stroke="#2458f3" stroke-width="1" opacity="0.8"/>
        <path d="M25 0 C35 -10, 35 -30, 15 -40 C-5 -50, -25 -30, -25 0 C-25 30, -5 50, 15 40 C35 30, 35 10, 25 0 Z" fill="url(#gradLung)" stroke="#2458f3" stroke-width="1" opacity="0.8" transform="scale(-1, 1)"/>
        <line x1="0" y1="-35" x2="0" y2="35" stroke="#2458f3" stroke-width="1" opacity="0.3"/>
        <text x="0" y="65" text-anchor="middle" font-family="Inter, system-ui, sans-serif" font-size="11" fill="#4a4a4a">Poumons</text>
        <rect x="15" y="-50" width="40" height="16" rx="4" fill="#2458f3"/>
        <text x="35" y="-39" text-anchor="middle" font-family="Roboto Mono, monospace" font-size="8" fill="#ffffff">O₂ 98%</text>
      </g>
      
      <g transform="translate(-80, 100)">
        <path d="M-30 -10 C-30 -30, 0 -35, 20 -25 C40 -15, 45 10, 30 25 C15 35, -10 30, -30 20 C-40 10, -40 0, -30 -10 Z" fill="url(#gradLiver)" stroke="#a0522d" stroke-width="1.5"/>
        <text x="5" y="45" text-anchor="middle" font-family="Inter, system-ui, sans-serif" font-size="11" fill="#4a4a4a">Foie</text>
        <circle cx="0" cy="0" r="12" fill="#2458f3" opacity="0.1"/>
      </g>
      
      <g transform="translate(80, 100)">
        <path d="M-20 -20 C-5 -25, 15 -20, 25 -5 C30 10, 25 30, 10 35 C-5 40, -20 30, -25 15 C-30 0, -35 -15, -20 -20 Z" fill="#f4a261" stroke="#e76f51" stroke-width="1.5"/>
        <text x="0" y="50" text-anchor="middle" font-family="Inter, system-ui, sans-serif" font-size="11" fill="#4a4a4a">Estomac</text>
      </g>
      
      <circle cx="-140" cy="-80" r="4" fill="#2458f3" opacity="0.6"/>
      <circle cx="140" cy="-80" r="4" fill="#2458f3" opacity="0.6"/>
      <circle cx="-140" cy="60" r="4" fill="#2458f3" opacity="0.6"/>
      <circle cx="140" cy="60" r="4" fill="#2458f3" opacity="0.6"/>
    </g>
    
    <g transform="translate(50, 480)">
      <rect x="0" y="0" width="200" height="40" rx="6" fill="#f8f9fa" stroke="#e9ecef" stroke-width="1"/>
      <text x="15" y="16" font-family="Roboto Mono, monospace" font-size="10" fill="#666666">ACTIVE GENES</text>
      <text x="15" y="32" font-family="Roboto Mono, monospace" font-size="12" fill="#2458f3" font-weight="600">20,441 / 20,846</text>
      
      <rect x="220" y="0" width="200" height="40" rx="6" fill="#f8f9fa" stroke="#e9ecef" stroke-width="1"/>
      <text x="235" y="16" font-family="Roboto Mono, monospace" font-size="10" fill="#666666">MUTATION RATE</text>
      <text x="235" y="32" font-family="Roboto Mono, monospace" font-size="12" fill="#1a1a1a">0.0024%</text>
      
      <rect x="440" y="0" width="210" height="40" rx="6" fill="#f8f9fa" stroke="#e9ecef" stroke-width="1"/>
      <text x="455" y="16" font-family="Roboto Mono, monospace" font-size="10" fill="#666666">SEQUENCING DEPTH</text>
      <text x="455" y="32" font-family="Roboto Mono, monospace" font-size="12" fill="#1a1a1a">124.5x Coverage</text>
    </g>
    
    <g transform="translate(50, 445)">
      <rect x="0" y="0" width="8" height="8" rx="2" fill="#ff6b6b"/>
      <text x="15" y="8" font-family="Inter, system-ui, sans-serif" font-size="11" fill="#666666">Circulatoire</text>
      
      <rect x="100" y="0" width="8" height="8" rx="2" fill="#a8a4e6"/>
      <text x="115" y="8" font-family="Inter, system-ui, sans-serif" font-size="11" fill="#666666">Nerveux</text>
      
      <rect x="190" y="0" width="8" height="8" rx="2" fill="#2458f3" opacity="0.5"/>
      <text x="205" y="8" font-family="Inter, system-ui, sans-serif" font-size="11" fill="#666666">Respiratoire</text>
      
      <rect x="290" y="0" width="8" height="8" rx="2" fill="#d4a373"/>
      <text x="305" y="8" font-family="Inter, system-ui, sans-serif" font-size="11" fill="#666666">Digestif</text>
    </g>
  </g>
</svg>