<svg viewBox="0 0 1140 100" xmlns="http://www.w3.org/2000/svg">
  <defs>
    <filter id="shadow" x="-50%" y="-50%" width="200%" height="200%">
      <feDropShadow dx="0" dy="4" stdDeviation="8" flood-opacity="0.08"/>
    </filter>
    <linearGradient id="accentGradient" x1="0%" y1="0%" x2="100%" y2="100%">
      <stop offset="0%" style="stop-color:#2458f3;stop-opacity:1" />
      <stop offset="100%" style="stop-color:#1e4bc7;stop-opacity:1" />
    </linearGradient>
  </defs>
  
  <g id="component_root">
    <rect width="1140" height="100" fill="#0D0E13"/>
    
    <g transform="translate(48, 36)">
      <rect x="0" y="0" width="28" height="28" rx="8" fill="url(#accentGradient)" filter="url(#shadow)"/>
      <path d="M8 14 L14 8 L20 14 L14 20 Z" fill="white" opacity="0.9"/>
      <text x="36" y="20" font-family="Plus Jakarta Sans, Inter, sans-serif" font-weight="700" font-size="16" fill="white">Aperture</text>
    </g>
    
    <g transform="translate(280, 43)">
      <text x="0" y="14" font-family="Inter, system-ui, sans-serif" font-size="14" fill="#9CA3AF" style="cursor: pointer;">Phase</text>
      
      <path d="M56 10 L62 14 L56 18" stroke="#4B5563" stroke-width="1.5" fill="none" stroke-linecap="round" stroke-linejoin="round"/>
      
      <text x="74" y="14" font-family="Inter, system-ui, sans-serif" font-size="14" fill="#9CA3AF" style="cursor: pointer;">Étape</text>
      
      <path d="M130 10 L136 14 L130 18" stroke="#4B5563" stroke-width="1.5" fill="none" stroke-linecap="round" stroke-linejoin="round"/>
      
      <text x="148" y="14" font-family="Inter, system-ui, sans-serif" font-weight="600" font-size="14" fill="#2458f3" style="cursor: default;">Section</text>
      <rect x="148" y="20" width="52" height="2" rx="1" fill="#2458f3" opacity="0.6"/>
    </g>
    
    <g transform="translate(906, 32)">
      <g transform="translate(0, 0)">
        <rect width="36" height="36" rx="8" fill="#1F2937" stroke="#374151" stroke-width="1"/>
        <path d="M16 16 C16 13.791 17.791 12 20 12 C22.209 12 24 13.791 24 16 C24 18.209 22.209 20 20 20 M22.5 22.5 L26 26" stroke="#D1D5DB" stroke-width="1.5" stroke-linecap="round" fill="none"/>
      </g>
      
      <g transform="translate(48, 0)">
        <rect width="36" height="36" rx="8" fill="#1F2937" stroke="#374151" stroke-width="1"/>
        <path d="M20 12 C22.5 12 24.5 14 24.5 16.5 V20 L26 22 L14 22 L15.5 20 V16.5 C15.5 14 17.5 12 20 12 Z M17 22 C17 23.5 18.5 25 20 25 C21.5 25 23 23.5 23 22" stroke="#D1D5DB" stroke-width="1.5" stroke-linecap="round" stroke-linejoin="round" fill="none"/>
        <circle cx="24" cy="14" r="3.5" fill="#f05e23" stroke="#0D0E13" stroke-width="1.5"/>
      </g>
      
      <g transform="translate(96, 0)">
        <rect width="36" height="36" rx="8" fill="#1F2937" stroke="#374151" stroke-width="1"/>
        <circle cx="20" cy="20" r="3" stroke="#D1D5DB" stroke-width="1.5" fill="none"/>
        <path d="M20 10 V13 M20 27 V30 M12 20 H9 M31 20 H28 M14.3 14.3 L16.4 16.4 M23.6 23.6 L25.7 25.7 M14.3 25.7 L16.4 23.6 M23.6 16.4 L25.7 14.3" stroke="#D1D5DB" stroke-width="1.5" stroke-linecap="round" fill="none"/>
      </g>
      
      <g transform="translate(152, 0)">
        <rect width="36" height="36" rx="8" fill="#2458f3"/>
        <text x="18" y="24" font-family="Inter, system-ui, sans-serif" font-weight="600" font-size="12" fill="white" text-anchor="middle">ML</text>
      </g>
    </g>
  </g>
</svg>