<svg viewBox="0 0 220 660" xmlns="http://www.w3.org/2000/svg">
  <defs>
    <filter id="cardShadow" x="-50%" y="-50%" width="200%" height="200%">
      <feDropShadow dx="0" dy="4" stdDeviation="8" flood-opacity="0.08"/>
    </filter>
    <linearGradient id="activeState" x1="0%" y1="0%" x2="100%" y2="0%">
      <stop offset="0%" style="stop-color:#ffd548;stop-opacity:1" />
      <stop offset="100%" style="stop-color:#ffe17a;stop-opacity:1" />
    </linearGradient>
  </defs>
  
  <g id="component_root">
    <rect x="0" y="0" width="220" height="660" rx="10" fill="#ffffff" filter="url(#cardShadow)"/>
    
    <text x="24" y="50" font-family="Plus Jakarta Sans, Inter, sans-serif" font-weight="700" font-size="18" fill="#1a1a1a">Centre de Recherche</text>
    
    <g id="search_field">
      <rect x="24" y="75" width="172" height="48" rx="8" fill="#ffffff" stroke="#d5d4d0" stroke-width="1"/>
      <rect x="24" y="75" width="3" height="48" rx="1.5" fill="#ffd548"/>
      <g transform="translate(38, 91)">
        <circle cx="8" cy="8" r="6" fill="none" stroke="#ffd548" stroke-width="2"/>
        <line x1="12.5" y1="12.5" x2="17" y2="17" stroke="#ffd548" stroke-width="2" stroke-linecap="round"/>
      </g>
      <text x="62" y="105" font-family="Inter, system-ui, sans-serif" font-size="14" fill="#9ca3af">rechercher un terme</text>
    </g>
    
    <text x="24" y="155" font-family="Plus Jakarta Sans, Inter, sans-serif" font-weight="700" font-size="12" fill="#6b7280" letter-spacing="0.5">AFFINER PAR</text>
    
    <g id="facet_1" transform="translate(24, 175)">
      <rect x="0" y="0" width="172" height="40" rx="6" fill="#fffdf5" stroke="#ffd548" stroke-width="1.5"/>
      <rect x="12" y="12" width="16" height="16" rx="4" fill="#ffd548"/>
      <path d="M15 20 L18 23 L25 16" fill="none" stroke="#ffffff" stroke-width="2" stroke-linecap="round" stroke-linejoin="round"/>
      <text x="36" y="25" font-family="Inter, system-ui, sans-serif" font-size="13" fill="#1a1a1a">Documentation</text>
      <text x="160" y="25" font-family="Roboto Mono, monospace" font-size="11" fill="#9ca3af" text-anchor="end">128</text>
    </g>
    
    <g id="facet_2" transform="translate(24, 223)">
      <rect x="0" y="0" width="172" height="40" rx="6" fill="none"/>
      <rect x="12" y="12" width="16" height="16" rx="4" fill="#ffffff" stroke="#c5c4c0" stroke-width="1.5"/>
      <text x="36" y="25" font-family="Inter, system-ui, sans-serif" font-size="13" fill="#374151">Code source</text>
      <text x="160" y="25" font-family="Roboto Mono, monospace" font-size="11" fill="#9ca3af" text-anchor="end">84</text>
    </g>
    
    <g id="facet_3" transform="translate(24, 271)">
      <rect x="0" y="0" width="172" height="40" rx="6" fill="none"/>
      <rect x="12" y="12" width="16" height="16" rx="4" fill="#ffffff" stroke="#c5c4c0" stroke-width="1.5"/>
      <text x="36" y="25" font-family="Inter, system-ui, sans-serif" font-size="13" fill="#374151">Issues</text>
      <text x="160" y="25" font-family="Roboto Mono, monospace" font-size="11" fill="#9ca3af" text-anchor="end">42</text>
    </g>
    
    <g id="facet_4" transform="translate(24, 319)">
      <rect x="0" y="0" width="172" height="40" rx="6" fill="none"/>
      <rect x="12" y="12" width="16" height="16" rx="4" fill="#ffffff" stroke="#c5c4c0" stroke-width="1.5"/>
      <text x="36" y="25" font-family="Inter, system-ui, sans-serif" font-size="13" fill="#374151">Pull requests</text>
      <text x="160" y="25" font-family="Roboto Mono, monospace" font-size="11" fill="#9ca3af" text-anchor="end">16</text>
    </g>
    
    <g id="facet_5" transform="translate(24, 367)">
      <rect x="0" y="0" width="172" height="40" rx="6" fill="none"/>
      <rect x="12" y="12" width="16" height="16" rx="4" fill="#ffffff" stroke="#c5c4c0" stroke-width="1.5"/>
      <text x="36" y="25" font-family="Inter, system-ui, sans-serif" font-size="13" fill="#374151">Discussions</text>
      <text x="160" y="25" font-family="Roboto Mono, monospace" font-size="11" fill="#9ca3af" text-anchor="end">8</text>
    </g>
  </g>
</svg>