<svg viewBox="0 0 700 580" xmlns="http://www.w3.org/2000/svg">
  <defs>
    <filter id="cardShadow" x="-50%" y="-50%" width="200%" height="200%">
      <feDropShadow dx="0" dy="4" stdDeviation="8" flood-opacity="0.08"/>
    </filter>
    <linearGradient id="accentGradient" x1="0%" y1="0%" x2="100%" y2="100%">
      <stop offset="0%" style="stop-color:#f05e23;stop-opacity:1"/>
      <stop offset="100%" style="stop-color:#d94e1a;stop-opacity:1"/>
    </linearGradient>
    <linearGradient id="imageBg" x1="0%" y1="0%" x2="100%" y2="100%">
      <stop offset="0%" style="stop-color:#fafafa;stop-opacity:1"/>
      <stop offset="100%" style="stop-color:#f0f0f0;stop-opacity:1"/>
    </linearGradient>
  </defs>
  <g id="component_root">
    <rect x="20" y="20" width="660" height="540" rx="10" fill="#ffffff" filter="url(#cardShadow)"/>
    
    <text x="50" y="60" font-family="Plus Jakarta Sans, Inter, sans-serif" font-size="20" font-weight="700" fill="#1a1a1a">Rapport Analyse Vision</text>
    
    <rect x="570" y="44" width="90" height="26" rx="6" fill="#97ea90" opacity="0.15"/>
    <text x="615" y="62" font-family="Inter, system-ui, sans-serif" font-size="12" font-weight="600" fill="#2d7a2d" text-anchor="middle">Analyse active</text>
    
    <g transform="translate(50, 90)">
      <rect x="0" y="0" width="380" height="420" rx="8" fill="url(#imageBg)" stroke="#d5d4d0" stroke-width="1"/>
      
      <g opacity="0.4" stroke="#c5c4c0" stroke-width="1">
        <line x1="0" y1="105" x2="380" y2="105"/>
        <line x1="0" y1="210" x2="380" y2="210"/>
        <line x1="0" y1="315" x2="380" y2="315"/>
        <line x1="95" y1="0" x2="95" y2="420"/>
        <line x1="190" y1="0" x2="190" y2="420"/>
        <line x1="285" y1="0" x2="285" y2="420"/>
      </g>
      
      <path d="M 50 80 L 140 60 L 160 150 L 80 170 Z" fill="#f05e23" opacity="0.12" stroke="#f05e23" stroke-width="2"/>
      <circle cx="100" cy="110" r="10" fill="#ffffff" stroke="#f05e23" stroke-width="2"/>
      <text x="100" y="114" font-family="Roboto Mono, monospace" font-size="10" font-weight="600" fill="#f05e23" text-anchor="middle">1</text>
      
      <path d="M 220 180 L 320 160 L 340 280 L 240 300 Z" fill="#2458f3" opacity="0.12" stroke="#2458f3" stroke-width="2"/>
      <circle cx="280" cy="230" r="10" fill="#ffffff" stroke="#2458f3" stroke-width="2"/>
      <text x="280" y="234" font-family="Roboto Mono, monospace" font-size="10" font-weight="600" fill="#2458f3" text-anchor="middle">2</text>
      
      <ellipse cx="150" cy="320" rx="10" ry="10" fill="#97ea90" opacity="0.15" stroke="#97ea90" stroke-width="2"/>
      <circle cx="150" cy="320" r="10" fill="#ffffff" stroke="#97ea90" stroke-width="2"/>
      <text x="150" y="324" font-family="Roboto Mono, monospace" font-size="10" font-weight="600" fill="#2d7a2d" text-anchor="middle">3</text>
      
      <g transform="translate(180, 100)">
        <rect x="0" y="0" width="70" height="22" rx="4" fill="#1a1a1a" opacity="0.85"/>
        <text x="35" y="15" font-family="Roboto Mono, monospace" font-size="10" fill="#ffffff" text-anchor="middle">94.2%</text>
      </g>
      
      <g transform="translate(350, 220)">
        <rect x="0" y="0" width="70" height="22" rx="4" fill="#1a1a1a" opacity="0.85"/>
        <text x="35" y="15" font-family="Roboto Mono, monospace" font-size="10" fill="#ffffff" text-anchor="middle">87.5%</text>
      </g>
    </g>
    
    <g transform="translate(450, 90)">
      <text x="0" y="20" font-family="Plus Jakarta Sans, Inter, sans-serif" font-size="14" font-weight="700" fill="#1a1a1a">Zones détectées</text>
      
      <g transform="translate(0, 40)">
        <rect x="0" y="0" width="210" height="70" rx="6" fill="#ffffff" stroke="#e5e5e5" stroke-width="1"/>
        <circle cx="20" cy="20" r="8" fill="#f05e23" opacity="0.15"/>
        <text x="20" y="24" font-family="Roboto Mono, monospace" font-size="11" font-weight="600" fill="#f05e23" text-anchor="middle">1</text>
        <text x="40" y="18" font-family="Inter, system-ui, sans-serif" font-size="13" font-weight="600" fill="#1a1a1a">Anomalie thermique</text>
        <text x="40" y="36" font-family="Inter, system-ui, sans-serif" font-size="11" fill="#666666">Zone critique A-7</text>
        <rect x="40" y="48" width="150" height="6" rx="3" fill="#f0f0f0"/>
        <rect x="40" y="48" width="141" height="6" rx="3" fill="#f05e23"/>
        <text x="195" y="52" font-family="Roboto Mono, monospace" font-size="9" fill="#666666" text-anchor="end">94%</text>
      </g>
      
      <g transform="translate(0, 120)">
        <rect x="0" y="0" width="210" height="70" rx="6" fill="#ffffff" stroke="#e5e5e5" stroke-width="1"/>
        <circle cx="20" cy="20" r="8" fill="#2458f3" opacity="0.15"/>
        <text x="20" y="24" font-family="Roboto Mono, monospace" font-size="11" font-weight="600" fill="#2458f3" text-anchor="middle">2</text>
        <text x="40" y="18" font-family="Inter, system-ui, sans-serif" font-size="13" font-weight="600" fill="#1a1a1a">Détection structure</text>
        <text x="40" y="36" font-family="Inter, system-ui, sans-serif" font-size="11" fill="#666666">Infrastructure B-2</text>
        <rect x="40" y="48" width="150" height="6" rx="3" fill="#f0f0f0"/>
        <rect x="40" y="48" width="131" height="6" rx="3" fill="#2458f3"/>
        <text x="195" y="52" font-family="Roboto Mono, monospace" font-size="9" fill="#666666" text-anchor="end">87%</text>
      </g>
      
      <g transform="translate(0, 200)">
        <rect x="0" y="0" width="210" height="70" rx="6" fill="#ffffff" stroke="#e5e5e5" stroke-width="1"/>
        <circle cx="20" cy="20" r="8" fill="#97ea90" opacity="0.25"/>
        <text x="20" y="24" font-family="Roboto Mono, monospace" font-size="11" font-weight="600" fill="#2d7a2d" text-anchor="middle">3</text>
        <text x="40" y="18" font-family="Inter, system-ui, sans-serif" font-size="13" font-weight="600" fill="#1a1a1a">Zone nominale</text>
        <text x="40" y="36" font-family="Inter, system-ui, sans-serif" font-size="11" fill="#666666">Secteur C-1</text>
        <rect x="40" y="48" width="150" height="6" rx="3" fill="#f0f0f0"/>
        <rect x="40" y="48" width="145" height="6" rx="3" fill="#97ea90"/>
        <text x="195" y="52" font-family="Roboto Mono, monospace" font-size="9" fill="#666666" text-anchor="end">97%</text>
      </g>
      
      <g transform="translate(0, 300)">
        <rect x="0" y="0" width="210" height="40" rx="8" fill="url(#accentGradient)"/>
        <text x="105" y="25" font-family="Plus Jakarta Sans, Inter, sans-serif" font-size="14" font-weight="700" fill="#ffffff" text-anchor="middle">Exporter l'analyse</text>
      </g>
      
      <g transform="translate(0, 360)">
        <text x="0" y="15" font-family="Inter, system-ui, sans-serif" font-size="12" fill="#666666">Dernière mise à jour</text>
        <text x="0" y="32" font-family="Roboto Mono, monospace" font-size="11" fill="#1a1a1a">14:32:08 UTC</text>
      </g>
    </g>
  </g>
</svg>