<svg viewBox="0 0 260 540" xmlns="http://www.w3.org/2000/svg">
  <defs>
    <filter id="shadow" x="-20%" y="-20%" width="140%" height="140%">
      <feDropShadow dx="0" dy="4" stdDeviation="8" flood-opacity="0.08"/>
    </filter>
    <linearGradient id="btnGrad" x1="0%" y1="0%" x2="0%" y2="100%">
      <stop offset="0%" style="stop-color:#2458f3;stop-opacity:1" />
      <stop offset="100%" style="stop-color:#1c4ad4;stop-opacity:1" />
    </linearGradient>
    <linearGradient id="previewGrad" x1="0%" y1="0%" x2="0%" y2="100%">
      <stop offset="0%" style="stop-color:#fafafa;stop-opacity:1" />
      <stop offset="100%" style="stop-color:#f2f3f5;stop-opacity:1" />
    </linearGradient>
  </defs>
  
  <g id="component_root">
    <rect x="16" y="16" width="228" height="508" rx="10" fill="#ffffff" filter="url(#shadow)" stroke="#d5d4d0" stroke-width="1"/>
    
    <text x="130" y="60" font-family="Plus Jakarta Sans, Inter, sans-serif" font-weight="700" font-size="20" fill="#1a1a1a" text-anchor="middle">Capture Action</text>
    <text x="130" y="85" font-family="Inter, system-ui, sans-serif" font-size="13" fill="#6b6b6b" text-anchor="middle">Gemini Vision Analysis</text>
    
    <rect x="36" y="115" width="188" height="188" rx="8" fill="url(#previewGrad)" stroke="#e0e0e0" stroke-width="1.5"/>
    
    <path d="M46 125 L46 135 M46 125 L56 125" stroke="#2458f3" stroke-width="2.5" fill="none" stroke-linecap="round"/>
    <path d="M214 125 L214 135 M214 125 L204 125" stroke="#2458f3" stroke-width="2.5" fill="none" stroke-linecap="round"/>
    <path d="M46 293 L46 283 M46 293 L56 293" stroke="#2458f3" stroke-width="2.5" fill="none" stroke-linecap="round"/>
    <path d="M214 293 L214 283 M214 293 L204 293" stroke="#2458f3" stroke-width="2.5" fill="none" stroke-linecap="round"/>
    
    <g transform="translate(110, 189)">
      <rect x="0" y="4" width="40" height="28" rx="5" fill="none" stroke="#2458f3" stroke-width="2" opacity="0.8"/>
      <circle cx="20" cy="18" r="9" fill="none" stroke="#2458f3" stroke-width="2"/>
      <circle cx="20" cy="18" r="3" fill="#2458f3"/>
      <circle cx="34" cy="10" r="2.5" fill="#2458f3"/>
      <path d="M10 4 L13 0 L27 0 L30 4" stroke="#2458f3" stroke-width="2" fill="none" stroke-linecap="round" stroke-linejoin="round"/>
    </g>
    
    <text x="130" y="330" font-family="Inter, system-ui, sans-serif" font-size="12" fill="#8b8b8b" text-anchor="middle">Ready to capture</text>
    
    <line x1="40" y1="355" x2="220" y2="355" stroke="#e5e5e5" stroke-width="1"/>
    
    <text x="130" y="385" font-family="Inter, system-ui, sans-serif" font-size="14" fill="#4a4a4a" text-anchor="middle">Position subject in frame</text>
    <text x="130" y="405" font-family="Inter, system-ui, sans-serif" font-size="13" fill="#8b8b8b" text-anchor="middle">AI will analyze content instantly</text>
    
    <g transform="translate(36, 440)">
      <rect x="0" y="0" width="188" height="52" rx="8" fill="url(#btnGrad)" filter="url(#shadow)"/>
      <circle cx="70" cy="26" r="10" fill="none" stroke="#ffffff" stroke-width="2"/>
      <circle cx="70" cy="26" r="6" fill="#ffffff"/>
      <text x="115" y="31" font-family="Plus Jakarta Sans, Inter, sans-serif" font-weight="700" font-size="15" fill="#ffffff" text-anchor="middle">Capture</text>
    </g>
    
    <text x="130" y="515" font-family="Inter, system-ui, sans-serif" font-size="11" fill="#9b9b9b" text-anchor="middle">Powered by Gemini Vision</text>
  </g>
</svg>