<svg viewBox="0 0 400 320" xmlns="http://www.w3.org/2000/svg">
  <defs>
    <filter id="shadow-card" x="-50%" y="-50%" width="200%" height="200%">
      <feDropShadow dx="0" dy="4" stdDeviation="8" flood-opacity="0.08"/>
    </filter>
  </defs>
  
  <g id="component_root">
    <rect x="24" y="24" width="352" height="272" rx="8" fill="#ffffff" filter="url(#shadow-card)"/>
    
    <text x="48" y="64" font-family="Plus Jakarta Sans, Inter, sans-serif" font-size="18" font-weight="700" fill="#111827">Palette Extraite</text>
    <text x="48" y="88" font-family="Inter, system-ui, sans-serif" font-size="14" fill="#6b7280">Couleurs dominantes extraites</text>
    
    <g transform="translate(56, 120)">
      <rect x="0" y="0" width="56" height="56" rx="8" fill="#1258ca"/>
      <rect x="0" y="68" width="56" height="24" rx="8" fill="#f3f4f6"/>
      <text x="28" y="84" font-family="Roboto Mono, monospace" font-size="11" font-weight="500" text-anchor="middle" fill="#374151">#1258CA</text>
    </g>
    
    <g transform="translate(144, 120)">
      <rect x="0" y="0" width="56" height="56" rx="8" fill="#f05e23"/>
      <rect x="0" y="68" width="56" height="24" rx="8" fill="#f3f4f6"/>
      <text x="28" y="84" font-family="Roboto Mono, monospace" font-size="11" font-weight="500" text-anchor="middle" fill="#374151">#F05E23</text>
    </g>
    
    <g transform="translate(232, 120)">
      <rect x="0" y="0" width="56" height="56" rx="8" fill="#ffd548"/>
      <rect x="0" y="68" width="56" height="24" rx="8" fill="#f3f4f6"/>
      <text x="28" y="84" font-family="Roboto Mono, monospace" font-size="11" font-weight="500" text-anchor="middle" fill="#374151">#FFD548</text>
    </g>
    
    <g transform="translate(320, 120)">
      <rect x="0" y="0" width="56" height="56" rx="8" fill="#97ea90"/>
      <rect x="0" y="68" width="56" height="24" rx="8" fill="#f3f4f6"/>
      <text x="28" y="84" font-family="Roboto Mono, monospace" font-size="11" font-weight="500" text-anchor="middle" fill="#374151">#97EA90</text>
    </g>
  </g>
</svg>