<svg viewBox="0 0 320 600" xmlns="http://www.w3.org/2000/svg">
  <defs>
    <filter id="shadow" x="-50%" y="-50%" width="200%" height="200%">
      <feDropShadow dx="0" dy="4" stdDeviation="8" flood-opacity="0.08"/>
    </filter>
    <linearGradient id="orangeGradient" x1="0%" y1="0%" x2="100%" y2="0%">
      <stop offset="0%" style="stop-color:#f05e23"/>
      <stop offset="100%" style="stop-color:#ff7a4d"/>
    </linearGradient>
  </defs>
  
  <g id="component_root">
    <rect x="20" y="20" width="280" height="560" rx="10" fill="#ffffff" filter="url(#shadow)"/>
    
    <text x="40" y="64" font-family="Plus Jakarta Sans, sans-serif" font-size="20" font-weight="700" fill="#1a1a1a">Upload Tokens</text>
    <text x="40" y="88" font-family="Inter, system-ui, sans-serif" font-size="13" fill="#6b6b6b">Extract design tokens automatically</text>
    
    <rect x="40" y="112" width="240" height="200" rx="8" fill="#fffaf8" stroke="#f05e23" stroke-width="1.5" stroke-dasharray="6 4" stroke-linecap="round"/>
    
    <g transform="translate(135, 160)">
      <path d="M25 20v-8m0 0l-4 4m4-4l4 4" stroke="#f05e23" stroke-width="2.5" stroke-linecap="round" stroke-linejoin="round" fill="none"/>
      <path d="M10 20a6 6 0 0 1 6-6h2.5a8 8 0 1 1 15 0h2.5a6 6 0 0 1 6 6v4a6 6 0 0 1-6 6H16a6 6 0 0 1-6-6z" stroke="#f05e23" stroke-width="2" stroke-linecap="round" stroke-linejoin="round" fill="none" opacity="0.3"/>
      <path d="M12 20h26" stroke="#f05e23" stroke-width="2" stroke-linecap="round" opacity="0.3"/>
    </g>
    
    <text x="160" y="230" font-family="Plus Jakarta Sans, sans-serif" font-size="16" font-weight="700" fill="#1a1a1a" text-anchor="middle">Drop design files</text>
    <text x="160" y="252" font-family="Inter, system-ui, sans-serif" font-size="13" fill="#6b6b6b" text-anchor="middle">or click to browse</text>
    <text x="160" y="282" font-family="Inter, system-ui, sans-serif" font-size="11" fill="#9b9b9b" text-anchor="middle">Figma, Sketch, Adobe XD, SVG</text>
    
    <rect x="40" y="332" width="240" height="44" rx="8" fill="url(#orangeGradient)"/>
    <text x="160" y="360" font-family="Plus Jakarta Sans, sans-serif" font-size="14" font-weight="600" fill="#ffffff" text-anchor="middle">Select Files</text>
    
    <text x="40" y="420" font-family="Plus Jakarta Sans, sans-serif" font-size="14" font-weight="700" fill="#1a1a1a">Recent uploads</text>
    
    <rect x="40" y="436" width="240" height="56" rx="6" fill="#fafafa" stroke="#e8e8e8" stroke-width="1"/>
    <rect x="56" y="452" width="24" height="24" rx="4" fill="#2458f3" opacity="0.1"/>
    <text x="90" y="466" font-family="Inter, system-ui, sans-serif" font-size="13" font-weight="600" fill="#1a1a1a">Dashboard_UI.fig</text>
    <text x="90" y="482" font-family="Roboto Mono, monospace" font-size="10" fill="#6b6b6b">24 tokens • 2 mins ago</text>
    <circle cx="256" cy="464" r="6" fill="#97ea90"/>
    
    <rect x="40" y="504" width="240" height="56" rx="6" fill="#fafafa" stroke="#e8e8e8" stroke-width="1"/>
    <rect x="56" y="520" width="24" height="24" rx="4" fill="#f05e23" opacity="0.1"/>
    <text x="90" y="534" font-family="Inter, system-ui, sans-serif" font-size="13" font-weight="600" fill="#1a1a1a">Mobile_App.sketch</text>
    <text x="90" y="550" font-family="Roboto Mono, monospace" font-size="10" fill="#6b6b6b">18 tokens • 1 hour ago</text>
    <circle cx="256" cy="532" r="6" fill="#97ea90"/>
  </g>
</svg>