<svg viewBox="0 0 350 300" xmlns="http://www.w3.org/2000/svg">
  <defs>
    <filter id="cardShadow" x="-20%" y="-20%" width="140%" height="140%">
      <feDropShadow dx="0" dy="4" stdDeviation="8" flood-opacity="0.08"/>
    </filter>
    <linearGradient id="sendGradient" x1="0%" y1="0%" x2="100%" y2="0%">
      <stop offset="0%" style="stop-color:#1258ca;stop-opacity:1"/>
      <stop offset="100%" style="stop-color:#2458f3;stop-opacity:1"/>
    </linearGradient>
  </defs>
  <g id="component_root">
    <rect x="25" y="25" width="300" height="250" rx="8" fill="#ffffff" filter="url(#cardShadow)"/>
    
    <text x="45" y="60" font-family="Plus Jakarta Sans, Inter, sans-serif" font-weight="700" font-size="18" fill="#111827">Input Message</text>
    
    <rect x="45" y="75" width="260" height="140" rx="8" fill="#ffffff" stroke="#d5d4d0" stroke-width="1"/>
    <text x="60" y="105" font-family="Inter, system-ui, sans-serif" font-size="14" fill="#9ca3af">Type your message...</text>
    
    <g transform="translate(55, 220)">
      <path d="M5 12.5c0-2.76 2.24-5 5-5s5 2.24 5 5v4c0 2.76-2.24 5-5 5s-5-2.24-5-5v-8c0-4.14 3.36-7.5 7.5-7.5s7.5 3.36 7.5 7.5" 
            stroke="#6b7280" stroke-width="1.5" fill="none" stroke-linecap="round" stroke-linejoin="round"/>
    </g>
    
    <g transform="translate(95, 220)">
      <circle cx="10" cy="10" r="8" stroke="#6b7280" stroke-width="1.5" fill="none"/>
      <circle cx="7" cy="8" r="1.5" fill="#6b7280"/>
      <circle cx="13" cy="8" r="1.5" fill="#6b7280"/>
      <path d="M7 13c1.2 1.5 2.8 2 3 2s1.8-.5 3-2" stroke="#6b7280" stroke-width="1.5" fill="none" stroke-linecap="round"/>
    </g>
    
    <rect x="245" y="220" width="60" height="32" rx="6" fill="url(#sendGradient)"/>
    <path d="M275 228l8 6-8 6v-4h-5v-4h5z" fill="#ffffff"/>
  </g>
</svg>