<svg viewBox="0 0 220 660" xmlns="http://www.w3.org/2000/svg">
  <defs>
    <filter id="card-shadow" x="-20%" y="-10%" width="140%" height="120%">
      <feDropShadow dx="0" dy="4" stdDeviation="8" flood-opacity="0.08"/>
    </filter>
    <linearGradient id="storage-grad" x1="0" y1="0" x2="1" y2="0">
      <stop offset="0%" stop-color="#97ea90"/>
      <stop offset="100%" stop-color="#1258ca"/>
    </linearGradient>
  </defs>
  
  <rect x="0" y="0" width="220" height="660" rx="10" fill="#ffffff" filter="url(#card-shadow)"/>
  
  <text x="20" y="44" font-family="Plus Jakarta Sans, Inter, sans-serif" font-weight="700" font-size="20" fill="#111827">Workspace</text>
  
  <rect x="16" y="62" width="188" height="36" rx="6" fill="#f9fafb" stroke="#e5e7eb" stroke-width="1"/>
  <text x="28" y="86" font-family="Inter, system-ui, sans-serif" font-size="12" fill="#9ca3af">Search files...</text>
  <path d="M178 78 L184 84" stroke="#9ca3af" stroke-width="2" stroke-linecap="round"/>
  <circle cx="174" cy="80" r="5" stroke="#9ca3af" stroke-width="2" fill="none"/>
  
  <text x="20" y="128" font-family="Plus Jakarta Sans, Inter, sans-serif" font-weight="600" font-size="10" fill="#9ca3af" letter-spacing="0.5">LOCAL STORAGE</text>
  
  <g>
    <rect x="16" y="140" width="188" height="40" rx="6" fill="transparent"/>
    <path d="M28 156 L28 164 L42 164 L42 158 L38 156 Z" fill="#ffd548"/>
    <text x="52" y="164" font-family="Inter, system-ui, sans-serif" font-size="13" fill="#374151">Home</text>
  </g>
  
  <g>
    <rect x="16" y="184" width="188" height="40" rx="6" fill="#f0fdf4" stroke="#97ea90" stroke-width="1.5"/>
    <path d="M28 200 L28 208 L42 208 L42 202 L38 200 Z" fill="#f05e23"/>
    <text x="52" y="208" font-family="Inter, system-ui, sans-serif" font-size="13" fill="#111827" font-weight="500">Projects</text>
    <circle cx="188" cy="204" r="3" fill="#97ea90"/>
  </g>
  
  <g>
    <rect x="16" y="228" width="188" height="40" rx="6" fill="transparent"/>
    <path d="M28 244 L28 252 L42 252 L42 246 L38 244 Z" fill="#ffd548"/>
    <text x="52" y="252" font-family="Inter, system-ui, sans-serif" font-size="13" fill="#374151">Documents</text>
    <text x="188" y="252" font-family="Roboto Mono, monospace" font-size="10" fill="#9ca3af" text-anchor="end">12</text>
  </g>
  
  <g>
    <rect x="16" y="272" width="188" height="40" rx="6" fill="transparent"/>
    <rect x="28" y="282" width="14" height="18" rx="2" fill="#f3f4f6" stroke="#d5d4d0" stroke-width="1"/>
    <text x="35" y="294" font-family="Inter, system-ui, sans-serif" font-size="7" fill="#6b7280" text-anchor="middle" font-weight="600">{}</text>
    <text x="52" y="296" font-family="Roboto Mono, monospace" font-size="11" fill="#4b5563">config.json</text>
  </g>
  
  <text x="20" y="348" font-family="Plus Jakarta Sans, Inter, sans-serif" font-weight="600" font-size="10" fill="#9ca3af" letter-spacing="0.5">CLOUD SOVEREIGN</text>
  
  <g>
    <rect x="16" y="360" width="188" height="40" rx="6" fill="transparent"/>
    <path d="M28 374 L35 388 L42 374 Z" fill="#2458f3"/>
    <text x="52" y="384" font-family="Inter, system-ui, sans-serif" font-size="13" fill="#374151">Google Drive</text>
    <circle cx="188" cy="380" r="3" fill="#97ea90"/>
  </g>
  
  <g>
    <rect x="16" y="404" width="188" height="40" rx="6" fill="transparent"/>
    <path d="M28 418 L32 424 L28 430 M42 418 L38 424 L42 430" stroke="#1258ca" stroke-width="2" fill="none" stroke-linecap="round" stroke-linejoin="round"/>
    <text x="52" y="428" font-family="Inter, system-ui, sans-serif" font-size="13" fill="#374151">Dropbox</text>
  </g>
  
  <line x1="20" y1="580" x2="200" y2="580" stroke="#e5e7eb" stroke-width="1"/>
  
  <text x="20" y="608" font-family="Inter, system-ui, sans-serif" font-size="12" fill="#374151" font-weight="600">Storage</text>
  <text x="200" y="608" font-family="Roboto Mono, monospace" font-size="10" fill="#6b7280" text-anchor="end">68%</text>
  
  <rect x="20" y="620" width="180" height="6" rx="3" fill="#e5e7eb"/>
  <rect x="20" y="620" width="122" height="6" rx="3" fill="url(#storage-grad)"/>
  
  <text x="20" y="648" font-family="Roboto Mono, monospace" font-size="10" fill="#9ca3af">128 GB of 256 GB used</text>
</svg>