<svg viewBox="0 0 240 480" xmlns="http://www.w3.org/2000/svg">
  <defs>
    <filter id="cardShadow" x="-20%" y="-20%" width="140%" height="140%">
      <feDropShadow dx="0" dy="4" stdDeviation="8" flood-opacity="0.08"/>
    </filter>
    <linearGradient id="goldGradient" x1="0%" y1="0%" x2="0%" y2="100%">
      <stop offset="0%" style="stop-color:#ffd548;stop-opacity:1"/>
      <stop offset="100%" style="stop-color:#ffc107;stop-opacity:1"/>
    </linearGradient>
  </defs>
  
  <g id="component_root">
    <rect x="12" y="12" width="216" height="456" rx="10" fill="#ffffff" filter="url(#cardShadow)"/>
    
    <text x="32" y="48" font-family="Plus Jakarta Sans, Inter, sans-serif" font-weight="700" font-size="18" fill="#1a1a1a">Arbitrage</text>
    <text x="32" y="68" font-family="Plus Jakarta Sans, Inter, sans-serif" font-weight="700" font-size="18" fill="#1a1a1a">Dashboard</text>
    
    <circle cx="32" cy="88" r="4" fill="#97ea90"/>
    <text x="44" y="92" font-family="Inter, system-ui, sans-serif" font-size="11" fill="#666666">Sullivan collecting data...</text>
    
    <line x1="32" y1="108" x2="208" y2="108" stroke="#e5e5e5" stroke-width="1"/>
    
    <g transform="translate(0, 124)">
      <rect x="32" y="0" width="176" height="88" rx="8" fill="#fafafa" stroke="#d5d4d0" stroke-width="1"/>
      <text x="48" y="24" font-family="Inter, system-ui, sans-serif" font-size="10" fill="#888888">BINANCE</text>
      <text x="152" y="24" font-family="Inter, system-ui, sans-serif" font-size="10" fill="#888888">COINBASE</text>
      <text x="48" y="48" font-family="Roboto Mono, monospace" font-size="14" font-weight="600" fill="#1a1a1a">$42,150</text>
      <text x="152" y="48" font-family="Roboto Mono, monospace" font-size="14" font-weight="600" fill="#1a1a1a">$42,890</text>
      <rect x="48" y="62" width="84" height="18" rx="4" fill="#ffd548" fill-opacity="0.2"/>
      <text x="56" y="75" font-family="Roboto Mono, monospace" font-size="10" fill="#b8860b">+1.75%</text>
      <path d="M 140 71 L 152 71 L 148 67 M 152 71 L 148 75" stroke="#f05e23" stroke-width="1.5" fill="none"/>
    </g>
    
    <g transform="translate(0, 224)">
      <rect x="32" y="0" width="176" height="88" rx="8" fill="#fafafa" stroke="#d5d4d0" stroke-width="1"/>
      <text x="48" y="24" font-family="Inter, system-ui, sans-serif" font-size="10" fill="#888888">KRAKEN</text>
      <text x="152" y="24" font-family="Inter, system-ui, sans-serif" font-size="10" fill="#888888">FTX</text>
      <text x="48" y="48" font-family="Roboto Mono, monospace" font-size="14" font-weight="600" fill="#1a1a1a">$2,845</text>
      <text x="152" y="48" font-family="Roboto Mono, monospace" font-size="14" font-weight="600" fill="#1a1a1a">$2,812</text>
      <rect x="48" y="62" width="84" height="18" rx="4" fill="#ffd548" fill-opacity="0.2"/>
      <text x="56" y="75" font-family="Roboto Mono, monospace" font-size="10" fill="#b8860b">+1.17%</text>
      <path d="M 140 71 L 152 71 L 148 67 M 152 71 L 148 75" stroke="#f05e23" stroke-width="1.5" fill="none"/>
    </g>
    
    <g transform="translate(0, 324)">
      <rect x="32" y="0" width="176" height="88" rx="8" fill="#fafafa" stroke="#d5d4d0" stroke-width="1"/>
      <text x="48" y="24" font-family="Inter, system-ui, sans-serif" font-size="10" fill="#888888">BYBIT</text>
      <text x="152" y="24" font-family="Inter, system-ui, sans-serif" font-size="10" fill="#888888">OKX</text>
      <text x="48" y="48" font-family="Roboto Mono, monospace" font-size="14" font-weight="600" fill="#1a1a1a">$128.40</text>
      <text x="152" y="48" font-family="Roboto Mono, monospace" font-size="14" font-weight="600" fill="#1a1a1a">$131.20</text>
      <rect x="48" y="62" width="84" height="18" rx="4" fill="#ffd548" fill-opacity="0.2"/>
      <text x="56" y="75" font-family="Roboto Mono, monospace" font-size="10" fill="#b8860b">+2.18%</text>
      <path d="M 140 71 L 152 71 L 148 67 M 152 71 L 148 75" stroke="#f05e23" stroke-width="1.5" fill="none"/>
    </g>
    
    <rect x="32" y="428" width="176" height="28" rx="6" fill="url(#goldGradient)"/>
    <text x="120" y="446" font-family="Plus Jakarta Sans, Inter, sans-serif" font-weight="700" font-size="11" fill="#1a1a1a" text-anchor="middle">Execute Trade</text>
  </g>
</svg>