<svg viewBox="0 0 280 580" xmlns="http://www.w3.org/2000/svg">
  <defs>
    <filter id="shadow" x="-20%" y="-20%" width="140%" height="140%">
      <feDropShadow dx="0" dy="4" stdDeviation="8" flood-opacity="0.08"/>
    </filter>
    <linearGradient id="activeState" x1="0%" y1="0%" x2="100%" y2="0%">
      <stop offset="0%" style="stop-color:#fff5f2;stop-opacity:1" />
      <stop offset="100%" style="stop-color:#ffffff;stop-opacity:0" />
    </linearGradient>
  </defs>
  
  <g id="component_root">
    <rect x="0" y="0" width="280" height="580" rx="10" fill="#ffffff" filter="url(#shadow)"/>
    
    <text x="24" y="44" font-family="Plus Jakarta Sans, Inter, sans-serif" font-weight="700" font-size="20" fill="#1a1a1a">Arborescence Projet</text>
    
    <line x1="24" y1="64" x2="256" y2="64" stroke="#e5e5e5" stroke-width="1"/>
    
    <g transform="translate(24, 88)">
      <rect x="-8" y="2" width="248" height="32" rx="6" fill="url(#activeState)"/>
      <path d="M 2 16 L 6 20 L 10 16" stroke="#f05e23" stroke-width="1.5" fill="none" stroke-linecap="round" stroke-linejoin="round"/>
      <path d="M 22 12 L 22 24 L 38 24 L 38 14 L 33 14 L 31 12 Z" fill="#fff9e6" stroke="#f05e23" stroke-width="1.5" stroke-linejoin="round"/>
      <text x="46" y="22" font-family="Inter, system-ui, sans-serif" font-weight="600" font-size="13" fill="#1a1a1a">Projet Alpha</text>
    </g>
    
    <g transform="translate(44, 124)">
      <rect x="-8" y="2" width="228" height="32" rx="6" fill="url(#activeState)"/>
      <path d="M 2 16 L 6 20 L 10 16" stroke="#f05e23" stroke-width="1.5" fill="none" stroke-linecap="round" stroke-linejoin="round"/>
      <path d="M 22 12 L 22 24 L 38 24 L 38 14 L 33 14 L 31 12 Z" fill="#fffbeb" stroke="#f59e0b" stroke-width="1.5" stroke-linejoin="round"/>
      <text x="46" y="22" font-family="Inter, system-ui, sans-serif" font-weight="500" font-size="13" fill="#1a1a1a">Documents</text>
    </g>
    
    <g transform="translate(64, 160)">
      <rect x="22" y="10" width="12" height="16" rx="2" fill="#fff0eb" stroke="#f05e23" stroke-width="1.5"/>
      <text x="23" y="22" font-family="Roboto Mono, monospace" font-size="10" fill="#f05e23" font-weight="600">PDF</text>
      <text x="42" y="22" font-family="Inter, system-ui, sans-serif" font-size="13" fill="#4a4a4a">contrat.pdf</text>
    </g>
    
    <g transform="translate(64, 196)">
      <rect x="22" y="10" width="12" height="16" rx="2" fill="#e8f0fe" stroke="#1258ca" stroke-width="1.5"/>
      <text x="24" y="22" font-family="Roboto Mono, monospace" font-size="9" fill="#1258ca" font-weight="600">DOC</text>
      <text x="42" y="22" font-family="Inter, system-ui, sans-serif" font-size="13" fill="#4a4a4a">specs.docx</text>
    </g>
    
    <g transform="translate(44, 232)">
      <path d="M 6 14 L 10 18 L 6 22" stroke="#9ca3af" stroke-width="1.5" fill="none" stroke-linecap="round" stroke-linejoin="round"/>
      <path d="M 22 12 L 22 24 L 38 24 L 38 14 L 33 14 L 31 12 Z" fill="#f9fafb" stroke="#d1d5db" stroke-width="1.5" stroke-linejoin="round"/>
      <text x="46" y="22" font-family="Inter, system-ui, sans-serif" font-size="13" fill="#6b7280">Assets</text>
    </g>
    
    <g transform="translate(44, 268)">
      <path d="M 2 16 L 6 20 L 10 16" stroke="#f05e23" stroke-width="1.5" fill="none" stroke-linecap="round" stroke-linejoin="round"/>
      <path d="M 22 12 L 22 24 L 38 24 L 38 14 L 33 14 L 31 12 Z" fill="#f0fdf4" stroke="#97ea90" stroke-width="1.5" stroke-linejoin="round"/>
      <text x="46" y="22" font-family="Inter, system-ui, sans-serif" font-weight="500" font-size="13" fill="#1a1a1a">Code</text>
    </g>
    
    <g transform="translate(64, 304)">
      <path d="M 6 14 L 10 18 L 6 22" stroke="#9ca3af" stroke-width="1.5" fill="none" stroke-linecap="round" stroke-linejoin="round"/>
      <path d="M 22 12 L 22 24 L 38 24 L 38 14 L 33 14 L 31 12 Z" fill="#f9fafb" stroke="#d1d5db" stroke-width="1.5" stroke-linejoin="round"/>
      <text x="46" y="22" font-family="Inter, system-ui, sans-serif" font-size="13" fill="#6b7280">src/</text>
    </g>
    
    <g transform="translate(64, 340)">
      <rect x="22" y="10" width="12" height="16" rx="2" fill="#f3f4f6" stroke="#4b5563" stroke-width="1.5"/>
      <text x="23" y="22" font-family="Roboto Mono, monospace" font-size="8" fill="#4b5563" font-weight="600">JSON</text>
      <text x="42" y="22" font-family="Inter, system-ui, sans-serif" font-size="13" fill="#4a4a4a">config.json</text>
    </g>
    
    <g transform="translate(24, 376)">
      <path d="M 6 14 L 10 18 L 6 22" stroke="#9ca3af" stroke-width="1.5" fill="none" stroke-linecap="round" stroke-linejoin="round"/>
      <path d="M 22 12 L 22 24 L 38 24 L 38 14 L 33 14 L 31 12 Z" fill="#f9fafb" stroke="#d1d5db" stroke-width="1.5" stroke-linejoin="round"/>
      <text x="46" y="22" font-family="Inter, system-ui, sans-serif" font-size="13" fill="#6b7280">Archives 2023</text>
    </g>
  </g>
</svg>