<svg viewBox="0 0 1140 500" xmlns="http://www.w3.org/2000/svg">
  <defs>
    <filter id="shadow-main" x="-50%" y="-50%" width="200%" height="200%">
      <feDropShadow dx="0" dy="4" stdDeviation="8" flood-opacity="0.08"/>
    </filter>
    <linearGradient id="btn-gradient" x1="0%" y1="0%" x2="0%" y2="100%">
      <stop offset="0%" style="stop-color:#a8f0a1;stop-opacity:1" />
      <stop offset="100%" style="stop-color:#97ea90;stop-opacity:1" />
    </linearGradient>
  </defs>
  
  <g id="component_root">
    <rect x="0" y="0" width="1140" height="500" fill="#fafafa"/>
    
    <rect x="0" y="0" width="240" height="500" fill="#ffffff" stroke="#d5d4d0" stroke-width="1"/>
    <text x="40" y="50" font-family="Plus Jakarta Sans, Inter, sans-serif" font-weight="700" font-size="18" fill="#1a1a1a">Explorateur</text>
    
    <rect x="280" y="50" width="820" height="400" rx="10" fill="#ffffff" filter="url(#shadow-main)"/>
    
    <text x="320" y="100" font-family="Plus Jakarta Sans, Inter, sans-serif" font-weight="700" font-size="20" fill="#1a1a1a">Documents Actifs</text>
    
    <text x="320" y="140" font-family="Inter, system-ui, sans-serif" font-size="13" fill="#6b6b6b">
      Racine <tspan fill="#c5c4c0">/</tspan> Projets <tspan fill="#c5c4c0">/</tspan> 2024 <tspan fill="#c5c4c0">/</tspan> <tspan font-weight="600" fill="#1a1a1a">Documents Actifs</tspan>
    </text>
    
    <rect x="320" y="165" width="740" height="1.5" fill="#d5d4d0"/>
    
    <g transform="translate(320, 190)">
      <rect x="0" y="0" width="740" height="48" rx="6" fill="#fafafa" stroke="#d5d4d0" stroke-width="1"/>
      <text x="48" y="30" font-family="Inter, system-ui, sans-serif" font-size="14" fill="#2a2a2a">présentation_finale.pptx</text>
      <text x="640" y="30" font-family="Roboto Mono, monospace" font-size="11" fill="#6b6b6b">4.2 MB</text>
      
      <rect x="0" y="64" width="740" height="48" rx="6" fill="#ffffff" stroke="#d5d4d0" stroke-width="1"/>
      <text x="48" y="94" font-family="Inter, system-ui, sans-serif" font-size="14" fill="#2a2a2a">analyse_marché.pdf</text>
      <text x="640" y="94" font-family="Roboto Mono, monospace" font-size="11" fill="#6b6b6b">2.8 MB</text>
    </g>
    
    <g transform="translate(320, 310)">
      <rect x="0" y="0" width="160" height="44" rx="8" fill="url(#btn-gradient)" stroke="#87da80" stroke-width="1"/>
      <path d="M24 14L18 20M24 14L30 20M24 14V28" stroke="#1a5c1a" stroke-width="2" stroke-linecap="round" stroke-linejoin="round" fill="none"/>
      <text x="46" y="28" font-family="Inter, system-ui, sans-serif" font-weight="600" font-size="15" fill="#1a5c1a">Remonter</text>
    </g>
    
    <text x="320" y="380" font-family="Inter, system-ui, sans-serif" font-size="13" fill="#6b6b6b">
      Revenir au dossier : <tspan font-weight="600" fill="#1a1a1a">2024</tspan>
    </text>
    
    <rect x="980" y="85" width="80" height="24" rx="4" fill="#f5f5f5" stroke="#d5d4d0" stroke-width="1"/>
    <text x="1020" y="102" font-family="Roboto Mono, monospace" font-size="10" fill="#6b6b6b" text-anchor="middle">NIVEAU 3</text>
  </g>
</svg>