<svg viewBox="0 0 220 520" fill="none" xmlns="http://www.w3.org/2000/svg">
  <defs>
    <filter id="card-shadow" x="-20%" y="-20%" width="140%" height="140%">
      <feDropShadow dx="0" dy="4" stdDeviation="8" flood-opacity="0.08"/>
    </filter>
    <linearGradient id="btn-gradient" x1="0" y1="0" x2="0" y2="1">
      <stop offset="0%" stop-color="#f05e23"/>
      <stop offset="100%" stop-color="#d94d1a"/>
    </linearGradient>
  </defs>
  
  <g id="component_root">
    <rect x="10" y="10" width="200" height="500" rx="8" fill="#ffffff" filter="url(#card-shadow)" stroke="#d5d4d0" stroke-width="1"/>
    
    <text x="25" y="40" font-family="Plus Jakarta Sans, Inter, sans-serif" font-weight="700" font-size="18" fill="#1a1a1a">Explorateur</text>
    
    <rect x="20" y="55" width="180" height="32" rx="6" fill="#fafafa" stroke="#e5e5e5" stroke-width="1"/>
    <text x="52" y="76" font-family="Inter, system-ui, sans-serif" font-size="12" fill="#6b6b6b">Rechercher...</text>
    <path d="M32 68 C32 65.79 33.79 64 36 64 C38.21 64 40 65.79 40 68 C40 70.21 38.21 72 36 72 C33.79 72 32 70.21 32 68 Z M38.5 73.5 L41.5 76.5" stroke="#9ca3af" stroke-width="1.5" stroke-linecap="round" fill="none"/>
    
    <rect x="20" y="97" width="88" height="28" rx="6" fill="#f05e23"/>
    <text x="64" y="115" font-family="Inter, system-ui, sans-serif" font-weight="600" font-size="11" fill="#ffffff" text-anchor="middle">Cloud</text>
    <rect x="112" y="97" width="88" height="28" rx="6" fill="transparent" stroke="#e5e5e5" stroke-width="1"/>
    <text x="156" y="115" font-family="Inter, system-ui, sans-serif" font-weight="500" font-size="11" fill="#6b6b6b" text-anchor="middle">Local</text>
    
    <rect x="20" y="135" width="180" height="40" rx="6" fill="#fff5f2"/>
    <path d="M35 148 L35 158 C35 159.1 35.9 160 37 160 L53 160 C54.1 160 55 159.1 55 158 L55 152 C55 150.9 54.1 150 53 150 L47 150 L45 148 L37 148 C35.9 148 35 148.9 35 148 Z" fill="#f05e23"/>
    <text x="62" y="158" font-family="Inter, system-ui, sans-serif" font-weight="500" font-size="12" fill="#1a1a1a">Documents</text>
    <text x="170" y="158" font-family="Roboto Mono, monospace" font-size="10" fill="#6b6b6b" text-anchor="end">12</text>
    
    <rect x="20" y="180" width="180" height="40" rx="6" fill="transparent"/>
    <path d="M35 193 L35 203 C35 204.1 35.9 205 37 205 L53 205 C54.1 205 55 204.1 55 203 L55 197 C55 195.9 54.1 195 53 195 L47 195 L45 193 L37 193 C35.9 193 35 193.9 35 193 Z" fill="#1258ca"/>
    <text x="62" y="203" font-family="Inter, system-ui, sans-serif" font-weight="500" font-size="12" fill="#1a1a1a">Images</text>
    <text x="170" y="203" font-family="Roboto Mono, monospace" font-size="10" fill="#6b6b6b" text-anchor="end">48</text>
    
    <rect x="20" y="225" width="180" height="40" rx="6" fill="transparent"/>
    <path d="M38 232 L38 242 C38 243.1 38.9 244 40 244 L50 244 C51.1 244 52 243.1 52 242 L52 237 L47 232 L40 232 C38.9 232 38 232.9 38 232 Z" fill="#e5e5e5"/>
    <path d="M47 232 L47 237 L52 237" stroke="#c5c4c0" stroke-width="1" fill="none"/>
    <text x="62" y="243" font-family="Inter, system-ui, sans-serif" font-weight="500" font-size="12" fill="#1a1a1a">Projet-final.psd</text>
    <text x="170" y="243" font-family="Roboto Mono, monospace" font-size="10" fill="#6b6b6b" text-anchor="end">24MB</text>
    
    <rect x="20" y="270" width="180" height="40" rx="6" fill="transparent"/>
    <rect x="38" y="278" width="14" height="18" rx="2" fill="#97ea90" opacity="0.3"/>
    <path d="M40 283 L50 283 M40 287 L50 287 M40 291 L46 291" stroke="#22c55e" stroke-width="1.5" stroke-linecap="round"/>
    <text x="62" y="293" font-family="Inter, system-ui, sans-serif" font-weight="500" font-size="12" fill="#1a1a1a">Budget-2024.xlsx</text>
    <text x="170" y="293" font-family="Roboto Mono, monospace" font-size="10" fill="#6b6b6b" text-anchor="end">2.4MB</text>
    
    <rect x="20" y="315" width="180" height="40" rx="6" fill="transparent"/>
    <rect x="38" y="323" width="14" height="18" rx="1" fill="#fee2e2"/>
    <text x="40" y="335" font-family="Inter, system-ui, sans-serif" font-weight="700" font-size="7" fill="#dc2626">PDF</text>
    <text x="62" y="338" font-family="Inter, system-ui, sans-serif" font-weight="500" font-size="12" fill="#1a1a1a">Contrat.pdf</text>
    <text x="170" y="338" font-family="Roboto Mono, monospace" font-size="10" fill="#6b6b6b" text-anchor="end">1.2MB</text>
    
    <text x="25" y="380" font-family="Plus Jakarta Sans, Inter, sans-serif" font-weight="700" font-size="12" fill="#1a1a1a">Stockage Cloud</text>
    <rect x="25" y="390" width="170" height="6" rx="3" fill="#f3f4f6"/>
    <rect x="25" y="390" width="102" height="6" rx="3" fill="#f05e23"/>
    <text x="25" y="410" font-family="Roboto Mono, monospace" font-size="10" fill="#6b6b6b">102 GB</text>
    <text x="195" y="410" font-family="Roboto Mono, monospace" font-size="10" fill="#9ca3af" text-anchor="end">sur 200 GB</text>
    
    <rect x="20" y="430" width="180" height="36" rx="6" fill="url(#btn-gradient)"/>
    <path d="M95 442 L95 450 M95 442 L92 447 M95 442 L98 447" stroke="#ffffff" stroke-width="1.5" stroke-linecap="round" stroke-linejoin="round"/>
    <text x="115" y="452" font-family="Inter, system-ui, sans-serif" font-weight="600" font-size="12" fill="#ffffff">Téléverser</text>
    
    <rect x="20" y="472" width="180" height="36" rx="6" fill="#ffffff" stroke="#d5d4d0" stroke-width="1"/>
    <path d="M38 482 L38 494 L52 494 L52 486 L47 482 L38 482 Z M47 482 L47 486 L52 486" stroke="#6b6b6b" stroke-width="1.5" fill="none" stroke-linejoin="round"/>
    <text x="110" y="494" font-family="Inter, system-ui, sans-serif" font-weight="600" font-size="12" fill="#1a1a1a" text-anchor="middle">Nouveau dossier</text>
  </g>
</svg>