<svg viewBox="0 0 1140 140" xmlns="http://www.w3.org/2000/svg">
  <defs>
    <filter id="cardShadow" x="-50%" y="-50%" width="200%" height="200%">
      <feDropShadow dx="0" dy="4" stdDeviation="8" flood-opacity="0.08"/>
    </filter>
  </defs>
  
  <g id="component_root">
    <rect x="0" y="0" width="1140" height="140" rx="8" fill="#ffffff" filter="url(#cardShadow)"/>
    
    <text x="24" y="36" font-family="Inter, system-ui, sans-serif" font-size="18" font-weight="700" fill="#1a1a1a">Trace Logs</text>
    
    <g transform="translate(1056, 12)" style="cursor: pointer;">
      <rect x="0" y="0" width="60" height="28" rx="6" fill="#ffffff" stroke="#d5d4d0" stroke-width="1"/>
      <path d="M10 14c0-3.3 2.7-6 6-6 2.2 0 4.1 1.2 5.2 3M10 14c0 3.3 2.7 6 6 6 2.2 0 4.1-1.2 5.2-3M10 14H8m8-6l-2 3 2 3" stroke="#1258ca" stroke-width="1.5" stroke-linecap="round" stroke-linejoin="round" fill="none" transform="translate(4, 2) scale(0.9)"/>
      <text x="28" y="19" font-family="Inter, system-ui, sans-serif" font-size="12" font-weight="500" fill="#1258ca">Reload</text>
    </g>
    
    <g transform="translate(24, 60)">
      <text x="0" y="16" font-family="Inter, system-ui, sans-serif" font-size="11" font-weight="600" fill="#6b7280">TIMESTAMP</text>
      <text x="140" y="16" font-family="Inter, system-ui, sans-serif" font-size="11" font-weight="600" fill="#6b7280">LEVEL</text>
      <text x="220" y="16" font-family="Inter, system-ui, sans-serif" font-size="11" font-weight="600" fill="#6b7280">SERVICE</text>
      <text x="340" y="16" font-family="Inter, system-ui, sans-serif" font-size="11" font-weight="600" fill="#6b7280">MESSAGE</text>
      <text x="940" y="16" font-family="Inter, system-ui, sans-serif" font-size="11" font-weight="600" fill="#6b7280">STATUS</text>
      <line x1="0" y1="24" x2="1092" y2="24" stroke="#d5d4d0" stroke-width="1"/>
    </g>
    
    <g transform="translate(24, 96)">
      <text x="0" y="12" font-family="Roboto Mono, monospace" font-size="11" fill="#374151">2024-01-15 14:32:01.243</text>
      <rect x="140" y="0" width="44" height="18" rx="4" fill="#dbeafe"/>
      <text x="162" y="13" font-family="Inter, system-ui, sans-serif" font-size="10" font-weight="600" fill="#1258ca" text-anchor="middle">INFO</text>
      <text x="220" y="12" font-family="Inter, system-ui, sans-serif" font-size="12" fill="#374151">auth-service</text>
      <text x="340" y="12" font-family="Inter, system-ui, sans-serif" font-size="12" fill="#374151">User authentication successful via OAuth2</text>
      <circle cx="952" cy="8" r="4" fill="#97ea90"/>
      <text x="968" y="12" font-family="Inter, system-ui, sans-serif" font-size="11" fill="#374151">200</text>
    </g>
    
    <g transform="translate(24, 128)">
      <text x="0" y="12" font-family="Roboto Mono, monospace" font-size="11" fill="#374151">2024-01-15 14:31:58.892</text>
      <rect x="140" y="0" width="50" height="18" rx="4" fill="#ffedd5"/>
      <text x="165" y="13" font-family="Inter, system-ui, sans-serif" font-size="10" font-weight="600" fill="#f05e23" text-anchor="middle">WARN</text>
      <text x="220" y="12" font-family="Inter, system-ui, sans-serif" font-size="12" fill="#374151">api-gateway</text>
      <text x="340" y="12" font-family="Inter, system-ui, sans-serif" font-size="12" fill="#374151">Rate limit threshold approaching (89%)</text>
      <circle cx="952" cy="8" r="4" fill="#f05e23"/>
      <text x="968" y="12" font-family="Inter, system-ui, sans-serif" font-size="11" fill="#374151">429</text>
    </g>
  </g>
</svg>