<svg viewBox="0 0 600 600" xmlns="http://www.w3.org/2000/svg">
  <defs>
    <filter id="shadow" x="-20%" y="-20%" width="140%" height="140%">
      <feDropShadow dx="0" dy="4" stdDeviation="8" flood-opacity="0.08"/>
    </filter>
    <linearGradient id="btnGradient" x1="0%" y1="0%" x2="0%" y2="100%">
      <stop offset="0%" style="stop-color:#2458f3;stop-opacity:1" />
      <stop offset="100%" style="stop-color:#1a4ad4;stop-opacity:1" />
    </linearGradient>
  </defs>
  
  <rect x="20" y="20" width="560" height="560" rx="10" fill="#ffffff" filter="url(#shadow)"/>
  
  <rect x="20" y="20" width="560" height="60" rx="10" fill="#ffffff"/>
  <line x1="20" y1="80" x2="580" y2="80" stroke="#e5e5e5" stroke-width="1"/>
  
  <circle cx="50" cy="50" r="6" fill="#ff5f57"/>
  <circle cx="70" cy="50" r="6" fill="#febc2e"/>
  <circle cx="90" cy="50" r="6" fill="#28c840"/>
  
  <rect x="120" y="40" width="320" height="24" rx="6" fill="#f5f5f5"/>
  <text x="140" y="56" font-family="Inter, system-ui, sans-serif" font-size="12" fill="#666">dashboard.vercel.com/project/acme-app</text>
  
  <circle cx="540" cy="50" r="16" fill="#2458f3" opacity="0.1"/>
  <text x="540" y="54" font-family="Plus Jakarta Sans, Inter, sans-serif" font-size="12" font-weight="700" fill="#2458f3" text-anchor="middle">JD</text>
  
  <rect x="20" y="80" width="180" height="500" rx="0" fill="#fafafa"/>
  <line x1="200" y1="80" x2="200" y2="580" stroke="#e5e5e5" stroke-width="1"/>
  
  <rect x="40" y="110" width="140" height="36" rx="6" fill="#ffffff" stroke="#e5e5e5" stroke-width="1"/>
  <text x="60" y="133" font-family="Inter, system-ui, sans-serif" font-size="14" font-weight="600" fill="#1a1a1a">Overview</text>
  
  <text x="60" y="180" font-family="Inter, system-ui, sans-serif" font-size="14" fill="#666">Deployments</text>
  <text x="60" y="220" font-family="Inter, system-ui, sans-serif" font-size="14" fill="#666">Analytics</text>
  <text x="60" y="260" font-family="Inter, system-ui, sans-serif" font-size="14" fill="#666">Logs</text>
  <text x="60" y="300" font-family="Inter, system-ui, sans-serif" font-size="14" fill="#666">Settings</text>
  
  <rect x="40" y="480" width="140" height="40" rx="6" fill="#ffffff" stroke="#d5d4d0" stroke-width="1"/>
  <circle cx="60" cy="500" r="8" fill="#1a1a1a"/>
  <text x="80" y="504" font-family="Inter, system-ui, sans-serif" font-size="13" font-weight="600" fill="#1a1a1a">acme-app</text>
  
  <text x="230" y="120" font-family="Plus Jakarta Sans, Inter, sans-serif" font-size="20" font-weight="700" fill="#1a1a1a">Production Deployment</text>
  
  <rect x="450" y="105" width="100" height="28" rx="12" fill="#97ea90" opacity="0.2"/>
  <circle cx="470" cy="119" r="4" fill="#22c55e"/>
  <text x="485" y="123" font-family="Inter, system-ui, sans-serif" font-size="12" font-weight="600" fill="#15803d">Ready</text>
  
  <rect x="230" y="150" width="330" height="200" rx="8" fill="#ffffff" stroke="#e5e5e5" stroke-width="1"/>
  
  <text x="250" y="185" font-family="Inter, system-ui, sans-serif" font-size="12" fill="#666" font-weight="600">PRODUCTION</text>
  
  <text x="250" y="220" font-family="Roboto Mono, monospace" font-size="14" fill="#2458f3" font-weight="600">acme-app.vercel.app</text>
  
  <rect x="250" y="240" width="290" height="40" rx="6" fill="#f5f5f5"/>
  <rect x="260" y="248" width="24" height="24" rx="4" fill="#f05e23" opacity="0.1"/>
  <text x="268" y="264" font-family="Inter, system-ui, sans-serif" font-size="11" fill="#f05e23" font-weight="700">git</text>
  <text x="295" y="264" font-family="Roboto Mono, monospace" font-size="12" fill="#333">main</text>
  <text x="350" y="264" font-family="Roboto Mono, monospace" font-size="11" fill="#666">a3f2d1c</text>
  <text x="430" y="264" font-family="Inter, system-ui, sans-serif" font-size="11" fill="#999">2m ago</text>
  
  <rect x="250" y="300" width="140" height="36" rx="6" fill="url(#btnGradient)"/>
  <text x="320" y="323" font-family="Inter, system-ui, sans-serif" font-size="14" font-weight="600" fill="#ffffff" text-anchor="middle">Visit</text>
  
  <rect x="400" y="300" width="120" height="36" rx="6" fill="#ffffff" stroke="#d5d4d0" stroke-width="1.5"/>
  <text x="460" y="323" font-family="Inter, system-ui, sans-serif" font-size="14" font-weight="500" fill="#333" text-anchor="middle">Redeploy</text>
  
  <text x="230" y="380" font-family="Plus Jakarta Sans, Inter, sans-serif" font-size="16" font-weight="700" fill="#1a1a1a">Recent Activity</text>
  
  <rect x="230" y="400" width="330" height="60" rx="6" fill="#fafafa" stroke="#e5e5e5" stroke-width="1"/>
  <circle cx="260" cy="430" r="8" fill="#97ea90"/>
  <path d="M256 430 L259 433 L264 427" stroke="#fff" stroke-width="1.5" fill="none" stroke-linecap="round" stroke-linejoin="round"/>
  <text x="280" y="425" font-family="Inter, system-ui, sans-serif" font-size="13" font-weight="600" fill="#1a1a1a">Update homepage hero</text>
  <text x="280" y="445" font-family="Roboto Mono, monospace" font-size="10" fill="#666">9f4e2b8 • main</text>
  <text x="480" y="435" font-family="Inter, system-ui, sans-serif" font-size="12" fill="#999">1h ago</text>
  
  <rect x="230" y="470" width="330" height="60" rx="6" fill="#fafafa" stroke="#e5e5e5" stroke-width="1"/>
  <circle cx="260" cy="500" r="8" fill="#97ea90"/>
  <path d="M256 500 L259 503 L264 497" stroke="#fff" stroke-width="1.5" fill="none" stroke-linecap="round" stroke-linejoin="round"/>
  <text x="280" y="495" font-family="Inter, system-ui, sans-serif" font-size="13" font-weight="600" fill="#1a1a1a">Fix navigation responsive</text>
  <text x="280" y="515" font-family="Roboto Mono, monospace" font-size="10" fill="#666">b2c8d4a • main</text>
  <text x="480" y="505" font-family="Inter, system-ui, sans-serif" font-size="12" fill="#999">3h ago</text>
</svg>