<svg viewBox="0 0 800 600" xmlns="http://www.w3.org/2000/svg">
  <defs>
    <filter id="shadow-card" x="-50%" y="-50%" width="200%" height="200%">
      <feDropShadow dx="0" dy="4" stdDeviation="8" flood-opacity="0.08"/>
    </filter>
    <filter id="shadow-item" x="-50%" y="-50%" width="200%" height="200%">
      <feDropShadow dx="0" dy="2" stdDeviation="4" flood-opacity="0.12"/>
    </filter>
    <pattern id="grid" width="40" height="40" patternUnits="userSpaceOnUse">
      <circle cx="20" cy="20" r="1" fill="#e5e4df"/>
    </pattern>
    <linearGradient id="blue-gradient" x1="0%" y1="0%" x2="100%" y2="100%">
      <stop offset="0%" style="stop-color:#1258ca;stop-opacity:1" />
      <stop offset="100%" style="stop-color:#2458f3;stop-opacity:1" />
    </linearGradient>
    <linearGradient id="image-gradient" x1="0%" y1="0%" x2="0%" y2="100%">
      <stop offset="0%" style="stop-color:#ffd548;stop-opacity:0.2" />
      <stop offset="100%" style="stop-color:#f05e23;stop-opacity:0.1" />
    </linearGradient>
  </defs>
  
  <g id="component_root">
    <rect x="40" y="40" width="720" height="520" rx="10" fill="#ffffff" filter="url(#shadow-card)"/>
    <rect x="40" y="40" width="720" height="520" rx="10" fill="none" stroke="#d5d4d0" stroke-width="1"/>
    
    <text x="70" y="80" font-family="Plus Jakarta Sans, Inter, sans-serif" font-weight="700" font-size="20" fill="#111827">Zone Drag &amp; Drop</text>
    <text x="70" y="105" font-family="Inter, system-ui, sans-serif" font-size="13" fill="#6b7280">Organisez vos éléments visuels</text>
    
    <rect x="70" y="130" width="660" height="400" rx="6" fill="url(#grid)"/>
    
    <g transform="translate(100, 160)">
      <rect width="140" height="100" rx="8" fill="#ffffff" filter="url(#shadow-item)" stroke="#e5e4df" stroke-width="1"/>
      <rect x="0" y="0" width="140" height="32" rx="8" fill="url(#blue-gradient)"/>
      <rect x="0" y="24" width="140" height="76" rx="0" fill="#ffffff"/>
      <rect x="0" y="24" width="140" height="8" fill="url(#blue-gradient)"/>
      <text x="12" y="22" font-family="Inter, system-ui, sans-serif" font-weight="600" font-size="12" fill="#ffffff">Data Widget</text>
      <text x="12" y="55" font-family="Roboto Mono, monospace" font-size="11" fill="#1258ca">1,248</text>
      <text x="12" y="72" font-family="Inter, system-ui, sans-serif" font-size="10" fill="#9ca3af">views</text>
      <g transform="translate(118, 8)">
        <circle cx="0" cy="0" r="1.5" fill="#ffffff" opacity="0.6"/>
        <circle cx="6" cy="0" r="1.5" fill="#ffffff" opacity="0.6"/>
        <circle cx="0" cy="5" r="1.5" fill="#ffffff" opacity="0.6"/>
        <circle cx="6" cy="5" r="1.5" fill="#ffffff" opacity="0.6"/>
        <circle cx="0" cy="10" r="1.5" fill="#ffffff" opacity="0.6"/>
        <circle cx="6" cy="10" r="1.5" fill="#ffffff" opacity="0.6"/>
      </g>
    </g>
    
    <g transform="translate(270, 160)">
      <rect width="160" height="120" rx="8" fill="#ffffff" filter="url(#shadow-item)" stroke="#e5e4df" stroke-width="1"/>
      <rect x="8" y="8" width="144" height="80" rx="6" fill="url(#image-gradient)"/>
      <path d="M 60 65 L 80 45 L 95 60 L 110 40 L 130 70" fill="none" stroke="#f05e23" stroke-width="2" stroke-linecap="round" stroke-linejoin="round" opacity="0.6"/>
      <circle cx="95" cy="50" r="6" fill="#ffd548" opacity="0.8"/>
      <text x="12" y="102" font-family="Inter, system-ui, sans-serif" font-weight="500" font-size="11" fill="#374151">Hero Image</text>
      <g transform="translate(138, 94)">
        <circle cx="0" cy="0" r="1.5" fill="#d1d5db"/>
        <circle cx="5" cy="0" r="1.5" fill="#d1d5db"/>
        <circle cx="0" cy="5" r="1.5" fill="#d1d5db"/>
        <circle cx="5" cy="5" r="1.5" fill="#d1d5db"/>
      </g>
    </g>
    
    <g transform="translate(460, 160)">
      <rect width="120" height="100" rx="8" fill="#ffffff" filter="url(#shadow-item)" stroke="#e5e4df" stroke-width="1"/>
      <text x="12" y="28" font-family="Inter, system-ui, sans-serif" font-weight="600" font-size="11" fill="#111827">Analytics</text>
      <rect x="15" y="65" width="8" height="20" rx="2" fill="#97ea90"/>
      <rect x="30" y="55" width="8" height="30" rx="2" fill="#97ea90"/>
      <rect x="45" y="45" width="8" height="40" rx="2" fill="#1258ca"/>
      <rect x="60" y="60" width="8" height="25" rx="2" fill="#97ea90"/>
      <rect x="75" y="50" width="8" height="35" rx="2" fill="#ffd548"/>
      <path d="M 19 55 L 34 40 L 49 35 L 64 50 L 79 45" fill="none" stroke="#f05e23" stroke-width="2" stroke-linecap="round" stroke-linejoin="round"/>
      <g transform="translate(98, 8)">
        <circle cx="0" cy="0" r="1.5" fill="#d1d5db"/>
        <circle cx="5" cy="0" r="1.5" fill="#d1d5db"/>
        <circle cx="0" cy="5" r="1.5" fill="#d1d5db"/>
        <circle cx="5" cy="5" r="1.5" fill="#d1d5db"/>
      </g>
    </g>
    
    <g transform="translate(100, 290)">
      <rect width="200" height="100" rx="8" fill="#ffffff" filter="url(#shadow-item)" stroke="#e5e4df" stroke-width="1"/>
      <rect x="12" y="12" width="120" height="6" rx="3" fill="#374151"/>
      <rect x="12" y="26" width="176" height="4" rx="2" fill="#d1d5db"/>
      <rect x="12" y="34" width="160" height="4" rx="2" fill="#d1d5db"/>
      <rect x="12" y="42" width="168" height="4" rx="2" fill="#d1d5db"/>
      <rect x="12" y="60" width="80" height="24" rx="4" fill="#1258ca" opacity="0.1"/>
      <text x="24" y="76" font-family="Inter, system-ui, sans-serif" font-weight="600" font-size="11" fill="#1258ca">Action</text>
      <g transform="translate(178, 8)">
        <circle cx="0" cy="0" r="1.5" fill="#d1d5db"/>
        <circle cx="5" cy="0" r="1.5" fill="#d1d5db"/>
        <circle cx="0" cy="5" r="1.5" fill="#d1d5db"/>
        <circle cx="5" cy="5" r="1.5" fill="#d1d5db"/>
      </g>
    </g>
    
    <g transform="translate(330, 310)">
      <rect width="140" height="110" rx="8" fill="#ffffff" filter="url(#shadow-item)" stroke="#e5e4df" stroke-width="1"/>
      <rect x="8" y="8" width="60" height="50" rx="4" fill="#f3f4f6"/>
      <rect x="72" y="8" width="60" height="50" rx="4" fill="#f3f4f6"/>
      <rect x="8" y="64" width="124" height="6" rx="3" fill="#e5e7eb"/>
      <rect x="8" y="74" width="100" height="4" rx="2" fill="#e5e7eb"/>
      <rect x="8" y="82" width="80" height="4" rx="2" fill="#e5e7eb"/>
      <circle cx="38" cy="33" r="10" fill="#1258ca" opacity="0.9"/>
      <path d="M 35 28 L 42 33 L 35 38 Z" fill="#ffffff"/>
      <g transform="translate(118, 92)">
        <circle cx="0" cy="0" r="1.5" fill="#d1d5db"/>
        <circle cx="5" cy="0" r="1.5" fill="#d1d5db"/>
        <circle cx="0" cy="5" r="1.5" fill="#d1d5db"/>
        <circle cx="5" cy="5" r="1.5" fill="#d1d5db"/>
      </g>
    </g>
    
    <g transform="translate(500, 290)">
      <rect width="130" height="90" rx="8" fill="#ffffff" filter="url(#shadow-item)" stroke="#e5e4df" stroke-width="1"/>
      <circle cx="30" cy="30" r="12" fill="#97ea90" opacity="0.2"/>
      <path d="M 24 30 L 28 34 L 36 26" fill="none" stroke="#22c55e" stroke-width="2" stroke-linecap="round" stroke-linejoin="round"/>
      <text x="55" y="26" font-family="Roboto Mono, monospace" font-size="10" fill="#6b7280">Growth</text>
      <text x="55" y="42" font-family="Plus Jakarta Sans, Inter, sans-serif" font-weight="700" font-size="16" fill="#111827">+24%</text>
      <rect x="15" y="60" width="100" height="4" rx="2" fill="#e5e4df"/>
      <rect x="15" y="60" width="70" height="4" rx="2" fill="#97ea90"/>
      <g transform="translate(108, 8)">
        <circle cx="0" cy="0" r="1.5" fill="#d1d5db"/>
        <circle cx="5" cy="0" r="1.5" fill="#d1d5db"/>
        <circle cx="0" cy="5" r="1.5" fill="#d1d5db"/>
        <circle cx="5" cy="5" r="1.5" fill="#d1d5db"/>
      </g>
    </g>
  </g>
</svg>