<svg viewBox="0 0 500 280" xmlns="http://www.w3.org/2000/svg">
  <defs>
    <filter id="cardShadow" x="-20%" y="-20%" width="140%" height="140%">
      <feDropShadow dx="0" dy="4" stdDeviation="8" flood-opacity="0.08"/>
    </filter>
    <linearGradient id="selectedGradient" x1="0%" y1="0%" x2="0%" y2="100%">
      <stop offset="0%" style="stop-color:#2458f3;stop-opacity:0.1"/>
      <stop offset="100%" style="stop-color:#2458f3;stop-opacity:0.05"/>
    </linearGradient>
  </defs>
  
  <g id="component_root">
    <rect x="20" y="20" width="460" height="240" rx="8" fill="#ffffff" filter="url(#cardShadow)"/>
    
    <text x="40" y="55" font-family="Plus Jakarta Sans, Inter, sans-serif" font-weight="700" font-size="20" fill="#1a1a1a">Galerie Layouts</text>
    
    <g transform="translate(40, 70)">
      <rect width="126" height="80" rx="6" fill="url(#selectedGradient)" stroke="#2458f3" stroke-width="2"/>
      <rect x="33" y="15" width="60" height="50" rx="2" fill="#e8e8e6"/>
      <rect x="38" y="20" width="50" height="4" rx="1" fill="#c5c4c0"/>
      <rect x="38" y="28" width="50" height="4" rx="1" fill="#c5c4c0"/>
      <rect x="38" y="36" width="30" height="4" rx="1" fill="#c5c4c0"/>
      <circle cx="113" cy="13" r="8" fill="#2458f3"/>
      <path d="M109 13 L112 16 L117 10" stroke="white" stroke-width="2" fill="none" stroke-linecap="round" stroke-linejoin="round"/>
      <text x="63" y="95" font-family="Inter, system-ui, sans-serif" font-size="11" fill="#666666" text-anchor="middle">Blog</text>
    </g>
    
    <g transform="translate(186, 70)">
      <rect width="126" height="80" rx="6" fill="#ffffff" stroke="#d5d4d0" stroke-width="1"/>
      <rect x="15" y="15" width="30" height="50" rx="2" fill="#e8e8e6"/>
      <rect x="50" y="15" width="61" height="50" rx="2" fill="#f5f5f4"/>
      <rect x="20" y="22" width="20" height="3" rx="1" fill="#c5c4c0"/>
      <rect x="20" y="28" width="15" height="3" rx="1" fill="#c5c4c0"/>
      <rect x="55" y="22" width="40" height="3" rx="1" fill="#d5d4d0"/>
      <rect x="55" y="30" width="40" height="20" rx="1" fill="#e8e8e6"/>
      <text x="63" y="95" font-family="Inter, system-ui, sans-serif" font-size="11" fill="#666666" text-anchor="middle">Sidebar</text>
    </g>
    
    <g transform="translate(332, 70)">
      <rect width="126" height="80" rx="6" fill="#ffffff" stroke="#d5d4d0" stroke-width="1"/>
      <rect x="20" y="15" width="25" height="20" rx="2" fill="#e8e8e6"/>
      <rect x="50" y="15" width="25" height="30" rx="2" fill="#e8e8e6"/>
      <rect x="80" y="15" width="25" height="20" rx="2" fill="#e8e8e6"/>
      <rect x="20" y="40" width="25" height="25" rx="2" fill="#e8e8e6"/>
      <rect x="50" y="50" width="25" height="15" rx="2" fill="#e8e8e6"/>
      <rect x="80" y="40" width="25" height="25" rx="2" fill="#e8e8e6"/>
      <text x="63" y="95" font-family="Inter, system-ui, sans-serif" font-size="11" fill="#666666" text-anchor="middle">Masonry</text>
    </g>
    
    <g transform="translate(40, 170)">
      <rect width="126" height="80" rx="6" fill="#ffffff" stroke="#d5d4d0" stroke-width="1"/>
      <rect x="15" y="15" width="96" height="20" rx="2" fill="#e8e8e6"/>
      <rect x="15" y="40" width="43" height="25" rx="2" fill="#e8e8e6"/>
      <rect x="68" y="40" width="43" height="25" rx="2" fill="#e8e8e6"/>
      <rect x="22" y="22" width="60" height="3" rx="1" fill="#c5c4c0"/>
      <text x="63" y="95" font-family="Inter, system-ui, sans-serif" font-size="11" fill="#666666" text-anchor="middle">Hero Grid</text>
    </g>
    
    <g transform="translate(186, 170)">
      <rect width="126" height="80" rx="6" fill="#ffffff" stroke="#d5d4d0" stroke-width="1"/>
      <rect x="15" y="15" width="43" height="50" rx="2" fill="#e8e8e6"/>
      <rect x="68" y="15" width="43" height="50" rx="2" fill="#f5f5f4"/>
      <rect x="22" y="25" width="20" height="3" rx="1" fill="#c5c4c0"/>
      <rect x="75" y="25" width="20" height="3" rx="1" fill="#d5d4d0"/>
      <text x="63" y="95" font-family="Inter, system-ui, sans-serif" font-size="11" fill="#666666" text-anchor="middle">Split</text>
    </g>
    
    <g transform="translate(332, 170)">
      <rect width="126" height="80" rx="6" fill="#ffffff" stroke="#d5d4d0" stroke-width="1"/>
      <rect x="15" y="15" width="96" height="8" rx="2" fill="#e8e8e6"/>
      <rect x="15" y="30" width="25" height="35" rx="2" fill="#e8e8e6"/>
      <rect x="45" y="30" width="30" height="16" rx="2" fill="#f5f5f4"/>
      <rect x="80" y="30" width="31" height="16" rx="2" fill="#f5f5f4"/>
      <rect x="45" y="52" width="30" height="13" rx="2" fill="#f5f5f4"/>
      <rect x="80" y="52" width="31" height="13" rx="2" fill="#f5f5f4"/>
      <text x="63" y="95" font-family="Inter, system-ui, sans-serif" font-size="11" fill="#666666" text-anchor="middle">Dashboard</text>
    </g>
  </g>
</svg>