<svg viewBox="0 0 400 80" fill="none" xmlns="http://www.w3.org/2000/svg">
  <defs>
    <filter id="headerShadow" x="-20%" y="-20%" width="140%" height="140%">
      <feDropShadow dx="0" dy="4" stdDeviation="8" flood-opacity="0.08"/>
    </filter>
    <linearGradient id="logoGradient" x1="0" y1="0" x2="1" y2="1">
      <stop offset="0%" stop-color="#1a1d29"/>
      <stop offset="100%" stop-color="#0f1118"/>
    </linearGradient>
  </defs>
  
  <g id="component_root">
    <rect width="400" height="80" fill="#0D0E13" filter="url(#headerShadow)"/>
    
    <rect x="20" y="20" width="40" height="40" rx="8" fill="url(#logoGradient)" stroke="#2a2d3a" stroke-width="1.5"/>
    <text x="40" y="47" font-family="sans-serif" font-weight="700" font-size="16" fill="#ffffff" text-anchor="middle">AF</text>
    
    <circle cx="52" cy="26" r="3" fill="#f05e23"/>
    
    <text x="72" y="46" font-family="sans-serif" font-weight="700" font-size="15" fill="#ffffff">Aetherflow</text>
    
    <g transform="translate(300, 32)">
      <circle cx="8" cy="8" r="6" stroke="#9ca3af" stroke-width="1.5" fill="none"/>
      <path d="M12 12L16 16" stroke="#9ca3af" stroke-width="1.5" stroke-linecap="round"/>
    </g>
    
    <g transform="translate(340, 32)">
      <circle cx="8" cy="8" r="3" stroke="#9ca3af" stroke-width="1.5" fill="none"/>
      <path d="M8 1v2M8 13v2M1 8h2M13 8h2M3.05 3.05l1.41 1.41M11.54 11.54l1.41 1.41M3.05 12.95l1.41-1.41M11.54 4.46l1.41-1.41" stroke="#9ca3af" stroke-width="1.5" stroke-linecap="round"/>
    </g>
    
    <rect x="376" y="24" width="32" height="32" rx="10" fill="#f05e23" opacity="0.9"/>
    <text x="392" y="45" font-family="sans-serif" font-weight="700" font-size="12" fill="#ffffff" text-anchor="middle">S</text>
  </g>
</svg>