<svg viewBox="0 0 840 580" xmlns="http://www.w3.org/2000/svg">
  <defs>
    <filter id="shadow" x="-20%" y="-20%" width="140%" height="140%">
      <feDropShadow dx="0" dy="4" stdDeviation="8" flood-opacity="0.08"/>
    </filter>
  </defs>
  <g id="component_root">
    <rect x="40" y="40" width="760" height="500" rx="10" fill="#ffffff" filter="url(#shadow)"/>
    
    <text x="72" y="110" font-family="Plus Jakarta Sans, sans-serif" font-size="18" font-weight="700" fill="#111827">Archives Succès</text>
    
    <rect x="732" y="98" width="28" height="20" rx="10" fill="#ffd548"/>
    <text x="746" y="112" font-family="Inter, sans-serif" font-size="12" font-weight="600" fill="#92400e" text-anchor="middle">5</text>
    
    <path d="M 710 112 L 715 107 L 720 112" stroke="#6b7280" stroke-width="2" fill="none" stroke-linecap="round" stroke-linejoin="round"/>
    
    <g>
      <circle cx="88" cy="180" r="10" fill="#97ea90" opacity="0.2"/>
      <path d="M 84 180 L 87 183 L 92 176" stroke="#059669" stroke-width="2.5" fill="none" stroke-linecap="round" stroke-linejoin="round"/>
      <text x="116" y="175" font-family="Inter, sans-serif" font-size="15" font-weight="500" fill="#1f2937">Migration base de données</text>
      <text x="116" y="195" font-family="Roboto Mono, monospace" font-size="11" fill="#6b7280">Complété le 24 Nov 2024</text>
      <line x1="72" y1="220" x2="768" y2="220" stroke="#d5d4d0" stroke-width="1"/>
    </g>
    
    <g transform="translate(0, 80)">
      <circle cx="88" cy="180" r="10" fill="#97ea90" opacity="0.2"/>
      <path d="M 84 180 L 87 183 L 92 176" stroke="#059669" stroke-width="2.5" fill="none" stroke-linecap="round" stroke-linejoin="round"/>
      <text x="116" y="175" font-family="Inter, sans-serif" font-size="15" font-weight="500" fill="#1f2937">Audit sécurité Q4</text>
      <text x="116" y="195" font-family="Roboto Mono, monospace" font-size="11" fill="#6b7280">Complété le 22 Nov 2024</text>
      <line x1="72" y1="220" x2="768" y2="220" stroke="#d5d4d0" stroke-width="1"/>
    </g>
    
    <g transform="translate(0, 160)">
      <circle cx="88" cy="180" r="10" fill="#97ea90" opacity="0.2"/>
      <path d="M 84 180 L 87 183 L 92 176" stroke="#059669" stroke-width="2.5" fill="none" stroke-linecap="round" stroke-linejoin="round"/>
      <text x="116" y="175" font-family="Inter, sans-serif" font-size="15" font-weight="500" fill="#1f2937">Mise à jour documentation API</text>
      <text x="116" y="195" font-family="Roboto Mono, monospace" font-size="11" fill="#6b7280">Complété le 20 Nov 2024</text>
      <line x1="72" y1="220" x2="768" y2="220" stroke="#d5d4d0" stroke-width="1"/>
    </g>
    
    <g transform="translate(0, 240)">
      <circle cx="88" cy="180" r="10" fill="#97ea90" opacity="0.2"/>
      <path d="M 84 180 L 87 183 L 92 176" stroke="#059669" stroke-width="2.5" fill="none" stroke-linecap="round" stroke-linejoin="round"/>
      <text x="116" y="175" font-family="Inter, sans-serif" font-size="15" font-weight="500" fill="#1f2937">Optimisation des requêtes SQL</text>
      <text x="116" y="195" font-family="Roboto Mono, monospace" font-size="11" fill="#6b7280">Complété le 18 Nov 2024</text>
    </g>
  </g>
</svg>