<svg viewBox="0 0 320 600" xmlns="http://www.w3.org/2000/svg">
  <defs>
    <filter id="shadow-modal" x="-20%" y="-20%" width="140%" height="140%">
      <feDropShadow dx="0" dy="4" stdDeviation="8" flood-opacity="0.08"/>
    </filter>
    <linearGradient id="accent-gradient" x1="0%" y1="0%" x2="0%" y2="100%">
      <stop offset="0%" style="stop-color:#2458f3;stop-opacity:1" />
      <stop offset="100%" style="stop-color:#1a46d1;stop-opacity:1" />
    </linearGradient>
  </defs>
  
  <g id="component_root">
    <rect x="0" y="0" width="320" height="600" fill="#000000" fill-opacity="0.4"/>
    
    <g transform="translate(20, 40)">
      <rect x="0" y="0" width="280" height="520" rx="8" fill="#ffffff" filter="url(#shadow-modal)"/>
      
      <text x="24" y="50" font-family="Plus Jakarta Sans, sans-serif" font-size="18" font-weight="700" fill="#1a1a1a">Sélecteur de Thème</text>
      
      <g transform="translate(232, 34)">
        <rect x="0" y="0" width="24" height="24" rx="6" fill="#f5f5f5"/>
        <path d="M8 8 L16 16 M16 8 L8 16" stroke="#6b7280" stroke-width="2" stroke-linecap="round"/>
      </g>
      
      <g transform="translate(24, 80)">
        <g transform="translate(0, 0)">
          <rect x="0" y="0" width="110" height="72" rx="8" fill="#ffffff" stroke="#2458f3" stroke-width="2"/>
          <rect x="8" y="8" width="94" height="40" rx="4" fill="#fafafa"/>
          <rect x="14" y="16" width="50" height="5" rx="2.5" fill="#1f2937"/>
          <rect x="14" y="26" width="30" height="4" rx="2" fill="#9ca3af"/>
          <rect x="14" y="34" width="40" height="4" rx="2" fill="#d1d5db"/>
          <text x="55" y="64" font-family="Inter, sans-serif" font-size="12" font-weight="500" text-anchor="middle" fill="#1f2937">Clair</text>
          <circle cx="94" cy="14" r="8" fill="#2458f3"/>
          <path d="M91 14 L93.5 16.5 L98 11.5" stroke="white" stroke-width="2" fill="none" stroke-linecap="round" stroke-linejoin="round"/>
        </g>
        
        <g transform="translate(122, 0)">
          <rect x="0" y="0" width="110" height="72" rx="8" fill="#ffffff" stroke="#e5e7eb" stroke-width="1.5"/>
          <rect x="8" y="8" width="94" height="40" rx="4" fill="#111827"/>
          <rect x="14" y="16" width="50" height="5" rx="2.5" fill="#f3f4f6"/>
          <rect x="14" y="26" width="30" height="4" rx="2" fill="#6b7280"/>
          <rect x="14" y="34" width="40" height="4" rx="2" fill="#4b5563"/>
          <text x="55" y="64" font-family="Inter, sans-serif" font-size="12" font-weight="500" text-anchor="middle" fill="#4b5563">Sombre</text>
        </g>
        
        <g transform="translate(0, 88)">
          <rect x="0" y="0" width="110" height="72" rx="8" fill="#ffffff" stroke="#e5e7eb" stroke-width="1.5"/>
          <rect x="8" y="8" width="94" height="40" rx="4" fill="#eff6ff"/>
          <rect x="14" y="16" width="50" height="5" rx="2.5" fill="#1e40af"/>
          <rect x="14" y="26" width="30" height="4" rx="2" fill="#60a5fa"/>
          <rect x="14" y="34" width="40" height="4" rx="2" fill="#bfdbfe"/>
          <text x="55" y="64" font-family="Inter, sans-serif" font-size="12" font-weight="500" text-anchor="middle" fill="#4b5563">Océan</text>
        </g>
        
        <g transform="translate(122, 88)">
          <rect x="0" y="0" width="110" height="72" rx="8" fill="#ffffff" stroke="#e5e7eb" stroke-width="1.5"/>
          <rect x="8" y="8" width="94" height="40" rx="4" fill="#f0fdf4"/>
          <rect x="14" y="16" width="50" height="5" rx="2.5" fill="#166534"/>
          <rect x="14" y="26" width="30" height="4" rx="2" fill="#4ade80"/>
          <rect x="14" y="34" width="40" height="4" rx="2" fill="#bbf7d0"/>
          <text x="55" y="64" font-family="Inter, sans-serif" font-size="12" font-weight="500" text-anchor="middle" fill="#4b5563">Forêt</text>
        </g>
        
        <g transform="translate(0, 176)">
          <rect x="0" y="0" width="110" height="72" rx="8" fill="#ffffff" stroke="#e5e7eb" stroke-width="1.5"/>
          <rect x="8" y="8" width="94" height="40" rx="4" fill="#fff7ed"/>
          <rect x="14" y="16" width="50" height="5" rx="2.5" fill="#c2410c"/>
          <rect x="14" y="26" width="30" height="4" rx="2" fill="#fb923c"/>
          <rect x="14" y="34" width="40" height="4" rx="2" fill="#fed7aa"/>
          <text x="55" y="64" font-family="Inter, sans-serif" font-size="12" font-weight="500" text-anchor="middle" fill="#4b5563">Soleil</text>
        </g>
        
        <g transform="translate(122, 176)">
          <rect x="0" y="0" width="110" height="72" rx="8" fill="#ffffff" stroke="#e5e7eb" stroke-width="1.5"/>
          <rect x="8" y="8" width="94" height="40" rx="4" fill="#faf5ff"/>
          <rect x="14" y="16" width="50" height="5" rx="2.5" fill="#7e22ce"/>
          <rect x="14" y="26" width="30" height="4" rx="2" fill="#c084fc"/>
          <rect x="14" y="34" width="40" height="4" rx="2" fill="#e9d5ff"/>
          <text x="55" y="64" font-family="Inter, sans-serif" font-size="12" font-weight="500" text-anchor="middle" fill="#4b5563">Lavande</text>
        </g>
        
        <g transform="translate(0, 264)">
          <rect x="0" y="0" width="110" height="72" rx="8" fill="#ffffff" stroke="#e5e7eb" stroke-width="1.5"/>
          <rect x="8" y="8" width="94" height="40" rx="4" fill="#f3f4f6"/>
          <rect x="14" y="16" width="50" height="5" rx="2.5" fill="#111827"/>
          <rect x="14" y="26" width="30" height="4" rx="2" fill="#6b7280"/>
          <rect x="14" y="34" width="40" height="4" rx="2" fill="#d1d5db"/>
          <text x="55" y="64" font-family="Inter, sans-serif" font-size="12" font-weight="500" text-anchor="middle" fill="#4b5563">Mono</text>
        </g>
        
        <g transform="translate(122, 264)">
          <rect x="0" y="0" width="110" height="72" rx="8" fill="#ffffff" stroke="#e5e7eb" stroke-width="1.5"/>
          <rect x="8" y="8" width="94" height="40" rx="4" fill="#000000"/>
          <rect x="14" y="16" width="50" height="5" rx="2.5" fill="#ffffff"/>
          <rect x="14" y="26" width="30" height="4" rx="2" fill="#a3a3a3"/>
          <rect x="14" y="34" width="40" height="4" rx="2" fill="#525252"/>
          <text x="55" y="64" font-family="Inter, sans-serif" font-size="12" font-weight="500" text-anchor="middle" fill="#4b5563">Contrast</text>
        </g>
      </g>
      
      <g transform="translate(24, 420)">
        <rect x="0" y="0" width="232" height="44" rx="8" fill="url(#accent-gradient)"/>
        <text x="116" y="29" font-family="Plus Jakarta Sans, sans-serif" font-size="14" font-weight="700" fill="#ffffff" text-anchor="middle">Appliquer le thème</text>
      </g>
    </g>
  </g>
</svg>