<svg viewBox="0 0 700 480" xmlns="http://www.w3.org/2000/svg">
  <defs>
    <filter id="shadow" x="-50%" y="-50%" width="200%" height="200%">
      <feDropShadow dx="0" dy="4" stdDeviation="8" flood-opacity="0.08"/>
    </filter>
    <linearGradient id="statusGradient" x1="0%" y1="0%" x2="100%" y2="100%">
      <stop offset="0%" style="stop-color:#97ea90;stop-opacity:0.3"/>
      <stop offset="100%" style="stop-color:#97ea90;stop-opacity:0.1"/>
    </linearGradient>
  </defs>
  
  <g id="component_root">
    <rect x="24" y="24" width="652" height="432" rx="10" fill="#ffffff" filter="url(#shadow)"/>
    
    <text x="48" y="68" font-family="Plus Jakarta Sans, sans-serif" font-weight="700" font-size="20" fill="#111827">Multiverse Bot Grid</text>
    <text x="48" y="93" font-family="Inter, system-ui, sans-serif" font-size="14" fill="#6b7280">Active bot instances running in parallel sandboxed environments</text>
    
    <g transform="translate(48, 115)">
      <rect x="0" y="0" width="190" height="320" rx="8" fill="#fafafa" stroke="#e5e7eb" stroke-width="1"/>
      <rect x="0" y="0" width="190" height="32" rx="8" fill="#f3f4f6"/>
      <path d="M0 16 L190 16" stroke="#e5e7eb" stroke-width="1"/>
      <circle cx="18" cy="16" r="3" fill="#ef4444"/>
      <circle cx="30" cy="16" r="3" fill="#f59e0b"/>
      <circle cx="42" cy="16" r="3" fill="#10b981"/>
      <text x="95" y="21" font-family="Inter, system-ui, sans-serif" font-size="11" fill="#4b5563" text-anchor="middle">Bot Alpha • North America</text>
      
      <rect x="12" y="44" width="166" height="36" rx="6" fill="url(#statusGradient)" stroke="#97ea90" stroke-width="1.5"/>
      <text x="95" y="66" font-family="Roboto Mono, monospace" font-size="10" fill="#059669" text-anchor="middle" font-weight="500">● ONLINE</text>
      
      <rect x="12" y="92" width="110" height="24" rx="6" fill="#e5e7eb"/>
      <rect x="68" y="124" width="110" height="24" rx="6" fill="#97ea90" opacity="0.25"/>
      <rect x="12" y="156" width="90" height="24" rx="6" fill="#e5e7eb"/>
      <rect x="12" y="188" width="166" height="48" rx="6" fill="#f9fafb" stroke="#d1d5db" stroke-width="1"/>
      <rect x="24" y="200" width="60" height="8" rx="2" fill="#d1d5db"/>
      <rect x="24" y="212" width="140" height="8" rx="2" fill="#e5e7eb"/>
      <rect x="24" y="224" width="100" height="8" rx="2" fill="#e5e7eb"/>
    </g>
    
    <g transform="translate(267, 115)">
      <rect x="0" y="0" width="190" height="320" rx="8" fill="#fafafa" stroke="#e5e7eb" stroke-width="1"/>
      <rect x="0" y="0" width="190" height="32" rx="8" fill="#f3f4f6"/>
      <path d="M0 16 L190 16" stroke="#e5e7eb" stroke-width="1"/>
      <circle cx="18" cy="16" r="3" fill="#ef4444"/>
      <circle cx="30" cy="16" r="3" fill="#f59e0b"/>
      <circle cx="42" cy="16" r="3" fill="#10b981"/>
      <text x="95" y="21" font-family="Inter, system-ui, sans-serif" font-size="11" fill="#4b5563" text-anchor="middle">Bot Beta • Europe West</text>
      
      <rect x="12" y="44" width="166" height="36" rx="6" fill="url(#statusGradient)" stroke="#97ea90" stroke-width="1.5"/>
      <text x="95" y="66" font-family="Roboto Mono, monospace" font-size="10" fill="#059669" text-anchor="middle" font-weight="500">● ONLINE</text>
      
      <rect x="12" y="92" width="130" height="24" rx="6" fill="#e5e7eb"/>
      <rect x="48" y="124" width="130" height="24" rx="6" fill="#97ea90" opacity="0.25"/>
      <rect x="12" y="156" width="100" height="24" rx="6" fill="#e5e7eb"/>
      <rect x="12" y="188" width="166" height="60" rx="6" fill="#f9fafb" stroke="#d1d5db" stroke-width="1"/>
      <rect x="24" y="200" width="80" height="8" rx="2" fill="#d1d5db"/>
      <rect x="24" y="212" width="140" height="8" rx="2" fill="#e5e7eb"/>
      <rect x="24" y="224" width="120" height="8" rx="2" fill="#e5e7eb"/>
      <rect x="24" y="236" width="60" height="8" rx="2" fill="#e5e7eb"/>
    </g>
    
    <g transform="translate(486, 115)">
      <rect x="0" y="0" width="190" height="320" rx="8" fill="#fafafa" stroke="#e5e7eb" stroke-width="1"/>
      <rect x="0" y="0" width="190" height="32" rx="8" fill="#f3f4f6"/>
      <path d="M0 16 L190 16" stroke="#e5e7eb" stroke-width="1"/>
      <circle cx="18" cy="16" r="3" fill="#ef4444"/>
      <circle cx="30" cy="16" r="3" fill="#f59e0b"/>
      <circle cx="42" cy="16" r="3" fill="#10b981"/>
      <text x="95" y="21" font-family="Inter, system-ui, sans-serif" font-size="11" fill="#4b5563" text-anchor="middle">Bot Gamma • Asia Pacific</text>
      
      <rect x="12" y="44" width="166" height="36" rx="6" fill="url(#statusGradient)" stroke="#97ea90" stroke-width="1.5"/>
      <text x="95" y="66" font-family="Roboto Mono, monospace" font-size="10" fill="#059669" text-anchor="middle" font-weight="500">● ONLINE</text>
      
      <rect x="12" y="92" width="120" height="24" rx="6" fill="#e5e7eb"/>
      <rect x="58" y="124" width="120" height="24" rx="6" fill="#97ea90" opacity="0.25"/>
      <rect x="12" y="156" width="140" height="24" rx="6" fill="#e5e7eb"/>
      <rect x="12" y="188" width="166" height="40" rx="6" fill="#f9fafb" stroke="#d1d5db" stroke-width="1"/>
      <rect x="24" y="200" width="50" height="8" rx="2" fill="#d1d5db"/>
      <rect x="24" y="212" width="140" height="8" rx="2" fill="#e5e7eb"/>
      <rect x="12" y="240" width="166" height="32" rx="6" fill="#97ea90" opacity="0.15"/>
    </g>
  </g>
</svg>