<svg viewBox="0 0 440 240" xmlns="http://www.w3.org/2000/svg">
  <defs>
    <filter id="shadow-header" x="-50%" y="-50%" width="200%" height="200%">
      <feDropShadow dx="0" dy="4" stdDeviation="8" flood-opacity="0.08"/>
    </filter>
    <linearGradient id="glow-active" x1="0%" y1="0%" x2="0%" y2="100%">
      <stop offset="0%" style="stop-color:#97ea90;stop-opacity:0.3"/>
      <stop offset="100%" style="stop-color:#97ea90;stop-opacity:0"/>
    </linearGradient>
  </defs>
  
  <rect width="440" height="240" fill="#0D0E13" rx="0"/>
  
  <g id="component_root">
    <rect x="20" y="84" width="400" height="72" rx="10" fill="#16171f" stroke="#2a2b32" stroke-width="1.5" filter="url(#shadow-header)"/>
    
    <g transform="translate(44, 108)">
      <path d="M0 12L12 0L24 12L12 24Z" fill="#97ea90"/>
      <path d="M8 12L12 8L16 12L12 16Z" fill="#0D0E13"/>
      <text x="36" y="17" font-family="sans-serif" font-weight="700" font-size="16" fill="#ffffff">Aetherflow</text>
    </g>
    
    <g transform="translate(148, 96)">
      <line x1="44" y1="24" x2="76" y2="24" stroke="#2a2b32" stroke-width="2" stroke-linecap="round"/>
      <line x1="108" y1="24" x2="140" y2="24" stroke="#2a2b32" stroke-width="2" stroke-linecap="round"/>
      <line x1="172" y1="24" x2="204" y2="24" stroke="#2a2b32" stroke-width="2" stroke-linecap="round"/>
      
      <g transform="translate(0, 0)">
        <rect x="8" y="8" width="32" height="32" rx="8" fill="#0D0E13" stroke="#4b5563" stroke-width="1.5"/>
        <text x="24" y="29" text-anchor="middle" font-family="sans-serif" font-weight="700" font-size="12" fill="#6b7280">1</text>
        <text x="24" y="56" text-anchor="middle" font-family="sans-serif" font-weight="700" font-size="11" fill="#4b5563">BRS</text>
      </g>
      
      <g transform="translate(64, 0)">
        <rect x="0" y="0" width="48" height="48" rx="10" fill="url(#glow-active)" opacity="0.4"/>
        <rect x="8" y="8" width="32" height="32" rx="8" fill="#97ea90" stroke="#97ea90" stroke-width="1.5"/>
        <text x="24" y="29" text-anchor="middle" font-family="sans-serif" font-weight="700" font-size="12" fill="#0D0E13">2</text>
        <text x="24" y="56" text-anchor="middle" font-family="sans-serif" font-weight="700" font-size="11" fill="#97ea90">BKD</text>
        <circle cx="24" cy="24" r="20" stroke="#97ea90" stroke-width="1" fill="none" opacity="0.3"/>
      </g>
      
      <g transform="translate(128, 0)">
        <rect x="8" y="8" width="32" height="32" rx="8" fill="#0D0E13" stroke="#374151" stroke-width="1.5"/>
        <text x="24" y="29" text-anchor="middle" font-family="sans-serif" font-weight="700" font-size="12" fill="#6b7280">3</text>
        <text x="24" y="56" text-anchor="middle" font-family="sans-serif" font-weight="700" font-size="11" fill="#4b5563">FRD</text>
      </g>
      
      <g transform="translate(192, 0)">
        <rect x="8" y="8" width="32" height="32" rx="8" fill="#0D0E13" stroke="#374151" stroke-width="1.5"/>
        <text x="24" y="29" text-anchor="middle" font-family="sans-serif" font-weight="700" font-size="12" fill="#6b7280">4</text>
        <text x="24" y="56" text-anchor="middle" font-family="sans-serif" font-weight="700" font-size="11" fill="#4b5563">DPL</text>
      </g>
    </g>
    
    <g transform="translate(368, 100)">
      <rect x="0" y="0" width="36" height="40" rx="8" fill="#2a2b32"/>
      <circle cx="18" cy="14" r="8" fill="#4b5563"/>
      <text x="18" y="17" text-anchor="middle" font-family="sans-serif" font-weight="600" font-size="9" fill="#ffffff">S</text>
      <circle cx="28" cy="8" r="4" fill="#97ea90"/>
    </g>
  </g>
</svg>