<svg viewBox="0 0 24 24" fill="none" xmlns="http://www.w3.org/2000/svg">
<path d="M21 12.79C21 16.71 17.94 19.77 14 20.42V21H10V20.42C6.06 19.77 3 16.71 3 12.79V11.21C3 7.29 6.06 4.23 10 3.58V3H14V3.58C17.94 4.23 21 7.29 21 11.21V12.79Z" fill="#292D32"/>
<path d="M7.76 12.01H16.24C16.68 12.01 17 11.69 17 11.26C17 10.82 16.68 10.5 16.24 10.5H7.76C7.32 10.5 7 10.82 7 11.26C7 11.69 7.32 12.01 7.76 12.01Z" fill="#F0F0F0"/>
<path d="M7.76 16H13.24C13.68 16 14 15.69 14 15.26C14 14.82 13.68 14.5 13.24 14.5H7.76C7.32 14.5 7 14.82 7 15.26C7 15.69 7.32 16 7.76 16Z" fill="#F0F0F0"/>
</svg>