<svg viewBox="0 0 260 520" xmlns="http://www.w3.org/2000/svg">
  <defs>
    <filter id="card-shadow" x="-50%" y="-50%" width="200%" height="200%">
      <feDropShadow dx="0" dy="4" stdDeviation="8" flood-opacity="0.08"/>
    </filter>
    <linearGradient id="accent-gradient" x1="0%" y1="0%" x2="100%" y2="100%">
      <stop offset="0%" style="stop-color:#1258ca;stop-opacity:1"/>
      <stop offset="100%" style="stop-color:#2458f3;stop-opacity:1"/>
    </linearGradient>
  </defs>
  
  <g id="component_root">
    <rect x="0" y="0" width="260" height="520" rx="10" fill="#ffffff" filter="url(#card-shadow)"/>
    
    <text x="24" y="48" font-family="Plus Jakarta Sans, Inter, sans-serif" font-size="19" font-weight="700" fill="#1a1a1a">Arbitrage</text>
    <text x="24" y="72" font-family="Inter, system-ui, sans-serif" font-size="13" fill="#6b6b6b">Synthèse Sullivan</text>
    
    <text x="24" y="112" font-family="Inter, system-ui, sans-serif" font-size="10" font-weight="600" fill="#1258ca" letter-spacing="0.8">SOURCES ANALYSÉES</text>
    
    <g transform="translate(24, 128)">
      <rect x="0" y="0" width="212" height="56" rx="8" fill="#fafafa" stroke="#e8e8e6" stroke-width="1"/>
      <circle cx="20" cy="28" r="10" fill="#cc785c"/>
      <text x="38" y="24" font-family="Inter, system-ui, sans-serif" font-size="13" font-weight="600" fill="#1a1a1a">Claude 3.5</text>
      <text x="38" y="40" font-family="Roboto Mono, monospace" font-size="10" fill="#6b6b6b">Confiance 94%</text>
      <circle cx="186" cy="28" r="5" fill="#97ea90"/>
    </g>
    
    <g transform="translate(24, 192)">
      <rect x="0" y="0" width="212" height="56" rx="8" fill="#fafafa" stroke="#e8e8e6" stroke-width="1"/>
      <circle cx="20" cy="28" r="10" fill="#10a37f"/>
      <text x="38" y="24" font-family="Inter, system-ui, sans-serif" font-size="13" font-weight="600" fill="#1a1a1a">GPT-4</text>
      <text x="38" y="40" font-family="Roboto Mono, monospace" font-size="10" fill="#6b6b6b">Confiance 87%</text>
      <circle cx="186" cy="28" r="5" fill="#97ea90"/>
    </g>
    
    <g transform="translate(24, 256)">
      <rect x="0" y="0" width="212" height="56" rx="8" fill="#fafafa" stroke="#e8e8e6" stroke-width="1"/>
      <circle cx="20" cy="28" r="10" fill="#4285f4"/>
      <text x="38" y="24" font-family="Inter, system-ui, sans-serif" font-size="13" font-weight="600" fill="#1a1a1a">Gemini Pro</text>
      <text x="38" y="40" font-family="Roboto Mono, monospace" font-size="10" fill="#6b6b6b">Confiance 91%</text>
      <circle cx="186" cy="28" r="5" fill="#ffd548"/>
    </g>
    
    <line x1="24" y1="340" x2="236" y2="340" stroke="#e8e8e6" stroke-width="1"/>
    
    <text x="24" y="370" font-family="Inter, system-ui, sans-serif" font-size="10" font-weight="600" fill="#1258ca" letter-spacing="0.8">CONSENSUS GLOBAL</text>
    
    <g transform="translate(24, 386)">
      <rect x="0" y="0" width="212" height="8" rx="4" fill="#f0f0f0"/>
      <rect x="0" y="0" width="178" height="8" rx="4" fill="url(#accent-gradient)"/>
      <text x="0" y="32" font-family="Plus Jakarta Sans, Inter, sans-serif" font-size="20" font-weight="700" fill="#1a1a1a">84%</text>
      <text x="56" y="32" font-family="Inter, system-ui, sans-serif" font-size="13" fill="#6b6b6b">accord sémantique</text>
    </g>
    
    <text x="24" y="458" font-family="Inter, system-ui, sans-serif" font-size="10" font-weight="600" fill="#1258ca" letter-spacing="0.8">DÉCISION</text>
    
    <g transform="translate(24, 474)">
      <rect x="0" y="0" width="212" height="38" rx="8" fill="#1258ca"/>
      <text x="106" y="24" font-family="Inter, system-ui, sans-serif" font-size="13" font-weight="600" fill="#ffffff" text-anchor="middle">Valider la synthèse</text>
    </g>
  </g>
</svg>