<svg viewBox="0 0 660 520" xmlns="http://www.w3.org/2000/svg">
  <defs>
    <filter id="shadow" x="-50%" y="-50%" width="200%" height="200%">
      <feDropShadow dx="0" dy="4" stdDeviation="8" flood-opacity="0.08"/>
    </filter>
  </defs>
  <g id="component_root">
    <rect x="20" y="20" width="620" height="480" rx="10" fill="#ffffff" filter="url(#shadow)"/>
    
    <text x="48" y="64" font-family="Plus Jakarta Sans, Inter, sans-serif" font-weight="700" font-size="20" fill="#1f2937">Roadmap Track</text>
    <text x="48" y="88" font-family="Inter, system-ui, sans-serif" font-size="13" fill="#6b7280">Real-time synchronization of mission files</text>
    
    <g transform="translate(48, 108)">
      <rect x="0" y="0" width="564" height="116" rx="8" fill="#ffffff" stroke="#ffd548" stroke-width="1.5"/>
      <rect x="0" y="0" width="4" height="116" rx="2" fill="#ffd548"/>
      
      <rect x="20" y="34" width="36" height="36" rx="6" fill="#fffbeb"/>
      <path d="M32 44h12M32 50h8M32 56h10" stroke="#f59e0b" stroke-width="2" stroke-linecap="round"/>
      <path d="M54 46v14a2 2 0 01-2 2H32a2 2 0 01-2-2V42a2 2 0 012-2h14l8 6z" fill="none" stroke="#d97706" stroke-width="1.5"/>
      
      <text x="72" y="46" font-family="Roboto Mono, monospace" font-size="11" font-weight="500" fill="#1f2937">ROADMAP.md</text>
      
      <rect x="460" y="32" width="72" height="24" rx="6" fill="#ffd548"/>
      <text x="496" y="48" font-family="Inter, system-ui, sans-serif" font-size="11" font-weight="600" fill="#1f2937" text-anchor="middle">ACTIVE</text>
      
      <text x="72" y="70" font-family="Inter, system-ui, sans-serif" font-size="13" fill="#4b5563">Current development sprint &amp; active missions</text>
      
      <text x="72" y="94" font-family="Roboto Mono, monospace" font-size="11" fill="#6b7280">12 missions in progress</text>
      <text x="532" y="94" font-family="Roboto Mono, monospace" font-size="10" fill="#9ca3af" text-anchor="end">Updated 2m ago</text>
    </g>
    
    <g transform="translate(48, 240)">
      <rect x="0" y="0" width="564" height="116" rx="8" fill="#ffffff" stroke="#d5d4d0" stroke-width="1"/>
      <rect x="0" y="0" width="4" height="116" rx="2" fill="#97ea90"/>
      
      <rect x="20" y="34" width="36" height="36" rx="6" fill="#f0fdf4"/>
      <path d="M38 50l4 4 8-8" stroke="#22c55e" stroke-width="2" stroke-linecap="round" stroke-linejoin="round" fill="none"/>
      <path d="M54 46v14a2 2 0 01-2 2H32a2 2 0 01-2-2V42a2 2 0 012-2h14l8 6z" fill="none" stroke="#16a34a" stroke-width="1.5"/>
      
      <text x="72" y="46" font-family="Roboto Mono, monospace" font-size="11" font-weight="500" fill="#1f2937">ROADMAP_ACHIEVED.md</text>
      
      <rect x="452" y="32" width="80" height="24" rx="6" fill="#dcfce7"/>
      <text x="492" y="48" font-family="Inter, system-ui, sans-serif" font-size="11" font-weight="600" fill="#166534" text-anchor="middle">ARCHIVED</text>
      
      <text x="72" y="70" font-family="Inter, system-ui, sans-serif" font-size="13" fill="#4b5563">Completed milestones &amp; delivered features</text>
      
      <text x="72" y="94" font-family="Roboto Mono, monospace" font-size="11" fill="#6b7280">34 items archived</text>
      <text x="532" y="94" font-family="Roboto Mono, monospace" font-size="10" fill="#9ca3af" text-anchor="end">Last: Auth module</text>
    </g>
    
    <g transform="translate(48, 372)">
      <rect x="0" y="0" width="564" height="116" rx="8" fill="#ffffff" stroke="#d5d4d0" stroke-width="1"/>
      <rect x="0" y="0" width="4" height="116" rx="2" fill="#1258ca"/>
      
      <rect x="20" y="34" width="36" height="36" rx="6" fill="#eff6ff"/>
      <circle cx="44" cy="50" r="5" stroke="#3b82f6" stroke-width="2" fill="none"/>
      <path d="M48 54l3 3" stroke="#3b82f6" stroke-width="2" stroke-linecap="round"/>
      <path d="M54 46v14a2 2 0 01-2 2H32a2 2 0 01-2-2V42a2 2 0 012-2h14l8 6z" fill="none" stroke="#2563eb" stroke-width="1.5"/>
      
      <text x="72" y="46" font-family="Roboto Mono, monospace" font-size="11" font-weight="500" fill="#1f2937">ROADMAP_BACKLOG.md</text>
      
      <rect x="458" y="32" width="74" height="24" rx="6" fill="#dbeafe"/>
      <text x="495" y="48" font-family="Inter, system-ui, sans-serif" font-size="11" font-weight="600" fill="#1e40af" text-anchor="middle">QUEUED</text>
      
      <text x="72" y="70" font-family="Inter, system-ui, sans-serif" font-size="13" fill="#4b5563">Future phases &amp; experimental proposals</text>
      
      <text x="72" y="94" font-family="Roboto Mono, monospace" font-size="11" fill="#6b7280">8 proposals pending</text>
      <text x="532" y="94" font-family="Roboto Mono, monospace" font-size="10" fill="#9ca3af" text-anchor="end">Next: API v2</text>
    </g>
  </g>
</svg>