<svg viewBox="0 0 360 80" xmlns="http://www.w3.org/2000/svg">
  <defs>
    <filter id="cardShadow" x="-8" y="-8" width="376" height="96">
      <feDropShadow dx="0" dy="4" stdDeviation="8" flood-color="#000000" flood-opacity="0.08"/>
    </filter>
    <linearGradient id="btnGrad" x1="0" y1="0" x2="1" y2="0">
      <stop offset="0%" stop-color="#df1f29"/>
      <stop offset="100%" stop-color="#b51a26"/>
    </linearGradient>
  </defs>
  <rect x="0" y="0" width="360" height="80" rx="12" fill="#ffffff" filter="url(#cardShadow)"/>
  <text x="24" y="30" font-family="Plus Jakarta Sans, Inter, sans-serif" font-size="20" font-weight="700" fill="#151515">Résultats de l’analyse</text>
  <g id="btn">
    <rect x="224" y="20" width="112" height="40" rx="9999" fill="url(#btnGrad)"/>
    <text x="268" y="43" font-family="Inter, system-ui, sans-serif" font-size="14" font-weight="600" fill="#ffffff" text-anchor="middle">Régénérer</text>
    <path d="M244 34a8 8 0 1 0 0-4 6 6 0 0 1 6-6v2l4-3-4-3v2a8 8 0 1 0 0 8v-2l4 3-4 3v-2a6 6 0 0 1-6-6z" fill="#ffffff"/>
  </g>
</svg>