<?xml version="1.0" encoding="UTF-8"?>
<!-- AetherFlow Genome Scaffold v3 — App Wireframe (header+sidebar+main) -->
<svg xmlns="http://www.w3.org/2000/svg" width="1440" height="3932">
  <defs><style>text { font-family: -apple-system, Helvetica, Arial, sans-serif; }</style></defs>
<!-- Phase: Brainstorm -->
<g id="n0_brainstorm" class="af-phase" data-genome-id="n0_brainstorm" data-name="Brainstorm">
<rect x="0" y="0" width="1440" height="900" fill="#f7f6f2"/>
<rect x="0" y="0" width="1440" height="48" fill="#e8e7e3" stroke="#d5d4d0" stroke-width="1"/>
<rect x="40" y="10" width="28" height="28" fill="#3d3d3c" rx="4"/>
<text x="48" y="29" font-size="11" fill="#ffffff" text-anchor="start" font-weight="700" font-family="-apple-system, Helvetica, Arial, sans-serif">AF</text>
<rect x="84" y="13" width="51" height="22" fill="#3d3d3c" rx="11"/>
<text x="109" y="28" font-size="9" fill="#ffffff" text-anchor="middle" font-weight="600" font-family="-apple-system, Helvetica, Arial, sans-serif">BRS</text>
<rect x="143" y="13" width="51" height="22" fill="none" rx="11"/>
<text x="168" y="28" font-size="9" fill="#9d9c98" text-anchor="middle" font-weight="600" font-family="-apple-system, Helvetica, Arial, sans-serif">BKS</text>
<rect x="202" y="13" width="51" height="22" fill="none" rx="11"/>
<text x="227" y="28" font-size="9" fill="#9d9c98" text-anchor="middle" font-weight="600" font-family="-apple-system, Helvetica, Arial, sans-serif">FRD</text>
<rect x="261" y="13" width="51" height="22" fill="none" rx="11"/>
<text x="286" y="28" font-size="9" fill="#9d9c98" text-anchor="middle" font-weight="600" font-family="-apple-system, Helvetica, Arial, sans-serif">DPL</text>
<line x1="324" y1="14" x2="324" y2="34" stroke="#d5d4d0" stroke-width="1"/>
<circle cx="1384" cy="24" r="14" fill="#d5d4d0" stroke="#b5b4b0" stroke-width="1"/>
<text x="1384" y="28" font-size="7" fill="#3d3d3c" text-anchor="middle" font-weight="normal" font-family="-apple-system, Helvetica, Arial, sans-serif">FJD</text>
<rect x="40" y="48" width="188" height="852" fill="#f0efeb" stroke="#d5d4d0" stroke-width="1"/>
<text x="52" y="68" font-size="7" fill="#9d9c98" text-anchor="start" font-weight="600" font-family="-apple-system, Helvetica, Arial, sans-serif">BRAINSTORM</text>
<rect x="46" y="78" width="176" height="30" fill="#a8c5fc" rx="4"/>
<rect x="52" y="87" width="14" height="14" fill="#3d3d3c" rx="3"/>
<text x="72" y="99" font-size="9" fill="#3d3d3c" text-anchor="start" font-weight="normal" font-family="-apple-system, Helvetica, Arial, sans-serif">Intent Refactoring</text>
<rect x="52" y="123" width="14" height="14" fill="#d5d4d0" rx="3"/>
<text x="72" y="135" font-size="9" fill="#9d9c98" text-anchor="start" font-weight="normal" font-family="-apple-system, Helvetica, Arial, sans-serif">Arbitrage</text>
<g id="n1_ir" class="af-organ" data-genome-id="n1_ir" data-name="Workspace / Intent Refactoring" data-ui-role="main-content" data-ux-step="4">
<rect x="244" y="72" width="562" height="240" fill="#ffffff" stroke="#d5d4d0" stroke-width="1" rx="8"/>
<line x1="245" y1="96" x2="805" y2="96" stroke="#f0efeb" stroke-width="1"/>
<line x1="245" y1="120" x2="805" y2="120" stroke="#f0efeb" stroke-width="1"/>
<line x1="245" y1="144" x2="805" y2="144" stroke="#f0efeb" stroke-width="1"/>
<line x1="245" y1="168" x2="805" y2="168" stroke="#f0efeb" stroke-width="1"/>
<line x1="245" y1="192" x2="805" y2="192" stroke="#f0efeb" stroke-width="1"/>
<line x1="245" y1="216" x2="805" y2="216" stroke="#f0efeb" stroke-width="1"/>
<line x1="245" y1="240" x2="805" y2="240" stroke="#f0efeb" stroke-width="1"/>
<line x1="245" y1="264" x2="805" y2="264" stroke="#f0efeb" stroke-width="1"/>
<line x1="245" y1="288" x2="805" y2="288" stroke="#f0efeb" stroke-width="1"/>
<text x="256" y="92" font-size="7" fill="#b5b4b0" text-anchor="start" font-weight="600" font-family="-apple-system,Helvetica,Arial,sans-serif">CANVAS / EDITOR</text>
<rect x="260" y="104" width="530" height="192" fill="#f7f6f2" stroke="#9d9c98" stroke-width="1" rx="4" stroke-dasharray="4 4"/>
<text x="525" y="192" font-size="9" fill="#b5b4b0" text-anchor="middle" font-weight="normal" font-family="-apple-system,Helvetica,Arial,sans-serif">[ workspace ]</text>
</g>
<g id="n1_arbitrage" class="af-organ" data-genome-id="n1_arbitrage" data-name="Module / Arbitrage" data-ui-role="form-panel" data-ux-step="6">
<rect x="838" y="72" width="562" height="248" fill="#ffffff" stroke="#d5d4d0" stroke-width="1" rx="8"/>
<text x="850" y="94" font-size="7" fill="#b5b4b0" text-anchor="start" font-weight="600" font-family="-apple-system,Helvetica,Arial,sans-serif">FORMULAIRE</text>
<text x="854" y="122" font-size="8" fill="#9d9c98" text-anchor="start" font-weight="normal" font-family="-apple-system,Helvetica,Arial,sans-serif">Tableau Expert</text>
<rect x="854" y="126" width="530" height="28" fill="#f7f6f2" stroke="#d5d4d0" stroke-width="1" rx="4"/>
<line x1="862" y1="132" x2="862" y2="148" stroke="#a8c5fc" stroke-width="1.5"/>
<text x="868" y="144" font-size="8" fill="#b5b4b0" text-anchor="start" font-weight="normal" font-family="-apple-system,Helvetica,Arial,sans-serif">table</text>
<text x="854" y="174" font-size="8" fill="#9d9c98" text-anchor="start" font-weight="normal" font-family="-apple-system,Helvetica,Arial,sans-serif">Validation Arbitrage</text>
<rect x="854" y="178" width="530" height="28" fill="#f7f6f2" stroke="#d5d4d0" stroke-width="1" rx="4"/>
<text x="868" y="196" font-size="8" fill="#b5b4b0" text-anchor="start" font-weight="normal" font-family="-apple-system,Helvetica,Arial,sans-serif">form</text>
<text x="854" y="226" font-size="8" fill="#9d9c98" text-anchor="start" font-weight="normal" font-family="-apple-system,Helvetica,Arial,sans-serif">Carte Stencil</text>
<rect x="854" y="230" width="530" height="28" fill="#f7f6f2" stroke="#d5d4d0" stroke-width="1" rx="4"/>
<text x="868" y="248" font-size="8" fill="#b5b4b0" text-anchor="start" font-weight="normal" font-family="-apple-system,Helvetica,Arial,sans-serif">stencil-card</text>
<rect x="854" y="280" width="530" height="28" fill="#3d3d3c" stroke="#d5d4d0" stroke-width="1" rx="6"/>
<text x="1119" y="300" font-size="10" fill="#ffffff" text-anchor="middle" font-weight="600" font-family="-apple-system,Helvetica,Arial,sans-serif">Submit</text>
</g>
</g>
<!-- Phase: Backend -->
<g id="n0_backend" class="af-phase" data-genome-id="n0_backend" data-name="Backend">
<rect x="0" y="900" width="1440" height="900" fill="#f7f6f2"/>
<rect x="0" y="900" width="1440" height="48" fill="#e8e7e3" stroke="#d5d4d0" stroke-width="1"/>
<rect x="40" y="910" width="28" height="28" fill="#3d3d3c" rx="4"/>
<text x="48" y="929" font-size="11" fill="#ffffff" text-anchor="start" font-weight="700" font-family="-apple-system, Helvetica, Arial, sans-serif">AF</text>
<rect x="84" y="913" width="51" height="22" fill="none" rx="11"/>
<text x="109" y="928" font-size="9" fill="#9d9c98" text-anchor="middle" font-weight="600" font-family="-apple-system, Helvetica, Arial, sans-serif">BRS</text>
<rect x="143" y="913" width="51" height="22" fill="#3d3d3c" rx="11"/>
<text x="168" y="928" font-size="9" fill="#ffffff" text-anchor="middle" font-weight="600" font-family="-apple-system, Helvetica, Arial, sans-serif">BKS</text>
<rect x="202" y="913" width="51" height="22" fill="none" rx="11"/>
<text x="227" y="928" font-size="9" fill="#9d9c98" text-anchor="middle" font-weight="600" font-family="-apple-system, Helvetica, Arial, sans-serif">FRD</text>
<rect x="261" y="913" width="51" height="22" fill="none" rx="11"/>
<text x="286" y="928" font-size="9" fill="#9d9c98" text-anchor="middle" font-weight="600" font-family="-apple-system, Helvetica, Arial, sans-serif">DPL</text>
<line x1="324" y1="914" x2="324" y2="934" stroke="#d5d4d0" stroke-width="1"/>
<circle cx="1384" cy="924" r="14" fill="#d5d4d0" stroke="#b5b4b0" stroke-width="1"/>
<text x="1384" y="928" font-size="7" fill="#3d3d3c" text-anchor="middle" font-weight="normal" font-family="-apple-system, Helvetica, Arial, sans-serif">FJD</text>
<rect x="40" y="948" width="188" height="852" fill="#f0efeb" stroke="#d5d4d0" stroke-width="1"/>
<text x="52" y="968" font-size="7" fill="#9d9c98" text-anchor="start" font-weight="600" font-family="-apple-system, Helvetica, Arial, sans-serif">BACKEND</text>
<rect x="46" y="978" width="176" height="30" fill="#a8c5fc" rx="4"/>
<rect x="52" y="987" width="14" height="14" fill="#3d3d3c" rx="3"/>
<text x="72" y="999" font-size="9" fill="#3d3d3c" text-anchor="start" font-weight="normal" font-family="-apple-system, Helvetica, Arial, sans-serif">Session Management</text>
<g id="n1_session" class="af-organ" data-genome-id="n1_session" data-name="Module / Session Management" data-ui-role="dashboard" data-ux-step="5">
<rect x="244" y="972" width="562" height="236" fill="#f7f6f2" stroke="#d5d4d0" stroke-width="1" rx="8"/>
<text x="256" y="994" font-size="7" fill="#b5b4b0" text-anchor="start" font-weight="600" font-family="-apple-system,Helvetica,Arial,sans-serif">DASHBOARD</text>
<rect x="256" y="1008" width="171" height="64" fill="#ffffff" stroke="#d5d4d0" stroke-width="1" rx="6"/>
<text x="341" y="1044" font-size="18" fill="#3d3d3c" text-anchor="middle" font-weight="700" font-family="-apple-system,Helvetica,Arial,sans-serif">42</text>
<text x="341" y="1062" font-size="7" fill="#9d9c98" text-anchor="middle" font-weight="normal" font-family="-apple-system,Helvetica,Arial,sans-serif">Reset Sess</text>
<rect x="435" y="1008" width="171" height="64" fill="#ffffff" stroke="#d5d4d0" stroke-width="1" rx="6"/>
<text x="520" y="1044" font-size="18" fill="#3d3d3c" text-anchor="middle" font-weight="700" font-family="-apple-system,Helvetica,Arial,sans-serif">87%</text>
<text x="520" y="1062" font-size="7" fill="#9d9c98" text-anchor="middle" font-weight="normal" font-family="-apple-system,Helvetica,Arial,sans-serif">Résumé Gen</text>
<rect x="614" y="1008" width="171" height="64" fill="#ffffff" stroke="#d5d4d0" stroke-width="1" rx="6"/>
<text x="699" y="1044" font-size="18" fill="#3d3d3c" text-anchor="middle" font-weight="700" font-family="-apple-system,Helvetica,Arial,sans-serif">↑12</text>
<text x="699" y="1062" font-size="7" fill="#9d9c98" text-anchor="middle" font-weight="normal" font-family="-apple-system,Helvetica,Arial,sans-serif">Status Ses</text>
<rect x="256" y="1084" width="538" height="72" fill="#ffffff" stroke="#d5d4d0" stroke-width="1" rx="4" stroke-dasharray="4 4"/>
<rect x="268" y="1128" width="18" height="28" fill="#a8c5fc" stroke="#d5d4d0" stroke-width="1" rx="4"/>
<rect x="296" y="1112" width="18" height="44" fill="#a8c5fc" stroke="#d5d4d0" stroke-width="1" rx="4"/>
<rect x="324" y="1120" width="18" height="36" fill="#a8c5fc" stroke="#d5d4d0" stroke-width="1" rx="4"/>
<rect x="352" y="1104" width="18" height="52" fill="#a8c5fc" stroke="#d5d4d0" stroke-width="1" rx="4"/>
<rect x="380" y="1116" width="18" height="40" fill="#a8c5fc" stroke="#d5d4d0" stroke-width="1" rx="4"/>
<rect x="408" y="1100" width="18" height="56" fill="#a8c5fc" stroke="#d5d4d0" stroke-width="1" rx="4"/>
<text x="776" y="1152" font-size="7" fill="#b5b4b0" text-anchor="start" font-weight="normal" font-family="-apple-system,Helvetica,Arial,sans-serif">GRAPH</text>
</g>
</g>
<!-- Phase: Frontend -->
<g id="n0_frontend" class="af-phase" data-genome-id="n0_frontend" data-name="Frontend">
<rect x="0" y="1800" width="1440" height="1232" fill="#f7f6f2"/>
<rect x="0" y="1800" width="1440" height="48" fill="#e8e7e3" stroke="#d5d4d0" stroke-width="1"/>
<rect x="40" y="1810" width="28" height="28" fill="#3d3d3c" rx="4"/>
<text x="48" y="1829" font-size="11" fill="#ffffff" text-anchor="start" font-weight="700" font-family="-apple-system, Helvetica, Arial, sans-serif">AF</text>
<rect x="84" y="1813" width="51" height="22" fill="none" rx="11"/>
<text x="109" y="1828" font-size="9" fill="#9d9c98" text-anchor="middle" font-weight="600" font-family="-apple-system, Helvetica, Arial, sans-serif">BRS</text>
<rect x="143" y="1813" width="51" height="22" fill="none" rx="11"/>
<text x="168" y="1828" font-size="9" fill="#9d9c98" text-anchor="middle" font-weight="600" font-family="-apple-system, Helvetica, Arial, sans-serif">BKS</text>
<rect x="202" y="1813" width="51" height="22" fill="#3d3d3c" rx="11"/>
<text x="227" y="1828" font-size="9" fill="#ffffff" text-anchor="middle" font-weight="600" font-family="-apple-system, Helvetica, Arial, sans-serif">FRD</text>
<rect x="261" y="1813" width="51" height="22" fill="none" rx="11"/>
<text x="286" y="1828" font-size="9" fill="#9d9c98" text-anchor="middle" font-weight="600" font-family="-apple-system, Helvetica, Arial, sans-serif">DPL</text>
<line x1="324" y1="1814" x2="324" y2="1834" stroke="#d5d4d0" stroke-width="1"/>
<circle cx="1384" cy="1824" r="14" fill="#d5d4d0" stroke="#b5b4b0" stroke-width="1"/>
<text x="1384" y="1828" font-size="7" fill="#3d3d3c" text-anchor="middle" font-weight="normal" font-family="-apple-system, Helvetica, Arial, sans-serif">FJD</text>
<rect x="40" y="1848" width="188" height="1184" fill="#f0efeb" stroke="#d5d4d0" stroke-width="1"/>
<text x="52" y="1868" font-size="7" fill="#9d9c98" text-anchor="start" font-weight="600" font-family="-apple-system, Helvetica, Arial, sans-serif">FRONTEND</text>
<rect x="46" y="1878" width="176" height="30" fill="#a8c5fc" rx="4"/>
<rect x="52" y="1887" width="14" height="14" fill="#3d3d3c" rx="3"/>
<text x="72" y="1899" font-size="9" fill="#3d3d3c" text-anchor="start" font-weight="normal" font-family="-apple-system, Helvetica, Arial, sans-serif">Analyse PNG</text>
<rect x="52" y="1923" width="14" height="14" fill="#d5d4d0" rx="3"/>
<text x="72" y="1935" font-size="9" fill="#9d9c98" text-anchor="start" font-weight="normal" font-family="-apple-system, Helvetica, Arial, sans-serif">Adaptation / Zoom </text>
<rect x="52" y="1959" width="14" height="14" fill="#d5d4d0" rx="3"/>
<text x="72" y="1971" font-size="9" fill="#9d9c98" text-anchor="start" font-weight="normal" font-family="-apple-system, Helvetica, Arial, sans-serif">Layout Selection</text>
<rect x="52" y="1995" width="14" height="14" fill="#d5d4d0" rx="3"/>
<text x="72" y="2007" font-size="9" fill="#9d9c98" text-anchor="start" font-weight="normal" font-family="-apple-system, Helvetica, Arial, sans-serif">Validation Composa</text>
<rect x="52" y="2031" width="14" height="14" fill="#d5d4d0" rx="3"/>
<text x="72" y="2043" font-size="9" fill="#9d9c98" text-anchor="start" font-weight="normal" font-family="-apple-system, Helvetica, Arial, sans-serif">Upload Design</text>
<rect x="52" y="2067" width="14" height="14" fill="#d5d4d0" rx="3"/>
<text x="72" y="2079" font-size="9" fill="#9d9c98" text-anchor="start" font-weight="normal" font-family="-apple-system, Helvetica, Arial, sans-serif">Dialogue Utilisate</text>
<rect x="52" y="2103" width="14" height="14" fill="#d5d4d0" rx="3"/>
<text x="72" y="2115" font-size="9" fill="#9d9c98" text-anchor="start" font-weight="normal" font-family="-apple-system, Helvetica, Arial, sans-serif">Navigation</text>
<g id="n1_analysis" class="af-organ" data-genome-id="n1_analysis" data-name="Module / Analyse PNG" data-ui-role="main-canvas" data-ux-step="3">
<rect x="244" y="1872" width="562" height="240" fill="#ffffff" stroke="#d5d4d0" stroke-width="1" rx="8"/>
<line x1="245" y1="1896" x2="805" y2="1896" stroke="#f0efeb" stroke-width="1"/>
<line x1="245" y1="1920" x2="805" y2="1920" stroke="#f0efeb" stroke-width="1"/>
<line x1="245" y1="1944" x2="805" y2="1944" stroke="#f0efeb" stroke-width="1"/>
<line x1="245" y1="1968" x2="805" y2="1968" stroke="#f0efeb" stroke-width="1"/>
<line x1="245" y1="1992" x2="805" y2="1992" stroke="#f0efeb" stroke-width="1"/>
<line x1="245" y1="2016" x2="805" y2="2016" stroke="#f0efeb" stroke-width="1"/>
<line x1="245" y1="2040" x2="805" y2="2040" stroke="#f0efeb" stroke-width="1"/>
<line x1="245" y1="2064" x2="805" y2="2064" stroke="#f0efeb" stroke-width="1"/>
<line x1="245" y1="2088" x2="805" y2="2088" stroke="#f0efeb" stroke-width="1"/>
<text x="256" y="1892" font-size="7" fill="#b5b4b0" text-anchor="start" font-weight="600" font-family="-apple-system,Helvetica,Arial,sans-serif">CANVAS / EDITOR</text>
<rect x="260" y="1904" width="530" height="192" fill="#f7f6f2" stroke="#9d9c98" stroke-width="1" rx="4" stroke-dasharray="4 4"/>
<text x="525" y="1992" font-size="9" fill="#b5b4b0" text-anchor="middle" font-weight="normal" font-family="-apple-system,Helvetica,Arial,sans-serif">[ workspace ]</text>
</g>
<g id="n1_adaptation" class="af-organ" data-genome-id="n1_adaptation" data-name="Module / Adaptation / Zoom Atome" data-ui-role="main-canvas" data-ux-step="3">
<rect x="838" y="1872" width="562" height="264" fill="#ffffff" stroke="#d5d4d0" stroke-width="1" rx="8"/>
<line x1="839" y1="1896" x2="1399" y2="1896" stroke="#f0efeb" stroke-width="1"/>
<line x1="839" y1="1920" x2="1399" y2="1920" stroke="#f0efeb" stroke-width="1"/>
<line x1="839" y1="1944" x2="1399" y2="1944" stroke="#f0efeb" stroke-width="1"/>
<line x1="839" y1="1968" x2="1399" y2="1968" stroke="#f0efeb" stroke-width="1"/>
<line x1="839" y1="1992" x2="1399" y2="1992" stroke="#f0efeb" stroke-width="1"/>
<line x1="839" y1="2016" x2="1399" y2="2016" stroke="#f0efeb" stroke-width="1"/>
<line x1="839" y1="2040" x2="1399" y2="2040" stroke="#f0efeb" stroke-width="1"/>
<line x1="839" y1="2064" x2="1399" y2="2064" stroke="#f0efeb" stroke-width="1"/>
<line x1="839" y1="2088" x2="1399" y2="2088" stroke="#f0efeb" stroke-width="1"/>
<line x1="839" y1="2112" x2="1399" y2="2112" stroke="#f0efeb" stroke-width="1"/>
<text x="850" y="1892" font-size="7" fill="#b5b4b0" text-anchor="start" font-weight="600" font-family="-apple-system,Helvetica,Arial,sans-serif">CANVAS / EDITOR</text>
<rect x="854" y="1904" width="530" height="216" fill="#f7f6f2" stroke="#9d9c98" stroke-width="1" rx="4" stroke-dasharray="4 4"/>
<text x="1119" y="2004" font-size="9" fill="#b5b4b0" text-anchor="middle" font-weight="normal" font-family="-apple-system,Helvetica,Arial,sans-serif">[ workspace ]</text>
</g>
<g id="n1_layout" class="af-organ" data-genome-id="n1_layout" data-name="Workspace / Layout Selection" data-ui-role="main-content" data-ux-step="4">
<rect x="244" y="2168" width="562" height="240" fill="#ffffff" stroke="#d5d4d0" stroke-width="1" rx="8"/>
<line x1="245" y1="2192" x2="805" y2="2192" stroke="#f0efeb" stroke-width="1"/>
<line x1="245" y1="2216" x2="805" y2="2216" stroke="#f0efeb" stroke-width="1"/>
<line x1="245" y1="2240" x2="805" y2="2240" stroke="#f0efeb" stroke-width="1"/>
<line x1="245" y1="2264" x2="805" y2="2264" stroke="#f0efeb" stroke-width="1"/>
<line x1="245" y1="2288" x2="805" y2="2288" stroke="#f0efeb" stroke-width="1"/>
<line x1="245" y1="2312" x2="805" y2="2312" stroke="#f0efeb" stroke-width="1"/>
<line x1="245" y1="2336" x2="805" y2="2336" stroke="#f0efeb" stroke-width="1"/>
<line x1="245" y1="2360" x2="805" y2="2360" stroke="#f0efeb" stroke-width="1"/>
<line x1="245" y1="2384" x2="805" y2="2384" stroke="#f0efeb" stroke-width="1"/>
<text x="256" y="2188" font-size="7" fill="#b5b4b0" text-anchor="start" font-weight="600" font-family="-apple-system,Helvetica,Arial,sans-serif">CANVAS / EDITOR</text>
<rect x="260" y="2200" width="530" height="192" fill="#f7f6f2" stroke="#9d9c98" stroke-width="1" rx="4" stroke-dasharray="4 4"/>
<text x="525" y="2288" font-size="9" fill="#b5b4b0" text-anchor="middle" font-weight="normal" font-family="-apple-system,Helvetica,Arial,sans-serif">[ workspace ]</text>
</g>
<g id="n1_validation" class="af-organ" data-genome-id="n1_validation" data-name="Module / Validation Composants" data-ui-role="dashboard" data-ux-step="5">
<rect x="838" y="2168" width="562" height="236" fill="#f7f6f2" stroke="#d5d4d0" stroke-width="1" rx="8"/>
<text x="850" y="2190" font-size="7" fill="#b5b4b0" text-anchor="start" font-weight="600" font-family="-apple-system,Helvetica,Arial,sans-serif">DASHBOARD</text>
<rect x="850" y="2204" width="171" height="64" fill="#ffffff" stroke="#d5d4d0" stroke-width="1" rx="6"/>
<text x="935" y="2240" font-size="18" fill="#3d3d3c" text-anchor="middle" font-weight="700" font-family="-apple-system,Helvetica,Arial,sans-serif">42</text>
<text x="935" y="2258" font-size="7" fill="#9d9c98" text-anchor="middle" font-weight="normal" font-family="-apple-system,Helvetica,Arial,sans-serif">Dashboard </text>
<rect x="1029" y="2204" width="171" height="64" fill="#ffffff" stroke="#d5d4d0" stroke-width="1" rx="6"/>
<text x="1114" y="2240" font-size="18" fill="#3d3d3c" text-anchor="middle" font-weight="700" font-family="-apple-system,Helvetica,Arial,sans-serif">87%</text>
<text x="1114" y="2258" font-size="7" fill="#9d9c98" text-anchor="middle" font-weight="normal" font-family="-apple-system,Helvetica,Arial,sans-serif">Résumé Déc</text>
<rect x="1208" y="2204" width="171" height="64" fill="#ffffff" stroke="#d5d4d0" stroke-width="1" rx="6"/>
<text x="1293" y="2240" font-size="18" fill="#3d3d3c" text-anchor="middle" font-weight="700" font-family="-apple-system,Helvetica,Arial,sans-serif">↑12</text>
<text x="1293" y="2258" font-size="7" fill="#9d9c98" text-anchor="middle" font-weight="normal" font-family="-apple-system,Helvetica,Arial,sans-serif">Grille Ste</text>
<rect x="850" y="2280" width="538" height="72" fill="#ffffff" stroke="#d5d4d0" stroke-width="1" rx="4" stroke-dasharray="4 4"/>
<rect x="862" y="2324" width="18" height="28" fill="#a8c5fc" stroke="#d5d4d0" stroke-width="1" rx="4"/>
<rect x="890" y="2308" width="18" height="44" fill="#a8c5fc" stroke="#d5d4d0" stroke-width="1" rx="4"/>
<rect x="918" y="2316" width="18" height="36" fill="#a8c5fc" stroke="#d5d4d0" stroke-width="1" rx="4"/>
<rect x="946" y="2300" width="18" height="52" fill="#a8c5fc" stroke="#d5d4d0" stroke-width="1" rx="4"/>
<rect x="974" y="2312" width="18" height="40" fill="#a8c5fc" stroke="#d5d4d0" stroke-width="1" rx="4"/>
<rect x="1002" y="2296" width="18" height="56" fill="#a8c5fc" stroke="#d5d4d0" stroke-width="1" rx="4"/>
<text x="1370" y="2348" font-size="7" fill="#b5b4b0" text-anchor="start" font-weight="normal" font-family="-apple-system,Helvetica,Arial,sans-serif">GRAPH</text>
</g>
<g id="n1_upload" class="af-organ" data-genome-id="n1_upload" data-name="Module / Upload Design" data-ui-role="upload-zone" data-ux-step="7">
<rect x="244" y="2440" width="562" height="160" fill="#ffffff" stroke="#d5d4d0" stroke-width="1" rx="8"/>
<rect x="264" y="2456" width="522" height="128" fill="#f7f6f2" stroke="#9d9c98" stroke-width="1" rx="6" stroke-dasharray="6 4"/>
<circle cx="525" cy="2508" r="22" fill="#e8e7e3" stroke="#d5d4d0" stroke-width="1.5"/>
<text x="525" y="2498" font-size="14" fill="#9d9c98" text-anchor="middle" font-weight="normal" font-family="-apple-system,Helvetica,Arial,sans-serif">↑</text>
<text x="525" y="2540" font-size="11" fill="#3d3d3c" text-anchor="middle" font-weight="500" font-family="-apple-system,Helvetica,Arial,sans-serif">Drag &amp; drop</text>
<text x="525" y="2556" font-size="8" fill="#b5b4b0" text-anchor="middle" font-weight="normal" font-family="-apple-system,Helvetica,Arial,sans-serif">or click to browse</text>
</g>
<g id="n1_dialogue" class="af-organ" data-genome-id="n1_dialogue" data-name="Module / Dialogue Utilisateur" data-ui-role="chat-overlay" data-ux-step="8">
<rect x="838" y="2440" width="562" height="272" fill="#ffffff" stroke="#a8c5fc" stroke-width="2" rx="8"/>
<rect x="838" y="2440" width="562" height="38" fill="#e8e7e3" stroke="#d5d4d0" stroke-width="1" rx="8"/>
<text x="850" y="2464" font-size="8" fill="#3d3d3c" text-anchor="start" font-weight="600" font-family="-apple-system,Helvetica,Arial,sans-serif">ASSISTANT</text>
<rect x="1264" y="2490" width="120" height="30" fill="#a8c5fc" stroke="#d5d4d0" stroke-width="1" rx="12"/>
<text x="1324" y="2509" font-size="8" fill="#3d3d3c" text-anchor="middle" font-weight="normal" font-family="-apple-system,Helvetica,Arial,sans-serif">Bulles Conversat</text>
<rect x="850" y="2534" width="120" height="30" fill="#e8e7e3" stroke="#d5d4d0" stroke-width="1" rx="12"/>
<text x="910" y="2553" font-size="8" fill="#3d3d3c" text-anchor="middle" font-weight="normal" font-family="-apple-system,Helvetica,Arial,sans-serif">Input Message</text>
<rect x="1264" y="2578" width="120" height="30" fill="#a8c5fc" stroke="#d5d4d0" stroke-width="1" rx="12"/>
<text x="1324" y="2597" font-size="8" fill="#3d3d3c" text-anchor="middle" font-weight="normal" font-family="-apple-system,Helvetica,Arial,sans-serif">Réponse Question</text>
<rect x="850" y="2622" width="120" height="30" fill="#e8e7e3" stroke="#d5d4d0" stroke-width="1" rx="12"/>
<text x="910" y="2641" font-size="8" fill="#3d3d3c" text-anchor="middle" font-weight="normal" font-family="-apple-system,Helvetica,Arial,sans-serif">Passer Dialogue</text>
<rect x="850" y="2676" width="510" height="28" fill="#f7f6f2" stroke="#d5d4d0" stroke-width="1" rx="14"/>
<circle cx="1380" cy="2690" r="12" fill="#a8c5fc" stroke="none" stroke-width="1"/>
</g>
<g id="n1_navigation" class="af-organ" data-genome-id="n1_navigation" data-name="Module / Navigation" data-ui-role="onboarding-flow" data-ux-step="9">
<rect x="244" y="2744" width="562" height="248" fill="#ffffff" stroke="#d5d4d0" stroke-width="1" rx="8"/>
<text x="256" y="2766" font-size="7" fill="#b5b4b0" text-anchor="start" font-weight="600" font-family="-apple-system,Helvetica,Arial,sans-serif">FORMULAIRE</text>
<text x="260" y="2794" font-size="8" fill="#9d9c98" text-anchor="start" font-weight="normal" font-family="-apple-system,Helvetica,Arial,sans-serif">Stepper 9 Étapes</text>
<rect x="260" y="2798" width="530" height="28" fill="#f7f6f2" stroke="#d5d4d0" stroke-width="1" rx="4"/>
<line x1="268" y1="2804" x2="268" y2="2820" stroke="#a8c5fc" stroke-width="1.5"/>
<text x="274" y="2816" font-size="8" fill="#b5b4b0" text-anchor="start" font-weight="normal" font-family="-apple-system,Helvetica,Arial,sans-serif">stepper</text>
<text x="260" y="2846" font-size="8" fill="#9d9c98" text-anchor="start" font-weight="normal" font-family="-apple-system,Helvetica,Arial,sans-serif">Bouton Suivant</text>
<rect x="260" y="2850" width="530" height="28" fill="#f7f6f2" stroke="#d5d4d0" stroke-width="1" rx="4"/>
<text x="274" y="2868" font-size="8" fill="#b5b4b0" text-anchor="start" font-weight="normal" font-family="-apple-system,Helvetica,Arial,sans-serif">button</text>
<text x="260" y="2898" font-size="8" fill="#9d9c98" text-anchor="start" font-weight="normal" font-family="-apple-system,Helvetica,Arial,sans-serif">Fil d'Ariane</text>
<rect x="260" y="2902" width="530" height="28" fill="#f7f6f2" stroke="#d5d4d0" stroke-width="1" rx="4"/>
<text x="274" y="2920" font-size="8" fill="#b5b4b0" text-anchor="start" font-weight="normal" font-family="-apple-system,Helvetica,Arial,sans-serif">breadcrumb</text>
<rect x="260" y="2952" width="530" height="28" fill="#3d3d3c" stroke="#d5d4d0" stroke-width="1" rx="6"/>
<text x="525" y="2972" font-size="10" fill="#ffffff" text-anchor="middle" font-weight="600" font-family="-apple-system,Helvetica,Arial,sans-serif">Submit</text>
</g>
</g>
<!-- Phase: Deploy -->
<g id="n0_deploy" class="af-phase" data-genome-id="n0_deploy" data-name="Deploy">
<rect x="0" y="3032" width="1440" height="900" fill="#f7f6f2"/>
<rect x="0" y="3032" width="1440" height="48" fill="#e8e7e3" stroke="#d5d4d0" stroke-width="1"/>
<rect x="40" y="3042" width="28" height="28" fill="#3d3d3c" rx="4"/>
<text x="48" y="3061" font-size="11" fill="#ffffff" text-anchor="start" font-weight="700" font-family="-apple-system, Helvetica, Arial, sans-serif">AF</text>
<rect x="84" y="3045" width="51" height="22" fill="none" rx="11"/>
<text x="109" y="3060" font-size="9" fill="#9d9c98" text-anchor="middle" font-weight="600" font-family="-apple-system, Helvetica, Arial, sans-serif">BRS</text>
<rect x="143" y="3045" width="51" height="22" fill="none" rx="11"/>
<text x="168" y="3060" font-size="9" fill="#9d9c98" text-anchor="middle" font-weight="600" font-family="-apple-system, Helvetica, Arial, sans-serif">BKS</text>
<rect x="202" y="3045" width="51" height="22" fill="none" rx="11"/>
<text x="227" y="3060" font-size="9" fill="#9d9c98" text-anchor="middle" font-weight="600" font-family="-apple-system, Helvetica, Arial, sans-serif">FRD</text>
<rect x="261" y="3045" width="51" height="22" fill="#3d3d3c" rx="11"/>
<text x="286" y="3060" font-size="9" fill="#ffffff" text-anchor="middle" font-weight="600" font-family="-apple-system, Helvetica, Arial, sans-serif">DPL</text>
<line x1="324" y1="3046" x2="324" y2="3066" stroke="#d5d4d0" stroke-width="1"/>
<circle cx="1384" cy="3056" r="14" fill="#d5d4d0" stroke="#b5b4b0" stroke-width="1"/>
<text x="1384" y="3060" font-size="7" fill="#3d3d3c" text-anchor="middle" font-weight="normal" font-family="-apple-system, Helvetica, Arial, sans-serif">FJD</text>
<rect x="40" y="3080" width="188" height="852" fill="#f0efeb" stroke="#d5d4d0" stroke-width="1"/>
<text x="52" y="3100" font-size="7" fill="#9d9c98" text-anchor="start" font-weight="600" font-family="-apple-system, Helvetica, Arial, sans-serif">DEPLOY</text>
<rect x="46" y="3110" width="176" height="30" fill="#a8c5fc" rx="4"/>
<rect x="52" y="3119" width="14" height="14" fill="#3d3d3c" rx="3"/>
<text x="72" y="3131" font-size="9" fill="#3d3d3c" text-anchor="start" font-weight="normal" font-family="-apple-system, Helvetica, Arial, sans-serif">Export / Télécharg</text>
<g id="n1_export" class="af-organ" data-genome-id="n1_export" data-name="Module / Export / Téléchargement" data-ui-role="export-action" data-ux-step="13">
<rect x="244" y="3104" width="562" height="160" fill="#ffffff" stroke="#d5d4d0" stroke-width="1" rx="8"/>
<rect x="264" y="3120" width="522" height="128" fill="#f7f6f2" stroke="#9d9c98" stroke-width="1" rx="6" stroke-dasharray="6 4"/>
<circle cx="525" cy="3172" r="22" fill="#e8e7e3" stroke="#d5d4d0" stroke-width="1.5"/>
<text x="525" y="3162" font-size="14" fill="#9d9c98" text-anchor="middle" font-weight="normal" font-family="-apple-system,Helvetica,Arial,sans-serif">↑</text>
<text x="525" y="3204" font-size="11" fill="#3d3d3c" text-anchor="middle" font-weight="500" font-family="-apple-system,Helvetica,Arial,sans-serif">Drag &amp; drop</text>
<text x="525" y="3220" font-size="8" fill="#b5b4b0" text-anchor="middle" font-weight="normal" font-family="-apple-system,Helvetica,Arial,sans-serif">or click to browse</text>
</g>
</g>
</svg>