<svg viewBox="0 0 1000 600" xmlns="http://www.w3.org/2000/svg">
  <defs>
    <linearGradient id="gradS" x1="0" y1="0" x2="1" y2="1">
      <stop offset="0%" stop-color="#4f46e5"/>
      <stop offset="100%" stop-color="#7c3aed"/>
    </linearGradient>
    <linearGradient id="gradUser" x1="0" y1="0" x2="1" y2="1">
      <stop offset="0%" stop-color="#e5e7eb"/>
      <stop offset="100%" stop-color="#d1d5db"/>
    </linearGradient>
    <filter id="shadow" x="-20%" y="-20%" width="140%" height="140%">
      <feDropShadow dx="0" dy="4" stdDeviation="6" flood-color="#000" flood-opacity=".12"/>
    </filter>
  </defs>

  <!-- Bulles Conversation -->
  <g id="comp_chat_bubbles">
    <!-- Sullivan -->
    <rect x="80" y="60" width="420" height="90" rx="24" fill="url(#gradS)" filter="url(#shadow)"/>
    <text x="110" y="100" fill="#fff" font-size="18" font-family="Arial">Bonjour ! Je suis Sullivan, votre assistant.</text>
    <text x="110" y="125" fill="#fff" font-size="18" font-family="Arial">Quel est votre objectif principal aujourd’hui ?</text>

    <!-- User -->
    <rect x="500" y="170" width="420" height="60" rx="24" fill="url(#gradUser)" filter="url(#shadow)"/>
    <text x="530" y="205" fill="#111" font-size="18" font-family="Arial">Je souhaite créer un site vitrine pour mon entreprise.</text>

    <!-- Sullivan -->
    <rect x="80" y="250" width="420" height="60" rx="24" fill="url(#gradS)" filter="url(#shadow)"/>
    <text x="110" y="285" fill="#fff" font-size="18" font-family="Arial">Parfait ! Quel secteur d’activité ?</text>
  </g>

  <!-- Réponse Question -->
  <g id="comp_chat_answer">
    <rect x="80" y="340" width="280" height="90" rx="16" fill="#fff" stroke="#e5e7eb" stroke-width="2" filter="url(#shadow)"/>
    <text x="100" y="375" fill="#111" font-size="18" font-family="Arial">🛍️ Commerce / Retail</text>

    <rect x="380" y="340" width="280" height="90" rx="16" fill="#fff" stroke="#e5e7eb" stroke-width="2" filter="url(#shadow)"/>
    <text x="400" y="375" fill="#111" font-size="18" font-family="Arial">💼 Services B2B</text>

    <rect x="680" y="340" width="280" height="90" rx="16" fill="#fff" stroke="#e5e7eb" stroke-width="2" filter="url(#shadow)"/>
    <text x="700" y="375" fill="#111" font-size="18" font-family="Arial">🏢 Immobilier</text>
  </g>

  <!-- Input Message -->
  <g id="comp_chat_input">
    <rect x="80" y="460" width="720" height="70" rx="35" fill="#fff" stroke="#d1d5db" stroke-width="2" filter="url(#shadow)"/>
    <text x="110" y="500" fill="#9ca3af" font-size="18" font-family="Arial">Tapez votre message…</text>
    <circle cx="750" cy="495" r="25" fill="#4f46e5"/>
    <path d="M740 485 l20 10 -20 10 5 -10 z" fill="#fff"/>
    <text x="800" y="500" fill="#9ca3af" font-size="24" font-family="Arial">😊</text>
  </g>

  <!-- Passer Dialogue -->
  <g id="comp_chat_skip">
    <rect x="830" y="460" width="130" height="70" rx="35" fill="none" stroke="#9ca3af" stroke-width="2"/>
    <text x="880" y="500" fill="#4b5563" font-size="18" font-family="Arial" text-anchor="middle">Passer</text>
  </g>
</svg>