<svg viewBox="0 0 1000 600" xmlns="http://www.w3.org/2000/svg">
  <!-- Background -->
  <rect width="1000" height="600" fill="#f6f7f9"/>

  <!-- Header breadcrumb -->
  <g id="breadcrumb">
    <rect x="40" y="30" width="920" height="44" rx="8" fill="#ffffff" stroke="#e1e4e8" stroke-width="1"/>
    <text x="60" y="55" font-size="14" fill="#586069">Phase 3</text>
    <path d="M130 45h10m-5-4l5 4-5 4" stroke="#586069" stroke-width="2" fill="none"/>
    <text x="160" y="55" font-size="14" fill="#586069">Étape 5</text>
    <path d="M230 45h10m-5-4l5 4-5 4" stroke="#586069" stroke-width="2" fill="none"/>
    <text x="260" y="55" font-size="14" fill="#24292e" font-weight="600">Section</text>
  </g>

  <!-- 9-step horizontal stepper -->
  <g id="stepper">
    <!-- Stepper background card -->
    <rect x="40" y="110" width="920" height="100" rx="12" fill="#ffffff" stroke="#e1e4e8" stroke-width="1"/>
    
    <!-- Connector lines -->
    <line x1="130" y1="160" x2="210" y2="160" stroke="#28a745" stroke-width="2"/>
    <line x1="230" y1="160" x2="310" y2="160" stroke="#28a745" stroke-width="2"/>
    <line x1="330" y1="160" x2="410" y2="160" stroke="#28a745" stroke-width="2"/>
    <line x1="430" y1="160" x2="510" y2="160" stroke="#28a745" stroke-width="2"/>
    <line x1="530" y1="160" x2="610" y2="160" stroke="#28a745" stroke-width="2"/>
    <line x1="630" y1="160" x2="710" y2="160" stroke="#cbd5e0" stroke-width="2"/>
    <line x1="730" y1="160" x2="810" y2="160" stroke="#cbd5e0" stroke-width="2"/>
    <line x1="830" y1="160" x2="910" y2="160" stroke="#cbd5e0" stroke-width="2"/>

    <!-- Step 1 completed -->
    <circle cx="100" cy="160" r="18" fill="#28a745"/>
    <text x="100" y="165" text-anchor="middle" font-size="12" fill="#ffffff" font-weight="600">1</text>
    <text x="100" y="195" text-anchor="middle" font-size="12" fill="#586069">Brief</text>

    <!-- Step 2 completed -->
    <circle cx="220" cy="160" r="18" fill="#28a745"/>
    <text x="220" y="165" text-anchor="middle" font-size="12" fill="#ffffff" font-weight="600">2</text>
    <text x="220" y="195" text-anchor="middle" font-size="12" fill="#586069">Sitemap</text>

    <!-- Step 3 completed -->
    <circle cx="340" cy="160" r="18" fill="#28a745"/>
    <text x="340" y="165" text-anchor="middle" font-size="12" fill="#ffffff" font-weight="600">3</text>
    <text x="340" y="195" text-anchor="middle" font-size="12" fill="#586069">Wireframe</text>

    <!-- Step 4 completed -->
    <circle cx="460" cy="160" r="18" fill="#28a745"/>
    <text x="460" y="165" text-anchor="middle" font-size="12" fill="#ffffff" font-weight="600">4</text>
    <text x="460" y="195" text-anchor="middle" font-size="12" fill="#586069">Design</text>

    <!-- Step 5 active -->
    <circle cx="580" cy="160" r="18" fill="#0366d6" stroke="#ffffff" stroke-width="3"/>
    <text x="580" y="165" text-anchor="middle" font-size="12" fill="#ffffff" font-weight="600">5</text>
    <text x="580" y="195" text-anchor="middle" font-size="12" fill="#0366d6" font-weight="600">Content</text>

    <!-- Step 6 future -->
    <circle cx="700" cy="160" r="18" fill="#e1e4e8" stroke="#ffffff" stroke-width="3"/>
    <text x="700" y="165" text-anchor="middle" font-size="12" fill="#586069">6</text>
    <text x="700" y="195" text-anchor="middle" font-size="12" fill="#586069">Build</text>

    <!-- Step 7 future -->
    <circle cx="820" cy="160" r="18" fill="#e1e4e8" stroke="#ffffff" stroke-width="3"/>
    <text x="820" y="165" text-anchor="middle" font-size="12" fill="#586069">7</text>
    <text x="820" y="195" text-anchor="middle" font-size="12" fill="#586069">QA</text>

    <!-- Step 8 future -->
    <circle cx="940" cy="160" r="18" fill="#e1e4e8" stroke="#ffffff" stroke-width="3"/>
    <text x="940" y="165" text-anchor="middle" font-size="12" fill="#586069">8</text>
    <text x="940" y="195" text-anchor="middle" font-size="12" fill="#586069">Launch</text>
  </g>

  <!-- Next button -->
  <g id="next_button">
    <defs>
      <linearGradient id="btnGrad" x1="0" y1="0" x2="0" y2="1">
        <stop offset="0%" stop-color="#28a745"/>
        <stop offset="100%" stop-color="#218838"/>
      </linearGradient>
    </defs>
    <rect x="800" y="250" width="160" height="48" rx="24" fill="url(#btnGrad)"/>
    <text x="880" y="278" text-anchor="middle" font-size="15" fill="#ffffff" font-weight="600">Étape suivante</text>
    <path d="M910 265l6 6-6 6m-3-6h12" stroke="#ffffff" stroke-width="2" fill="none"/>
  </g>

  <!-- Helper text -->
  <text x="60" y="280" font-size="13" fill="#586069">Prérequis validés • Vous pouvez avancer</text>
</svg>