<?xml version="1.0" encoding="UTF-8"?>
<!-- AetherFlow Genome Scaffold v2 — Mission 21B Figma Bridge avec Zones -->
<!-- Convention: Les calques sont organisés en zones (header/sidebar/main/footer/floating) -->
<svg xmlns="http://www.w3.org/2000/svg" width="1440" height="3600">
  <defs><style>text { font-family: -apple-system, Helvetica, Arial, sans-serif; }</style></defs>
<!-- Phase: Brainstorm -->
<g id="n0_brainstorm" class="af-phase" data-genome-id="n0_brainstorm" data-name="Brainstorm">
<rect x="0" y="0" width="1440" height="900" fill="#fafaf8"/>
<text x="20" y="28" font-size="14" fill="#3d3d3c" text-anchor="start" font-weight="700" font-family="-apple-system, Helvetica, Arial, sans-serif">Phase : Brainstorm</text>
<g id="n1_ir" class="af-organ" data-genome-id="n1_ir" data-name="Workspace / Intent Refactoring" data-ui-role="main-content" data-ux-step="4">
<rect x="40" y="60" width="420" height="240" fill="#ffffff" stroke="#d5d4d0" stroke-width="1" rx="8"/>
<line x1="41" y1="84" x2="459" y2="84" stroke="#f0efeb" stroke-width="1"/>
<line x1="41" y1="108" x2="459" y2="108" stroke="#f0efeb" stroke-width="1"/>
<line x1="41" y1="132" x2="459" y2="132" stroke="#f0efeb" stroke-width="1"/>
<line x1="41" y1="156" x2="459" y2="156" stroke="#f0efeb" stroke-width="1"/>
<line x1="41" y1="180" x2="459" y2="180" stroke="#f0efeb" stroke-width="1"/>
<line x1="41" y1="204" x2="459" y2="204" stroke="#f0efeb" stroke-width="1"/>
<line x1="41" y1="228" x2="459" y2="228" stroke="#f0efeb" stroke-width="1"/>
<line x1="41" y1="252" x2="459" y2="252" stroke="#f0efeb" stroke-width="1"/>
<line x1="41" y1="276" x2="459" y2="276" stroke="#f0efeb" stroke-width="1"/>
<text x="52" y="80" font-size="7" fill="#b5b4b0" text-anchor="start" font-weight="600" font-family="-apple-system,Helvetica,Arial,sans-serif">CANVAS / EDITOR</text>
<rect x="56" y="92" width="388" height="192" fill="#f7f6f2" stroke="#9d9c98" stroke-width="1" rx="4" stroke-dasharray="4 4"/>
<text x="250" y="180" font-size="9" fill="#b5b4b0" text-anchor="middle" font-weight="normal" font-family="-apple-system,Helvetica,Arial,sans-serif">[ workspace ]</text>
</g>
<g id="n1_arbitrage" class="af-organ" data-genome-id="n1_arbitrage" data-name="Workspace / Arbitrage" data-ui-role="main-content" data-ux-step="4">
<rect x="500" y="60" width="420" height="240" fill="#ffffff" stroke="#d5d4d0" stroke-width="1" rx="8"/>
<line x1="501" y1="84" x2="919" y2="84" stroke="#f0efeb" stroke-width="1"/>
<line x1="501" y1="108" x2="919" y2="108" stroke="#f0efeb" stroke-width="1"/>
<line x1="501" y1="132" x2="919" y2="132" stroke="#f0efeb" stroke-width="1"/>
<line x1="501" y1="156" x2="919" y2="156" stroke="#f0efeb" stroke-width="1"/>
<line x1="501" y1="180" x2="919" y2="180" stroke="#f0efeb" stroke-width="1"/>
<line x1="501" y1="204" x2="919" y2="204" stroke="#f0efeb" stroke-width="1"/>
<line x1="501" y1="228" x2="919" y2="228" stroke="#f0efeb" stroke-width="1"/>
<line x1="501" y1="252" x2="919" y2="252" stroke="#f0efeb" stroke-width="1"/>
<line x1="501" y1="276" x2="919" y2="276" stroke="#f0efeb" stroke-width="1"/>
<text x="512" y="80" font-size="7" fill="#b5b4b0" text-anchor="start" font-weight="600" font-family="-apple-system,Helvetica,Arial,sans-serif">CANVAS / EDITOR</text>
<rect x="516" y="92" width="388" height="192" fill="#f7f6f2" stroke="#9d9c98" stroke-width="1" rx="4" stroke-dasharray="4 4"/>
<text x="710" y="180" font-size="9" fill="#b5b4b0" text-anchor="middle" font-weight="normal" font-family="-apple-system,Helvetica,Arial,sans-serif">[ workspace ]</text>
</g>
</g>
<!-- Phase: Backend -->
<g id="n0_backend" class="af-phase" data-genome-id="n0_backend" data-name="Backend">
<rect x="0" y="900" width="1440" height="900" fill="#fafaf8"/>
<text x="20" y="928" font-size="14" fill="#3d3d3c" text-anchor="start" font-weight="700" font-family="-apple-system, Helvetica, Arial, sans-serif">Phase : Backend</text>
<g id="n1_session" class="af-organ" data-genome-id="n1_session" data-name="Workspace / Session Management" data-ui-role="main-content" data-ux-step="4">
<rect x="40" y="960" width="420" height="240" fill="#ffffff" stroke="#d5d4d0" stroke-width="1" rx="8"/>
<line x1="41" y1="984" x2="459" y2="984" stroke="#f0efeb" stroke-width="1"/>
<line x1="41" y1="1008" x2="459" y2="1008" stroke="#f0efeb" stroke-width="1"/>
<line x1="41" y1="1032" x2="459" y2="1032" stroke="#f0efeb" stroke-width="1"/>
<line x1="41" y1="1056" x2="459" y2="1056" stroke="#f0efeb" stroke-width="1"/>
<line x1="41" y1="1080" x2="459" y2="1080" stroke="#f0efeb" stroke-width="1"/>
<line x1="41" y1="1104" x2="459" y2="1104" stroke="#f0efeb" stroke-width="1"/>
<line x1="41" y1="1128" x2="459" y2="1128" stroke="#f0efeb" stroke-width="1"/>
<line x1="41" y1="1152" x2="459" y2="1152" stroke="#f0efeb" stroke-width="1"/>
<line x1="41" y1="1176" x2="459" y2="1176" stroke="#f0efeb" stroke-width="1"/>
<text x="52" y="980" font-size="7" fill="#b5b4b0" text-anchor="start" font-weight="600" font-family="-apple-system,Helvetica,Arial,sans-serif">CANVAS / EDITOR</text>
<rect x="56" y="992" width="388" height="192" fill="#f7f6f2" stroke="#9d9c98" stroke-width="1" rx="4" stroke-dasharray="4 4"/>
<text x="250" y="1080" font-size="9" fill="#b5b4b0" text-anchor="middle" font-weight="normal" font-family="-apple-system,Helvetica,Arial,sans-serif">[ workspace ]</text>
</g>
</g>
<!-- Phase: Frontend -->
<g id="n0_frontend" class="af-phase" data-genome-id="n0_frontend" data-name="Frontend">
<rect x="0" y="1800" width="1440" height="900" fill="#fafaf8"/>
<text x="20" y="1828" font-size="14" fill="#3d3d3c" text-anchor="start" font-weight="700" font-family="-apple-system, Helvetica, Arial, sans-serif">Phase : Frontend</text>
<g id="n1_layout" class="af-organ" data-genome-id="n1_layout" data-name="Workspace / Layout Selection" data-ui-role="main-content" data-ux-step="4">
<rect x="40" y="1860" width="420" height="240" fill="#ffffff" stroke="#d5d4d0" stroke-width="1" rx="8"/>
<line x1="41" y1="1884" x2="459" y2="1884" stroke="#f0efeb" stroke-width="1"/>
<line x1="41" y1="1908" x2="459" y2="1908" stroke="#f0efeb" stroke-width="1"/>
<line x1="41" y1="1932" x2="459" y2="1932" stroke="#f0efeb" stroke-width="1"/>
<line x1="41" y1="1956" x2="459" y2="1956" stroke="#f0efeb" stroke-width="1"/>
<line x1="41" y1="1980" x2="459" y2="1980" stroke="#f0efeb" stroke-width="1"/>
<line x1="41" y1="2004" x2="459" y2="2004" stroke="#f0efeb" stroke-width="1"/>
<line x1="41" y1="2028" x2="459" y2="2028" stroke="#f0efeb" stroke-width="1"/>
<line x1="41" y1="2052" x2="459" y2="2052" stroke="#f0efeb" stroke-width="1"/>
<line x1="41" y1="2076" x2="459" y2="2076" stroke="#f0efeb" stroke-width="1"/>
<text x="52" y="1880" font-size="7" fill="#b5b4b0" text-anchor="start" font-weight="600" font-family="-apple-system,Helvetica,Arial,sans-serif">CANVAS / EDITOR</text>
<rect x="56" y="1892" width="388" height="192" fill="#f7f6f2" stroke="#9d9c98" stroke-width="1" rx="4" stroke-dasharray="4 4"/>
<text x="250" y="1980" font-size="9" fill="#b5b4b0" text-anchor="middle" font-weight="normal" font-family="-apple-system,Helvetica,Arial,sans-serif">[ workspace ]</text>
</g>
<g id="n1_upload" class="af-organ" data-genome-id="n1_upload" data-name="Workspace / Upload Design" data-ui-role="main-content" data-ux-step="4">
<rect x="500" y="1860" width="420" height="240" fill="#ffffff" stroke="#d5d4d0" stroke-width="1" rx="8"/>
<line x1="501" y1="1884" x2="919" y2="1884" stroke="#f0efeb" stroke-width="1"/>
<line x1="501" y1="1908" x2="919" y2="1908" stroke="#f0efeb" stroke-width="1"/>
<line x1="501" y1="1932" x2="919" y2="1932" stroke="#f0efeb" stroke-width="1"/>
<line x1="501" y1="1956" x2="919" y2="1956" stroke="#f0efeb" stroke-width="1"/>
<line x1="501" y1="1980" x2="919" y2="1980" stroke="#f0efeb" stroke-width="1"/>
<line x1="501" y1="2004" x2="919" y2="2004" stroke="#f0efeb" stroke-width="1"/>
<line x1="501" y1="2028" x2="919" y2="2028" stroke="#f0efeb" stroke-width="1"/>
<line x1="501" y1="2052" x2="919" y2="2052" stroke="#f0efeb" stroke-width="1"/>
<line x1="501" y1="2076" x2="919" y2="2076" stroke="#f0efeb" stroke-width="1"/>
<text x="512" y="1880" font-size="7" fill="#b5b4b0" text-anchor="start" font-weight="600" font-family="-apple-system,Helvetica,Arial,sans-serif">CANVAS / EDITOR</text>
<rect x="516" y="1892" width="388" height="192" fill="#f7f6f2" stroke="#9d9c98" stroke-width="1" rx="4" stroke-dasharray="4 4"/>
<text x="710" y="1980" font-size="9" fill="#b5b4b0" text-anchor="middle" font-weight="normal" font-family="-apple-system,Helvetica,Arial,sans-serif">[ workspace ]</text>
</g>
<g id="n1_analysis" class="af-organ" data-genome-id="n1_analysis" data-name="Workspace / Analyse PNG" data-ui-role="main-content" data-ux-step="4">
<rect x="960" y="1860" width="420" height="240" fill="#ffffff" stroke="#d5d4d0" stroke-width="1" rx="8"/>
<line x1="961" y1="1884" x2="1379" y2="1884" stroke="#f0efeb" stroke-width="1"/>
<line x1="961" y1="1908" x2="1379" y2="1908" stroke="#f0efeb" stroke-width="1"/>
<line x1="961" y1="1932" x2="1379" y2="1932" stroke="#f0efeb" stroke-width="1"/>
<line x1="961" y1="1956" x2="1379" y2="1956" stroke="#f0efeb" stroke-width="1"/>
<line x1="961" y1="1980" x2="1379" y2="1980" stroke="#f0efeb" stroke-width="1"/>
<line x1="961" y1="2004" x2="1379" y2="2004" stroke="#f0efeb" stroke-width="1"/>
<line x1="961" y1="2028" x2="1379" y2="2028" stroke="#f0efeb" stroke-width="1"/>
<line x1="961" y1="2052" x2="1379" y2="2052" stroke="#f0efeb" stroke-width="1"/>
<line x1="961" y1="2076" x2="1379" y2="2076" stroke="#f0efeb" stroke-width="1"/>
<text x="972" y="1880" font-size="7" fill="#b5b4b0" text-anchor="start" font-weight="600" font-family="-apple-system,Helvetica,Arial,sans-serif">CANVAS / EDITOR</text>
<rect x="976" y="1892" width="388" height="192" fill="#f7f6f2" stroke="#9d9c98" stroke-width="1" rx="4" stroke-dasharray="4 4"/>
<text x="1170" y="1980" font-size="9" fill="#b5b4b0" text-anchor="middle" font-weight="normal" font-family="-apple-system,Helvetica,Arial,sans-serif">[ workspace ]</text>
</g>
<g id="n1_dialogue" class="af-organ" data-genome-id="n1_dialogue" data-name="Workspace / Dialogue Utilisateur" data-ui-role="main-content" data-ux-step="4">
<rect x="40" y="2140" width="420" height="240" fill="#ffffff" stroke="#d5d4d0" stroke-width="1" rx="8"/>
<line x1="41" y1="2164" x2="459" y2="2164" stroke="#f0efeb" stroke-width="1"/>
<line x1="41" y1="2188" x2="459" y2="2188" stroke="#f0efeb" stroke-width="1"/>
<line x1="41" y1="2212" x2="459" y2="2212" stroke="#f0efeb" stroke-width="1"/>
<line x1="41" y1="2236" x2="459" y2="2236" stroke="#f0efeb" stroke-width="1"/>
<line x1="41" y1="2260" x2="459" y2="2260" stroke="#f0efeb" stroke-width="1"/>
<line x1="41" y1="2284" x2="459" y2="2284" stroke="#f0efeb" stroke-width="1"/>
<line x1="41" y1="2308" x2="459" y2="2308" stroke="#f0efeb" stroke-width="1"/>
<line x1="41" y1="2332" x2="459" y2="2332" stroke="#f0efeb" stroke-width="1"/>
<line x1="41" y1="2356" x2="459" y2="2356" stroke="#f0efeb" stroke-width="1"/>
<text x="52" y="2160" font-size="7" fill="#b5b4b0" text-anchor="start" font-weight="600" font-family="-apple-system,Helvetica,Arial,sans-serif">CANVAS / EDITOR</text>
<rect x="56" y="2172" width="388" height="192" fill="#f7f6f2" stroke="#9d9c98" stroke-width="1" rx="4" stroke-dasharray="4 4"/>
<text x="250" y="2260" font-size="9" fill="#b5b4b0" text-anchor="middle" font-weight="normal" font-family="-apple-system,Helvetica,Arial,sans-serif">[ workspace ]</text>
</g>
<g id="n1_adaptation" class="af-organ" data-genome-id="n1_adaptation" data-name="Workspace / Adaptation / Zoom Atome" data-ui-role="main-content" data-ux-step="4">
<rect x="500" y="2140" width="420" height="264" fill="#ffffff" stroke="#d5d4d0" stroke-width="1" rx="8"/>
<line x1="501" y1="2164" x2="919" y2="2164" stroke="#f0efeb" stroke-width="1"/>
<line x1="501" y1="2188" x2="919" y2="2188" stroke="#f0efeb" stroke-width="1"/>
<line x1="501" y1="2212" x2="919" y2="2212" stroke="#f0efeb" stroke-width="1"/>
<line x1="501" y1="2236" x2="919" y2="2236" stroke="#f0efeb" stroke-width="1"/>
<line x1="501" y1="2260" x2="919" y2="2260" stroke="#f0efeb" stroke-width="1"/>
<line x1="501" y1="2284" x2="919" y2="2284" stroke="#f0efeb" stroke-width="1"/>
<line x1="501" y1="2308" x2="919" y2="2308" stroke="#f0efeb" stroke-width="1"/>
<line x1="501" y1="2332" x2="919" y2="2332" stroke="#f0efeb" stroke-width="1"/>
<line x1="501" y1="2356" x2="919" y2="2356" stroke="#f0efeb" stroke-width="1"/>
<line x1="501" y1="2380" x2="919" y2="2380" stroke="#f0efeb" stroke-width="1"/>
<text x="512" y="2160" font-size="7" fill="#b5b4b0" text-anchor="start" font-weight="600" font-family="-apple-system,Helvetica,Arial,sans-serif">CANVAS / EDITOR</text>
<rect x="516" y="2172" width="388" height="216" fill="#f7f6f2" stroke="#9d9c98" stroke-width="1" rx="4" stroke-dasharray="4 4"/>
<text x="710" y="2272" font-size="9" fill="#b5b4b0" text-anchor="middle" font-weight="normal" font-family="-apple-system,Helvetica,Arial,sans-serif">[ workspace ]</text>
</g>
<g id="n1_validation" class="af-organ" data-genome-id="n1_validation" data-name="Module / Validation Composants" data-ui-role="dashboard" data-ux-step="5">
<rect x="960" y="2140" width="420" height="236" fill="#f7f6f2" stroke="#d5d4d0" stroke-width="1" rx="8"/>
<text x="972" y="2162" font-size="7" fill="#b5b4b0" text-anchor="start" font-weight="600" font-family="-apple-system,Helvetica,Arial,sans-serif">DASHBOARD</text>
<rect x="972" y="2176" width="124" height="64" fill="#ffffff" stroke="#d5d4d0" stroke-width="1" rx="6"/>
<text x="1034" y="2212" font-size="18" fill="#3d3d3c" text-anchor="middle" font-weight="700" font-family="-apple-system,Helvetica,Arial,sans-serif">42</text>
<text x="1034" y="2230" font-size="7" fill="#9d9c98" text-anchor="middle" font-weight="normal" font-family="-apple-system,Helvetica,Arial,sans-serif">Dashboard </text>
<rect x="1104" y="2176" width="124" height="64" fill="#ffffff" stroke="#d5d4d0" stroke-width="1" rx="6"/>
<text x="1166" y="2212" font-size="18" fill="#3d3d3c" text-anchor="middle" font-weight="700" font-family="-apple-system,Helvetica,Arial,sans-serif">87%</text>
<text x="1166" y="2230" font-size="7" fill="#9d9c98" text-anchor="middle" font-weight="normal" font-family="-apple-system,Helvetica,Arial,sans-serif">Résumé Déc</text>
<rect x="1236" y="2176" width="124" height="64" fill="#ffffff" stroke="#d5d4d0" stroke-width="1" rx="6"/>
<text x="1298" y="2212" font-size="18" fill="#3d3d3c" text-anchor="middle" font-weight="700" font-family="-apple-system,Helvetica,Arial,sans-serif">↑12</text>
<text x="1298" y="2230" font-size="7" fill="#9d9c98" text-anchor="middle" font-weight="normal" font-family="-apple-system,Helvetica,Arial,sans-serif">Grille Ste</text>
<rect x="972" y="2252" width="396" height="72" fill="#ffffff" stroke="#d5d4d0" stroke-width="1" rx="4" stroke-dasharray="4 4"/>
<rect x="984" y="2296" width="18" height="28" fill="#a8c5fc" stroke="#d5d4d0" stroke-width="1" rx="4"/>
<rect x="1012" y="2280" width="18" height="44" fill="#a8c5fc" stroke="#d5d4d0" stroke-width="1" rx="4"/>
<rect x="1040" y="2288" width="18" height="36" fill="#a8c5fc" stroke="#d5d4d0" stroke-width="1" rx="4"/>
<rect x="1068" y="2272" width="18" height="52" fill="#a8c5fc" stroke="#d5d4d0" stroke-width="1" rx="4"/>
<rect x="1096" y="2284" width="18" height="40" fill="#a8c5fc" stroke="#d5d4d0" stroke-width="1" rx="4"/>
<rect x="1124" y="2268" width="18" height="56" fill="#a8c5fc" stroke="#d5d4d0" stroke-width="1" rx="4"/>
<text x="1350" y="2320" font-size="7" fill="#b5b4b0" text-anchor="start" font-weight="normal" font-family="-apple-system,Helvetica,Arial,sans-serif">GRAPH</text>
</g>
<g id="n1_navigation" class="af-organ" data-genome-id="n1_navigation" data-name="Module / Navigation" data-ui-role="onboarding-flow" data-ux-step="9">
<rect x="40" y="2416" width="420" height="248" fill="#ffffff" stroke="#d5d4d0" stroke-width="1" rx="8"/>
<text x="52" y="2438" font-size="7" fill="#b5b4b0" text-anchor="start" font-weight="600" font-family="-apple-system,Helvetica,Arial,sans-serif">FORMULAIRE</text>
<text x="56" y="2466" font-size="8" fill="#9d9c98" text-anchor="start" font-weight="normal" font-family="-apple-system,Helvetica,Arial,sans-serif">Stepper 9 Étapes</text>
<rect x="56" y="2470" width="388" height="28" fill="#f7f6f2" stroke="#d5d4d0" stroke-width="1" rx="4"/>
<line x1="64" y1="2476" x2="64" y2="2492" stroke="#a8c5fc" stroke-width="1.5"/>
<text x="70" y="2488" font-size="8" fill="#b5b4b0" text-anchor="start" font-weight="normal" font-family="-apple-system,Helvetica,Arial,sans-serif">stepper</text>
<text x="56" y="2518" font-size="8" fill="#9d9c98" text-anchor="start" font-weight="normal" font-family="-apple-system,Helvetica,Arial,sans-serif">Bouton Suivant</text>
<rect x="56" y="2522" width="388" height="28" fill="#f7f6f2" stroke="#d5d4d0" stroke-width="1" rx="4"/>
<text x="70" y="2540" font-size="8" fill="#b5b4b0" text-anchor="start" font-weight="normal" font-family="-apple-system,Helvetica,Arial,sans-serif">button</text>
<text x="56" y="2570" font-size="8" fill="#9d9c98" text-anchor="start" font-weight="normal" font-family="-apple-system,Helvetica,Arial,sans-serif">Fil d'Ariane</text>
<rect x="56" y="2574" width="388" height="28" fill="#f7f6f2" stroke="#d5d4d0" stroke-width="1" rx="4"/>
<text x="70" y="2592" font-size="8" fill="#b5b4b0" text-anchor="start" font-weight="normal" font-family="-apple-system,Helvetica,Arial,sans-serif">breadcrumb</text>
<rect x="56" y="2624" width="388" height="28" fill="#3d3d3c" stroke="#d5d4d0" stroke-width="1" rx="6"/>
<text x="250" y="2644" font-size="10" fill="#ffffff" text-anchor="middle" font-weight="600" font-family="-apple-system,Helvetica,Arial,sans-serif">Submit</text>
</g>
</g>
<!-- Phase: Deploy -->
<g id="n0_deploy" class="af-phase" data-genome-id="n0_deploy" data-name="Deploy">
<rect x="0" y="2700" width="1440" height="900" fill="#fafaf8"/>
<text x="20" y="2728" font-size="14" fill="#3d3d3c" text-anchor="start" font-weight="700" font-family="-apple-system, Helvetica, Arial, sans-serif">Phase : Deploy</text>
<g id="n1_export" class="af-organ" data-genome-id="n1_export" data-name="Workspace / Export / Téléchargement" data-ui-role="main-content" data-ux-step="4">
<rect x="40" y="2760" width="420" height="240" fill="#ffffff" stroke="#d5d4d0" stroke-width="1" rx="8"/>
<line x1="41" y1="2784" x2="459" y2="2784" stroke="#f0efeb" stroke-width="1"/>
<line x1="41" y1="2808" x2="459" y2="2808" stroke="#f0efeb" stroke-width="1"/>
<line x1="41" y1="2832" x2="459" y2="2832" stroke="#f0efeb" stroke-width="1"/>
<line x1="41" y1="2856" x2="459" y2="2856" stroke="#f0efeb" stroke-width="1"/>
<line x1="41" y1="2880" x2="459" y2="2880" stroke="#f0efeb" stroke-width="1"/>
<line x1="41" y1="2904" x2="459" y2="2904" stroke="#f0efeb" stroke-width="1"/>
<line x1="41" y1="2928" x2="459" y2="2928" stroke="#f0efeb" stroke-width="1"/>
<line x1="41" y1="2952" x2="459" y2="2952" stroke="#f0efeb" stroke-width="1"/>
<line x1="41" y1="2976" x2="459" y2="2976" stroke="#f0efeb" stroke-width="1"/>
<text x="52" y="2780" font-size="7" fill="#b5b4b0" text-anchor="start" font-weight="600" font-family="-apple-system,Helvetica,Arial,sans-serif">CANVAS / EDITOR</text>
<rect x="56" y="2792" width="388" height="192" fill="#f7f6f2" stroke="#9d9c98" stroke-width="1" rx="4" stroke-dasharray="4 4"/>
<text x="250" y="2880" font-size="9" fill="#b5b4b0" text-anchor="middle" font-weight="normal" font-family="-apple-system,Helvetica,Arial,sans-serif">[ workspace ]</text>
</g>
</g>
</svg>